<svg xmlns="http://www.w3.org/2000/svg" width="30" height="30" viewBox="0 0 30 30"><defs><style>.a{fill:#fff;}.b{fill:#4285f4;}.c{fill:#34a853;}.d{fill:#188038;}.e{fill:#fbbc04;}.f{fill:#1967d2;}.g{fill:#ea4335;}</style></defs><g transform="translate(-713 -560)"><path class="a" d="M219.342,56H204V71.342h15.342Z" transform="translate(516.329 511.329)"/><path class="b" d="M210.37,73.5a3.148,3.148,0,0,1-1.26-1.806l1.413-.582a2.145,2.145,0,0,0,.672,1.136,1.731,1.731,0,0,0,1.156.4,1.783,1.783,0,0,0,1.191-.421,1.346,1.346,0,0,0,.5-1.073,1.331,1.331,0,0,0-.525-1.087,2.037,2.037,0,0,0-1.315-.421h-.816v-1.4h.733a1.786,1.786,0,0,0,1.142-.366,1.208,1.208,0,0,0,.464-1,1.109,1.109,0,0,0-.415-.906,1.61,1.61,0,0,0-1.053-.34,1.415,1.415,0,0,0-.989.332,1.948,1.948,0,0,0-.533.816l-1.4-.582a3.105,3.105,0,0,1,1.024-1.391,2.953,2.953,0,0,1,1.91-.6,3.483,3.483,0,0,1,1.543.332,2.64,2.64,0,0,1,1.073.92,2.349,2.349,0,0,1,.387,1.321,2.164,2.164,0,0,1-.36,1.266,2.483,2.483,0,0,1-.886.8v.083a2.689,2.689,0,0,1,1.136.886,2.321,2.321,0,0,1,.444,1.425,2.667,2.667,0,0,1-.421,1.482,2.919,2.919,0,0,1-1.162,1.024,3.665,3.665,0,0,1-1.667.375,3.451,3.451,0,0,1-1.983-.615Zm8.679-7.012L217.5,67.606l-.776-1.177,2.783-2.007h1.067v9.469h-1.523Z" transform="translate(512.843 505.989)"/><path class="c" d="M219.342,96H204v7.329h15.342Z" transform="translate(516.329 486.671)"/><path class="b" d="M209.616,38H188.443A2.442,2.442,0,0,0,186,40.443V61.616h7.329V45.329h16.287Z" transform="translate(527 522)"/><path class="d" d="M186,96v4.886a2.442,2.442,0,0,0,2.443,2.443h4.886V96Z" transform="translate(527 486.671)"/><path class="e" d="M251.329,56H244V71.342h7.329Z" transform="translate(491.671 511.329)"/><path class="f" d="M251.329,45.329V40.443A2.442,2.442,0,0,0,248.886,38H244v7.329Z" transform="translate(491.671 522)"/><path class="g" d="M244,103.329,251.329,96H244Z" transform="translate(491.671 486.671)"/></g></svg>