<svg xmlns="http://www.w3.org/2000/svg" xmlns:xlink="http://www.w3.org/1999/xlink" width="54" height="54" viewBox="0 0 54 54"><defs><style>.a{fill:url(#a);}.b{fill:#fff;}</style><linearGradient id="a" x1="0.142" y1="0.901" x2="0.925" y2="0.024" gradientUnits="objectBoundingBox"><stop offset="0" stop-color="#fd5"/><stop offset="0.386" stop-color="#ff543e"/><stop offset="0.897" stop-color="#c837ab"/></linearGradient></defs><g transform="translate(207.877 -194.45)"><circle class="a" cx="27" cy="27" r="27" transform="translate(-207.877 194.45)"/><path class="b" d="M-180.535,209.179c4.067,0,4.553,0,6.161.09a8.273,8.273,0,0,1,2.831.525,5.069,5.069,0,0,1,2.888,2.888,8.263,8.263,0,0,1,.525,2.83c.077,1.607.09,2.094.09,6.161s0,4.553-.09,6.161a8.273,8.273,0,0,1-.525,2.831,5.069,5.069,0,0,1-2.888,2.888,8.273,8.273,0,0,1-2.831.525c-1.607.077-2.088.09-6.161.09s-4.553,0-6.161-.09a8.273,8.273,0,0,1-2.831-.525,5.07,5.07,0,0,1-2.856-2.895,8.274,8.274,0,0,1-.525-2.831c-.077-1.607-.09-2.094-.09-6.161s0-4.553.09-6.161a8.274,8.274,0,0,1,.525-2.831,5.065,5.065,0,0,1,2.856-2.856,8.274,8.274,0,0,1,2.831-.525c1.607-.077,2.094-.09,6.161-.09m0-2.747c-4.137,0-4.656,0-6.282.09a11.193,11.193,0,0,0-3.7.711A7.744,7.744,0,0,0-195,211.74a11.193,11.193,0,0,0-.711,3.7c-.07,1.627-.09,2.145-.09,6.282s0,4.656.09,6.282a11.191,11.191,0,0,0,.768,3.644,7.752,7.752,0,0,0,4.483,4.483,11.219,11.219,0,0,0,3.7.711c1.627.07,2.145.09,6.282.09s4.656,0,6.282-.09a11.219,11.219,0,0,0,3.7-.711,7.752,7.752,0,0,0,4.483-4.483,11.193,11.193,0,0,0,.711-3.7c.07-1.627.09-2.145.09-6.282s0-4.656-.09-6.282a11.193,11.193,0,0,0-.711-3.7A7.744,7.744,0,0,0-170.5,207.2a11.193,11.193,0,0,0-3.7-.711c-1.627-.07-2.145-.09-6.282-.09Z"/><path class="b" d="M-180.537,213.841a7.826,7.826,0,0,0-7.826,7.826,7.826,7.826,0,0,0,7.826,7.826,7.825,7.825,0,0,0,7.826-7.824v0a7.824,7.824,0,0,0-7.824-7.826Zm0,12.9a5.079,5.079,0,0,1-5.078-5.078h0a5.078,5.078,0,0,1,5.078-5.078h0a5.077,5.077,0,0,1,5.078,5.078h0a5.079,5.079,0,0,1-5.074,5.082h0Z"/><circle class="b" cx="1.832" cy="1.832" r="1.832" transform="translate(-174.236 211.702)"/></g></svg>