<svg xmlns="http://www.w3.org/2000/svg" width="37" height="38" viewBox="0 0 37 38"><defs><style>.a{fill:#69abe8;}.b{fill:#fff;}</style></defs><g transform="translate(0.454 0.148)"><ellipse class="a" cx="18.5" cy="19" rx="18.5" ry="19" transform="translate(-0.454 -0.148)"/><path class="b" d="M-327,734.48a8.729,8.729,0,0,1-2.467.677,4.293,4.293,0,0,0,1.887-2.379,8.562,8.562,0,0,1-2.727,1.042,4.3,4.3,0,0,0-6.073-.189,4.3,4.3,0,0,0-1.355,3.127,4.547,4.547,0,0,0,.11.981,12.221,12.221,0,0,1-8.857-4.464,4.3,4.3,0,0,0,1.319,5.717,4.311,4.311,0,0,1-1.948-.536v.057a4.3,4.3,0,0,0,3.448,4.209,4.379,4.379,0,0,1-1.94.075,4.294,4.294,0,0,0,4.011,2.982,8.621,8.621,0,0,1-5.33,1.829,8.759,8.759,0,0,1-1.025-.062,12.122,12.122,0,0,0,6.6,1.931A12.127,12.127,0,0,0-329.13,737.26V736.7A8.724,8.724,0,0,0-327,734.48Z" transform="translate(355.983 -721.758)"/></g></svg>