<svg xmlns="http://www.w3.org/2000/svg" width="38" height="38" viewBox="0 0 38 38"><defs><style>.a{fill:#01e675;}.b,.c{fill:#fff;}.c{fill-rule:evenodd;}</style></defs><g transform="translate(0.006 0.148)"><circle class="a" cx="19" cy="19" r="19" transform="translate(-0.006 -0.148)"/><g transform="translate(8.269 8.7)"><path class="b" d="M-768.63,741.43l1.478-5.4a10.423,10.423,0,0,1,3.829-14.234,10.423,10.423,0,0,1,14.234,3.829,10.423,10.423,0,0,1-3.829,14.234,10.426,10.426,0,0,1-5.2,1.391h0a10.413,10.413,0,0,1-4.983-1.267Zm5.783-3.334.317.185a8.618,8.618,0,0,0,4.4,1.209h0a8.664,8.664,0,0,0,8.664-8.664,8.664,8.664,0,0,0-2.538-6.126,8.575,8.575,0,0,0-6.122-2.542,8.668,8.668,0,0,0-8.669,8.668,8.671,8.671,0,0,0,1.324,4.605l.207.325-.88,3.2Z" transform="translate(768.63 -720.402)"/><path class="c" d="M-746.168,740.5c-.066-.11-.238-.176-.5-.3s-1.544-.761-1.759-.849-.413-.132-.585.132-.673.844-.827,1.02-.3.194-.563.066a7.135,7.135,0,0,1-2.093-1.293,7.966,7.966,0,0,1-1.451-1.8.378.378,0,0,1,.1-.525l.011-.007c.119-.119.26-.3.391-.44a1.909,1.909,0,0,0,.259-.44.474.474,0,0,0,0-.44c-.066-.128-.585-1.412-.8-1.931s-.44-.44-.589-.44h-.5a.953.953,0,0,0-.695.325,2.928,2.928,0,0,0-.91,2.172,5.1,5.1,0,0,0,1.06,2.7,11.6,11.6,0,0,0,4.451,3.932,15.811,15.811,0,0,0,1.487.55,3.59,3.59,0,0,0,1.64.1,2.69,2.69,0,0,0,1.759-1.236A2.155,2.155,0,0,0-746.168,740.5Z" transform="translate(761.93 -727.597)"/></g></g></svg>