<svg xmlns="http://www.w3.org/2000/svg" width="128.827" height="56.901" viewBox="0 0 128.827 56.901"><defs><style>.a{fill:#fff;}</style></defs><g transform="translate(-867.836 -327.559)"><path class="a" d="M871.758,363.218h1.123l2.755-2.637h-2.342Z" transform="translate(0.9 7.582)"/><path class="a" d="M873.111,363.494c-2.6,0-4.7,1.929-5.175,4.9v.021c-.532,3.267,1.121,4.959,4.015,4.959a4.968,4.968,0,0,0,3.386-1l.156-1.062a6.571,6.571,0,0,1-3.149.769c-2.085,0-3.108-.847-2.795-3.249H876a5.774,5.774,0,0,0,.355-1.358C876.694,365.423,875.925,363.494,873.111,363.494Zm1.733,4.093-.02.2h-5.1a3.334,3.334,0,0,1,3.208-3.089C874.292,364.7,875.158,365.581,874.843,367.587Z" transform="translate(0 8.251)"/><path class="a" d="M881.764,368.292l2.913-3.169h1.3l.216-1.436h-4.055l-.216,1.358h1.18l-2.184,2.46-1.516-2.46h1.063l.216-1.358h-4.172l-.217,1.436h1.221l1.968,3.228-3.406,3.523h-.847l-.177,1.24h4.074l.177-1.161H877.67l2.677-2.815,1.771,2.815h-1.437l-.177,1.161H884.7l.178-1.24h-.847Z" transform="translate(1.657 8.295)"/><path class="a" d="M887.339,360.789a1.34,1.34,0,0,0-1.26,1.083.909.909,0,0,0,.925,1.062,1.286,1.286,0,0,0,1.241-1.062A.9.9,0,0,0,887.339,360.789Z" transform="translate(4.187 7.63)"/><path class="a" d="M885.281,363.687l-.217,1.436h1.3l-1.082,6.751h-1.3l-.178,1.24h4.252l.177-1.24h-1.3l1.3-8.187Z" transform="translate(3.666 8.295)"/><path class="a" d="M896.725,365.775c-.216-1.517-1.18-2.264-3.07-2.264A4.97,4.97,0,0,0,888.931,368v.02c-.453,2.833.69,4.7,3.208,4.7A3.944,3.944,0,0,0,896,370.38l-.218,1.4a3.4,3.4,0,0,1-3.7,3.09,4.02,4.02,0,0,1-3.228-1.18l-.215,1.338c.373.551,1.259,1.182,3.385,1.182a5.1,5.1,0,0,0,5.432-4.547l1.023-6.5h1.22l.216-1.435h-2.48A10.234,10.234,0,0,0,896.725,365.775Zm-.374,2.321-.039.315a3.624,3.624,0,0,1-3.621,3.11c-1.713,0-2.441-1.141-2.126-3.11l.1-.631a3.07,3.07,0,0,1,3.149-2.951C895.426,364.829,896.706,365.872,896.351,368.1Z" transform="translate(4.776 8.255)"/><path class="a" d="M903.287,363.494c-2.6,0-4.7,1.929-5.175,4.9v.021c-.532,3.267,1.121,4.959,4.013,4.959a4.966,4.966,0,0,0,3.386-1l.157-1.062a6.572,6.572,0,0,1-3.149.769c-2.087,0-3.11-.847-2.795-3.249h6.455a5.705,5.705,0,0,0,.354-1.358C906.87,365.423,906.1,363.494,903.287,363.494Zm1.733,4.093-.021.2h-5.1a3.333,3.333,0,0,1,3.208-3.089C904.469,364.7,905.334,365.581,905.019,367.587Z" transform="translate(6.929 8.251)"/><path class="a" d="M909.893,361.445h-1.064c-.689,2.245-.826,3.031-2.5,3.091l-.157.984h1.417l-.866,5.491c-.375,2.282,1,2.874,2.4,2.874a2.633,2.633,0,0,0,2.106-.788l.118-.826a4.789,4.789,0,0,1-1.692.315c-.946,0-1.475-.354-1.26-1.692l.847-5.373h3.031l.2-1.318H909.44Z" transform="translate(8.803 7.781)"/><path class="a" d="M916.807,363.494c-2.6,0-4.7,1.929-5.177,4.9v.021c-.53,3.267,1.123,4.959,4.016,4.959a4.962,4.962,0,0,0,3.385-1l.157-1.062a6.567,6.567,0,0,1-3.149.769c-2.087,0-3.11-.847-2.795-3.249H919.7a5.77,5.77,0,0,0,.354-1.358C920.389,365.423,919.622,363.494,916.807,363.494Zm1.731,4.093-.018.2h-5.1a3.332,3.332,0,0,1,3.208-3.089C917.987,364.7,918.854,365.581,918.538,367.587Z" transform="translate(10.033 8.251)"/><path class="a" d="M919.647,370.906a8.878,8.878,0,0,1-1.123,3.03h.985a5.706,5.706,0,0,0,1.987-3.444,3.688,3.688,0,0,0,.08-.787h-1.851A6.271,6.271,0,0,1,919.647,370.906Z" transform="translate(11.639 9.677)"/><path class="a" d="M928.73,360.789a1.341,1.341,0,0,0-1.259,1.083.909.909,0,0,0,.926,1.062,1.284,1.284,0,0,0,1.238-1.062A.9.9,0,0,0,928.73,360.789Z" transform="translate(13.691 7.63)"/><path class="a" d="M926.672,363.687l-.216,1.436h1.3l-1.083,6.751h-1.3l-.176,1.24h4.251l.178-1.24h-1.3l1.3-8.187Z" transform="translate(13.17 8.295)"/><path class="a" d="M939.862,366.722c.354-2.144-.709-3.228-2.539-3.228a3.991,3.991,0,0,0-3.818,2.815l.039-.274a7.744,7.744,0,0,0-.039-2.3h-2.48l-.218,1.435h1.221l-1.082,6.752h-1.221l-.177,1.241h4.37l.177-1.241h-1.5l.63-3.977a3.482,3.482,0,0,1,3.425-3.069c1.241,0,1.773.512,1.595,1.594l-.866,5.452h-1.437l-.177,1.241h4.211l.178-1.241h-1.121Z" transform="translate(14.17 8.251)"/><path class="a" d="M949.238,366.722c.354-2.144-.71-3.228-2.539-3.228a3.991,3.991,0,0,0-3.818,2.815l.039-.274a7.747,7.747,0,0,0-.039-2.3H940.4l-.218,1.435H941.4l-1.082,6.752H939.1l-.177,1.241h4.37l.177-1.241h-1.5l.63-3.977a3.482,3.482,0,0,1,3.425-3.069c1.241,0,1.773.512,1.595,1.594l-.866,5.452H945.32l-.177,1.241h4.211l.178-1.241h-1.121Z" transform="translate(16.323 8.251)"/><path class="a" d="M954.382,363.494a5.383,5.383,0,0,0-5.392,4.823v.02c-.532,3.4,1.318,5.038,3.838,5.038s4.88-1.633,5.412-5.057l.021-.02C958.713,365.384,957.157,363.494,954.382,363.494Zm2.244,4.35-.118.748c-.413,2.6-1.851,3.6-3.5,3.6s-2.775-1-2.361-3.6l.118-.748A3.433,3.433,0,0,1,954.2,364.7C955.975,364.7,956.941,365.876,956.626,367.844Z" transform="translate(18.613 8.251)"/><path class="a" d="M967.891,363.687H963.7l-.216,1.436h1.554l-3.425,6.87-1.4-6.87h1.417l.216-1.436h-4.211l-.217,1.436h1.024l1.79,7.991h2.224l4.192-7.991h1.024Z" transform="translate(20.57 8.295)"/><path class="a" d="M973.789,372.077c-.71,0-.808-.316-.71-.966L973.73,367c.315-2.146-.531-3.5-2.972-3.5a5.361,5.361,0,0,0-3.425,1.121l-.3,1.89h1.5l.236-1.535a4.948,4.948,0,0,1,1.575-.275c1.456,0,1.967.767,1.83,1.693v.038c-.136.867-.589,1.2-2.165,1.556-2.046.452-4,.866-4.31,2.913v.018c-.256,1.555.728,2.5,2.382,2.5a3.362,3.362,0,0,0,3.306-2.106c-.138,1.5.552,1.929,1.575,1.929a2.77,2.77,0,0,0,1.1-.218l.138-.964A2.735,2.735,0,0,1,973.789,372.077Zm-2.105-2.58a3.072,3.072,0,0,1-2.815,2.775c-1.123,0-1.615-.531-1.457-1.475v-.1c.157-.946.728-1.123,2.578-1.733a7.135,7.135,0,0,0,1.908-.866Z" transform="translate(22.461 8.251)"/><path class="a" d="M870.254,343.421c0,8.312,4.177,11.384,10.973,11.384,6.88,0,11.016-3.03,11.016-11.343V332h2.088v-3.97H883.889V332h3.03V344.4c0,4.381-1.637,6.265-5.692,6.265s-5.689-1.926-5.689-6.305V332h3.03v-3.97H868.124V332h2.13Z" transform="translate(0.066 0.107)"/><path class="a" d="M903.079,350.5h-3.728V345.14h4.177c6.551,0,9.786-3.03,9.786-8.558,0-5.446-2.988-8.557-9.418-8.557H891.735V332h2.334V350.5h-2.334v3.686h11.344Zm-3.728-18.3h4.1c3.48,0,4.668,1.6,4.668,4.464,0,2.907-1.269,4.586-5.159,4.586h-3.6Z" transform="translate(5.488 0.107)"/><path class="a" d="M932.961,346.393H928.5v4.015a14.092,14.092,0,0,1-3.686.491c-4.872,0-7.534-2.908-7.534-9.254v-1.72c0-5.2,2.253-8.147,7.124-8.147a14.615,14.615,0,0,1,3.645.408v3.726h4.586v-5.527c-1.27-1.35-4.135-2.824-8.641-2.824-7.739,0-12.243,5.241-12.243,13.389v.081c0,8.886,5.036,13.882,12.653,13.882,4.3,0,7.247-1.639,8.558-3.072Z" transform="translate(10.083)"/></g></svg>