<svg xmlns="http://www.w3.org/2000/svg" width="97.734" height="65.918" viewBox="0 0 97.734 65.918"><defs><style>.a,.b{fill:#fff;}.a{fill-rule:evenodd;}</style></defs><g transform="translate(0 0)"><path class="a" d="M746.415,162.037c0,9.1,17.693,6.492,14.382,11.066a2.819,2.819,0,0,1-1.582.942,7.236,7.236,0,0,1-4.012.034,2.637,2.637,0,0,1-1.973-2.943h-8.15c0-1.329-1-7.875-1.256-9.692l-1-7.219c-.163-1.212-.016-2.154-.9-2.154-.587,0-.75,1.195-1.958,2.608-2.333,2.743-4.862,4.594-4.862,8.885a11.732,11.732,0,0,0,.163,1.195c1.191-.017.408-.252,1.338-.522,0,1.245-.163,1.716-.163,2.928,0,1.733,1.827,1.952,1.827,4.813.555-.3.653-.168.832-.858,2.1,1.464.522,5.822-.228,7.656a8.477,8.477,0,0,0-.6,1.447H746.3c-.066-.732-.314-1.667-.33-2.433,1.551,1.072,1.534,1.48,3.844,2.28,5.246,1.8,14.2.6,17.75-3.1.759-.783,2.046-2.008,2.31-3.164h.166c1.878,8.321,21.037,11.2,27.5-2.055a14.683,14.683,0,0,0,1-2.577h-9.3c-.478,2.158-2.587,4.69-5.206,4.69-1.368,0-2.751.136-3.839-.9a3.552,3.552,0,0,1-1.17-2.09c-.692-3.449.89-9.923,4.234-11.86,2.191-1.274,7.167-1.529,7.167,3.925h9.086c0-3.9-.424-6.828-3.49-9.1-2.772-2.052-5.952-2.4-9.817-2.4a17.2,17.2,0,0,0-8.61,2.624,17.893,17.893,0,0,0-5.43,5.382l-.277.4c-.13-5.853-4.827-8.409-10.322-8.409-5.348,0-11.072,1.16-13.746,5.735a10.08,10.08,0,0,0-1.4,4.726m9.653-2.131c0-2.2,4.387-1.934,5.658-1.211.7.4.832.942.832,2.069h8.985c-1.321,2.052-1.745,4.944-1.99,5.5a11.1,11.1,0,0,0-2.919-1.968,30.9,30.9,0,0,0-3.751-1.278c-2.038-.606-6.816-1.144-6.816-3.111m-43.544,20.457,4.16-10.13c.245-.538.457-1.043.718-1.666a5.783,5.783,0,0,1,.783-1.6l1.158,13.394h3.834c1.974-3.046,5.025-3.87,6.183-7.185a12.258,12.258,0,0,0,.816-3.8c.848.067.751.488,1.109.118a3.849,3.849,0,0,0,.424-1.447c.6-3.769-.033-5.334,3.344-9.271a8.114,8.114,0,0,1,.832-1.026c.359-.32.538-.437.914-.774.963-.875,2.643-1.683,3.573-3.719.163-.336.587-1.043-.2-1.043h-7.909c-.618,0-2.47,4.1-2.828,4.807-.552,1.092-3.738,7.714-4.307,8.4l-.163-9.949c0-1.311-.162-2.185-.162-3.261h-7.134c-.487,0-.52.37-.65.706-.162.4-.211.555-.39.975l-4.973,11.664c-.146.353-.244.605-.39.975-.211.487-.195.689-.552.975a30.837,30.837,0,0,0-.211-3.9c-.146-1.21-.179-2.588-.309-3.966-.13-1.261-.211-2.555-.325-3.966-.081-1.126-.032-3.445-.812-3.445-8.532,0-7.3-.521-7.134,1.714l.715,6.823c.747,5.949,1.121,12.033,1.836,17.983.244,1.966-.5,1.614,3.25,1.614Z" transform="translate(-701.774 -151.436)"/></g><g transform="translate(0.382 35.892)"><path class="b" d="M704.691,347.029c-.01,1.2.53,1.929,1.655,1.929a1.676,1.676,0,0,0,1.708-1.482c.188-.912-.081-1.767-1.333-2.756-1.315-1.037-1.861-1.895-1.6-3.211a2.185,2.185,0,0,1,2.275-1.814,2.072,2.072,0,0,1,2.161,2.546H708.8c.07-.886-.225-1.856-1.47-1.856a1.365,1.365,0,0,0-1.441,1.224c-.169.932.141,1.52,1.32,2.464,1.6,1.283,1.914,2.245,1.622,3.526a2.438,2.438,0,0,1-2.53,2.049,2.207,2.207,0,0,1-2.379-2.619Z" transform="translate(-703.916 -339.368)"/><path class="b" d="M738.495,357.725a7.825,7.825,0,0,0-.169,1.437c0,.967.31,1.536,1.11,1.536a1.623,1.623,0,0,0,1.467-1.16h.748a2.447,2.447,0,0,1-2.312,1.847c-2.009,0-1.934-2.177-1.568-3.867.51-2.314,1.483-3.545,2.885-3.545,1.615,0,2.035,1.354,1.579,3.222l-.131.53Zm2.988-.639a5.308,5.308,0,0,0,.169-1.13c0-.731-.24-1.307-1.1-1.307-.971,0-1.586,1.081-1.917,2.437Z" transform="translate(-731.572 -351.103)"/><path class="b" d="M766.422,356.3c.316-1.465.413-2.008.446-2.213h.75c-.026.217-.107.657-.186,1.016a2.008,2.008,0,0,1,1.833-1.13c.956,0,1.729.628,1.372,2.313l-1.06,4.974h-.766l1.041-4.882c.216-1.014.014-1.686-.86-1.686-.982,0-1.613.747-1.961,2.369l-.888,4.2h-.781Z" transform="translate(-754.414 -351.103)"/><path class="b" d="M799.124,340.851h.769l-1.522,7.173H797.6Zm.644-2.984h.769l-.311,1.426h-.769Z" transform="translate(-780.91 -337.867)"/><path class="b" d="M816.93,357.746c-.373,1.888-1.182,3.639-2.916,3.639-1.807,0-2.136-1.744-1.659-3.91.538-2.443,1.639-3.5,2.864-3.5C817.11,353.973,817.315,355.8,816.93,357.746Zm-3.789-.213c-.412,1.891-.229,3.162.934,3.162,1.12,0,1.715-1.356,2.067-2.96.309-1.431.344-3.058-.977-3.058C814.321,354.678,813.547,355.649,813.142,357.534Z" transform="translate(-793.5 -351.103)"/><path class="b" d="M842.377,356.567c.245-1.13.392-1.876.489-2.425h.729c-.031.22-.083.6-.235,1.3a2.465,2.465,0,0,1,2.155-1.4l-.2.876c-1.262.032-2.037,1-2.319,2.333l-.865,4.065h-.769Z" transform="translate(-817.661 -351.158)"/><path class="b" d="M881.711,347.03c-.311,1.1-1.014,2.63-2.8,2.63-1.707,0-2.7-1.273-1.867-5.183.608-2.879,1.732-4.783,3.594-4.783,2.013,0,2.08,1.814,2,2.59h-.776c0-.612.049-1.893-1.289-1.893-1.315,0-2.222,1.618-2.731,4.126-.7,3.468.011,4.443,1.142,4.443,1.225,0,1.777-1.384,1.927-1.931Z" transform="translate(-846.959 -339.368)"/><path class="b" d="M914.048,357.746c-.373,1.888-1.182,3.639-2.916,3.639-1.807,0-2.136-1.744-1.659-3.91.537-2.443,1.639-3.5,2.864-3.5C914.227,353.973,914.432,355.8,914.048,357.746Zm-3.789-.213c-.412,1.891-.229,3.162.934,3.162,1.12,0,1.715-1.356,2.067-2.96.309-1.431.344-3.058-.977-3.058C911.438,354.678,910.664,355.649,910.259,357.534Z" transform="translate(-873.876 -351.103)"/><path class="b" d="M938.477,348.023l2.164-10.156h.769l-2.164,10.156Z" transform="translate(-898.016 -337.867)"/><path class="b" d="M951.357,348.023l2.164-10.156h.769l-2.164,10.156Z" transform="translate(-908.674 -337.867)"/><path class="b" d="M966.809,357.725a7.809,7.809,0,0,0-.169,1.437c0,.967.31,1.536,1.11,1.536a1.624,1.624,0,0,0,1.467-1.16h.748a2.447,2.447,0,0,1-2.312,1.847c-2.009,0-1.934-2.177-1.568-3.867.51-2.314,1.484-3.545,2.885-3.545,1.615,0,2.035,1.354,1.578,3.222l-.13.53Zm2.987-.639a5.309,5.309,0,0,0,.169-1.13c0-.731-.241-1.307-1.1-1.307-.972,0-1.586,1.081-1.917,2.437Z" transform="translate(-920.722 -351.103)"/><path class="b" d="M996.892,360.88c-.394,1.854-.968,3.147-2.751,3.147a1.686,1.686,0,0,1-1.9-2.02H993c-.017.584.14,1.348,1.2,1.348,1.149,0,1.6-1,1.9-2.385l.186-.848a1.9,1.9,0,0,1-1.776,1.115c-1.635,0-1.816-1.746-1.407-3.62.477-2.21,1.407-3.643,2.83-3.643a1.288,1.288,0,0,1,1.421,1.1c.081-.348.2-.824.259-.983h.748c-.078.3-.259,1.08-.463,2.037Zm-3.028-3.173c-.332,1.634-.225,2.84.867,2.84,1.214,0,1.8-1.43,2.108-2.892.421-1.967.239-2.989-.891-2.989C994.918,354.665,994.22,355.97,993.864,357.707Z" transform="translate(-942.552 -351.103)"/><path class="b" d="M1028.728,357.725a7.8,7.8,0,0,0-.169,1.437c0,.967.31,1.536,1.11,1.536a1.624,1.624,0,0,0,1.467-1.16h.748a2.447,2.447,0,0,1-2.312,1.847c-2.009,0-1.934-2.177-1.568-3.867.51-2.314,1.484-3.545,2.885-3.545,1.615,0,2.035,1.354,1.578,3.222l-.13.53Zm2.987-.639a5.305,5.305,0,0,0,.169-1.13c0-.731-.241-1.307-1.1-1.307-.972,0-1.586,1.081-1.917,2.437Z" transform="translate(-971.967 -351.103)"/><path class="b" d="M1072.977,359.66c-.083.4-.266,1.232-.311,1.6h-.745a7.22,7.22,0,0,1,.157-.886,1.854,1.854,0,0,1-1.783,1.012c-1.329,0-1.707-1.139-1.455-2.282a2.605,2.605,0,0,1,2.444-1.992c.482-.086,1-.116,1.528-.159l.174-.822c.162-.781.045-1.5-1.056-1.5-.788,0-1.156.44-1.368,1.3h-.751a2.117,2.117,0,0,1,2.215-1.958c1.268,0,2.015.693,1.7,2.163Zm-.293-2.069c-.448.04-.893.069-1.3.14a1.884,1.884,0,0,0-1.785,1.451c-.15.695.026,1.52.924,1.52,1.058,0,1.668-.829,2.023-2.49Z" transform="translate(-1005.876 -351.103)"/><path class="b" d="M1100.094,356.3c.316-1.465.413-2.008.447-2.213h.75c-.026.217-.107.657-.186,1.016a2.008,2.008,0,0,1,1.833-1.13c.956,0,1.729.628,1.373,2.313l-1.06,4.974h-.766l1.04-4.882c.217-1.014.014-1.686-.86-1.686-.982,0-1.613.747-1.961,2.369l-.888,4.2h-.781Z" transform="translate(-1030.936 -351.103)"/><path class="b" d="M1138.963,337.867l-1.782,8.372c-.14.637-.282,1.321-.354,1.784h-.752c.016-.173.069-.492.162-.945a1.929,1.929,0,0,1-1.78,1.071c-1.561,0-1.866-1.674-1.382-3.9.393-1.811,1.3-3.513,2.851-3.513a1.336,1.336,0,0,1,1.452.977l.818-3.846Zm-5.134,6.482c-.358,1.664-.342,3.122.891,3.122,1.186,0,1.722-1.344,2.138-3.279.4-1.917.156-2.76-.939-2.76C1134.921,341.431,1134.217,342.579,1133.829,344.349Z" transform="translate(-1058.954 -337.867)"/><path class="b" d="M708.251,436.453l-1.442,6.789c-.257,1.188-.087,2.33,1.392,2.33,1.287,0,1.731-.986,2.024-2.342l1.442-6.777h.783l-1.445,6.8c-.383,1.78-.928,3.02-2.969,3.02-1.74,0-2.408-1.183-2.037-2.937l1.469-6.882Z" transform="translate(-705.547 -418.888)"/><path class="b" d="M740.024,452.3c.316-1.465.413-2.007.447-2.213h.75c-.026.217-.107.657-.186,1.016a2.008,2.008,0,0,1,1.833-1.13c.956,0,1.729.628,1.372,2.313l-1.059,4.974h-.767l1.04-4.882c.217-1.014.014-1.686-.86-1.686-.982,0-1.613.747-1.961,2.369l-.888,4.2h-.781Z" transform="translate(-732.72 -429.999)"/><path class="b" d="M772.725,436.85h.769l-1.522,7.173H771.2Zm.644-2.983h.769l-.311,1.426h-.769Z" transform="translate(-759.214 -416.763)"/><path class="b" d="M789.728,450.612c.108,2.958.19,5.67.178,6.272h.014c.125-.378,1.669-3.582,2.95-6.272h.791l-3.5,7.173H789.3l-.342-7.173Z" transform="translate(-774.297 -430.524)"/><path class="b" d="M814.173,453.725a7.809,7.809,0,0,0-.169,1.437c0,.967.31,1.536,1.11,1.536a1.624,1.624,0,0,0,1.467-1.16h.748a2.447,2.447,0,0,1-2.312,1.847c-2.009,0-1.934-2.177-1.568-3.867.51-2.313,1.483-3.545,2.885-3.545,1.615,0,2.035,1.354,1.579,3.222l-.131.53Zm2.988-.639a5.3,5.3,0,0,0,.169-1.13c0-.731-.241-1.307-1.1-1.307-.971,0-1.586,1.081-1.917,2.437Z" transform="translate(-794.399 -429.999)"/><path class="b" d="M842.058,452.567c.245-1.13.392-1.876.489-2.425h.729c-.031.22-.083.6-.235,1.3a2.465,2.465,0,0,1,2.154-1.4l-.2.876c-1.262.032-2.037,1-2.319,2.334l-.866,4.065h-.769Z" transform="translate(-817.397 -430.054)"/><path class="b" d="M862.189,455.347a1.157,1.157,0,0,0,1.217,1.368,1.127,1.127,0,0,0,1.217-.984c.162-.791-.127-1.312-1.039-1.94-1.143-.788-1.471-1.376-1.245-2.407a1.752,1.752,0,0,1,1.821-1.411A1.618,1.618,0,0,1,865.9,451.9h-.732c.024-.592-.179-1.266-1.055-1.266a.984.984,0,0,0-1.032.829c-.172.739.126,1.139.923,1.686,1.34.912,1.6,1.667,1.368,2.709a1.918,1.918,0,0,1-2.041,1.518,1.726,1.726,0,0,1-1.878-2.026Z" transform="translate(-834.283 -429.999)"/><path class="b" d="M889.2,436.85h.769l-1.522,7.173h-.769Zm.644-2.983h.769l-.311,1.426h-.769Z" transform="translate(-855.979 -416.763)"/><path class="b" d="M903.395,441.6h1.068l.423-1.954h.755l-.423,1.954h1.258l-.144.674h-1.261l-1.029,4.9c-.122.569-.138,1.036.494,1.036a2.87,2.87,0,0,0,.637-.079l-.137.627a2.261,2.261,0,0,1-.769.114c-.841,0-1.275-.408-1.037-1.513l1.087-5.086h-1.068Z" transform="translate(-868.8 -421.512)"/><path class="b" d="M916.216,450.612c.246,4.077.281,5.667.265,6.372h.014c.351-.87,1.545-3.548,2.854-6.372h.8l-3.558,7.646c-.966,2.065-1.436,2.292-2.453,2.292a3.217,3.217,0,0,1-.633-.076l.16-.731a2.431,2.431,0,0,0,.59.069c.738,0,1.056-.5,1.65-1.77l-.49-7.431Z" transform="translate(-877.404 -430.524)"/><path class="b" d="M968.429,443.03c-.311,1.1-1.014,2.63-2.8,2.63-1.707,0-2.7-1.273-1.867-5.183.608-2.879,1.732-4.783,3.594-4.783,2.013,0,2.08,1.814,2,2.59h-.776c0-.612.05-1.893-1.289-1.893-1.315,0-2.222,1.618-2.731,4.126-.7,3.468.011,4.443,1.142,4.443,1.225,0,1.777-1.384,1.927-1.931Z" transform="translate(-918.734 -418.264)"/><path class="b" d="M1000.765,453.746c-.373,1.889-1.182,3.64-2.916,3.64-1.807,0-2.136-1.744-1.659-3.91.538-2.444,1.639-3.5,2.864-3.5C1000.945,449.973,1001.15,451.8,1000.765,453.746Zm-3.789-.212c-.411,1.891-.229,3.162.934,3.162,1.12,0,1.715-1.356,2.067-2.96.309-1.431.344-3.058-.977-3.058C998.156,450.677,997.382,451.649,996.977,453.534Z" transform="translate(-945.646 -429.999)"/><path class="b" d="M1026.269,452.239c.254-1.217.373-1.8.432-2.152h.734a9.682,9.682,0,0,1-.16.964,1.979,1.979,0,0,1,1.725-1.078,1.11,1.11,0,0,1,1.24,1.094,2.093,2.093,0,0,1,1.838-1.094c.815,0,1.593.412,1.234,2.079l-1.109,5.208h-.75l1.083-5.091c.162-.783.122-1.479-.738-1.479-.97,0-1.525.983-1.734,1.977l-.974,4.594h-.764l1.071-5.062c.212-.974.05-1.506-.7-1.506-.9,0-1.515.9-1.763,2.038l-.972,4.529h-.767Z" transform="translate(-969.88 -429.999)"/><path class="b" d="M1074.347,452.239c.254-1.217.373-1.8.432-2.152h.734a9.682,9.682,0,0,1-.16.964,1.979,1.979,0,0,1,1.725-1.078,1.11,1.11,0,0,1,1.24,1.094,2.093,2.093,0,0,1,1.838-1.094c.815,0,1.593.412,1.234,2.079l-1.109,5.208h-.75l1.083-5.091c.162-.783.122-1.479-.738-1.479-.97,0-1.525.983-1.734,1.977l-.974,4.594h-.764l1.071-5.062c.212-.974.05-1.506-.7-1.506-.9,0-1.515.9-1.762,2.038l-.972,4.529h-.767Z" transform="translate(-1009.681 -429.999)"/><path class="b" d="M1122.875,436.85h.769l-1.522,7.173h-.769Zm.644-2.983h.769l-.311,1.426h-.769Z" transform="translate(-1049.346 -416.763)"/><path class="b" d="M1135.462,455.347a1.157,1.157,0,0,0,1.217,1.368,1.127,1.127,0,0,0,1.217-.984c.162-.791-.127-1.312-1.039-1.94-1.143-.788-1.471-1.376-1.245-2.407a1.752,1.752,0,0,1,1.821-1.411,1.618,1.618,0,0,1,1.739,1.924h-.732c.024-.592-.178-1.266-1.055-1.266a.984.984,0,0,0-1.032.829c-.172.739.126,1.139.923,1.686,1.34.912,1.6,1.667,1.368,2.709a1.918,1.918,0,0,1-2.041,1.518,1.726,1.726,0,0,1-1.878-2.026Z" transform="translate(-1060.442 -429.999)"/><path class="b" d="M1161.461,455.347a1.157,1.157,0,0,0,1.217,1.368,1.127,1.127,0,0,0,1.217-.984c.162-.791-.127-1.312-1.039-1.94-1.143-.788-1.471-1.376-1.245-2.407a1.752,1.752,0,0,1,1.821-1.411,1.618,1.618,0,0,1,1.739,1.924h-.732c.024-.592-.179-1.266-1.055-1.266a.984.984,0,0,0-1.032.829c-.172.739.127,1.139.923,1.686,1.34.912,1.6,1.667,1.368,2.709a1.918,1.918,0,0,1-2.041,1.518,1.726,1.726,0,0,1-1.878-2.026Z" transform="translate(-1082.391 -429.999)"/><path class="b" d="M1188.474,436.85h.769l-1.522,7.173h-.769Zm.644-2.983h.769l-.311,1.426h-.769Z" transform="translate(-1103.955 -416.763)"/><path class="b" d="M1206.282,453.746c-.373,1.889-1.182,3.64-2.916,3.64-1.807,0-2.136-1.744-1.659-3.91.538-2.444,1.639-3.5,2.864-3.5C1206.462,449.973,1206.666,451.8,1206.282,453.746Zm-3.789-.212c-.411,1.891-.229,3.162.934,3.162,1.12,0,1.715-1.356,2.066-2.96.309-1.431.345-3.058-.977-3.058C1203.672,450.677,1202.9,451.649,1202.493,453.534Z" transform="translate(-1115.919 -429.999)"/><path class="b" d="M1231.771,452.3c.316-1.465.413-2.007.447-2.213h.75c-.026.217-.107.657-.186,1.016a2.008,2.008,0,0,1,1.833-1.13c.956,0,1.729.628,1.372,2.313l-1.059,4.974h-.767l1.041-4.882c.217-1.014.014-1.686-.86-1.686-.982,0-1.613.747-1.961,2.369l-.888,4.2h-.781Z" transform="translate(-1139.918 -429.999)"/></g></svg>