<svg xmlns="http://www.w3.org/2000/svg" width="29.995" height="30" viewBox="0 0 29.995 30"><defs><style>.a{fill:#0072d1;}.b{fill:#fff;}</style></defs><g transform="translate(0 0.04)"><path class="a" d="M3,0H26.995a3,3,0,0,1,3,3V27a3,3,0,0,1-3,3H3a3,3,0,0,1-3-3V3A3,3,0,0,1,3,0Z" transform="translate(0 -0.04)"/><path class="b" d="M88.462,87.353h0a1.109,1.109,0,0,0,0,2.217h0a1.109,1.109,0,0,0,0-2.217Zm-3.325-1.108a1.108,1.108,0,1,0-1.108-1.108A1.108,1.108,0,0,0,85.137,86.245Zm3.325-2.217h0a1.108,1.108,0,1,0,0,2.217h0a1.108,1.108,0,1,0,0-2.217Zm1.108-5.541H84.028V80.7H89.57Zm2.217,7.758a1.108,1.108,0,1,0-1.108-1.108,1.108,1.108,0,0,0,1.108,1.108Zm0,3.325a1.108,1.108,0,1,0-1.108-1.108,1.108,1.108,0,0,0,1.108,1.108Zm-6.65,0a1.108,1.108,0,1,0-1.108-1.108,1.108,1.108,0,0,0,1.108,1.108ZM81.812,92.9A1.108,1.108,0,1,0,80.7,91.787,1.108,1.108,0,0,0,81.812,92.9Zm13.3-14.408H94V80.7h1.108V95.112H78.487V80.7h1.107V78.487H78.487A2.216,2.216,0,0,0,76.27,80.7V95.111a2.217,2.217,0,0,0,2.217,2.217H95.112a2.217,2.217,0,0,0,2.217-2.217V80.7a2.216,2.216,0,0,0-2.217-2.217Zm-13.3,11.083A1.108,1.108,0,1,0,80.7,88.462a1.108,1.108,0,0,0,1.108,1.108Zm0-3.325A1.108,1.108,0,1,0,80.7,85.137a1.108,1.108,0,0,0,1.108,1.108Zm3.325,6.65a1.108,1.108,0,1,0-1.108-1.108A1.108,1.108,0,0,0,85.137,92.9ZM81.812,80.7a1.109,1.109,0,0,0,1.108-1.11V77.378a1.108,1.108,0,0,0-2.217,0v2.215a1.109,1.109,0,0,0,1.109,1.11Zm9.975,0a1.109,1.109,0,0,0,1.108-1.11V77.378a1.108,1.108,0,0,0-2.217,0v2.215a1.109,1.109,0,0,0,1.108,1.11Z" transform="translate(-71.802 -71.84)"/></g></svg>