<svg xmlns="http://www.w3.org/2000/svg" width="23.333" height="28" viewBox="0 0 23.333 28"><defs><style>.a{fill:#d50000;}</style></defs><path class="a" d="M26.175,29.825a1.166,1.166,0,0,0,1.65,0l5.833-5.833a1.166,1.166,0,0,0-1.65-1.65l-3.842,3.842V9.167a1.167,1.167,0,1,0-2.333,0V26.184l-3.842-3.842a1.166,1.166,0,0,0-1.65,1.65Z" transform="translate(-15.333 -8)"/><path class="a" d="M15.5,49.333H31.833a3.5,3.5,0,0,0,3.5-3.5V41.167a1.167,1.167,0,0,0-2.333,0v4.667A1.168,1.168,0,0,1,31.833,47H15.5a1.168,1.168,0,0,1-1.167-1.167V41.167a1.167,1.167,0,0,0-2.333,0v4.667A3.5,3.5,0,0,0,15.5,49.333Z" transform="translate(-12 -21.333)"/></svg>