<svg id="Layer_1" data-name="Layer 1" xmlns="http://www.w3.org/2000/svg" viewBox="0 0 960 560"><defs><style>.cls-1{fill:#fff;}.cls-2{fill:red;}</style></defs><title>canada_flag</title><rect class="cls-1" width="960" height="560"/><path class="cls-2" d="M590.83,350.67C609.5,339.33,675.5,282,675.5,282l-17.33-9.33s-14-2.67-4-24l14.66-47.34-48,10s-13.33,5.34-18.66-10-6-19.33-6-19.33L551.5,232s-19.33,17.33-12-19.33,18.67-90,18.67-90L530.83,136s-11.33,8-20.66-13.33-30.17-54-30.17-54-20.83,32.66-30.17,54S429.17,136,429.17,136l-27.34-13.33s11.34,53.33,18.67,90-12,19.33-12,19.33l-44.67-50s-.66,4-6,19.33-18.66,10-18.66,10l-48-10,14.66,47.34c10,21.33-4,24-4,24L284.5,282s66,57.33,84.67,68.67S381.83,372,381.83,372l-8.66,26s68.66-9.33,85.33-12,17,5.33,17,5.33l-4.33,100h17.66l-4.33-100s.33-8,17-5.33,85.33,12,85.33,12l-8.66-26S572.17,362,590.83,350.67Z"/><rect class="cls-2" width="245" height="560"/><rect class="cls-2" x="715" width="245" height="560"/></svg>