<svg xmlns="http://www.w3.org/2000/svg" width="38" height="38" viewBox="0 0 38 38"><defs><style>.a{fill:#3176b0;}.b{fill:#fff;}</style></defs><g transform="translate(-0.055 0.148)"><circle class="a" cx="19" cy="19" r="19" transform="translate(0.055 -0.148)"/><g transform="translate(8.385 8.698)"><path class="b" d="M-873.457,728.3h4.341v13.959h-4.341Zm2.173-6.935a2.516,2.516,0,0,1,2.516,2.516,2.516,2.516,0,0,1-2.516,2.516,2.516,2.516,0,0,1-2.516-2.516,2.516,2.516,0,0,1,2.516-2.516h0" transform="translate(873.8 -721.36)"/><path class="b" d="M-856.96,736.689h4.156V738.6h.079a4.556,4.556,0,0,1,4.1-2.252c4.4,0,5.2,2.889,5.2,6.645v7.657h-4.336v-6.786c0-1.618-.026-3.7-2.252-3.7s-2.6,1.759-2.6,3.584v6.9h-4.332Z" transform="translate(864.366 -729.754)"/></g></g></svg>