<svg xmlns="http://www.w3.org/2000/svg" width="184.903" height="26.295" viewBox="0 0 184.903 26.295"><defs><style>.a{fill:#d50000;}.b{fill:#040405;}.c{fill:#161615;}</style></defs><g transform="translate(-188.45 -222.509)"><path class="a" d="M368.3,225.3a.108.108,0,0,0-.15.022.107.107,0,0,0,0,.13,10.381,10.381,0,0,1-7.477,17.05,8.133,8.133,0,0,0,.774-13.327,4.982,4.982,0,0,1-1.2-6.5.106.106,0,0,0-.141-.151,8.13,8.13,0,0,0-1.144,13.541,4.983,4.983,0,0,1,1.228,6.441,10.381,10.381,0,0,1-7.933-17.06.108.108,0,0,0-.018-.15.107.107,0,0,0-.13,0,13.148,13.148,0,1,0,16.186,0"/><rect class="b" width="0.707" height="23.005" transform="translate(336.16 225.202)"/><path class="c" d="M197.042,224.652v3.094h-5.156v7.044h4.193v3.094h-4.193v7.731h5.156v3.094H188.45V224.652Z"/><path class="c" d="M202.822,248.709l-4.262-24.057h3.573l2.2,15.465.275,3.369h.206l.276-3.369,2.2-15.465h3.574L206.6,248.709Z"/><path class="c" d="M222.211,224.652v3.094h-5.155v7.044h4.192v3.094h-4.192v7.731h5.155v3.094h-8.592V224.652Z"/><path class="c" d="M237.372,224.652v24.057h-3.437l-4.4-13.746-.826-3.437h-.205l.583,9.761v7.422h-3.436V224.652h3.436l4.434,13.747.79,3.436h.241l-.619-9.827v-7.356Z"/><path class="c" d="M250.37,224.652v3.094h-3.437v20.963H243.5V227.746h-3.436v-3.094Z"/><path class="c" d="M263.331,245.273a3.446,3.446,0,0,1-3.436,3.436h-3.781a3.446,3.446,0,0,1-3.436-3.436V228.09a3.448,3.448,0,0,1,3.436-3.438h3.781a3.448,3.448,0,0,1,3.436,3.438Zm-4.295-17.527h-2.063a.9.9,0,0,0-.859.859v16.151a.9.9,0,0,0,.859.859h2.063a.9.9,0,0,0,.859-.859V228.6A.9.9,0,0,0,259.036,227.746Z"/><path class="c" d="M266.879,228.09a3.448,3.448,0,0,1,3.436-3.438H274.1a3.448,3.448,0,0,1,3.436,3.438v3.436H274.1V228.6a.9.9,0,0,0-.859-.859h-2.062a.9.9,0,0,0-.86.859v3.264a2,2,0,0,0,.86,1.72l2.886,1.82c1.753,1.1,3.471,2.475,3.471,4.88v4.984a3.446,3.446,0,0,1-3.436,3.436h-3.781a3.446,3.446,0,0,1-3.436-3.436v-3.438h3.436v2.921a.9.9,0,0,0,.86.859h2.062a.9.9,0,0,0,.859-.859V240.8a2.074,2.074,0,0,0-.859-1.718l-2.955-1.96c-1.822-1.2-3.4-2.337-3.4-4.742Z"/><path class="c" d="M297.13,245.273a3.446,3.446,0,0,1-3.437,3.436h-3.78a3.446,3.446,0,0,1-3.436-3.436V224.652h3.436v20.1a.9.9,0,0,0,.859.859h2.062a.9.9,0,0,0,.859-.859v-20.1h3.437Z"/><path class="c" d="M312.328,234.448a3.448,3.448,0,0,1-3.437,3.436h-3.779v10.825h-3.438V224.652h7.217a3.448,3.448,0,0,1,3.437,3.438Zm-3.437-.517V228.6a.9.9,0,0,0-.859-.859h-2.92v7.044h2.92A.9.9,0,0,0,308.891,233.931Z"/><path class="c" d="M326.047,245.273a3.446,3.446,0,0,1-3.437,3.436h-3.78a3.446,3.446,0,0,1-3.436-3.436V228.09a3.448,3.448,0,0,1,3.436-3.438h3.78a3.448,3.448,0,0,1,3.437,3.438v3.436H322.61V228.6a.9.9,0,0,0-.859-.859h-2.062a.9.9,0,0,0-.859.859v16.151a.9.9,0,0,0,.859.859h2.062a.9.9,0,0,0,.859-.859v-2.921h3.437Z"/></g></svg>