<svg xmlns="http://www.w3.org/2000/svg" width="21" height="21" viewBox="0 0 21 21"><defs><style>.a{fill:#768698;stroke:#768698;}</style></defs><g transform="translate(0.5 0.5)"><path class="a" d="M8.8,0a8.8,8.8,0,1,0,8.8,8.8A8.808,8.808,0,0,0,8.8,0Zm0,15.971A7.174,7.174,0,1,1,15.971,8.8,7.182,7.182,0,0,1,8.8,15.971Z"/><g transform="translate(13.661 13.661)"><path class="a" d="M357.145,355.986l-4.7-4.7a.82.82,0,0,0-1.159,1.159l4.7,4.7a.82.82,0,0,0,1.159-1.159Z" transform="translate(-351.046 -351.046)"/></g></g></svg>