<svg xmlns="http://www.w3.org/2000/svg" width="19.453" height="21.13" viewBox="0 0 19.453 21.13"><defs><style>.a{fill:#768698;stroke:#768698;}</style></defs><g transform="translate(0.5 0.5)"><path class="a" d="M312.477,6.291a3.145,3.145,0,1,1,3.145-3.145A3.149,3.149,0,0,1,312.477,6.291Zm0-5.033a1.887,1.887,0,1,0,1.887,1.887A1.889,1.889,0,0,0,312.477,1.258Zm0,0" transform="translate(-297.17)"/><path class="a" d="M312.477,358.291a3.145,3.145,0,1,1,3.145-3.145A3.149,3.149,0,0,1,312.477,358.291Zm0-5.033a1.887,1.887,0,1,0,1.887,1.887A1.889,1.889,0,0,0,312.477,353.258Zm0,0" transform="translate(-297.17 -338.16)"/><path class="a" d="M3.145,182.291a3.145,3.145,0,1,1,3.145-3.145A3.149,3.149,0,0,1,3.145,182.291Zm0-5.033a1.887,1.887,0,1,0,1.887,1.887A1.889,1.889,0,0,0,3.145,177.258Zm0,0" transform="translate(0 -169.08)"/><path class="a" d="M120.319,101.254a.629.629,0,0,1-.312-1.175l7.783-4.437a.629.629,0,0,1,.622,1.093l-7.783,4.437A.63.63,0,0,1,120.319,101.254Zm0,0" transform="translate(-114.984 -91.801)"/><path class="a" d="M128.121,277.244a.624.624,0,0,1-.31-.083l-7.783-4.437a.629.629,0,0,1,.622-1.093l7.783,4.437a.629.629,0,0,1-.312,1.176Zm0,0" transform="translate(-115.004 -260.871)"/></g></svg>