<svg xmlns="http://www.w3.org/2000/svg" width="20.607" height="13.247" viewBox="0 0 20.607 13.247"><defs><style>.a{fill:#fff;}</style></defs><g transform="translate(0 -85.333)"><g transform="translate(0 85.333)"><path class="a" d="M20.258,86.915a.736.736,0,0,0-.716-.032l-4.823,2.412V87.541a2.208,2.208,0,0,0-2.208-2.208H2.208A2.208,2.208,0,0,0,0,87.541v8.831A2.208,2.208,0,0,0,2.208,98.58h10.3a2.208,2.208,0,0,0,2.208-2.208V94.619l4.823,2.415a.736.736,0,0,0,1.065-.662V87.541A.736.736,0,0,0,20.258,86.915ZM7.359,94.9A2.944,2.944,0,1,1,10.3,91.957,2.944,2.944,0,0,1,7.359,94.9Z" transform="translate(0 -85.333)"/></g></g></svg>