<svg xmlns="http://www.w3.org/2000/svg" xmlns:xlink="http://www.w3.org/1999/xlink" width="33.563" height="19.577" viewBox="0 0 33.563 19.577"><defs><style>.a{fill:none;}.b{clip-path:url(#a);}.c{fill:#fff;}.d{fill:#386fc2;}.e{fill:#bc0030;}.f{fill:#f3d02f;}</style><clipPath id="a"><rect class="a" width="33.563" height="19.577" transform="translate(252.011 256.105)"/></clipPath></defs><g transform="translate(-252.011 -256.105)"><g class="b"><rect class="c" width="33.563" height="19.577" transform="translate(252.011 256.105)"/><rect class="d" width="33.563" height="4.255" transform="translate(252.011 263.766)"/><rect width="33.563" height="7.66" transform="translate(252.011 256.105)"/><path class="e" d="M285.574,256.105l-16.781,19.577-16.782-19.577v19.577h33.564Z"/><path class="f" d="M271.984,263.13l2.706-1.807-3.192.634,1.808-2.707-2.707,1.808.638-3.191-1.81,2.706-.635-3.192-.635,3.192-1.808-2.706.634,3.191-2.7-1.808,1.806,2.707-3.19-.634,2.705,1.807-3.192.636h12.768Z"/></g></g></svg>