<svg xmlns="http://www.w3.org/2000/svg" xmlns:xlink="http://www.w3.org/1999/xlink" width="33.561" height="19.576" viewBox="0 0 33.561 19.576"><defs><style>.a{fill:none;}.b{clip-path:url(#a);}.c{fill:#fff;}.d{fill:#80a7d8;}.e{fill:#f1bd51;}.f{fill:#7a361d;}</style><clipPath id="a"><rect class="a" width="33.561" height="19.576" transform="translate(564.754 141.686)"/></clipPath></defs><g transform="translate(-564.754 -141.687)"><g class="b"><rect class="c" width="33.561" height="6.526" transform="translate(564.754 148.212)"/><rect class="d" width="33.561" height="6.525" transform="translate(564.754 141.686)"/><rect class="d" width="33.561" height="6.524" transform="translate(564.754 154.738)"/><g class="b"><path class="e" d="M581.4,151.472l.1,2.672s0,.049.033.049.031-.049.031-.049l.1-2.672Z"/><path class="f" d="M581.535,154.2c-.033,0-.041-.039-.041-.057l-.1-2.669.017,0,.1,2.672s0,.041.027.041.024-.041.024-.041l.1-2.672-.082,2.672c0,.018-.012.057-.043.057Z"/><path class="f" d="M581.469,151.472l.066,1.835.064-1.835Z"/><path class="e" d="M581.283,152.336c-.152.336-.025.61-.174.9a1.135,1.135,0,0,0-.068.67c-.012.135-.119.173-.094.2s.145-.03.188-.211-.061-.281.119-.64.041-.523.226-.844Z"/><path class="f" d="M580.977,154.128l-.037-.01c-.014-.019,0-.039.021-.06a.232.232,0,0,0,.068-.151.6.6,0,0,0-.006-.13.852.852,0,0,1,.079-.541.961.961,0,0,0,.083-.432,1.117,1.117,0,0,1,.092-.471l.014.006a1.127,1.127,0,0,0-.088.466,1.015,1.015,0,0,1-.086.437.855.855,0,0,0-.076.535c0,.051.008.094.008.132a.272.272,0,0,1-.076.159c-.02.023-.026.031-.02.039.067-.008.143-.073.176-.207a.52.52,0,0,0,.01-.166.8.8,0,0,1,.111-.476.952.952,0,0,0,.109-.431.838.838,0,0,1,.114-.414,1.037,1.037,0,0,0-.1.414,1.034,1.034,0,0,1-.109.438.853.853,0,0,0-.114.467.605.605,0,0,1-.009.174.3.3,0,0,1-.161.221Z"/><path class="f" d="M581.328,152.421c-.121.335,0,.556-.156.841.178-.2.06-.466.213-.813Z"/><path class="e" d="M581.668,151.472l-.1-2.667s0-.049-.031-.049-.033.049-.033.049l-.1,2.667Z"/><path class="f" d="M581.66,151.475l-.1-2.669s0-.043-.024-.043-.027.042-.027.042l-.1,2.67.084-2.67c0-.022.008-.06.041-.06s.043.038.043.06l.1,2.667-.02,0Z"/><path class="f" d="M581.6,151.472l-.064-1.829-.066,1.829Z"/><path class="e" d="M581.787,150.61c.153-.334.022-.608.174-.9a1.12,1.12,0,0,0,.066-.669c.012-.134.123-.172.094-.2s-.141.032-.187.209.064.282-.121.642-.036.521-.221.843Z"/><path class="f" d="M581.795,150.614l-.014-.006a1.216,1.216,0,0,0,.086-.463.96.96,0,0,1,.088-.441.845.845,0,0,0,.072-.532c0-.052-.007-.1,0-.133a.249.249,0,0,1,.073-.16c.021-.024.025-.032.021-.038-.064,0-.14.07-.174.205a.456.456,0,0,0-.009.167.829.829,0,0,1-.114.477.989.989,0,0,0-.109.432.85.85,0,0,1-.111.41,1.046,1.046,0,0,0,.093-.413,1,1,0,0,1,.112-.437.769.769,0,0,0,.109-.469.619.619,0,0,1,.012-.169c.035-.145.115-.213.162-.223h0l.037.011c.018.018,0,.037-.02.059a.237.237,0,0,0-.07.149.608.608,0,0,0,.006.131.875.875,0,0,1-.076.542.948.948,0,0,0-.086.433,1.144,1.144,0,0,1-.088.469Z"/><path class="f" d="M581.744,150.525c.123-.333-.008-.555.156-.839-.177.2-.064.465-.216.81Z"/><path class="e" d="M581.535,151.34l-2.67.1s-.05,0-.05.033.05.036.05.036l2.67.1Z"/><path class="f" d="M581.537,151.6l-2.672-.085c-.017,0-.056-.008-.056-.043s.039-.039.056-.039l2.67-.1,0,.017-2.672.1s-.043,0-.043.024.043.027.043.027l2.672.1Z"/><path class="f" d="M581.535,151.406l-1.832.065,1.832.068Z"/><path class="e" d="M580.672,151.222c-.334-.155-.609-.024-.9-.176a1.188,1.188,0,0,0-.674-.066c-.133-.012-.17-.123-.2-.093s.033.141.21.186.282-.06.641.122.524.039.846.224Z"/><path class="f" d="M580.6,151.41a1.127,1.127,0,0,0-.414-.1,1.011,1.011,0,0,1-.44-.112.8.8,0,0,0-.467-.111.493.493,0,0,1-.17-.011c-.134-.033-.21-.106-.222-.16l0-.006.01-.035c.023-.019.041,0,.062.019a.22.22,0,0,0,.149.072.683.683,0,0,0,.127-.009.9.9,0,0,1,.546.076.927.927,0,0,0,.432.087,1.137,1.137,0,0,1,.469.088l0,.017a1.144,1.144,0,0,0-.465-.088.945.945,0,0,1-.441-.088.848.848,0,0,0-.534-.074.8.8,0,0,1-.134.006.241.241,0,0,1-.157-.075c-.021-.017-.031-.024-.039-.017.008.065.069.137.207.171a.579.579,0,0,0,.166.011.8.8,0,0,1,.475.113,1.017,1.017,0,0,0,.432.11.872.872,0,0,1,.414.111Z"/><path class="f" d="M580.588,151.263c-.334-.117-.555.008-.842-.153.2.179.469.061.813.216Z"/><path class="e" d="M581.535,151.607l2.67-.1s.049,0,.049-.036-.049-.033-.049-.033l-2.67-.1Z"/><path class="f" d="M581.537,151.617l0-.017,2.67-.1s.041,0,.041-.027-.041-.024-.041-.024l-2.67-.1,2.67.084c.018,0,.055.008.055.039s-.037.043-.055.043l-2.668.1Z"/><path class="f" d="M581.535,151.54l1.832-.068-1.832-.065Z"/><path class="e" d="M582.4,151.726c.337.153.613.021.906.175a1.174,1.174,0,0,0,.668.069c.133.01.17.119.2.09s-.033-.142-.211-.187-.283.063-.639-.121-.525-.037-.844-.223Z"/><path class="f" d="M584.162,152.074a.07.07,0,0,1-.043-.025.226.226,0,0,0-.148-.07.618.618,0,0,0-.131.007.866.866,0,0,1-.541-.078.967.967,0,0,0-.436-.087,1.121,1.121,0,0,1-.47-.089l.007-.014a1.141,1.141,0,0,0,.463.088.985.985,0,0,1,.444.088.849.849,0,0,0,.529.075.749.749,0,0,1,.135-.007.257.257,0,0,1,.158.073c.025.022.033.024.037.021,0-.065-.068-.139-.2-.172a.532.532,0,0,0-.166-.013.785.785,0,0,1-.477-.111,1,1,0,0,0-.429-.11.852.852,0,0,1-.414-.114,1.063,1.063,0,0,0,.414.1,1.034,1.034,0,0,1,.437.113.794.794,0,0,0,.469.109.528.528,0,0,1,.17.011.3.3,0,0,1,.221.161v.005l-.012.035c0,.006-.006.007-.014.007Z"/><path class="f" d="M582.48,151.683c.336.121.559,0,.844.154-.2-.177-.467-.06-.812-.215Z"/><path class="e" d="M581.44,151.379l-1.817,1.959s-.033.035-.01.06.057-.014.057-.014l1.959-1.817Z"/><path class="f" d="M579.631,153.414a.052.052,0,0,1-.014-.083l1.817-1.957.013.011-1.816,1.958s-.029.03-.014.047.051-.012.051-.012l1.957-1.814-1.947,1.827a.083.083,0,0,1-.047.023Z"/><path class="f" d="M581.486,151.426l-1.246,1.343,1.344-1.248Z"/><path class="e" d="M580.746,151.9c-.348.128-.449.417-.76.515a1.159,1.159,0,0,0-.521.426c-.1.088-.207.036-.211.079s.123.077.283-.018.151-.243.535-.366.4-.342.756-.436Z"/><path class="f" d="M579.344,152.976a.158.158,0,0,1-.076-.017l-.022-.034c0-.027.026-.029.055-.029a.26.26,0,0,0,.156-.057.445.445,0,0,0,.082-.1.888.888,0,0,1,.443-.332.913.913,0,0,0,.366-.243,1.133,1.133,0,0,1,.4-.269l.006.015a1.168,1.168,0,0,0-.391.266.921.921,0,0,1-.373.247.858.858,0,0,0-.431.326.843.843,0,0,1-.086.1.275.275,0,0,1-.168.062c-.026,0-.039,0-.039.012a.24.24,0,0,0,.267-.024.551.551,0,0,0,.127-.111.815.815,0,0,1,.416-.257,1.011,1.011,0,0,0,.381-.225.841.841,0,0,1,.375-.213,1.046,1.046,0,0,0-.363.224.987.987,0,0,1-.389.23.8.8,0,0,0-.408.253.527.527,0,0,1-.129.112.381.381,0,0,1-.2.062Z"/><path class="f" d="M580.715,152c-.32.152-.389.4-.7.485.267-.019.369-.287.724-.421Z"/><path class="e" d="M581.629,151.567l1.816-1.956s.035-.036.014-.06-.061.01-.061.01l-1.958,1.818Z"/><path class="f" d="M581.635,151.573l-.01-.008,1.816-1.96s.026-.03.01-.048-.047.01-.047.01l-1.961,1.818,1.952-1.829c.009-.013.046-.033.068-.011s0,.057-.012.07l-1.816,1.958Z"/><path class="f" d="M581.584,151.52l1.248-1.342-1.346,1.247Z"/><path class="e" d="M582.324,151.042c.344-.129.446-.416.762-.515a1.17,1.17,0,0,0,.521-.425c.1-.087.208-.036.208-.079s-.12-.079-.28.017-.156.242-.539.367-.4.343-.752.44Z"/><path class="f" d="M582.324,151.05l0-.015a1.158,1.158,0,0,0,.389-.266.9.9,0,0,1,.377-.249.847.847,0,0,0,.428-.325.709.709,0,0,1,.09-.1.254.254,0,0,1,.164-.059c.029,0,.039,0,.039-.013a.242.242,0,0,0-.268.024.521.521,0,0,0-.123.109.854.854,0,0,1-.418.261.989.989,0,0,0-.385.224.837.837,0,0,1-.369.213,1,1,0,0,0,.36-.226A.994.994,0,0,1,583,150.4a.8.8,0,0,0,.4-.254.727.727,0,0,1,.131-.114.3.3,0,0,1,.27-.043l.023.036c0,.024-.027.026-.056.029a.228.228,0,0,0-.153.053.82.82,0,0,0-.088.1.851.851,0,0,1-.437.329.958.958,0,0,0-.371.246,1.149,1.149,0,0,1-.4.27Z"/><path class="f" d="M582.354,150.951c.322-.152.39-.4.7-.483-.268.017-.373.285-.725.419Z"/><path class="e" d="M581.629,151.379l-1.959-1.818s-.035-.034-.057-.01.01.06.01.06l1.817,1.956Z"/><path class="f" d="M581.447,151.565l-1.83-1.95c-.012-.013-.033-.046-.008-.069s.055,0,.069.01l1.957,1.817-.01.012-1.957-1.817s-.033-.027-.051-.011.01.048.014.048l1.816,1.96Z"/><path class="f" d="M581.584,151.426l-1.344-1.247,1.246,1.342Z"/><path class="e" d="M581.1,150.686c-.125-.346-.412-.447-.514-.762a1.153,1.153,0,0,0-.424-.523c-.088-.1-.037-.206-.08-.209s-.076.124.014.282.246.154.371.539.34.4.437.755Z"/><path class="f" d="M580.914,150.765a1.1,1.1,0,0,0-.224-.363.969.969,0,0,1-.229-.386.833.833,0,0,0-.254-.411.475.475,0,0,1-.115-.128.29.29,0,0,1-.041-.269l.037-.025c.021,0,.025.028.025.057a.269.269,0,0,0,.055.156.75.75,0,0,0,.1.087.862.862,0,0,1,.326.438.962.962,0,0,0,.246.367,1.239,1.239,0,0,1,.271.4l-.017.006a1.1,1.1,0,0,0-.268-.39.969.969,0,0,1-.248-.375.872.872,0,0,0-.322-.428,1.273,1.273,0,0,1-.1-.089.276.276,0,0,1-.058-.166c0-.028,0-.04-.014-.041a.247.247,0,0,0,.021.27.62.62,0,0,0,.114.124.858.858,0,0,1,.258.416,1,1,0,0,0,.222.384.842.842,0,0,1,.215.371Z"/><path class="f" d="M581.016,150.655c-.157-.321-.4-.388-.491-.7.02.268.291.372.422.726Z"/><path class="e" d="M581.44,151.567l1.958,1.817s.036.035.061.014-.014-.06-.014-.06l-1.816-1.959Z"/><path class="f" d="M583.438,153.4a.057.057,0,0,1-.043-.013l-1.961-1.815.009-.011,1.961,1.814s.03.032.047.012-.01-.047-.01-.047l-1.816-1.958,1.826,1.946c.016.017.033.049.012.07a.094.094,0,0,1-.025,0Z"/><path class="f" d="M581.486,151.52l1.346,1.248-1.248-1.343Z"/><path class="e" d="M581.965,152.264c.131.344.418.444.515.761a1.153,1.153,0,0,0,.424.52c.092.1.037.208.08.211s.081-.122-.015-.281-.242-.157-.365-.539-.346-.4-.44-.754Z"/><path class="f" d="M582.984,153.763c-.025,0-.025-.028-.029-.057a.267.267,0,0,0-.055-.155.668.668,0,0,0-.1-.085.846.846,0,0,1-.33-.44.94.94,0,0,0-.246-.368,1.2,1.2,0,0,1-.27-.392l.016-.007a1.159,1.159,0,0,0,.267.389.924.924,0,0,1,.248.375.886.886,0,0,0,.325.431.464.464,0,0,1,.1.088.232.232,0,0,1,.057.163c0,.032.008.041.015.041a.23.23,0,0,0-.021-.266.624.624,0,0,0-.109-.128.808.808,0,0,1-.258-.413.979.979,0,0,0-.229-.385.844.844,0,0,1-.209-.37.96.96,0,0,0,.225.361,1.039,1.039,0,0,1,.228.389.807.807,0,0,0,.252.407.572.572,0,0,1,.114.129.29.29,0,0,1,.043.27l-.036.023Z"/><path class="f" d="M582.057,152.292c.15.321.4.388.486.7-.02-.269-.287-.372-.422-.723Z"/><path class="e" d="M581.41,151.422l-.928,2.506s-.017.046.012.057.051-.032.051-.032l1.111-2.428Z"/><path class="f" d="M580.516,153.994c-.055-.014-.047-.051-.039-.07l.925-2.5.016.007-.928,2.5s-.013.04.006.049l.041-.031,1.113-2.427-1.1,2.436a.069.069,0,0,1-.035.037Z"/><path class="f" d="M581.477,151.448l-.643,1.719.762-1.668Z"/><path class="e" d="M580.973,152.175c-.27.251-.254.554-.508.766a1.192,1.192,0,0,0-.32.593c-.061.12-.176.114-.163.152s.145.026.254-.121.051-.286.36-.547.232-.466.525-.693Z"/><path class="f" d="M580.025,153.713h-.013l-.037-.022c-.01-.024.015-.036.041-.047a.268.268,0,0,0,.123-.112.762.762,0,0,0,.043-.126.856.856,0,0,1,.279-.469,1.014,1.014,0,0,0,.246-.368,1.135,1.135,0,0,1,.258-.4l.012.013a1.171,1.171,0,0,0-.258.392.931.931,0,0,1-.25.373.889.889,0,0,0-.274.464.675.675,0,0,1-.043.128.24.24,0,0,1-.13.117c-.026.014-.036.02-.032.029.065.019.155-.013.239-.124a.516.516,0,0,0,.072-.15.857.857,0,0,1,.287-.4,1.007,1.007,0,0,0,.267-.357.877.877,0,0,1,.262-.337,1.064,1.064,0,0,0-.246.343,1.016,1.016,0,0,1-.273.363.834.834,0,0,0-.282.39.558.558,0,0,1-.074.154.316.316,0,0,1-.217.144Z"/><path class="f" d="M580.98,152.271c-.24.261-.207.514-.464.715.242-.119.234-.408.507-.665Z"/><path class="e" d="M581.656,151.525l.934-2.5s.017-.045-.016-.058-.047.032-.047.032l-1.117,2.427Z"/><path class="f" d="M581.668,151.526l-.018-.005.928-2.5s.018-.037,0-.047l-.039.028-1.117,2.428,1.1-2.434a.092.092,0,0,1,.037-.037l.047.019a.089.089,0,0,1,0,.049l-.928,2.5Z"/><path class="f" d="M581.6,151.5l.643-1.718-.762,1.667Z"/><path class="e" d="M582.1,150.773c.267-.252.254-.555.507-.766a1.146,1.146,0,0,0,.315-.594c.066-.12.182-.111.168-.151s-.145-.027-.254.12-.051.285-.359.547-.237.467-.53.693Z"/><path class="f" d="M582.1,150.78l-.012-.011a1.116,1.116,0,0,0,.258-.4.9.9,0,0,1,.25-.372.854.854,0,0,0,.275-.463.76.76,0,0,1,.043-.126.266.266,0,0,1,.129-.119c.023-.014.039-.019.035-.028-.068-.019-.16.013-.238.124a.561.561,0,0,0-.078.149.8.8,0,0,1-.286.4,1.014,1.014,0,0,0-.265.355.829.829,0,0,1-.26.337,1.106,1.106,0,0,0,.246-.345.977.977,0,0,1,.268-.359.823.823,0,0,0,.283-.391.718.718,0,0,1,.076-.155.283.283,0,0,1,.232-.143l.036.025c.008.022-.014.034-.039.047a.217.217,0,0,0-.123.11.457.457,0,0,0-.043.124.858.858,0,0,1-.28.472.992.992,0,0,0-.248.366,1.115,1.115,0,0,1-.259.4Z"/><path class="f" d="M582.092,150.679c.24-.262.207-.516.465-.717-.244.12-.237.406-.512.666Z"/><path class="e" d="M581.584,151.351l-2.5-.929s-.045-.02-.058.011.037.05.037.05l2.425,1.114Z"/><path class="f" d="M581.486,151.591l-2.431-1.1c-.02-.01-.051-.031-.041-.062a.053.053,0,0,1,.07-.015l2.5.928,0,.015-2.5-.928s-.041-.016-.051.006.03.042.03.042l2.427,1.114Z"/><path class="f" d="M581.559,151.413l-1.719-.643,1.668.766Z"/><path class="e" d="M580.834,150.911c-.25-.271-.555-.254-.768-.509a1.151,1.151,0,0,0-.591-.317c-.12-.062-.112-.177-.153-.164s-.029.144.123.254.284.051.545.357.467.236.7.528Z"/><path class="f" d="M580.69,151.056a1.01,1.01,0,0,0-.346-.246,1.029,1.029,0,0,1-.362-.272.81.81,0,0,0-.388-.281.572.572,0,0,1-.156-.075.3.3,0,0,1-.145-.234l.025-.033c.022-.01.037.012.049.039a.242.242,0,0,0,.112.123.549.549,0,0,0,.119.04.861.861,0,0,1,.474.281.977.977,0,0,0,.368.246,1.125,1.125,0,0,1,.4.261l-.014.012a1.177,1.177,0,0,0-.393-.26.958.958,0,0,1-.376-.248.843.843,0,0,0-.465-.274,1.151,1.151,0,0,1-.123-.042.26.26,0,0,1-.119-.13c-.012-.027-.018-.039-.03-.034-.017.063.014.156.127.239a.6.6,0,0,0,.149.073.813.813,0,0,1,.4.286.962.962,0,0,0,.356.267.833.833,0,0,1,.338.262Z"/><path class="f" d="M580.74,150.917c-.263-.236-.517-.208-.718-.462.119.241.406.233.668.509Z"/><path class="e" d="M581.484,151.6l2.5.928s.043.021.059-.011-.033-.049-.033-.049l-2.43-1.114Z"/><path class="f" d="M584.018,152.54a.121.121,0,0,1-.034-.007l-2.5-.928.006-.014,2.506.928s.035.014.047-.008-.029-.039-.029-.039l-2.428-1.115,2.436,1.1c.017.009.05.031.037.06a.04.04,0,0,1-.037.023Z"/><path class="f" d="M581.508,151.536l1.719.639-1.668-.762Z"/><path class="e" d="M582.234,152.037c.254.271.559.254.768.508a1.145,1.145,0,0,0,.592.317c.123.063.111.178.156.164s.023-.144-.125-.255-.281-.047-.543-.355-.471-.235-.695-.529Z"/><path class="f" d="M583.742,153.036c-.019,0-.029-.021-.041-.044a.246.246,0,0,0-.107-.122.93.93,0,0,0-.127-.043.844.844,0,0,1-.469-.277.937.937,0,0,0-.369-.245,1.168,1.168,0,0,1-.4-.261l.01-.012a1.141,1.141,0,0,0,.4.258.977.977,0,0,1,.373.248.851.851,0,0,0,.463.275.789.789,0,0,1,.125.042.264.264,0,0,1,.119.129c.013.031.017.037.029.034.018-.062-.012-.156-.125-.24a.565.565,0,0,0-.152-.071.844.844,0,0,1-.4-.286.947.947,0,0,0-.355-.267.84.84,0,0,1-.332-.262,1.03,1.03,0,0,0,.344.248.971.971,0,0,1,.359.27.8.8,0,0,0,.391.281.482.482,0,0,1,.152.076.282.282,0,0,1,.144.233l-.021.034-.01,0Z"/><path class="f" d="M582.332,152.03c.26.239.514.206.715.465-.121-.242-.406-.236-.664-.51Z"/><path class="e" d="M581.484,151.351l-2.425,1.114s-.047.017-.037.049.058.011.058.011l2.5-.928Z"/><path class="f" d="M579.055,152.54a.043.043,0,0,1-.041-.023c-.01-.029.021-.052.041-.06l2.425-1.114.006.014-2.427,1.115s-.037.017-.03.039.047.008.051.008l2.5-.928-2.5.942a.088.088,0,0,1-.029.007Z"/><path class="f" d="M581.508,151.413l-1.668.762,1.719-.639Z"/><path class="e" d="M580.643,151.571c-.37-.013-.573.213-.905.184a1.155,1.155,0,0,0-.64.193c-.131.043-.207-.047-.225-.007s.084.119.264.092.24-.165.638-.134.5-.165.868-.115Z"/><path class="f" d="M579.068,152.047a.244.244,0,0,1-.2-.07l-.01-.041c.014-.022.035-.013.065,0a.243.243,0,0,0,.162.008.642.642,0,0,0,.121-.057.873.873,0,0,1,.527-.138.916.916,0,0,0,.436-.086,1.132,1.132,0,0,1,.469-.1v.016a1.186,1.186,0,0,0-.465.1.987.987,0,0,1-.44.088.842.842,0,0,0-.521.136,1.037,1.037,0,0,1-.119.057.256.256,0,0,1-.174-.008c-.033-.012-.041-.012-.043-.006.033.061.115.1.256.082a.541.541,0,0,0,.156-.052.811.811,0,0,1,.482-.08,1.006,1.006,0,0,0,.444-.063.858.858,0,0,1,.424-.054,1.017,1.017,0,0,0-.42.07,1.016,1.016,0,0,1-.448.063.807.807,0,0,0-.474.078.606.606,0,0,1-.16.057c-.026,0-.051,0-.073,0Z"/><path class="f" d="M580.58,151.642c-.355.018-.51.219-.838.179.258.087.453-.121.834-.109Z"/><path class="e" d="M581.584,151.6l2.43-1.114s.046-.018.033-.05-.059-.011-.059-.011l-2.5.929Z"/><path class="f" d="M581.588,151.6l-.006-.014,2.428-1.114s.041-.017.029-.042-.047-.006-.047-.006l-2.506.928,2.5-.943c.02-.009.059-.014.071.015s-.02.052-.037.062l-2.43,1.114Z"/><path class="f" d="M581.559,151.536l1.668-.766-1.719.643Z"/><path class="e" d="M582.43,151.376c.365.015.572-.214.9-.183a1.146,1.146,0,0,0,.641-.194c.131-.04.207.046.226.008s-.084-.12-.269-.094-.235.166-.637.134-.5.164-.863.115Z"/><path class="f" d="M582.461,151.385h-.031v-.017a1.141,1.141,0,0,0,.461-.1.977.977,0,0,1,.441-.086.857.857,0,0,0,.522-.136.673.673,0,0,1,.119-.058.253.253,0,0,1,.175.009c.028.011.04.013.04,0-.03-.058-.116-.1-.254-.083a.477.477,0,0,0-.157.055.835.835,0,0,1-.484.079.96.96,0,0,0-.439.064.89.89,0,0,1-.424.053,1.008,1.008,0,0,0,.416-.07,1.052,1.052,0,0,1,.447-.064.807.807,0,0,0,.475-.076.48.48,0,0,1,.162-.057.285.285,0,0,1,.269.066l.006.041c-.01.021-.035.013-.064,0a.233.233,0,0,0-.164-.009.716.716,0,0,0-.116.057.859.859,0,0,1-.533.137.916.916,0,0,0-.431.087,1.2,1.2,0,0,1-.436.1Z"/><path class="f" d="M582.492,151.3c.354-.016.51-.217.832-.179-.254-.087-.453.124-.83.112Z"/><path class="e" d="M581.656,151.422l-1.111-2.427s-.02-.046-.051-.032-.012.058-.012.058l.928,2.5Z"/><path class="f" d="M581.418,151.521l-.941-2.5a.078.078,0,0,1,0-.048l.043-.02a.066.066,0,0,1,.035.037l1.113,2.427-.014.007-1.134-2.463-.02.007-.006.047.928,2.5Z"/><path class="f" d="M581.6,151.448l-.762-1.667.643,1.718Z"/><path class="e" d="M581.44,150.581c.013-.37-.213-.573-.186-.9a1.17,1.17,0,0,0-.2-.645c-.039-.129.046-.2.011-.223s-.123.084-.093.265.166.237.132.64.164.5.118.864Z"/><path class="f" d="M581.447,150.581h-.017a1.2,1.2,0,0,0-.1-.462.966.966,0,0,1-.09-.441.839.839,0,0,0-.135-.521,1.116,1.116,0,0,1-.058-.118.272.272,0,0,1,.012-.177c.007-.028.011-.039,0-.043-.062.032-.1.119-.084.255a.762.762,0,0,0,.055.159.814.814,0,0,1,.08.483,1.043,1.043,0,0,0,.063.44.849.849,0,0,1,.052.424,1.064,1.064,0,0,0-.068-.419,1.021,1.021,0,0,1-.064-.446.8.8,0,0,0-.077-.475.526.526,0,0,1-.054-.161.288.288,0,0,1,.06-.266l.045-.009c.022.011.014.035,0,.064a.237.237,0,0,0-.012.164,1.074,1.074,0,0,0,.059.117.886.886,0,0,1,.137.531.916.916,0,0,0,.088.434,1.186,1.186,0,0,1,.1.467Z"/><path class="f" d="M581.367,150.519c-.017-.356-.217-.512-.182-.835-.085.255.124.454.114.832Z"/><path class="e" d="M581.41,151.525l1.117,2.428s.018.046.047.032.016-.057.016-.057l-.934-2.506Z"/><path class="f" d="M582.578,153.994a.092.092,0,0,1-.062-.037l-1.114-2.429.016-.007,1.117,2.427s.018.041.039.031,0-.048,0-.049l-.928-2.5.946,2.5c.008.019.015.056-.018.07Z"/><path class="f" d="M581.477,151.5l.762,1.668-.643-1.719Z"/><path class="e" d="M581.633,152.366c-.016.369.213.574.183.9a1.227,1.227,0,0,0,.192.645c.045.128-.047.2-.006.222s.119-.085.094-.267-.166-.235-.135-.639-.162-.5-.115-.862Z"/><path class="f" d="M582,154.146c-.025-.012-.014-.039,0-.064a.241.241,0,0,0,.008-.166.766.766,0,0,0-.059-.119.908.908,0,0,1-.138-.529.962.962,0,0,0-.082-.433,1.148,1.148,0,0,1-.1-.469h.018a1.148,1.148,0,0,0,.1.462.934.934,0,0,1,.088.441.876.876,0,0,0,.133.521.525.525,0,0,1,.059.12.251.251,0,0,1-.008.176c-.01.027-.01.037,0,.043.057-.032.1-.119.08-.259a.466.466,0,0,0-.055-.157.859.859,0,0,1-.076-.483,1,1,0,0,0-.066-.44.879.879,0,0,1-.053-.424,1.055,1.055,0,0,0,.07.419,1.011,1.011,0,0,1,.063.446.83.83,0,0,0,.076.476.61.61,0,0,1,.059.162.307.307,0,0,1-.065.267l-.041.009Z"/><path class="f" d="M581.7,152.43c.02.354.219.511.18.835.086-.257-.121-.455-.11-.83Z"/><path class="e" d="M581.535,150.387a1.087,1.087,0,1,1-1.09,1.085,1.084,1.084,0,0,1,1.09-1.085Z"/><path class="f" d="M581.535,152.569a1.1,1.1,0,1,1,1.1-1.1,1.1,1.1,0,0,1-1.1,1.1Zm0-2.174a1.079,1.079,0,1,0,1.078,1.077,1.082,1.082,0,0,0-1.078-1.077Z"/><path class="f" d="M582.223,151.239a.437.437,0,0,0-.573-.064.35.35,0,0,0,.03.442.082.082,0,0,0-.037.014.576.576,0,0,1-.043-.475.405.405,0,0,1,.623.083Z"/><path class="f" d="M581.922,151.189a.224.224,0,0,0-.186.067c-.051.043-.076.033-.086.043s0,.033.018.024a.47.47,0,0,0,.1-.067.209.209,0,0,1,.152-.041c.148,0,.232.125.25.117s-.086-.143-.25-.143Z"/><path class="f" d="M582.109,151.332a.249.249,0,0,0-.39.008h.033c.084-.134.287-.077.3-.017v.017Z"/><path class="f" d="M581.9,151.247a.079.079,0,0,1,.076.076.078.078,0,0,1-.076.075.076.076,0,0,1-.076-.075.077.077,0,0,1,.076-.076Z"/><path class="f" d="M581.719,151.34a.337.337,0,0,0,.39-.008l-.056-.009a.223.223,0,0,1-.3.017v-.017Z"/><path class="f" d="M582.121,151.373a.332.332,0,0,1-.369.051c-.084-.051-.084-.067-.067-.067s.034.016.1.049a.417.417,0,0,0,.334-.033Z"/><path class="f" d="M581.711,151.626a.049.049,0,0,1-.031.093.05.05,0,0,1-.037-.044.127.127,0,0,1-.108.066h-.015l.015.026a.17.17,0,0,0,.1-.026.075.075,0,1,0,.123-.087.063.063,0,0,0-.047-.028Z"/><path class="f" d="M581.809,151.975c-.073-.05-.108-.125-.192-.125a.188.188,0,0,0-.082.026h-.015l.015.023c.031,0,.082-.041.145-.007s.09.066.129.083Z"/><path class="f" d="M581.787,151.975a.451.451,0,0,0-.252-.017h-.015l.015.035c.065,0,.1-.051.252-.018Z"/><path class="f" d="M581.809,151.975c-.18-.017-.124.092-.274.092h-.015l.015.026c.184,0,.1-.1.274-.118Z"/><path class="f" d="M581.685,152.242a.15.15,0,0,0-.15-.149.152.152,0,0,0-.152.149.152.152,0,0,1,.187-.112.147.147,0,0,1,.115.112Z"/><path class="f" d="M580.848,151.239a.433.433,0,0,1,.57-.064.353.353,0,0,1-.025.442.1.1,0,0,1,.033.014.573.573,0,0,0,.043-.475.4.4,0,0,0-.621.083Z"/><path class="f" d="M581.15,151.189a.226.226,0,0,1,.184.067c.049.043.072.033.084.043s0,.033-.018.024a.528.528,0,0,1-.1-.067.208.208,0,0,0-.149-.041c-.15,0-.232.125-.252.117s.084-.143.252-.143Z"/><path class="f" d="M580.957,151.332a.254.254,0,0,1,.4.008h-.036c-.084-.134-.283-.077-.3-.017v.017Z"/><path class="f" d="M581.168,151.247a.076.076,0,0,0-.076.076.075.075,0,0,0,.076.075.074.074,0,0,0,.072-.075.075.075,0,0,0-.072-.076Z"/><path class="f" d="M581.352,151.34a.344.344,0,0,1-.4-.008l.063-.009a.216.216,0,0,0,.3.017v-.017Z"/><path class="f" d="M580.947,151.373a.333.333,0,0,0,.369.051c.084-.051.084-.067.067-.067s-.031.016-.1.049a.422.422,0,0,1-.336-.033Z"/><path class="f" d="M581.359,151.626a.046.046,0,0,0-.027.063.045.045,0,0,0,.061.03.05.05,0,0,0,.033-.044.128.128,0,0,0,.109.066h.018l-.018.026a.177.177,0,0,1-.1-.026.075.075,0,0,1-.1.021.079.079,0,0,1-.023-.108.085.085,0,0,1,.05-.028Z"/><path class="f" d="M581.258,151.975c.076-.05.109-.125.193-.125a.2.2,0,0,1,.084.026h.018l-.018.023c-.033,0-.084-.041-.142-.007s-.094.066-.135.083Z"/><path class="f" d="M581.283,151.975a.452.452,0,0,1,.252-.017h.018l-.018.035c-.066,0-.1-.051-.252-.018Z"/><path class="f" d="M581.258,151.975c.185-.017.125.092.277.092h.018l-.018.026c-.183,0-.1-.1-.277-.118Z"/><path class="f" d="M581.383,152.242a.152.152,0,0,1,.152-.149.15.15,0,0,1,.15.149.15.15,0,0,0-.187-.112.154.154,0,0,0-.115.112Z"/></g></g></g></svg>