<svg xmlns="http://www.w3.org/2000/svg" xmlns:xlink="http://www.w3.org/1999/xlink" width="33.563" height="19.578" viewBox="0 0 33.563 19.578"><defs><style>.a{fill:none;}.b{clip-path:url(#a);}.c{fill:#1a237b;}.d{fill:#fff;}.e{fill:#bd0034;}</style><clipPath id="a"><rect class="a" width="33.563" height="19.578" transform="translate(252.007 179.824)"/></clipPath></defs><g transform="translate(-252.007 -179.824)"><g class="b"><path class="c" d="M268.795,179.824v.936l-3.726,1.861h3.726v2.8h-3.726l3.726,1.863v.99h-1.772l-5.227-2.614v2.614H259v-2.614l-5.226,2.614h-1.766V199.4h33.563V179.824Z"/><path class="c" d="M252.007,185.419v1.859l3.718-1.859Z"/><path class="c" d="M261.8,179.824v2.561l5.116-2.561Z"/><path class="c" d="M259,179.824h-5.115L259,182.385Z"/><path class="c" d="M252.007,182.621h3.718l-3.718-1.856Z"/><path class="d" d="M268.788,179.824l-5.594,2.8h-1.253l5.594-2.8h-.623l-5.116,2.561v-2.561h-.56v3.357h7.56v-.561h-3.726l3.726-1.861v-.936Z"/><path class="d" d="M259,179.824v2.561l-5.115-2.561h-1.876l5.594,2.8H256.35l-4.343-2.169v.313l3.718,1.856h-3.718v.561h7.552v-3.357Z"/><path class="d" d="M263.326,184.86h-2.091v3.412h.56v-2.614l5.227,2.614h1.772v-.054l-5.6-2.8h1.25l4.351,2.176v-.312l-3.726-1.863h3.726v-.559h-5.469Z"/><path class="d" d="M258.718,184.86h-6.711v.559h3.718l-3.718,1.859v.936l5.594-2.8h1.25l-5.7,2.854h.626L259,185.658v2.614h.561V184.86Z"/><path class="e" d="M257.6,185.419l-5.594,2.8v.058h1.14l5.7-2.854Z"/><path class="e" d="M252.007,180.452l4.343,2.169H257.6l-5.594-2.8Z"/><path class="e" d="M268.788,179.824h-1.253l-5.594,2.8h1.253Z"/><path class="e" d="M263.194,185.419l5.6,2.8v-.624l-4.351-2.176Z"/><path class="e" d="M259.559,179.824v3.357h-7.552v1.679h7.552v3.412h1.677V184.86h7.56v-1.679h-7.56v-3.357Z"/><path class="d" d="M275.3,185.538h.91l.284-.867.281.867h.909l-.735.537.28.867-.735-.537-.741.537.284-.867Z"/><path class="e" d="M275.709,185.671h.6l.189-.573.185.573h.6l-.485.355.185.574-.485-.354-.489.354.187-.574Z"/><path class="d" d="M271.654,189.21h.911l.284-.869.281.869h.912l-.736.534.279.868-.736-.536-.736.536.28-.868Z"/><path class="e" d="M272.06,189.341h.6l.188-.574.186.574h.605l-.489.354.187.574-.488-.356-.489.356.188-.574Z"/><path class="d" d="M278.561,188.3h.813l.252-.773.25.773h.809l-.655.474.252.773-.656-.476-.658.476.252-.773Z"/><path class="e" d="M278.922,188.416h.539l.165-.511.165.511h.538l-.435.316.165.51-.433-.315-.436.315.167-.51Z"/><path class="d" d="M275.172,194.969h1.012L276.5,194l.311.964h1.014l-.819.6.311.964-.817-.6-.819.6.311-.964Z"/><path class="e" d="M275.621,195.116h.67l.208-.638.206.638h.669l-.54.394.207.64-.542-.4-.542.4.208-.64Z"/></g></g></svg>