<svg xmlns="http://www.w3.org/2000/svg" xmlns:xlink="http://www.w3.org/1999/xlink" width="33.563" height="19.577" viewBox="0 0 33.563 19.577"><defs><style>.a{fill:none;}.b{clip-path:url(#a);}.c,.g{fill:#3c9242;}.d{fill:#edc226;}.e{fill:#2d146e;}.f{fill:#fff;}.g{fill-rule:evenodd;}</style><clipPath id="a"><rect class="a" width="33.563" height="19.577" transform="translate(460.506 141.686)"/></clipPath></defs><g transform="translate(-460.506 -141.687)"><g class="b"><rect class="c" width="33.563" height="19.577" transform="translate(460.506 141.686)"/><path class="d" d="M465.682,151.475l11.605,7.412,11.611-7.412-11.611-7.411Z"/><g class="b"><path class="e" d="M482.18,151.475a4.891,4.891,0,1,1-4.893-4.9,4.893,4.893,0,0,1,4.893,4.9"/><path class="f" d="M474.492,149.376a12.236,12.236,0,0,0-1.683.119,5.009,5.009,0,0,0-.26.748,11.5,11.5,0,0,1,1.943-.167,11.142,11.142,0,0,1,7.467,2.86,4.5,4.5,0,0,0,.174-.774,11.831,11.831,0,0,0-7.641-2.786"/><path class="g" d="M473.113,150.043a.234.234,0,0,0-.056-.461.215.215,0,0,0-.178.256.218.218,0,0,0,.234.205m-.01-.085a.141.141,0,0,0,.1-.161.134.134,0,0,0-.141-.13.135.135,0,0,0-.105.16.139.139,0,0,0,.142.131"/><path class="g" d="M473.494,150l.084-.008-.012-.172.19-.013a.152.152,0,0,0,.135-.157.149.149,0,0,0-.157-.135l-.269.018Zm.066-.266.18-.011a.064.064,0,0,0,.055-.066.057.057,0,0,0-.061-.055l-.181.01Z"/><path class="c" d="M473.887,149.975c0-.067-.012-.212-.114-.207l-.126.008c.144-.008.156.139.163.2"/><path class="g" d="M474.086,149.966l.217-.005a.2.2,0,0,0,.2-.2l0-.067a.2.2,0,0,0-.2-.2l-.217,0Zm.082-.089.127,0a.123.123,0,0,0,.123-.128V149.7a.125.125,0,0,0-.125-.122l-.129,0Z"/><path class="c" d="M474.672,149.96l.422.015,0-.088-.338-.012,0-.118.268.007v-.079l-.264-.01v-.092l.322.011v-.088l-.4-.014Z"/><path class="c" d="M475.268,149.984l.08.007.027-.318.063.326.076.007.119-.311-.027.318.078.008.041-.466-.113-.01-.123.311-.065-.327-.117-.01Z"/><path class="c" d="M476.23,150.093l.35.059.01-.078-.264-.045.018-.1.219.037.01-.08-.213-.036.01-.073.258.045.01-.079-.332-.059Z"/><path class="g" d="M477.117,150.267l.082.022.047-.167.178.045a.147.147,0,0,0,.181-.1.152.152,0,0,0-.105-.18l-.258-.067Zm.153-.231.171.046a.056.056,0,0,0,.071-.043.06.06,0,0,0-.041-.073l-.174-.045Z"/><path class="g" d="M477.69,150.419l.083.025.053-.164.174.056a.148.148,0,0,0,.185-.1.144.144,0,0,0-.093-.183l-.258-.081Zm.162-.222.171.055a.061.061,0,0,0,.075-.04.057.057,0,0,0-.039-.074l-.17-.055Z"/><path class="c" d="M478.066,150.538c.022-.063.065-.2-.029-.232l-.119-.039c.137.044.094.183.072.248"/><path class="g" d="M478.449,150.676a.223.223,0,0,0,.278-.145.211.211,0,1,0-.393-.149.225.225,0,0,0,.115.294m.029-.082a.15.15,0,0,0,.106-.275.142.142,0,0,0-.17.1.139.139,0,0,0,.064.18"/><path class="g" d="M479,150.9a.227.227,0,0,0,.287-.13.225.225,0,0,0-.1-.3.219.219,0,0,0-.284.13.225.225,0,0,0,.1.3m.035-.081a.131.131,0,0,0,.17-.085.137.137,0,0,0-.053-.184.135.135,0,0,0-.17.086.133.133,0,0,0,.053.183"/><path class="c" d="M479.121,150.7l.164.071-.031.061-.158-.072Z"/><path class="c" d="M479.223,150.739l.063.028-.1.213-.057-.027Z"/><path class="g" d="M479.35,151.054l.076.038.076-.157.166.086a.146.146,0,0,0,.2-.066.144.144,0,0,0-.064-.2l-.236-.119Zm.191-.194.16.08a.059.059,0,0,0,.08-.027.06.06,0,0,0-.025-.08l-.164-.08Z"/><path class="c" d="M479.7,151.23c.029-.059.094-.19.006-.235l-.115-.059c.135.068.068.2.041.257"/><path class="c" d="M479.875,151.322l.367.206.039-.075-.293-.167.057-.1.232.132.039-.072-.23-.129.047-.083.275.158.047-.075-.352-.2Z"/><path class="c" d="M480.557,151.55c-.026.038,0,.083.054.119s.094.033.112.01c.05-.082-.243-.2-.153-.337.077-.12.211-.027.262.005a.152.152,0,0,1,.068.212l-.085-.056c.029-.04,0-.082-.049-.107s-.078-.044-.1,0c-.045.063.246.184.154.325-.06.1-.175.056-.25.009s-.162-.139-.1-.236Z"/><path class="c" d="M481.057,151.88c-.03.037-.008.083.046.122s.1.041.114.016c.053-.077-.237-.21-.135-.344.084-.116.215-.016.262.017a.151.151,0,0,1,.054.216l-.08-.059c.026-.04,0-.081-.045-.114s-.072-.044-.1,0c-.047.062.232.2.138.335-.072.1-.185.048-.253-.005s-.157-.146-.088-.241Z"/><path class="g" d="M481.527,152.417a.234.234,0,0,0,.291-.364.219.219,0,0,0-.308.052.223.223,0,0,0,.017.312m.055-.069a.135.135,0,0,0,.19-.038.137.137,0,0,0-.008-.19.132.132,0,0,0-.186.037.13.13,0,0,0,0,.191"/><path class="f" d="M473.291,150.386l-.064.2.1.033Z"/><path class="f" d="M473.291,150.386l.066.2-.1.033Z"/><path class="f" d="M473.49,150.531h-.209v.1Z"/><path class="f" d="M473.49,150.531l-.166.122-.066-.084Z"/><path class="f" d="M473.092,150.531l.17.122.063-.084Z"/><path class="f" d="M473.092,150.531h.211v.1Z"/><path class="f" d="M473.414,150.765l-.064-.2-.1.033Z"/><path class="f" d="M473.414,150.765l-.17-.124.063-.085Z"/><path class="f" d="M473.168,150.765l.17-.124-.061-.085Z"/><path class="f" d="M473.168,150.765l.066-.2.1.033Z"/><path class="f" d="M473.727,152.443l-.066.2.1.032Z"/><path class="f" d="M473.727,152.443l.063.2-.1.032Z"/><path class="f" d="M473.922,152.588h-.207v.105Z"/><path class="f" d="M473.922,152.588l-.166.124-.062-.087Z"/><path class="f" d="M473.527,152.588l.166.124.066-.087Z"/><path class="f" d="M473.527,152.588h.211v.105Z"/><path class="f" d="M473.85,152.823l-.064-.2-.1.032Z"/><path class="f" d="M473.85,152.823l-.17-.125.061-.083Z"/><path class="f" d="M473.6,152.823l.174-.125-.064-.083Z"/><path class="f" d="M473.6,152.823l.064-.2.1.032Z"/><path class="f" d="M473.125,152.951l-.039.135.064.021Z"/><path class="f" d="M473.125,152.951l.043.135-.065.021Z"/><path class="f" d="M473.258,153.049h-.141v.07Z"/><path class="f" d="M473.258,153.049l-.111.083-.041-.057Z"/><path class="f" d="M472.994,153.049l.111.083.041-.057Z"/><path class="f" d="M472.994,153.049h.139v.07Z"/><path class="f" d="M473.207,153.205l-.043-.133-.064.022Z"/><path class="f" d="M473.207,153.205l-.111-.082.041-.058Z"/><path class="f" d="M473.045,153.205l.111-.082-.039-.058Z"/><path class="f" d="M473.045,153.205l.041-.133.064.022Z"/><path class="f" d="M474.205,152.253l-.033.094.047.018Z"/><path class="f" d="M474.205,152.253l.029.094-.047.018Z"/><path class="f" d="M474.3,152.323h-.1v.049Z"/><path class="f" d="M474.3,152.323l-.08.059-.027-.041Z"/><path class="f" d="M474.107,152.323l.084.059.027-.041Z"/><path class="f" d="M474.107,152.323h.1v.049Z"/><path class="f" d="M474.264,152.435l-.033-.1-.043.017Z"/><path class="f" d="M474.264,152.435l-.08-.06.029-.041Z"/><path class="f" d="M474.147,152.435l.08-.06-.029-.041Z"/><path class="f" d="M474.147,152.435l.029-.1.047.017Z"/><path class="f" d="M474.746,152.964l-.055.167.078.028Z"/><path class="f" d="M474.746,152.964l.051.167-.08.028Z"/><path class="f" d="M474.908,153.086h-.174v.086Z"/><path class="f" d="M474.908,153.086l-.141.1-.051-.072Z"/><path class="f" d="M474.578,153.086l.141.1.051-.072Z"/><path class="f" d="M474.578,153.086h.174v.086Z"/><path class="f" d="M474.848,153.278l-.055-.164-.084.027Z"/><path class="f" d="M474.848,153.278l-.143-.1.051-.069Z"/><path class="f" d="M474.645,153.278l.137-.1-.051-.069Z"/><path class="f" d="M474.645,153.278l.051-.164.082.027Z"/><path class="f" d="M474.6,153.45l-.055.167.082.027Z"/><path class="f" d="M474.6,153.45l.053.167-.082.027Z"/><path class="f" d="M474.764,153.572h-.174v.085Z"/><path class="f" d="M474.764,153.572l-.143.1-.051-.071Z"/><path class="f" d="M474.434,153.572l.141.1.051-.071Z"/><path class="f" d="M474.434,153.572h.174v.085Z"/><path class="f" d="M474.7,153.767l-.051-.167-.084.027Z"/><path class="f" d="M474.7,153.767l-.143-.1.055-.068Z"/><path class="f" d="M474.5,153.767l.141-.1-.051-.068Z"/><path class="f" d="M474.5,153.767l.053-.167.084.027Z"/><path class="f" d="M478.8,149.746l-.064.2.1.031Z"/><path class="f" d="M478.8,149.746l.066.2-.1.031Z"/><path class="f" d="M479,149.891h-.209V150Z"/><path class="f" d="M479,149.891l-.17.124-.061-.086Z"/><path class="f" d="M478.605,149.891l.172.124.061-.086Z"/><path class="f" d="M478.605,149.891h.211V150Z"/><path class="f" d="M478.93,150.127l-.066-.2-.1.033Z"/><path class="f" d="M478.93,150.127l-.172-.124.063-.086Z"/><path class="f" d="M478.682,150.127l.17-.124-.061-.086Z"/><path class="f" d="M478.682,150.127l.066-.2.1.033Z"/><path class="f" d="M480.715,152.983l-.064.2.1.033Z"/><path class="f" d="M480.715,152.983l.066.2-.1.033Z"/><path class="f" d="M480.916,153.128h-.211v.1Z"/><path class="f" d="M480.916,153.128l-.168.123-.064-.086Z"/><path class="f" d="M480.516,153.128l.172.123.06-.086Z"/><path class="f" d="M480.516,153.128h.211v.1Z"/><path class="f" d="M480.844,153.362l-.066-.2-.1.031Z"/><path class="f" d="M480.844,153.362l-.172-.123.063-.086Z"/><path class="f" d="M480.594,153.362l.17-.123-.062-.086Z"/><path class="f" d="M480.594,153.362l.064-.2.1.031Z"/><path class="f" d="M481.4,153.1l-.047.132.07.021Z"/><path class="f" d="M481.4,153.1l.043.132-.07.021Z"/><path class="f" d="M481.527,153.2h-.137v.068Z"/><path class="f" d="M481.527,153.2l-.111.082-.041-.058Z"/><path class="f" d="M481.264,153.2l.111.082.045-.058Z"/><path class="f" d="M481.264,153.2h.141v.068Z"/><path class="f" d="M481.477,153.352l-.039-.134-.068.023Z"/><path class="f" d="M481.477,153.352l-.111-.082.043-.058Z"/><path class="f" d="M481.315,153.352l.111-.082-.039-.058Z"/><path class="f" d="M481.315,153.352l.043-.134.065.023Z"/><path class="f" d="M480.916,153.45l-.051.167.08.027Z"/><path class="f" d="M480.916,153.45l.053.167-.078.027Z"/><path class="f" d="M481.082,153.572h-.174v.085Z"/><path class="f" d="M481.082,153.572l-.137.1-.055-.071Z"/><path class="f" d="M480.752,153.572l.142.1.051-.071Z"/><path class="f" d="M480.752,153.572h.174v.085Z"/><path class="f" d="M481.02,153.767l-.053-.167-.084.027Z"/><path class="f" d="M481.02,153.767l-.141-.1.051-.068Z"/><path class="f" d="M480.815,153.767l.141-.1-.051-.068Z"/><path class="f" d="M480.815,153.767l.053-.167.084.027Z"/><path class="f" d="M479.738,154.476l-.055.165.082.028Z"/><path class="f" d="M479.738,154.476l.053.165-.084.028Z"/><path class="f" d="M479.9,154.6h-.174v.088Z"/><path class="f" d="M479.9,154.6l-.143.1-.051-.071Z"/><path class="f" d="M479.574,154.6l.141.1.047-.071Z"/><path class="f" d="M479.574,154.6h.174v.088Z"/><path class="f" d="M479.838,154.792l-.049-.166-.088.026Z"/><path class="f" d="M479.838,154.792l-.141-.1.051-.069Z"/><path class="f" d="M479.637,154.792l.141-.1-.051-.069Z"/><path class="f" d="M479.637,154.792l.053-.166.084.026Z"/><path class="f" d="M479.73,155l-.041.131.066.023Z"/><path class="f" d="M479.73,155l.043.131-.066.023Z"/><path class="f" d="M479.863,155.1h-.137v.069Z"/><path class="f" d="M479.863,155.1l-.115.08-.041-.056Z"/><path class="f" d="M479.6,155.1l.111.08.041-.056Z"/><path class="f" d="M479.6,155.1h.139v.069Z"/><path class="f" d="M479.813,155.255l-.043-.13-.068.02Z"/><path class="f" d="M479.813,155.255l-.115-.08.043-.057Z"/><path class="f" d="M479.65,155.255l.111-.08-.043-.057Z"/><path class="f" d="M479.65,155.255l.043-.13.064.02Z"/><path class="f" d="M480.227,154.124l-.047.134.064.021Z"/><path class="f" d="M480.227,154.124l.039.134-.064.021Z"/><path class="f" d="M480.357,154.221h-.143v.07Z"/><path class="f" d="M480.357,154.221l-.113.084-.043-.056Z"/><path class="f" d="M480.092,154.221l.113.084.039-.056Z"/><path class="f" d="M480.092,154.221h.143v.07Z"/><path class="f" d="M480.307,154.377l-.045-.132-.064.021Z"/><path class="f" d="M480.307,154.377l-.113-.081.045-.057Z"/><path class="f" d="M480.143,154.377l.113-.081-.041-.057Z"/><path class="f" d="M480.143,154.377l.045-.132.065.021Z"/><path class="f" d="M480.617,153.844l-.053.165.08.027Z"/><path class="f" d="M480.617,153.844l.055.165-.086.027Z"/><path class="f" d="M480.781,153.965h-.174v.086Z"/><path class="f" d="M480.781,153.965l-.137.1-.051-.072Z"/><path class="f" d="M480.451,153.965l.143.1.051-.072Z"/><path class="f" d="M480.451,153.965h.174v.086Z"/><path class="f" d="M480.719,154.157l-.051-.163-.086.026Z"/><path class="f" d="M480.719,154.157l-.141-.1.051-.07Z"/><path class="f" d="M480.514,154.157l.145-.1-.055-.07Z"/><path class="f" d="M480.514,154.157l.057-.163.08.026Z"/><path class="f" d="M479.715,154.031l-.039.133.064.022Z"/><path class="f" d="M479.715,154.031l.047.133-.068.022Z"/><path class="f" d="M479.853,154.129h-.143v.069Z"/><path class="f" d="M479.853,154.129l-.115.081-.041-.058Z"/><path class="f" d="M479.586,154.129l.111.081.041-.058Z"/><path class="f" d="M479.586,154.129h.141v.069Z"/><path class="f" d="M479.8,154.286l-.045-.135-.068.021Z"/><path class="f" d="M479.8,154.286l-.115-.085.039-.054Z"/><path class="f" d="M479.637,154.286l.111-.085-.041-.054Z"/><path class="f" d="M479.637,154.286l.043-.135.068.021Z"/><path class="f" d="M475.424,151.5l-.055.165.084.026Z"/><path class="f" d="M475.424,151.5l.053.165-.082.026Z"/><path class="f" d="M475.59,151.62h-.174v.087Z"/><path class="f" d="M475.59,151.62l-.141.1-.051-.072Z"/><path class="f" d="M475.256,151.62l.143.1.051-.072Z"/><path class="f" d="M475.256,151.62h.174v.087Z"/><path class="f" d="M475.525,151.815l-.051-.165-.084.026Z"/><path class="f" d="M475.525,151.815l-.143-.1.051-.071Z"/><path class="f" d="M475.318,151.815l.145-.1-.051-.071Z"/><path class="f" d="M475.318,151.815l.057-.165.08.026Z"/><path class="f" d="M478.617,151.087l-.039.134.065.02Z"/><path class="f" d="M478.617,151.087l.047.134-.068.02Z"/><path class="f" d="M478.754,151.186h-.141v.068Z"/><path class="f" d="M478.754,151.186l-.115.082-.039-.057Z"/><path class="f" d="M478.486,151.186l.113.082.039-.057Z"/><path class="f" d="M478.486,151.186h.143v.068Z"/><path class="f" d="M478.7,151.342l-.047-.134-.065.023Z"/><path class="f" d="M478.7,151.342l-.115-.084.041-.057Z"/><path class="f" d="M478.537,151.342l.113-.084-.041-.057Z"/><path class="f" d="M478.537,151.342l.043-.134.066.023Z"/><path class="f" d="M477.287,153.462l-.066.2.1.033Z"/><path class="f" d="M477.287,153.462l.064.2-.1.033Z"/><path class="f" d="M477.486,153.606h-.207v.105Z"/><path class="f" d="M477.486,153.606l-.168.125-.061-.087Z"/><path class="f" d="M477.088,153.606l.174.125.057-.087Z"/><path class="f" d="M477.088,153.606h.209v.105Z"/><path class="f" d="M477.41,153.842l-.062-.2-.1.031Z"/><path class="f" d="M477.41,153.842l-.168-.124.059-.084Z"/><path class="f" d="M477.164,153.842l.17-.124-.062-.084Z"/><path class="f" d="M477.164,153.842l.064-.2.1.031Z"/><path class="f" d="M477.855,152.525l-.055.166.084.025Z"/><path class="f" d="M477.855,152.525l.055.166-.084.025Z"/><path class="f" d="M478.02,152.646h-.176v.085Z"/><path class="f" d="M478.02,152.646l-.142.1-.051-.07Z"/><path class="f" d="M477.69,152.646l.141.1.051-.07Z"/><path class="f" d="M477.69,152.646h.174v.085Z"/><path class="f" d="M477.957,152.841l-.055-.167-.082.028Z"/><path class="f" d="M477.957,152.841l-.141-.1.051-.071Z"/><path class="f" d="M477.75,152.841l.143-.1-.051-.071Z"/><path class="f" d="M477.75,152.841l.055-.167.084.028Z"/><path class="f" d="M477.287,152.087l-.055.164.084.027Z"/><path class="f" d="M477.287,152.087l.053.164-.078.027Z"/><path class="f" d="M477.453,152.206h-.174v.088Z"/><path class="f" d="M477.453,152.206l-.141.1-.051-.069Z"/><path class="f" d="M477.123,152.206l.143.1.047-.069Z"/><path class="f" d="M477.123,152.206h.174v.088Z"/><path class="f" d="M477.391,152.4l-.053-.166-.084.025Z"/><path class="f" d="M477.391,152.4l-.141-.1.051-.071Z"/><path class="f" d="M477.185,152.4l.141-.1-.051-.071Z"/><path class="f" d="M477.185,152.4l.053-.166.084.025Z"/><path class="f" d="M476.793,152.56l-.043.134.068.021Z"/><path class="f" d="M476.793,152.56l.047.134-.068.021Z"/><path class="f" d="M476.928,152.656h-.139v.068Z"/><path class="f" d="M476.928,152.656l-.113.082-.043-.058Z"/><path class="f" d="M476.664,152.656l.111.082.039-.058Z"/><path class="f" d="M476.664,152.656h.137v.068Z"/><path class="f" d="M476.877,152.813l-.041-.133-.068.021Z"/><path class="f" d="M476.877,152.813l-.111-.082.043-.057Z"/><path class="f" d="M476.715,152.813l.111-.082-.041-.057Z"/><path class="f" d="M476.715,152.813l.043-.133.064.021Z"/><path class="f" d="M477.043,152.939l-.031.095.047.015Z"/><path class="f" d="M477.043,152.939l.029.095-.047.015Z"/><path class="f" d="M477.137,153.008h-.1v.05Z"/><path class="f" d="M477.137,153.008l-.078.06-.029-.041Z"/><path class="f" d="M476.945,153.008l.084.06.029-.041Z"/><path class="f" d="M476.945,153.008h.1v.05Z"/><path class="f" d="M477.1,153.121l-.029-.1-.047.015Z"/><path class="f" d="M477.1,153.121l-.08-.06.033-.041Z"/><path class="f" d="M476.982,153.121l.08-.06-.029-.041Z"/><path class="f" d="M476.982,153.121l.033-.1.047.015Z"/><path class="f" d="M478.754,154.595l-.055.167.084.028Z"/><path class="f" d="M478.754,154.595l.055.167-.086.028Z"/><path class="f" d="M478.918,154.715h-.174v.09Z"/><path class="f" d="M478.918,154.715l-.141.1-.051-.072Z"/><path class="f" d="M478.588,154.715l.139.1.055-.072Z"/><path class="f" d="M478.588,154.715h.174v.09Z"/><path class="f" d="M478.855,154.912l-.055-.167-.082.028Z"/><path class="f" d="M478.855,154.912l-.141-.1.051-.07Z"/><path class="f" d="M478.65,154.912l.141-.1-.051-.07Z"/><path class="f" d="M478.65,154.912l.053-.167.084.028Z"/><path class="f" d="M479.172,154.2l-.043.133.064.022Z"/><path class="f" d="M479.172,154.2l.043.133-.068.022Z"/><path class="f" d="M479.3,154.3h-.141v.066Z"/><path class="f" d="M479.3,154.3l-.111.08-.043-.055Z"/><path class="f" d="M479.037,154.3l.113.08.043-.055Z"/><path class="f" d="M479.037,154.3h.143v.066Z"/><path class="f" d="M479.254,154.45l-.043-.133-.064.022Z"/><path class="f" d="M479.254,154.45l-.111-.082.041-.057Z"/><path class="f" d="M479.092,154.45l.111-.082-.043-.057Z"/><path class="f" d="M479.092,154.45l.043-.133.066.022Z"/><path class="f" d="M478.367,154.078l-.043.132.065.023Z"/><path class="f" d="M478.367,154.078l.043.132-.064.023Z"/><path class="f" d="M478.5,154.174h-.139v.071Z"/><path class="f" d="M478.5,154.174l-.113.084-.039-.059Z"/><path class="f" d="M478.232,154.174l.113.084.039-.059Z"/><path class="f" d="M478.232,154.174h.143v.071Z"/><path class="f" d="M478.449,154.331l-.043-.133-.068.023Z"/><path class="f" d="M478.449,154.331l-.115-.082.043-.056Z"/><path class="f" d="M478.283,154.331l.113-.082-.041-.056Z"/><path class="f" d="M478.283,154.331l.043-.133.07.023Z"/><path class="f" d="M475.322,153.861l-.062.2.1.033Z"/><path class="f" d="M475.322,153.861l.064.2-.1.033Z"/><path class="f" d="M475.525,154.008h-.211v.1Z"/><path class="f" d="M475.525,154.008l-.174.122-.059-.085Z"/><path class="f" d="M475.121,154.008l.176.122.057-.085Z"/><path class="f" d="M475.121,154.008h.211v.1Z"/><path class="f" d="M475.445,154.241l-.062-.2-.1.031Z"/><path class="f" d="M475.445,154.241l-.168-.123.059-.085Z"/><path class="f" d="M475.2,154.241l.17-.123-.062-.085Z"/><path class="f" d="M475.2,154.241l.068-.2.1.031Z"/><path class="f" d="M477.287,155.232l-.022.067.031.011Z"/><path class="f" d="M477.287,155.232l.021.067-.029.011Z"/><path class="f" d="M477.355,155.282h-.072v.034Z"/><path class="f" d="M477.355,155.282l-.059.041-.018-.029Z"/><path class="f" d="M477.221,155.282l.059.041.018-.029Z"/><path class="f" d="M477.221,155.282h.068v.034Z"/><path class="f" d="M477.326,155.359l-.018-.066-.033.012Z"/><path class="f" d="M477.326,155.359l-.055-.04.018-.027Z"/><path class="f" d="M477.246,155.359l.055-.04-.018-.027Z"/><path class="f" d="M477.246,155.359l.023-.066.031.012Z"/></g></g></g></svg>