<svg xmlns="http://www.w3.org/2000/svg" xmlns:xlink="http://www.w3.org/1999/xlink" width="33.563" height="19.578" viewBox="0 0 33.563 19.578"><defs><style>.a{fill:none;}.b{clip-path:url(#a);}.c{fill:#ea0020;}.d{fill:#fff;}</style><clipPath id="a"><rect class="a" width="33.563" height="19.578" transform="translate(43.515 256.105)"/></clipPath></defs><g transform="translate(-43.515 -256.105)"><g class="b"><rect class="c" width="7.896" height="19.578" transform="translate(43.515 256.105)"/><rect class="c" width="7.895" height="19.578" transform="translate(69.182 256.105)"/><rect class="d" width="17.771" height="19.578" transform="translate(51.41 256.105)"/><g class="b"><path class="c" d="M60.3,258.644,59.131,260.9c-.132.246-.368.221-.606.085l-.843-.456.628,3.477c.133.635-.291.635-.5.361l-1.471-1.716-.239.87a.284.284,0,0,1-.331.206l-1.859-.409.488,1.851c.107.413.186.584-.1.692l-.663.324,3.2,2.71a.446.446,0,0,1,.144.454l-.28.959c1.1-.132,2.092-.253,3.192-.386.1,0,.261.087.26.2L60,273.641h.537l-.086-3.5c0-.115.148-.212.244-.212,1.1.133,2.092.254,3.195.386l-.283-.959a.456.456,0,0,1,.147-.454l3.2-2.71-.663-.324c-.292-.108-.21-.279-.106-.692l.49-1.851-1.861.409a.284.284,0,0,1-.33-.206l-.238-.87-1.472,1.716c-.209.274-.633.274-.5-.361l.627-3.477-.841.456c-.238.136-.475.161-.6-.085Z"/></g></g></g></svg>