<svg xmlns="http://www.w3.org/2000/svg" xmlns:xlink="http://www.w3.org/1999/xlink" width="33.563" height="19.577" viewBox="0 0 33.563 19.577"><defs><style>.a{fill:none;}.b{clip-path:url(#a);}.c{fill:#fff;}.d{fill:#2530a9;}.e{fill:#c22623;}</style><clipPath id="a"><rect class="a" width="33.563" height="19.577" transform="translate(408.381 141.686)"/></clipPath></defs><g transform="translate(-408.381 -141.687)"><g class="b"><rect class="c" width="33.563" height="19.577" transform="translate(408.381 141.686)"/><rect class="d" width="9.789" height="19.577" transform="translate(408.381 141.686)"/><rect class="e" width="33.563" height="9.789" transform="translate(408.381 151.475)"/><path class="c" d="M413.279,144.132l-.758,2.329,1.164.378Z"/><path class="c" d="M413.279,144.132l.754,2.329-1.164.378Z"/><path class="c" d="M415.6,145.823H413.16v1.225Z"/><path class="c" d="M415.6,145.823l-1.98,1.439-.717-.991Z"/><path class="c" d="M410.949,145.823l1.982,1.439.717-.991Z"/><path class="c" d="M410.949,145.823H413.4v1.225Z"/><path class="c" d="M414.715,148.559l-.754-2.326-1.164.378Z"/><path class="c" d="M414.715,148.559l-1.98-1.438.723-.987Z"/><path class="c" d="M411.84,148.559l1.98-1.438-.723-.987Z"/><path class="c" d="M411.84,148.559l.754-2.326,1.164.378Z"/></g></g></svg>