<svg xmlns="http://www.w3.org/2000/svg" xmlns:xlink="http://www.w3.org/1999/xlink" width="33.561" height="19.578" viewBox="0 0 33.561 19.578"><defs><style>.a{fill:none;}.b{clip-path:url(#a);}.c{fill:#fff;}.d{fill:#1e2788;}.e{fill:#cb0028;}.f{fill:#3a7aa1;}.g{fill:#4c73d5;}.h{fill:#fbfc2b;}.i{fill:#c2a21f;}.j{fill:#613f21;}.k{fill:#160080;}.l{fill:#d30028;}.m{fill:#ba0019;}.n{fill:#82373b;}.o{fill:#83353b;}.p{fill:#e8d629;}.q{fill:#624e0f;}.r{fill:#f4c627;}.s{fill:#f4c427;}</style><clipPath id="a"><rect class="a" width="33.561" height="19.578" transform="translate(721.127 332.386)"/></clipPath></defs><g transform="translate(-721.127 -332.386)"><g class="b"><rect class="c" width="33.561" height="6.527" transform="translate(721.127 338.909)"/><rect class="d" width="33.561" height="6.527" transform="translate(721.127 345.436)"/><rect class="e" width="33.561" height="6.523" transform="translate(721.127 332.386)"/><g class="b"><path class="c" d="M734.02,338.815a11.65,11.65,0,0,1,3.835-.66,11.527,11.527,0,0,1,3.94.67l.978-1.969-.687-1.2s-1.227.5-1.234.5-.866-.941-.866-.941l-1.1.664-1.03-.787-.966.775-1.133-.656-.822.982-1.237-.529-.664,1.185Z"/><path class="e" d="M741.809,338.862l-.022-.007a11.506,11.506,0,0,0-3.9-.672,11.687,11.687,0,0,0-3.858.66l-1.009-1.973.662-1.213,1.273.518.789-.975,1.168.649.936-.772,1.062.785,1.069-.664c.363.367.867.918.892.942.012-.016.877-.371,1.207-.508l.725,1.211-.99,2.019Zm-8.118-3.166-.625,1.174.975,1.934a10.907,10.907,0,0,1,3.814-.676,11.7,11.7,0,0,1,3.93.662l.963-1.947-.685-1.168c-1.2.515-1.2.515-1.211.515a8.838,8.838,0,0,1-.883-.949l-1.063.668-1.062-.789-.932.776-1.164-.653-.787.975-1.27-.522Z"/><path class="f" d="M740.279,338.271l.563-1.979,1.2-.486.629,1.06-.906,1.854a7.915,7.915,0,0,0-1.483-.449Z"/><path class="g" d="M741.766,338.727h-.008a7.883,7.883,0,0,0-1.479-.45l.555-1.984,1.2-.494.641,1.066-.91,1.863Zm.265-2.919-1.189.49-.555,1.973a7.516,7.516,0,0,1,1.471.439l.9-1.846-.631-1.056Z"/><path class="f" d="M737.125,338.056l-.187-2.047.953-.758.992.756-.176,2.049a14.878,14.878,0,0,0-1.582,0Z"/><path class="g" d="M738.713,338.064h-.006a14.369,14.369,0,0,0-1.582,0l-.2-2.055.953-.766,1,.758-.174,2.063Zm-.83-2.811-.942.758.192,2.043a12.428,12.428,0,0,1,1.566,0l.178-2.045-.994-.752Z"/><path class="f" d="M734.066,338.718l-.888-1.875.592-1.039,1.228.535.522,1.937a7.548,7.548,0,0,0-1.454.442Z"/><path class="g" d="M734.063,338.727l-.893-1.884.592-1.041,1.24.533.525,1.939a8.717,8.717,0,0,0-1.461.45l0,0Zm-.293-2.916-.585,1.036.881,1.863a7.812,7.812,0,0,1,1.45-.443l-.526-1.924-1.22-.532Z"/><path class="c" d="M733.875,337.773a1.462,1.462,0,0,0,.7-.065.988.988,0,0,0,.449-.4.5.5,0,0,1-.275.642.687.687,0,0,1-.873-.175Z"/><path class="c" d="M734.4,338.038a.623.623,0,0,1-.531-.262c.09,0,.162,0,.231,0a1.351,1.351,0,0,0,.472-.078.962.962,0,0,0,.432-.375h0a.844.844,0,0,1-.428.389,1.527,1.527,0,0,1-.7.064.728.728,0,0,0,.869.164.5.5,0,0,0,.3-.486.467.467,0,0,1-.295.494.722.722,0,0,1-.352.086Z"/><path class="h" d="M738.148,336.325l-.055.014,0,.1-.07.014-.043.086.025.023-.018.064.018.023.016.053.047.008.01.061.07.008.065.047,0,.029.072,0,.051.016.178-.021.025-.033v-.051l.094,0,.012-.08h.047l-.008-.09.043,0-.01-.041-.025-.037-.008-.055-.072-.07-.014-.1-.047-.022,0-.062.051-.078,0-.025-.047,0-.041.027-.047.01v.021l.012.043h-.055l0-.066-.08-.039-.076.053,0,.057-.035.01-.037-.055-.065-.023-.037,0v.043l.07.086Z"/><path class="i" d="M738.34,336.886l-.133-.016,0-.043-.062-.035-.063-.008-.023-.074-.03.008-.041-.123.026-.035-.035-.012.039-.106.08-.025-.018-.078.069-.029-.008-.039-.065-.075v-.07l.051,0,.068.025.043.059.012-.059c0-.009,0-.009.082-.066l.1.041.01.078.025-.016-.014-.021c0-.041,0-.043.065-.051l.029-.025.059,0h.013l.008.045-.058.086.007.054c0-.011.037.008.037.008l.028.106.07.064.043.139-.059.017.026.071-.065.017.008.065-.113.017.013.035-.025.045-.195.026Zm-.043-.047.051.016.174-.02.009-.029,0-.043.112-.018-.008-.064.066-.014-.021-.072.06-.014-.054-.051-.006-.062-.069-.065-.023-.1c-.047-.014-.047-.014-.047-.026l0-.062.059-.084-.039-.006-.03.027c-.007,0-.046.006-.054.01.025.045.025.045.025.049l-.072.016-.022-.082-.07-.024c0,.006-.047.037-.057.047v.06l-.048.01-.053-.058-.055-.018-.014.025.061.079,0,.062-.064.025.013.084-.08.028-.031.078c.027.022.027.023.014.064-.01,0-.01,0,.008.034l.021.054.029,0,.026.075.058,0,.074.052,0,.034.063-.01Z"/><path class="a" d="M738.652,336.681l-.015-.053Z"/><path class="a" d="M738.691,336.593l-.021-.035Z"/><path class="i" d="M738.014,336.552l.08,0,.013.068.026.028,0,.121.025.011.008-.05.057,0,.011.1-.011.016,0,.013.075,0,.017-.026.039,0,.016.028.01-.038.041-.015.029.051.053-.008-.031-.029-.016-.065.076-.041.026.049s.029,0,.025,0l-.031-.057v-.113l.056-.074.076-.008v-.033l-.076-.069-.017-.1-.043-.022-.012.014-.051,0,.051.072v.045l.017.012v.127l-.055.008,0,.068-.033.035-.018.063-.033.043h-.061l-.037-.036,0-.047-.026-.007-.014-.055-.045-.022v-.031l-.039-.015,0-.03-.022-.013v-.08l.033-.006-.019-.024-.006-.021v-.026l.029-.025-.055-.008-.046.022,0,.1-.059.014-.051.078Z"/><path class="i" d="M738.221,336.87l-.008-.027v-.117l-.043.015.006.035v.022l-.047-.018-.01-.136-.043-.092-.066.017-.03-.025.045-.1.065-.025c-.008,0-.008-.069-.008-.076a.179.179,0,0,1,.059-.035.329.329,0,0,1,.066,0l-.027.085-.024-.014.024-.043a.065.065,0,0,1-.028,0c.01.006-.019.013-.037.017a.511.511,0,0,1,0,.084l-.072.032-.037.07.084-.008.033.08.033.151,0-.039.075-.02.031.115-.012.014.072-.008v.033l-.1.01Zm.24-.006c-.049-.058-.049-.062-.049-.068l-.025.015,0,.01-.008-.025c.037-.016.041-.016.045-.016a.388.388,0,0,1,.043.059l.037-.016-.041,0-.018-.076,0,0,0,0-.021.031-.073.008c-.05-.039-.05-.043-.05-.051l-.008-.044c-.022.005-.022.005-.037-.059l-.039-.016,0-.041-.037-.008-.01-.035c-.022,0-.022,0-.022-.1v-.016l.051-.006h0l.031.029-.056.006a.24.24,0,0,1,.006.063l.066.051,0,.042.031.012c.012.01.02.051.024.057.023.014.031.062.031.062l.029.022.047,0c.022-.039.026-.039.033-.039-.011,0,0-.055,0-.055l.039-.041,0-.056c0-.018,0-.018.075-.026l-.034-.166-.046-.06.06-.032.066.012.028.108.078.066v.039l-.092.025-.047.067,0,.1h0a.274.274,0,0,1,.029.049l-.04.024-.04-.055-.054.045.051.068-.061.037Zm.053-.291a.312.312,0,0,1,0,.057l-.039.045c-.016.047-.018.062-.026.066l.076-.051.022.022,0-.006,0-.123.016-.023a.408.408,0,0,1-.045.013Zm.033-.279-.051.021.059.043.017.184.033-.043.086-.014-.086-.074-.025-.105-.033-.012Z"/><path class="j" d="M738.315,336.681l.04-.024v-.043l-.04-.009-.01-.012.035,0,.058,0,.018-.008c-.01.017-.014.017-.018.017l-.029.014v.045l.092.01,0,.018-.092-.022-.056.035Z"/><path class="i" d="M738.293,336.722l.017-.045.042-.026-.012-.045.021.008v-.008l.037-.013v.009l-.025.022.006.037c.088,0,.088,0,.088.01-.014.023-.014.023-.106,0l-.068.047Z"/><path class="i" d="M738.543,336.413l-.051.041-.035.059-.016,0-.054-.065h-.059l-.031.08-.022,0-.062-.064-.014-.033.153,0v-.071a.213.213,0,0,1-.037-.015c.007,0,.083,0,.083,0l-.033.019v.063l.135,0Z"/><path class="i" d="M738.3,336.548l-.025,0-.077-.08-.011-.043.168-.008-.016-.051.016-.01a.076.076,0,0,1-.02.006c-.014-.031.016-.031.066-.031h.051l-.072.051.006.047.156-.026-.078.124-.033,0-.051-.068-.045.01c.008,0-.014.06-.017.068l-.018.012Zm.064-.117-.162.013.086.071a.479.479,0,0,0,.03-.071l.05,0,0-.009Z"/><path class="j" d="M738.272,336.45h.013c.008,0,.012,0,.012.008v.014c0,.008,0,.011-.012.011h-.013c-.008,0-.012,0-.012-.011v-.014s0-.008.012-.008Z"/><path class="j" d="M738.438,336.442h.011a.011.011,0,0,1,.012.012v.01a.011.011,0,0,1-.012.012h-.011a.011.011,0,0,1-.01-.012v-.01a.011.011,0,0,1,.01-.012Z"/><path class="i" d="M738.2,336.345l-.019-.01.008-.02a.462.462,0,0,1,.152-.042.593.593,0,0,1,.182.011.653.653,0,0,1-.174.022.509.509,0,0,0-.149.039Z"/><path class="i" d="M738.213,336.218h-.047l-.06-.066.031.006.043.018Z"/><path class="i" d="M738.242,336.237h-.076l-.109-.105.131.029.055.076Z"/><path class="i" d="M738.484,336.192l.1-.076-.031,0-.041.033-.043.008Z"/><path class="a" d="M738.484,336.192l.1-.076-.031,0-.041.033-.043.008Z"/><path class="i" d="M738.424,336.208l-.16.006,0-.018.059-.006.006-.023h.02l.01.023.059.01Z"/><path class="i" d="M738.246,336.229l0-.035.076-.02-.033.021.047,0,0-.018.088.008.014.025-.01.016-.182.006Z"/><path class="i" d="M738.416,336.149h-.055l0-.029Z"/><path class="a" d="M738.416,336.149h-.055l0-.029Z"/><path class="i" d="M738.322,336.12l0,.029-.055.012Z"/><path class="a" d="M738.322,336.12l0,.029-.055.012Z"/><path class="i" d="M738.018,336.667l.025-.068-.022-.047-.025.068Z"/><path class="a" d="M738.018,336.667l.025-.068-.022-.047-.025.068Z"/><path class="i" d="M738.072,336.7l.035-.08-.064.066Z"/><path class="i" d="M738.078,336.726l-.043-.021.059-.088-.039.084.018,0-.016-.006.037-.084-.016.111Z"/><path class="h" d="M737.264,336.353l-.055.014,0,.1-.065.016-.049.084.029.025-.021.064.018.022.016.055.047,0,.012.063.068.012.064.045,0,.029.076,0,.051.014.174-.02.025-.035v-.051l.094,0,.012-.078h.047l0-.092.045,0-.016-.041-.025-.035,0-.055-.076-.072-.014-.094-.049-.021,0-.064.053-.074-.006-.031h-.047l-.041.031-.047.006v.021l.012.043h-.055l0-.064-.08-.039-.076.049,0,.059-.035.01-.037-.053-.064-.023-.037,0v.041l.068.088Z"/><path class="i" d="M737.459,336.915l-.139-.017,0-.042-.058-.035-.065-.01-.027-.074-.027.008-.043-.115a.232.232,0,0,1,.017-.041l-.029-.033.047-.086.076-.024-.014-.08.065-.027-.008-.037-.064-.078v-.069l.054,0,.065.026.047.06.007-.06c0-.008,0-.008.084-.063l.1.037.01.08.025-.015-.01-.022c0-.043,0-.043.061-.051l.029-.025.059,0h.013l.008.043-.058.088.008.055c0-.012.035.005.035.005l.031.106.068.066.047.137-.062.02.025.07-.064.016.005.066-.107.018.014.033-.028.047-.193.025Zm-.047-.049.051.016.17-.018.015-.029v-.043l.108-.019-.006-.063.065-.016-.022-.07.062-.014-.05-.05-.012-.065-.07-.062-.02-.1c-.049-.016-.049-.016-.049-.025l0-.065.057-.084-.039,0-.029.026a.293.293,0,0,1-.055.007c.025.047.025.047.025.051l-.072.016-.017-.08-.073-.024s-.047.037-.058.045a.2.2,0,0,1,0,.049v.012l-.043.014-.059-.061-.055-.018-.015.024.062.078,0,.064-.064.028.014.08-.079.029-.033.078c.033.022.033.022.014.073-.012-.006-.012,0,.008.023l.021.055.03,0,.025.074h.057l.082.051,0,.035.058-.012Z"/><path class="a" d="M737.768,336.708l-.012-.051Z"/><path class="a" d="M737.807,336.62l-.022-.033Z"/><path class="i" d="M737.129,336.581l.08,0,.014.069.027.021,0,.129.025.01.008-.051.063-.006.006.1-.01.012.008.016.068,0,.018-.026.039,0,.015.029.014-.035.037-.016.029.047.053-.008-.031-.027-.012-.066.072-.04.026.047h.029l-.033-.054v-.112l.054-.076.077-.01V336.5l-.077-.07-.021-.1-.039-.021-.012.011-.051.006.051.069v.046l.022.012-.008.123-.053.012,0,.068-.033.033-.017.065c-.005,0-.034.041-.034.041h-.06l-.037-.033,0-.047-.026-.008-.013-.055-.039-.021V336.6l-.045-.018,0-.031-.022-.01v-.08l.037-.008-.021-.021-.008-.024v-.023l.029-.03-.05,0-.051.022,0,.094-.059.019-.047.073Z"/><path class="i" d="M737.336,336.9l-.008-.028v-.119l-.043.02.008.037,0,.019-.043-.017-.016-.143-.039-.086-.066.018-.027-.026.043-.1.064-.026a.3.3,0,0,1-.006-.076.255.255,0,0,1,.057-.035c.017,0,.064,0,.064,0l-.023.084-.027-.018.027-.043c-.012,0-.027,0-.029,0s-.018.014-.038.018v.082l-.072.033-.037.068.084-.009.033.084.032.152,0-.045.076-.018.027.116-.01.015.073-.012v.038l-.1.008Zm.238,0c-.051-.063-.051-.063-.051-.067l-.017.016v.006l-.006-.022c.035-.017.039-.017.043-.017l.043.056.035-.015-.039,0-.017-.073.083-.058.018.023,0-.008,0-.119.018-.025a.043.043,0,0,0-.043.072l-.039.041c-.022.071-.022.071-.029.071l-.022.035-.072.007c-.051-.042-.051-.042-.051-.052l-.008-.045c-.025,0-.025,0-.037-.057l-.039-.017,0-.042-.035-.007-.012-.035c-.021,0-.021,0-.021-.1v-.016l.051-.006h0l.033.028-.059.009c.012.01.012.053.012.061l.06.051,0,.041.033.014c.01.007.018.05.022.056.025.012.033.063.033.063l.027.021.047,0c.026-.039.026-.039.033-.039s.008-.055.008-.055l.036-.04v-.057c0-.018,0-.018.068-.025l-.031-.168-.047-.061.06-.029.067.009.029.108.074.068v.037l-.09.028-.046.064,0,.106h0a.24.24,0,0,1,.03.047h0l-.041.025-.039-.057-.055.047.051.068-.063.038Zm.088-.571-.051.02.059.045.018.181.033-.043.086-.013-.086-.073-.026-.105-.033-.012Z"/><path class="j" d="M737.43,336.708l.041-.022v-.042l-.041-.012-.01-.012.039,0,.055,0,.017-.006c-.009.018-.013.018-.017.018l-.03.014,0,.043.086.009,0,.02-.092-.022-.058.034Z"/><path class="i" d="M737.408,336.749l.014-.043.045-.027-.012-.041.022.006v-.006l.037-.014v.008l-.026.021.008.036c.086.005.086.005.086.011-.01.026-.01.026-.1,0l-.069.045Z"/><path class="i" d="M737.658,336.444l-.054.039-.032.059-.015,0-.051-.067-.057,0-.033.08-.025,0-.059-.065s-.022-.033-.017-.033h.152l0-.07a.251.251,0,0,1-.033-.014.649.649,0,0,1,.084,0l-.034.024v.06h.135Z"/><path class="i" d="M737.416,336.573l-.029,0-.077-.078-.009-.043.166-.008-.014-.048.01-.01-.014,0c-.015-.032.014-.036.065-.036h.054l-.08.051.012.051.154-.027-.08.125-.031,0-.051-.069-.039.008a.692.692,0,0,1-.023.069l-.014.009Zm.061-.115-.162.014.087.072a.469.469,0,0,0,.028-.072l.05-.008,0-.006Z"/><path class="j" d="M737.387,336.477h.015a.011.011,0,0,1,.01.012v.012c0,.008,0,.012-.01.012h-.015a.011.011,0,0,1-.012-.012v-.012a.012.012,0,0,1,.012-.012Z"/><path class="j" d="M737.553,336.47h.015s.006.006.006.013v.01c0,.008,0,.012-.006.012h-.015a.013.013,0,0,1-.01-.012v-.01a.016.016,0,0,1,.01-.013Z"/><path class="i" d="M737.318,336.37l-.017-.008.006-.019a.463.463,0,0,1,.152-.041.579.579,0,0,1,.174.013.622.622,0,0,1-.17.02.441.441,0,0,0-.145.035Z"/><path class="i" d="M737.328,336.247h-.043l-.066-.065.033,0,.049.018Z"/><path class="i" d="M737.357,336.265h-.072l-.109-.107.127.029.055.078Z"/><path class="i" d="M737.6,336.222l.1-.076-.033-.006-.041.035-.043.008Z"/><path class="a" d="M737.6,336.222l.1-.076-.033-.006-.041.035-.043.008Z"/><path class="i" d="M737.539,336.237l-.16,0,0-.016.059-.008.008-.022h.014l.014.022.059.01Z"/><path class="i" d="M737.361,336.259l0-.035.076-.02-.033.021.051,0-.006-.018.086.008.014.025-.01.014-.182.008Z"/><path class="i" d="M737.535,336.175l-.059,0,0-.029Z"/><path class="a" d="M737.535,336.175l-.059,0,0-.029Z"/><path class="i" d="M737.438,336.149l0,.029-.055.008Z"/><path class="a" d="M737.438,336.149l0,.029-.055.008Z"/><path class="i" d="M737.133,336.7l.029-.068-.029-.047-.021.068Z"/><path class="a" d="M737.133,336.7l.029-.068-.029-.047-.021.068Z"/><path class="i" d="M737.188,336.733l.035-.08-.065.065Z"/><path class="i" d="M737.2,336.755l-.045-.023.059-.086-.041.084.019,0-.016-.008.041-.082-.018.111Z"/><path class="d" d="M738.721,338.054,738.9,336l1.088-.627.842.91-.558,1.979a10.647,10.647,0,0,0-1.549-.209Z"/><path class="k" d="M740.273,338.273l-.007,0a10.169,10.169,0,0,0-1.545-.211l.17-2.059,1.091-.633.852.914-.561,1.991Zm-.291-2.893-1.08.629-.173,2.045a9.432,9.432,0,0,1,1.533.2l.558-1.973-.838-.9Z"/><path class="h" d="M737.721,337.12l-.051.014v.1l-.066.014-.044.086.026.025s-.021.065-.018.065l.014.021.02.055.043,0,.009.063.069.009.07.049v.029h.076l.051.016.174-.019.025-.04v-.048l.1,0,.01-.076h.048l-.007-.09.042,0-.009-.043-.026-.034-.007-.054-.073-.073-.015-.1-.051-.024,0-.06.055-.074,0-.032h-.051l-.035.032-.051.005v.022l.016.043H738v-.065l-.084-.041-.072.051,0,.061-.039.008-.037-.053-.065-.026h-.033v.041l.065.088Z"/><path class="i" d="M737.916,337.683l-.135-.018-.008-.043-.056-.033-.063-.01-.025-.074-.031.008-.047-.131,0-.059.043-.086.08-.021-.018-.082.065-.028,0-.039-.065-.076,0-.051,0-.019.047,0,.073.023.042.065.012-.065s0,0,.084-.062l.1.039.006.08.029-.014-.014-.023c0-.043,0-.043.065-.051l.029-.023.057,0h.015l.008.041-.058.088.007.05c0-.008.036.008.036.008l.029.109.064.065.049.139-.058.015.025.071-.066.019,0,.065-.107.017.014.033-.03.047-.191.026Zm-.047-.047.055.015.17-.023.013-.027v-.041l.11-.018-.008-.066.066-.014-.025-.072.06-.012-.05-.051-.006-.064-.07-.063-.022-.1c-.047-.014-.047-.014-.047-.028l0-.06.055-.084-.041,0-.023.025c-.008,0-.051.008-.059.008.025.047.025.047.025.051l-.072.018-.019-.083-.069-.025c0,.006-.047.039-.056.047v.061l-.047.013-.055-.06-.059-.02-.015.025.066.079,0,.064-.066.025.016.082-.081.03-.035.078c.032.017.032.023.014.062-.014,0-.012,0,.012.035l.017.055.033,0,.024.073.055,0,.078.052.005.038.059-.012Z"/><path class="a" d="M738.227,337.476l-.014-.051Z"/><path class="a" d="M738.268,337.39l-.026-.038Z"/><path class="i" d="M737.586,337.351l.08,0,.014.068.025.021,0,.125.025.01.008-.049.063-.006.01.1-.014.014,0,.016h.07l.019-.029.039,0,.02.033.01-.041.041-.012.027.049.051-.008-.027-.033-.016-.062.072-.039.029.049h.025l-.033-.059v-.113l.059-.074.076-.008v-.029l-.076-.072-.021-.1-.045-.023-.01.014-.051,0,.051.072v.045l.022.01,0,.127-.055.008,0,.07-.037.033-.022.064-.029.041-.059,0-.035-.035-.008-.047-.025-.008-.01-.055-.045-.02,0-.033-.037-.018-.008-.031-.018-.01,0-.08.035-.008-.017-.023-.006-.023v-.022l.027-.029-.055-.006-.051.023v.092l-.061.018-.047.076Z"/><path class="i" d="M737.793,337.665l-.008-.025,0-.119-.043.017.008.035,0,.024-.045-.02-.014-.141-.039-.085-.07.017-.029-.027.045-.1.068-.025c-.008,0-.008-.067-.008-.076a.271.271,0,0,1,.055-.038.262.262,0,0,1,.064,0l-.021.084-.026-.019.026-.041a.06.06,0,0,1-.033,0c.011.006-.018.014-.035.019a.326.326,0,0,1,0,.08l-.069.034-.045.068.092-.008.029.082.032.151v-.039l.074-.02.027.117-.01.014.077-.01,0,.031-.1.012Zm.238-.008c-.047-.056-.047-.056-.047-.062l-.017.056-.047-.035-.022.006.036-.021v.017l.029.022.008-.008-.014-.037c.039-.018.043-.018.047-.018.014.018.039.057.039.057l.039-.016h-.043l-.017-.076.083-.055.018.02,0-.006v-.123l.014-.022a.173.173,0,0,1-.043.014.252.252,0,0,1,0,.055l-.035.045c-.024.07-.024.07-.037.07.007,0-.014.033-.014.033l-.074.008c-.055-.041-.055-.041-.055-.051l0-.047c-.021.008-.025,0-.041-.058l-.039-.016,0-.039-.035-.006-.008-.037c-.023,0-.023,0-.023-.1v-.014l.05-.008v0l.033.027-.055.012a.211.211,0,0,1,.006.061c.021.008.021.008.029.045l.037,0,0,.042.033.009a.217.217,0,0,1,.018.063c.031.01.033.06.033.06l.033.022.047,0c.022-.043.022-.045.03-.045-.008,0,.007-.055.007-.055l.035-.037v-.061c0-.013,0-.013.069-.021l-.031-.166-.043-.063.056-.029.065.01.031.109.074.067v.037l-.09.027-.043.067,0,.1h0l.028.049-.039.027-.043-.06-.051.045.047.07-.063.035Zm.088-.566-.051.019.057.045.023.182.028-.041.088-.016-.084-.072-.024-.107-.037-.01Z"/><path class="j" d="M737.891,337.476l.039-.022v-.045l-.039-.008-.016-.015.041.008.055,0,.017-.008c-.008.019-.011.016-.013.016l-.03.013v.043l.09.014,0,.015-.093-.019-.055.035Z"/><path class="i" d="M737.865,337.517l.018-.045.043-.026-.014-.043.022,0v0l.037-.013,0,.008-.026.021,0,.035c.09,0,.09,0,.09.014-.016.023-.018.023-.105,0l-.073.045Z"/><path class="i" d="M738.119,337.212l-.054.039-.034.059-.017,0-.051-.069h-.057l-.033.082-.021,0-.063-.064-.016-.035.151,0v-.071a.249.249,0,0,1-.033-.013c.007,0,.08,0,.08,0l-.03.021v.059l.131,0Z"/><path class="i" d="M737.873,337.343l-.025,0-.08-.078-.012-.045.168-.006-.016-.049.016-.012a.092.092,0,0,1-.018.006c-.015-.031.018-.035.065-.035h.054l-.076.051.008.049.158-.026-.08.125-.031,0-.055-.068-.041.008a.568.568,0,0,1-.017.068l-.018.012Zm.065-.117-.165.015.088.073a.7.7,0,0,1,.03-.073l.05-.008,0-.007Z"/><path class="j" d="M737.848,337.245h.009a.011.011,0,0,1,.012.01v.014c0,.007,0,.009-.012.009h-.009c-.008,0-.012,0-.012-.009v-.014a.011.011,0,0,1,.012-.01Z"/><path class="j" d="M738.01,337.237h.015a.016.016,0,0,1,.01.012v.014l-.01.006h-.015l-.006-.006v-.014c0-.006,0-.012.006-.012Z"/><path class="i" d="M737.773,337.142l-.017-.012,0-.016a.4.4,0,0,1,.156-.045.512.512,0,0,1,.178.012.6.6,0,0,1-.17.02.409.409,0,0,0-.151.041Z"/><path class="i" d="M737.789,337.015h-.047l-.062-.068.033.006.043.02Z"/><path class="i" d="M737.818,337.03h-.076l-.109-.105.131.029.055.076Z"/><path class="i" d="M738.057,336.991l.106-.078-.037-.006-.035.037-.047,0Z"/><path class="a" d="M738.057,336.991l.106-.078-.037-.006-.035.037-.047,0Z"/><path class="i" d="M738,337l-.16.006V337l.063-.008,0-.022h.018l.014.02L738,337Z"/><path class="i" d="M737.822,337.026l0-.035.074-.02-.033.023.051,0-.008-.02.092.008.01.023-.01.016-.178.008Z"/><path class="i" d="M737.992,336.944h-.059l0-.029Z"/><path class="a" d="M737.992,336.944h-.059l0-.029Z"/><path class="i" d="M737.9,336.917l0,.027-.055.01Z"/><path class="a" d="M737.9,336.917l0,.027-.055.01Z"/><path class="i" d="M737.59,337.464l.029-.068-.025-.049-.021.072Z"/><path class="a" d="M737.59,337.464l.029-.068-.025-.049-.021.072Z"/><path class="i" d="M737.648,337.5l.031-.082-.065.068Z"/><path class="i" d="M737.654,337.522l-.047-.023.059-.086-.037.084.019,0-.016-.006.037-.088-.016.115Z"/><path class="e" d="M738.992,337.686l-.054.063,0,.055h.114a.091.091,0,0,0,.054-.037.4.4,0,0,0,0-.055Z"/><path class="l" d="M738.934,337.81l-.006-.061.056-.066.129.023,0,.061,0,0a.072.072,0,0,1-.058.039Z"/><path class="e" d="M739.262,337.839l-.051.035,0,.051.1.008c.035,0,.039-.01.046-.026s.012-.017.014-.039Z"/><path class="l" d="M739.309,337.94l-.1-.007,0-.059.051-.043.119.029-.018.047.008,0c-.011.018-.019.022-.054.029Z"/><path class="e" d="M739.707,337.708l-.055.055,0,.041.11,0c.031-.008.027,0,.039-.028s.008-.021.011-.045Z"/><path class="l" d="M739.766,337.815l-.11-.005-.011-.047.058-.059.113.023-.011.053.008,0c-.016.022-.016.022-.047.031Z"/><path class="e" d="M740.02,337.806l-.063.05v.051l.113.012a.074.074,0,0,0,.051-.033c.01-.016,0-.018.006-.043Z"/><path class="l" d="M740.072,337.925l-.115-.01,0-.059.059-.052.119.031,0,.057a.08.08,0,0,1-.055.033Z"/><path class="e" d="M739.258,336.46l.213.142c.041-.033.123-.013.16,0,.054.015.1.049.148.058a1,1,0,0,0,.291.033.661.661,0,0,0,.221-.088v-.021h-.041a.557.557,0,0,1-.238.016c-.072-.008-.09-.041-.2-.074l-.012-.018a.453.453,0,0,0,.219-.022.343.343,0,0,0,.107-.07v-.023h-.043a.213.213,0,0,1-.16.031c-.072-.008-.137-.047-.186-.049s-.05-.023-.1-.027a.8.8,0,0,0-.235.023.272.272,0,0,0-.148.092Z"/><path class="m" d="M740.02,336.7a1.1,1.1,0,0,1-.245-.033.31.31,0,0,1-.076-.029.391.391,0,0,0-.072-.03.191.191,0,0,0-.152,0l-.221-.138a.229.229,0,0,1,.148-.106.875.875,0,0,1,.239-.023.191.191,0,0,1,.05.013.075.075,0,0,0,.047.014.224.224,0,0,1,.082.022.4.4,0,0,0,.1.025.211.211,0,0,0,.16-.029v0l.043.006,0,.006,0,0v.006l-.006,0-.016.041a.193.193,0,0,1-.085.049.247.247,0,0,1-.129.024h-.036l.036-.014a.274.274,0,0,0,.125-.023.212.212,0,0,0,.078-.047l.027-.03a.383.383,0,0,1-.2.03.438.438,0,0,1-.108-.03.382.382,0,0,0-.078-.019.1.1,0,0,1-.053-.014.125.125,0,0,0-.044-.014.838.838,0,0,0-.235.022.236.236,0,0,0-.127.076l.2.145c.013-.022.076-.026.156,0a.573.573,0,0,1,.076.027.205.205,0,0,0,.072.031.9.9,0,0,0,.291.03.468.468,0,0,0,.188-.067l-.008-.025a.512.512,0,0,1-.238.017.266.266,0,0,1-.094-.033.62.62,0,0,0-.109-.041l.025-.009c.043.015.068.029.09.037a.315.315,0,0,0,.088.033.5.5,0,0,0,.234-.02h.045l-.025.051a.524.524,0,0,1-.194.07.453.453,0,0,1-.052,0Z"/><path class="n" d="M739.3,336.429a.413.413,0,0,1,.058.021c.018.008.01.008.028.022,0-.018,0-.018-.01-.03a.479.479,0,0,0-.047-.035Z"/><path class="a" d="M739.3,336.429a.413.413,0,0,1,.058.021c.018.008.01.008.028.022,0-.018,0-.018-.01-.03a.479.479,0,0,0-.047-.035Z"/><path class="n" d="M739.479,336.581a.117.117,0,0,0-.018-.049.136.136,0,0,0-.026-.045.06.06,0,0,1,.04.028.114.114,0,0,1,.017.058Z"/><path class="a" d="M739.479,336.581a.117.117,0,0,0-.018-.049.136.136,0,0,0-.026-.045.06.06,0,0,1,.04.028.114.114,0,0,1,.017.058Z"/><path class="n" d="M739.518,336.356a.265.265,0,0,1,.025.051c0,.024.008.057.008.057a.269.269,0,0,1,0-.057c0-.017-.012-.035-.014-.051Z"/><path class="a" d="M739.518,336.356a.265.265,0,0,1,.025.051c0,.024.008.057.008.057a.269.269,0,0,1,0-.057c0-.017-.012-.035-.014-.051Z"/><path class="n" d="M739.691,336.368l.008.1.012-.1Z"/><path class="a" d="M739.691,336.368l.008.1.012-.1Z"/><path class="n" d="M739.652,336.579a.2.2,0,0,0,0-.049c0-.017-.007-.031-.013-.05.017.013.021.033.031.052a.066.066,0,0,1-.018.047Z"/><path class="a" d="M739.652,336.579a.2.2,0,0,0,0-.049c0-.017-.007-.031-.013-.05.017.013.021.033.031.052A.066.066,0,0,1,739.652,336.579Z"/><path class="n" d="M739.83,336.536a.157.157,0,0,1,0,.057c-.006.027-.01.027-.029.043.023-.016.041-.022.047-.037a.1.1,0,0,0-.014-.063Z"/><path class="a" d="M739.83,336.536a.157.157,0,0,1,0,.057c-.006.027-.01.027-.029.043.023-.016.041-.022.047-.037A.1.1,0,0,0,739.83,336.536Z"/><path class="n" d="M739.863,336.5c-.015,0-.015-.047-.025-.074.006,0,.01,0,.017.013s0,.04.008.061Z"/><path class="a" d="M739.863,336.5c-.015,0-.015-.047-.025-.074.006,0,.01,0,.017.013S739.859,336.48,739.863,336.5Z"/><path class="n" d="M739.982,336.483l.008-.043H740v.031l-.021.012Z"/><path class="a" d="M739.982,336.483l.008-.043H740v.031Z"/><path class="n" d="M739.975,336.6a.2.2,0,0,1,.021.045c0,.013,0,.021-.014.041l.022,0a.048.048,0,0,0,.012-.043c0-.016-.008-.026-.024-.039Z"/><path class="o" d="M740.008,336.69h-.026l.008-.049-.021-.041.013,0h-.009l.031.038a.076.076,0,0,1-.012.037l.012.006-.008,0a.039.039,0,0,0,.012-.039l-.016-.034c.024.008.031.018.031.034a.081.081,0,0,1-.011.046l0,0Z"/><path class="n" d="M740.121,336.606l.006.061.016-.01,0-.051Z"/><path class="a" d="M740.121,336.606l.006.061.016-.01,0-.051Z"/><path class="h" d="M739.242,336.47a.2.2,0,0,0-.086.066l-.138-.072a.071.071,0,0,0-.022.074.251.251,0,0,0,.088.086.585.585,0,0,1-.033.1c-.018.037-.047.082-.051.1s0,.051.022.063a1.06,1.06,0,0,0,.134-.006.144.144,0,0,0-.015.051c0,.009.011.013.033.013,0,.016-.018.032-.01.041a.073.073,0,0,0,.053.01c-.01.01-.026.024-.043.043a.748.748,0,0,0-.069.068c-.021.034-.025.065.018.063a.093.093,0,0,0-.029.051c0,.017.015.029.043.017a.214.214,0,0,0,0,.123.327.327,0,0,0-.014.1c-.029.018-.033.039-.055.076s-.054.051-.072.135l.123.031c0-.018.022-.029.026-.047a.1.1,0,0,0,0-.056.783.783,0,0,0,.09-.151.16.16,0,0,1,.071-.025c.017,0,.031.011.054.025a.35.35,0,0,0-.037.117v.129c-.008.03-.043.03-.06.127l.111.032c.021-.034.051-.04.058-.051l.006-.135c.016-.063.106-.117.106-.182a.149.149,0,0,0,.058,0c.018-.007.022-.015.036-.029,0,.022.019.022.033.022a.175.175,0,0,0,.055-.026c.007.012.009.022.029.026a.379.379,0,0,0,.08-.006l-.092.148c0,.016,0,.026-.008.039s-.017.024-.023.039l.1.024.014-.045a.122.122,0,0,0,.055-.027c.009-.012.009-.042.017-.057a1.261,1.261,0,0,0,.131-.127.118.118,0,0,1,.076.059.318.318,0,0,1-.011.144l-.065.106-.008.019.106.035.068-.051V337.7a.494.494,0,0,1,.131-.131l0-.082c-.012-.008-.022,0-.022-.021a.323.323,0,0,1,0-.076c0-.008.018-.018.018-.026-.018-.017-.01-.072-.008-.113s.067-.1.072-.127l.008-.051c-.008-.01-.017-.019-.017-.029a.087.087,0,0,1,.017-.037l.016-.022v-.123a.068.068,0,0,0-.027-.035.079.079,0,0,0-.04.024l-.062.044a.148.148,0,0,1-.1,0h-.081a.116.116,0,0,1-.1,0h-.047a.277.277,0,0,1-.051.023.109.109,0,0,1-.051,0,.35.35,0,0,0-.127.023.258.258,0,0,0-.127-.019l-.039-.012a.405.405,0,0,1-.131-.158.259.259,0,0,0,.192-.141l-.158.006Z"/><path class="p" d="M739.381,337.86l-.115-.029a.157.157,0,0,1,.039-.111l.013-.153a.212.212,0,0,1,.022-.084l-.031-.047a.13.13,0,0,0-.067.02,1.239,1.239,0,0,1-.086.146.161.161,0,0,1,0,.059l-.033.047-.123-.029a.171.171,0,0,1,.043-.112l.037-.058a.141.141,0,0,1,.039-.053.464.464,0,0,1-.025.061.211.211,0,0,1-.039.06.181.181,0,0,0-.047.1l.119.023.014-.041a.126.126,0,0,0,0-.056,1.4,1.4,0,0,0,.091-.153c.051-.029.084-.033.116-.012a.05.05,0,0,1,.007.055.171.171,0,0,0-.025.076v.129a.341.341,0,0,0-.058.127l.105.022a.093.093,0,0,1,.037-.035l.021-.141a.291.291,0,0,1,.051-.086.149.149,0,0,0,.053-.1h.029l.012-.007.025.009-.054,0a.19.19,0,0,1-.051.1.185.185,0,0,0-.047.08l-.012.131a.192.192,0,0,0-.056.052l0,0Zm.758-.025-.114-.037.073-.133a.38.38,0,0,0,.011-.142.122.122,0,0,0-.072-.053.891.891,0,0,1-.127.127l-.019.056a.087.087,0,0,1-.043.026l-.022.045-.111-.022.023-.041-.006.022.088.029.006-.037c.037-.018.047-.022.055-.031l.021-.059a.892.892,0,0,0,.127-.127.106.106,0,0,1,.092.063.337.337,0,0,1-.012.15l-.068.105.1.047.06-.05V337.7a.383.383,0,0,1,.11-.121.4.4,0,0,0,.021-.092.139.139,0,0,1-.021-.1c0-.042.007-.092.011-.141a.175.175,0,0,1,.051-.092.161.161,0,0,0,.024-.037l0-.047c-.017-.039-.009-.054,0-.068l.016-.143h0l-.051-.006-.062.045a.159.159,0,0,1-.107,0h-.081a.137.137,0,0,1-.1,0l-.043,0a.166.166,0,0,1-.051.024l-.051-.008v.008c-.084.006-.093.011-.1.015h-.043a.325.325,0,0,0-.11-.011l-.042-.016a.394.394,0,0,1-.135-.158c.115-.041.16-.074.191-.149l-.15.014-.231-.147a.217.217,0,0,0-.064.049l-.01,0a.15.15,0,0,1,.078-.059l.229.15.156-.008c-.029.088-.076.124-.192.157a.59.59,0,0,0,.131.144l.043.01a.214.214,0,0,1,.11.016,1.01,1.01,0,0,1,.14-.02l.051,0a.3.3,0,0,0,.043-.017l.055,0a.135.135,0,0,0,.1,0h.085a.211.211,0,0,0,.1,0l.061-.045a.067.067,0,0,1,.041-.026.06.06,0,0,1,.033.043l0,.123-.033.059.011.08a.16.16,0,0,1-.025.041.155.155,0,0,0-.047.086c0,.029-.01.092.008.109a.2.2,0,0,0-.022.106c.024.019.028.021.022.1a.676.676,0,0,0-.131.141l0,.07-.068.059Zm-.4-.178h0l0-.043.1-.148a.1.1,0,0,1-.064.017l-.045-.023c-.04.031-.073.049-.09,0l.039.008s.017,0,.051-.026l.033.026a.651.651,0,0,0,.08-.008l-.1.2Zm-.619-.207a.2.2,0,0,1,.012-.094.168.168,0,0,1,0-.121c-.029.014-.041,0-.045-.015a.073.073,0,0,1,.019-.041.124.124,0,0,1,0,.041l.013-.008.026.029a.164.164,0,0,0,0,.1.54.54,0,0,0-.006.088.161.161,0,0,0-.016.023Zm-.021-.3c-.018-.013-.012-.029,0-.044a.378.378,0,0,1,.054-.057l.059-.057a.046.046,0,0,1-.051,0l.014-.039v.01l.041.027-.024.041a1.163,1.163,0,0,0-.082.084c-.011.014-.015.028-.011.035Zm.076-.2-.039-.019a.12.12,0,0,1,.01-.047s-.022,0-.036,0a.383.383,0,0,1-.066,0,.056.056,0,0,1-.047-.073.121.121,0,0,1,.022-.048.479.479,0,0,1,.025-.051.364.364,0,0,0,.033-.1.2.2,0,0,1-.084-.082.076.076,0,0,1,.022-.084l.091.047-.091-.033a.063.063,0,0,0-.01.062.277.277,0,0,0,.082.086.381.381,0,0,1-.027.106.467.467,0,0,1-.03.054.194.194,0,0,0-.017.043c0,.024-.008.047.01.055a.315.315,0,0,0,.083,0l.047,0,.022.08Z"/><path class="q" d="M739.188,336.667l.044.019c0,.008.018.012.026.014s.01-.006.017-.011l.041-.022c-.023,0-.033-.019-.054-.019a.323.323,0,0,0-.074.019Z"/><path class="q" d="M739.258,336.708l-.074-.037h0v0h.007a.113.113,0,0,1,.067-.023l.039.017-.039-.008-.059.018.055.029v0l.008-.014.043-.021.009.006-.06.037Z"/><path class="i" d="M739.272,337.194l-.01,0a.377.377,0,0,0-.033-.131.509.509,0,0,1,.043.127Z"/><path class="a" d="M739.272,337.194l-.01,0a.377.377,0,0,0-.033-.131A.509.509,0,0,1,739.272,337.194Z"/><path class="i" d="M739.533,337.2a.036.036,0,0,0,.026,0c0-.012-.008-.027-.012-.037-.014-.031-.025-.064-.031-.078a.007.007,0,0,0-.012,0c.012.027.025.1.029.113Z"/><path class="a" d="M739.533,337.2a.036.036,0,0,0,.026,0c0-.012-.008-.027-.012-.037-.014-.031-.025-.064-.031-.078a.007.007,0,0,0-.012,0C739.516,337.114,739.529,337.19,739.533,337.2Z"/><path class="i" d="M739.678,337.183c0,.007-.022,0-.026-.01a.771.771,0,0,1-.021-.121s.021.035.029.053.014.046.018.078Z"/><path class="a" d="M739.678,337.183c0,.007-.022,0-.026-.01a.771.771,0,0,1-.021-.121s.021.035.029.053S739.674,337.151,739.678,337.183Z"/><path class="i" d="M739.656,337.4c0,.005.018,0,.026-.006.017-.03.043-.061.05-.075s.026-.1.018-.1-.021.043-.043.084-.051.086-.051.092Z"/><path class="i" d="M739.66,337.407l-.008,0c0-.009,0-.013.047-.1l.03-.053.007,0-.025.065a.374.374,0,0,0-.047.088l0,0v.007l.043-.056a.305.305,0,0,0,.035-.1c.02.008,0,.07,0,.07l-.076.088Z"/><path class="i" d="M739.8,337.352c-.008,0,.015-.072.015-.085s.01-.059.018-.106a.287.287,0,0,1-.033.191Z"/><path class="i" d="M739.8,337.364l-.008-.008s0-.009.008-.06l.025-.137a.231.231,0,0,1-.017.2l-.008.009Z"/><path class="i" d="M739.889,337.124a.449.449,0,0,1-.063-.1.56.56,0,0,1,.059.076.035.035,0,0,1,0,.025Z"/><path class="a" d="M739.889,337.124a.449.449,0,0,1-.063-.1.56.56,0,0,1,.059.076A.035.035,0,0,1,739.889,337.124Z"/><path class="i" d="M740.033,337.2a.679.679,0,0,1-.01-.072.315.315,0,0,1-.023-.082s.012,0,.023,0c0,.019.01.1.02.144,0,0,0,.006-.01.006Z"/><path class="a" d="M740.033,337.2a.679.679,0,0,1-.01-.072.315.315,0,0,1-.023-.082s.012,0,.023,0c0,.019.01.1.02.144C740.043,337.2,740.041,337.2,740.033,337.2Z"/><path class="i" d="M740.135,337.106a.8.8,0,0,0,.029.084.822.822,0,0,0,.026.127c.005,0,.005-.013.017-.015s.068,0,.066,0a.463.463,0,0,1-.083-.084.419.419,0,0,1-.055-.11Z"/><path class="i" d="M740.185,337.327h-.007l0-.043c-.006-.025-.01-.064-.018-.09s-.017-.05-.021-.066l0,0c0-.006-.008-.01-.008-.016.012.014.017.026.025.035s.022.041.035.061a.387.387,0,0,0,.071.068l-.077.049Z"/><path class="c" d="M740.648,336.954a7.931,7.931,0,0,1,.879.232,8.5,8.5,0,0,1,.83.319l-.457.93c-.261-.1-.511-.176-.769-.258s-.5-.154-.756-.233Z"/><path class="c" d="M741.9,338.444l0,0c-.221-.082-.436-.152-.653-.22l-.115-.037c-.172-.055-.346-.108-.516-.159l-.238-.074.272-1a7.448,7.448,0,0,1,.884.227,8.61,8.61,0,0,1,.828.32l-.459.945Zm-1.252-1.482-.267.982.236.065c.17.051.344.105.518.16l.113.037c.213.068.428.139.645.221l.461-.926c-.237-.094-.518-.209-.827-.309a7.931,7.931,0,0,0-.879-.23Z"/><path class="e" d="M740.592,337.173s.431.1.843.23.821.3.821.3l-.262.533c-.254-.1-.514-.2-.775-.279s-.52-.162-.787-.225Z"/><path class="l" d="M742,338.249h-.008c-.242-.1-.5-.191-.771-.279-.246-.08-.512-.162-.787-.225l.152-.574a7.419,7.419,0,0,1,.851.227,8.214,8.214,0,0,1,.817.3c-.037,0-.414-.162-.818-.293s-.838-.226-.846-.23l-.148.558a6.736,6.736,0,0,1,.783.219c.271.086.525.18.765.274.231-.467.256-.522.264-.528l.01.006c-.01.018-.192.393-.264.535v.006Z"/><path d="M740.627,337.436a.274.274,0,0,0,.1-.07h.148l0,.055c.039.015.057.037.1.055s.09.033.127.05l.326.03a.563.563,0,0,1,.144.046.215.215,0,0,1,.084.088,1.355,1.355,0,0,0,.2.047,1.75,1.75,0,0,0,.223.018c.035.012.035.029.018.049a.176.176,0,0,1-.139.047c-.1,0-.213-.057-.264-.047a.22.22,0,0,0,.116.119v.142l-.028.028-.033-.022a.114.114,0,0,0,.006-.109c-.02-.033-.02-.043-.064-.047a.348.348,0,0,1-.149-.064l-.021,0a.146.146,0,0,1-.063.052l-.06,0-.149-.035v-.025a.5.5,0,0,1,.053,0,.391.391,0,0,0,.1.012V337.8l.1-.006c-.018-.068-.025-.113-.119-.129l-.287.01v.039a.756.756,0,0,0-.268.012c-.037,0-.095.021-.121.021l-.027-.008c-.02-.006-.02-.011-.012-.029a.383.383,0,0,0,.182-.035c0-.012-.012-.037-.018-.037-.082,0-.143,0-.164,0s-.08-.03-.08-.03v-.029l.051.012a.373.373,0,0,0,.166,0v-.041a.052.052,0,0,0-.018-.039,1.142,1.142,0,0,0-.115-.01c-.047-.01-.041-.035-.041-.055Z"/><path d="M741.781,338.1l-.037-.024a.135.135,0,0,0,0-.111c-.021-.037-.025-.041-.058-.043a.351.351,0,0,1-.137-.059.627.627,0,0,0,.137.043c.04,0,.046.016.064.041.019.053.027.094,0,.127l.027.018-.008-.006.03-.027v-.137a.208.208,0,0,1-.118-.119.206.206,0,0,1,.114.011.711.711,0,0,0,.158.03.16.16,0,0,0,.131-.047.7.7,0,0,0-.233-.053,1.477,1.477,0,0,1-.2-.047.216.216,0,0,0-.084-.09.57.57,0,0,0-.14-.044l-.326-.03c-.022-.008-.045-.017-.067-.027a.552.552,0,0,1-.064-.024.226.226,0,0,1-.051-.029c-.016-.008-.029-.018-.047-.027l-.008-.059-.14.006a.133.133,0,0,1-.067.051c-.021.039-.021.051.012.058a.438.438,0,0,1,.119.012.068.068,0,0,1,.022.043v.043a.316.316,0,0,1-.174.014l-.033-.014.007-.008c.12.028.168.012.188,0l0-.033c-.022-.035-.1-.043-.127-.043-.047-.01-.047-.033-.047-.057v0l.027-.021a.145.145,0,0,0,.067-.053l.156,0,.01.063c.016,0,.029.012.049.019a.136.136,0,0,0,.047.03.285.285,0,0,0,.06.025l.065.028.324.027a.374.374,0,0,1,.148.051.225.225,0,0,1,.086.085,1.233,1.233,0,0,0,.2.044c.071.011.157.015.223.019h.008l.027.024c-.013.033-.05.083-.156.083a.564.564,0,0,1-.162-.029.386.386,0,0,0-.092-.017.207.207,0,0,0,.11.105v.154l-.032.032Zm-.32-.186-.068,0c-.153-.037-.153-.037-.153-.041.008-.033.01-.035.061-.035a.52.52,0,0,0,.1.012l-.007-.049.064-.01-.057.016.006.051a.287.287,0,0,1-.107,0h-.049a.577.577,0,0,0,.147.047l.064,0a.144.144,0,0,0,.051-.05.065.065,0,0,0,.019,0,.2.2,0,0,1-.07.059Zm.033-.137c-.025-.058-.037-.093-.115-.107l-.287.006.01.031a.613.613,0,0,1-.122,0,.612.612,0,0,0-.152.015c-.023,0-.045.01-.066.014a.182.182,0,0,1-.059.012l-.051-.023.026-.006.025.021v-.008a.208.208,0,0,0,.059-.011c.021,0,.043-.01.062-.01a.644.644,0,0,1,.156-.018c.043,0,.086,0,.116.006l-.016-.031.3-.016c.094.016.1.059.123.119l-.008,0Zm-.771-.066a.862.862,0,0,0,.119-.045l-.076-.027-.047,0-.055,0c-.016,0-.084-.026-.084-.038l.012-.011a.214.214,0,0,0,.072.033h.1l.062,0a.061.061,0,0,1,.024.047.263.263,0,0,1-.129.037Z"/><path class="c" d="M741.258,337.773a.507.507,0,0,0,.142.025l.1-.006c-.018-.068-.025-.113-.119-.129l-.287.01v.039c.09.031.135.049.166.061Z"/><path d="M741.4,337.8h0a.477.477,0,0,1-.146-.024c-.051-.021-.094-.037-.162-.062l-.012-.045.3-.016c.094.016.1.059.123.119l-.008,0c-.025-.058-.037-.093-.115-.107l-.287.006.01.031c.066.022.1.041.134.051a.723.723,0,0,0,.164.033l.073-.008-.073.02Z"/><path class="d" d="M735.535,338.267l-.523-1.94.8-.963,1.109.637.193,2.057a14.194,14.194,0,0,0-1.576.209Z"/><path class="k" d="M735.527,338.276v-.005l-.523-1.94.8-.973,1.123.635.191,2.063c-.582.05-.959.109-1.582.218l-.008,0Zm.28-2.906-.787.961.517,1.928a14.427,14.427,0,0,1,1.574-.209l-.2-2.047-1.109-.633Z"/><path class="h" d="M733.672,336.651l.188.147-.033.26.244-.1.2.148.025-.238.2-.078-.166-.16.035-.238-.242.086-.176-.145-.039.225Z"/><path class="r" d="M734.273,337.12l-.207-.154-.24.1.026-.271-.188-.135.238-.113c.033-.217.033-.221.038-.221s.185.141.187.141.232-.086.232-.086l-.025.246.166.152-.205.094-.022.246Zm-.207-.174.192.143.025-.225.207-.088-.17-.14.035-.246c-.228.1-.23.1-.234.1s-.168-.142-.178-.148c.006.006-.029.219-.029.219l-.24.1.193.131-.033.268.232-.114Z"/><path class="s" d="M733.674,336.653l.816.131-.2.082-.2-.136.174.367s-.19-.137-.2-.143l.018-.224-.258.326.037-.26Z"/><path class="r" d="M733.9,336.56l.19.162-.146-.391Z"/><path class="r" d="M734.117,336.485l-.025.237c.017-.028.271-.326.267-.326s-.234.091-.242.089Z"/><path class="h" d="M741.453,336.321l.051.234-.2.174.254.08.051.236.178-.166.207.066-.021-.228.185-.158-.244-.088-.039-.221-.178.145Z"/><path class="r" d="M741.6,337.06l-.052-.25-.252-.073.2-.185-.051-.229.254.067a1.558,1.558,0,0,1,.174-.147,1.216,1.216,0,0,1,.043.234c.016,0,.24.079.24.079l-.181.17.025.22-.217-.06-.18.174Zm-.152-.731.059.227-.2.181.254.065.05.228.172-.156.213.066-.037-.22.189-.164a2.064,2.064,0,0,1-.244-.08c0-.012-.031-.211-.035-.223a1.9,1.9,0,0,1-.17.15l-.248-.074Z"/><path class="r" d="M741.457,336.327l.537.617-.209-.066-.058-.23-.11.392s-.054-.225-.054-.23l.164-.164-.418.084.2-.172Z"/><path class="r" d="M741.7,336.4l.039.244.143-.392Z"/><path class="r" d="M741.91,336.472l-.174.164c.03-.008.422-.076.418-.076s-.24-.083-.244-.088Z"/><path class="e" d="M735.016,336.335a3.236,3.236,0,0,1,.935-.287,7,7,0,0,1,.975-.047l.041.508a6.815,6.815,0,0,0-.91.056,3.5,3.5,0,0,0-.918.225Z"/><path class="l" d="M735.135,336.8l-.127-.459a3.136,3.136,0,0,1,.943-.3,6.628,6.628,0,0,1,.91-.047h.065c.008.008.051.512.051.516l-.079.01a5.544,5.544,0,0,0-.841.054,3.546,3.546,0,0,0-.918.223l0,0Zm1.783-.8-.057.008a6.328,6.328,0,0,0-.91.047,3.049,3.049,0,0,0-.931.287l.123.437a3.368,3.368,0,0,1,.914-.22,5.418,5.418,0,0,1,.841-.055h.069c-.008,0-.049-.5-.049-.5Z"/><path class="e" d="M735.258,337.231l.146.536a8.152,8.152,0,0,1,.823-.161c.275-.037.572-.06.838-.078l-.047-.523a5.5,5.5,0,0,0-.9.021,4.864,4.864,0,0,0-.863.2Z"/><path class="l" d="M735.4,337.773l0,0a4.558,4.558,0,0,1-.141-.545,4.626,4.626,0,0,1,.869-.207,5.49,5.49,0,0,1,.9-.022l.052.531c-.263.024-.56.045-.843.086a7.692,7.692,0,0,0-.823.159Zm1.267-.772a4.2,4.2,0,0,0-.539.033,4.558,4.558,0,0,0-.863.2c0,.012.088.315.144.522a7.561,7.561,0,0,1,.821-.158c.279-.041.58-.063.838-.078l-.055-.518c-.106,0-.225,0-.346,0Z"/><path class="c" d="M733.957,338.886h7.9v5.062a3.992,3.992,0,0,1-7.909-.019Z"/><path class="e" d="M737.887,347.413a4.064,4.064,0,0,1-3.973-3.484l.018-5.043,7.922-.028.029,5.09a4.052,4.052,0,0,1-3.836,3.461c-.067,0-.117,0-.16,0Zm3.941-8.527-7.871.027.016,5.016a3.966,3.966,0,0,0,7.855.015v-5.058Z"/><path class="e" d="M734.125,339.061h7.565v4.852a3.825,3.825,0,0,1-3.668,3.289,3.867,3.867,0,0,1-3.917-3.3Z"/><path class="e" d="M737.887,347.233a3.89,3.89,0,0,1-3.807-3.335l.014-4.837,7.6-.027.025,4.879a3.876,3.876,0,0,1-3.676,3.317l-.152,0Zm3.773-8.172-7.535.028.01,4.809a3.8,3.8,0,0,0,7.525.011v-4.848Z"/><rect class="c" width="1.504" height="1.619" transform="translate(735.646 339.085)"/><path class="c" d="M740.172,343.948v1.6l.848,0a3.765,3.765,0,0,0,.627-1.6Z"/><path class="c" d="M741.023,345.558l-.851,0-.008-1.606.707-.008h.776a3.561,3.561,0,0,1-.62,1.614l0,0Zm-.851-1.6.006,1.592.838,0a3.664,3.664,0,0,0,.623-1.594l-.768.006Z"/><path class="c" d="M738.666,345.561V347.1a3.9,3.9,0,0,0,1.49-.676l0-.86Z"/><path class="c" d="M738.66,347.108v-1.547l1.492-.007.012.867a3.946,3.946,0,0,1-1.494.685l-.01,0Zm1.485-1.547-1.479.01,0,1.52a3.977,3.977,0,0,0,1.482-.674l-.007-.856Z"/><path class="c" d="M735.656,345.561l0,.86a4.278,4.278,0,0,0,1.488.662l0-1.519Z"/><path class="c" d="M737.154,347.093l-.006,0a4.288,4.288,0,0,1-1.492-.664l-.006-.866,1.495,0,.009,1.535Zm-.017-1.529-1.481.007.012.85a4.32,4.32,0,0,0,1.473.654l0-1.511Z"/><path class="c" d="M734.152,343.948a3.227,3.227,0,0,0,.61,1.58l.877.018v-1.6Z"/><path class="c" d="M735.647,345.554h-.008l-.877-.02a3.183,3.183,0,0,1-.617-1.586l1.494-.008.008,1.614Zm-.014-1.606-1.481.006a3.256,3.256,0,0,0,.618,1.569l.863.015v-1.59Z"/><rect class="c" width="1.504" height="1.617" transform="translate(734.143 340.704)"/><rect class="c" width="1.506" height="1.617" transform="translate(737.15 340.704)"/><rect class="c" width="1.504" height="1.617" transform="translate(738.656 339.079)"/><rect class="c" width="1.504" height="1.617" transform="translate(740.164 340.704)"/><rect class="c" width="1.504" height="1.617" transform="translate(735.646 342.321)"/><rect class="c" width="1.504" height="1.617" transform="translate(738.656 342.321)"/><rect class="c" width="1.506" height="1.619" transform="translate(737.15 343.939)"/><path class="i" d="M739.4,337.175c-.008.008-.018-.07-.022-.082s-.018-.057-.029-.106a.3.3,0,0,1,.051.188Z"/><path class="i" d="M739.4,337.183c-.01,0-.014-.008-.022-.063l-.037-.129a.229.229,0,0,1,.066.186l-.007.006Z"/></g></g></g></svg>