<svg xmlns="http://www.w3.org/2000/svg" xmlns:xlink="http://www.w3.org/1999/xlink" width="33.563" height="19.578" viewBox="0 0 33.563 19.578"><defs><style>.a{fill:none;}.b{clip-path:url(#a);}.c{fill:#2f3c85;}.d{fill:#292c2f;}.e,.g{fill:#fff;}.f{fill:#d80031;}.g{fill-rule:evenodd;}</style><clipPath id="a"><rect class="a" width="33.563" height="19.578" transform="translate(668.994 217.965)"/></clipPath></defs><g transform="translate(-668.994 -217.965)"><g class="b"><rect class="c" width="33.563" height="19.578" transform="translate(668.994 217.965)"/><path class="d" d="M668.994,231.679h0Zm0-7.85h0Z"/><path class="e" d="M668.994,233.634h33.563v-3.909H668.994Zm0-7.851h33.563v-3.908H668.994Z"/><path class="f" d="M668.994,217.965v19.578l16.928-9.773Z"/><path class="g" d="M674.646,224.49l-1.01,3.091,1.547.5Z"/><path class="g" d="M674.646,224.49l.979,3.091-1.547.5Z"/><path class="g" d="M677.742,226.762h-3.254v1.606Z"/><path class="g" d="M677.742,226.762l-2.652,1.891-.947-1.293Z"/><path class="g" d="M671.521,226.762l2.652,1.891.947-1.293Z"/><path class="g" d="M671.521,226.762h3.285v1.606Z"/><path class="g" d="M676.543,230.386l-1.012-3.088-1.547.5Z"/><path class="g" d="M676.543,230.386l-2.619-1.922.943-1.294Z"/><path class="g" d="M672.721,230.386l2.621-1.922-.947-1.294Z"/><path class="g" d="M672.721,230.386l1.01-3.088,1.549.5Z"/></g></g></svg>