<svg xmlns="http://www.w3.org/2000/svg" xmlns:xlink="http://www.w3.org/1999/xlink" width="33.562" height="19.578" viewBox="0 0 33.562 19.578"><defs><style>.a{fill:none;}.b{clip-path:url(#a);}.c{fill:#fff;}.d{fill:#2a43b6;}</style><clipPath id="a"><rect class="a" width="33.562" height="19.578" transform="translate(304.13 217.965)"/></clipPath></defs><g transform="translate(-304.13 -217.965)"><g class="b"><rect class="c" width="33.562" height="19.578" transform="translate(304.13 217.965)"/><path class="d" d="M320.911,226.666l-.337,1.035.517.169Z"/><path class="d" d="M320.911,226.666l.335,1.035-.516.169Z"/><path class="d" d="M321.945,227.419h-1.088v.544Z"/><path class="d" d="M321.945,227.419l-.88.638-.32-.438Z"/><path class="d" d="M319.875,227.419l.881.638.319-.438Z"/><path class="d" d="M319.875,227.419h1.09v.544Z"/><path class="d" d="M321.549,228.634l-.335-1.034-.517.169Z"/><path class="d" d="M321.549,228.634,320.67,228l.318-.44Z"/><path class="d" d="M320.271,228.634l.881-.639-.322-.44Z"/><path class="d" d="M320.271,228.634l.337-1.034.517.169Z"/><path class="d" d="M326.35,228.3l-.337,1.037.517.166Z"/><path class="d" d="M326.35,228.3l.334,1.037-.516.166Z"/><path class="d" d="M327.381,229.049H326.3v.545Z"/><path class="d" d="M327.381,229.049l-.876.641-.321-.442Z"/><path class="d" d="M325.315,229.049l.879.641.319-.442Z"/><path class="d" d="M325.315,229.049H326.4v.545Z"/><path class="d" d="M326.987,230.266l-.337-1.034-.515.168Z"/><path class="d" d="M326.987,230.266l-.879-.64.319-.44Z"/><path class="d" d="M325.709,230.266l.879-.64-.319-.44Z"/><path class="d" d="M325.709,230.266l.337-1.034.518.168Z"/><path class="d" d="M326.35,225.035l-.337,1.034.517.169Z"/><path class="d" d="M326.35,225.035l.334,1.034-.516.169Z"/><path class="d" d="M327.381,225.786H326.3v.544Z"/><path class="d" d="M327.381,225.786l-.876.641-.321-.441Z"/><path class="d" d="M325.315,225.786l.879.641.319-.441Z"/><path class="d" d="M325.315,225.786H326.4v.544Z"/><path class="d" d="M326.987,227l-.337-1.033-.515.166Z"/><path class="d" d="M326.987,227l-.879-.641.319-.439Z"/><path class="d" d="M325.709,227l.879-.641-.319-.439Z"/><path class="d" d="M325.709,227l.337-1.033.518.166Z"/><path class="d" d="M315.472,228.3l-.335,1.037.516.166Z"/><path class="d" d="M315.472,228.3l.336,1.037-.516.166Z"/><path class="d" d="M316.506,229.049h-1.087v.545Z"/><path class="d" d="M316.506,229.049l-.879.641-.32-.442Z"/><path class="d" d="M314.437,229.049l.88.641.32-.442Z"/><path class="d" d="M314.437,229.049h1.088v.545Z"/><path class="d" d="M316.111,230.266l-.336-1.034-.518.168Z"/><path class="d" d="M316.111,230.266l-.879-.64.318-.44Z"/><path class="d" d="M314.832,230.266l.881-.64-.32-.44Z"/><path class="d" d="M314.832,230.266l.337-1.034.517.168Z"/><path class="d" d="M315.472,225.035l-.335,1.034.516.169Z"/><path class="d" d="M315.472,225.035l.336,1.034-.516.169Z"/><path class="d" d="M316.506,225.786h-1.087v.544Z"/><path class="d" d="M316.506,225.786l-.879.641-.32-.441Z"/><path class="d" d="M314.437,225.786l.88.641.32-.441Z"/><path class="d" d="M314.437,225.786h1.088v.544Z"/><path class="d" d="M316.111,227l-.336-1.033-.518.166Z"/><path class="d" d="M316.111,227l-.879-.641.318-.439Z"/><path class="d" d="M314.832,227l.881-.641-.32-.439Z"/><path class="d" d="M314.832,227l.337-1.033.517.166Z"/><rect class="d" width="33.562" height="6.526" transform="translate(304.13 217.965)"/><rect class="d" width="33.562" height="6.525" transform="translate(304.13 231.018)"/></g></g></svg>