<svg xmlns="http://www.w3.org/2000/svg" xmlns:xlink="http://www.w3.org/1999/xlink" width="33.563" height="19.579" viewBox="0 0 33.563 19.579"><defs><style>.a{fill:none;}.b{clip-path:url(#a);}.c{fill:#325d37;}.d{fill:#2d4db6;}.e{fill:#f3d02f;}.f{fill:#fff;}</style><clipPath id="a"><rect class="a" width="33.563" height="19.579" transform="translate(43.515 179.824)"/></clipPath></defs><g transform="translate(-43.515 -179.824)"><g class="b"><path class="c" d="M77.077,179.824Z"/><path class="c" d="M45.2,199.4H77.077V180.809Z"/><path class="d" d="M43.515,179.824v18.592l31.873-18.592Z"/><path class="d" d="M77.077,179.824Z"/><path class="e" d="M43.515,199.4H45.2l31.874-18.595v-.984h0Z"/><path class="e" d="M75.388,179.824,43.515,198.416v.987l33.562-19.579H75.388Z"/><path class="f" d="M49.387,184.183l-.518,1.6.8.26Z"/><path class="f" d="M49.387,184.183l.519,1.6-.8.26Z"/><path class="f" d="M50.984,185.342H49.3v.842Z"/><path class="f" d="M50.984,185.342l-1.359.988-.491-.678Z"/><path class="f" d="M47.791,185.342l1.358.988.493-.678Z"/><path class="f" d="M47.791,185.342H49.47v.842Z"/><path class="f" d="M50.375,187.222l-.52-1.6-.8.26Z"/><path class="f" d="M50.375,187.222l-1.359-.987.494-.679Z"/><path class="f" d="M48.4,187.222l1.356-.987-.492-.679Z"/><path class="f" d="M48.4,187.222l.519-1.6.8.26Z"/><path class="f" d="M52.471,187.27l-.517,1.6.8.26Z"/><path class="f" d="M52.471,187.27l.52,1.6-.8.26Z"/><path class="f" d="M54.068,188.43H52.391v.839Z"/><path class="f" d="M54.068,188.43l-1.356.988-.494-.681Z"/><path class="f" d="M50.878,188.43l1.356.988.494-.681Z"/><path class="f" d="M50.878,188.43h1.677v.839Z"/><path class="f" d="M53.459,190.306l-.519-1.6-.8.262Z"/><path class="f" d="M53.459,190.306l-1.359-.987.494-.677Z"/><path class="f" d="M51.486,190.306l1.358-.987-.493-.677Z"/><path class="f" d="M51.486,190.306l.52-1.6.8.262Z"/><path class="f" d="M46.3,187.27l-.519,1.6.8.26Z"/><path class="f" d="M46.3,187.27l.519,1.6-.8.26Z"/><path class="f" d="M47.9,188.43H46.22v.839Z"/><path class="f" d="M47.9,188.43l-1.356.988-.494-.681Z"/><path class="f" d="M44.705,188.43l1.36.988.493-.681Z"/><path class="f" d="M44.705,188.43h1.679v.839Z"/><path class="f" d="M47.287,190.306l-.517-1.6-.8.262Z"/><path class="f" d="M47.287,190.306l-1.356-.987.494-.677Z"/><path class="f" d="M45.317,190.306l1.354-.987-.492-.677Z"/><path class="f" d="M45.317,190.306l.518-1.6.8.262Z"/><path class="f" d="M46.3,181.1l-.519,1.6.8.26Z"/><path class="f" d="M46.3,181.1l.519,1.6-.8.26Z"/><path class="f" d="M47.9,182.257H46.22v.842Z"/><path class="f" d="M47.9,182.257l-1.356.988-.494-.682Z"/><path class="f" d="M44.705,182.257l1.36.988.493-.682Z"/><path class="f" d="M44.705,182.257h1.679v.842Z"/><path class="f" d="M47.287,184.137l-.517-1.6-.8.26Z"/><path class="f" d="M47.287,184.137l-1.356-.987.494-.679Z"/><path class="f" d="M45.317,184.137l1.354-.987-.492-.679Z"/><path class="f" d="M45.317,184.137l.518-1.6.8.26Z"/><path class="f" d="M52.471,181.1l-.517,1.6.8.26Z"/><path class="f" d="M52.471,181.1l.52,1.6-.8.26Z"/><path class="f" d="M54.068,182.257H52.391v.842Z"/><path class="f" d="M54.068,182.257l-1.356.988-.494-.682Z"/><path class="f" d="M50.878,182.257l1.356.988.494-.682Z"/><path class="f" d="M50.878,182.257h1.677v.842Z"/><path class="f" d="M53.459,184.137l-.519-1.6-.8.26Z"/><path class="f" d="M53.459,184.137l-1.359-.987.494-.679Z"/><path class="f" d="M51.486,184.137l1.358-.987-.493-.679Z"/><path class="f" d="M51.486,184.137l.52-1.6.8.26Z"/></g></g></svg>