<svg xmlns="http://www.w3.org/2000/svg" xmlns:xlink="http://www.w3.org/1999/xlink" width="33.563" height="19.578" viewBox="0 0 33.563 19.578"><defs><style>.a{fill:none;}.b{clip-path:url(#a);}.c{fill:#488a30;}.d{fill:#f1da28;}</style><clipPath id="a"><rect class="a" width="33.563" height="19.578" transform="translate(252.006 217.965)"/></clipPath></defs><g transform="translate(-252.006 -217.965)"><g class="b"><path class="c" d="M255.134,237.543h27.306l-13.652-7.965Z"/><path class="c" d="M282.439,217.965H255.134l13.653,7.966Z"/><path d="M252.006,235.72l13.653-7.966-13.653-7.965Z"/><path d="M285.568,235.72V219.789l-13.654,7.965Z"/><path class="d" d="M252.006,237.543h3.128l13.653-7.965,13.652,7.965h3.129l-16.781-9.789Z"/><path class="d" d="M282.439,217.965l-13.652,7.966-13.653-7.966h-3.128l16.781,9.789,16.781-9.789Z"/><path class="d" d="M285.568,217.965l-16.781,9.789,16.781,9.789V235.72l-13.654-7.966,13.654-7.965Z"/><path class="d" d="M252.006,219.789l13.653,7.965-13.653,7.966v1.823l16.781-9.789-16.781-9.789Z"/></g></g></svg>