<svg xmlns="http://www.w3.org/2000/svg" xmlns:xlink="http://www.w3.org/1999/xlink" width="33.563" height="19.579" viewBox="0 0 33.563 19.579"><defs><style>.a{fill:none;}.b{clip-path:url(#a);}.c{fill:#1c2a7d;}.d{fill:#f6d849;}.e{fill:#bc0030;}.f{fill:#ed00fd;}</style><clipPath id="a"><rect class="a" width="33.563" height="19.579" transform="translate(721.125 294.244)"/></clipPath></defs><g transform="translate(-721.125 -294.244)"><g class="b"><rect class="c" width="33.563" height="19.579" transform="translate(721.125 294.244)"/><g class="b"><path class="d" d="M728.185,298.235l-.06,2.039h-2.066a3.05,3.05,0,0,1-.469-1.484.865.865,0,0,1,.918-.855,8,8,0,0,1,1.677.3Z"/><path class="d" d="M725.84,298.329v0Z"/><path d="M725.84,299.532a.029.029,0,0,1-.03-.025v-1.178c0-.026.051-.026.051,0v1.178a.023.023,0,0,1-.021.025Z"/><path class="d" d="M726,298.21v0Z"/><path d="M726,299.8a.025.025,0,0,1-.025-.027V298.21c0-.027.05-.027.05,0v1.565a.026.026,0,0,1-.025.027Z"/><path class="d" d="M726.17,298.125v0Z"/><path d="M726.17,300.02a.026.026,0,0,1-.025-.027v-1.868c0-.025.05-.025.05,0v1.868a.027.027,0,0,1-.025.027Z"/><path class="d" d="M726.336,298.088v0Z"/><path d="M726.336,299.577a.022.022,0,0,1-.023-.024v-1.465c0-.028.05-.028.05,0v1.465a.025.025,0,0,1-.027.024Z"/><path class="d" d="M726.5,298.081v0Z"/><path d="M726.5,299.585a.024.024,0,0,1-.025-.025v-1.479c0-.026.046-.026.046,0v1.479a.022.022,0,0,1-.021.025Z"/><path class="d" d="M726.67,298.03v0Z"/><path d="M726.67,299.583a.024.024,0,0,1-.025-.023v-1.53c0-.027.046-.027.046,0v1.53a.022.022,0,0,1-.021.023Z"/><path class="d" d="M726.838,298.03v0Z"/><path d="M726.838,299.583a.023.023,0,0,1-.025-.023v-1.53c0-.027.046-.027.046,0v1.53a.024.024,0,0,1-.021.023Z"/><path class="d" d="M727,298.045v0Z"/><path d="M727,299.6a.025.025,0,0,1-.025-.026v-1.528c0-.027.05-.027.05,0v1.528a.024.024,0,0,1-.025.026Z"/><path class="d" d="M727.172,298.06v0Z"/><path d="M727.172,299.613c-.02,0-.031-.011-.031-.023v-1.53c0-.028.05-.028.05,0v1.53a.022.022,0,0,1-.019.023Z"/><path class="d" d="M727.334,298.156v0Z"/><path d="M727.334,299.711a.024.024,0,0,1-.025-.023v-1.532c0-.025.05-.025.05,0v1.532a.024.024,0,0,1-.025.023Z"/><path class="d" d="M727.5,298.172v0Z"/><path d="M727.5,299.921a.025.025,0,0,1-.025-.025v-1.724c0-.028.048-.028.048,0V299.9a.024.024,0,0,1-.023.025Z"/><path class="d" d="M727.664,298.172v0Z"/><path d="M727.664,299.726a.023.023,0,0,1-.021-.025v-1.529c0-.028.047-.028.047,0V299.7a.023.023,0,0,1-.026.025Z"/><path class="d" d="M727.834,298.172v0Z"/><path d="M727.834,299.726a.025.025,0,0,1-.025-.025v-1.529a.023.023,0,0,1,.046,0V299.7a.023.023,0,0,1-.021.025Z"/><path d="M726.881,298.093c.351.057,1.123.42,1.033.908-.123.692-.529.414-1.066.314l-.4.134c-.144.149-.359.285-.5.106H725.7v.938h2.652v-2.266Z"/><path d="M728.355,300.518H725.7l-.025-.963.263-.024c.19.189.389,0,.487-.1l.416-.141c.113.018.215.045.3.068a1.554,1.554,0,0,0,.375.07c.141,0,.3-.051.37-.434a.457.457,0,0,0-.092-.348,1.623,1.623,0,0,0-.924-.531.027.027,0,0,1-.022-.027c0-.014.012-.022.03-.022l1.474.135.022,2.29a.025.025,0,0,1-.026.025Zm-2.431-.948-.221.011.026.912,2.6-.025v-2.241l-1.2-.09a1.52,1.52,0,0,1,.707.48.515.515,0,0,1,.1.388c-.059.328-.19.476-.417.476a1.6,1.6,0,0,1-.384-.074c-.1-.023-.19-.048-.291-.066l-.4.134a.546.546,0,0,1-.344.189.225.225,0,0,1-.185-.094Z"/><path class="d" d="M728.23,297.932a.159.159,0,0,1-.16.161.162.162,0,0,1-.164-.161h0a.162.162,0,0,1,.324,0Z"/><path d="M728.07,298.119a.187.187,0,1,1,0-.374.187.187,0,0,1,0,.374Zm0-.325a.139.139,0,0,0-.134.138.137.137,0,0,0,.138.136.135.135,0,0,0,.133-.136.137.137,0,0,0-.137-.138Z"/><path class="d" d="M727.867,297.845a.161.161,0,0,1-.16.162.163.163,0,0,1-.164-.162h0a.163.163,0,0,1,.164-.161.161.161,0,0,1,.16.161Z"/><path d="M727.707,298.031a.186.186,0,1,1,.186-.186.178.178,0,0,1-.055.131.188.188,0,0,1-.131.055Zm0-.323a.137.137,0,0,0-.137.137.141.141,0,0,0,.231.1.125.125,0,0,0,.041-.1.135.135,0,0,0-.135-.137Z"/><path class="d" d="M727.5,297.753a.16.16,0,0,1-.162.16.163.163,0,0,1-.164-.16h0a.163.163,0,0,1,.326,0Z"/><path d="M727.338,297.939h0a.186.186,0,0,1,0-.373.186.186,0,0,1,0,.373Zm0-.323a.137.137,0,1,0,0,.273.137.137,0,1,0,0-.273Z"/><path class="d" d="M727.131,297.691a.158.158,0,0,1-.16.161.161.161,0,0,1-.162-.161h0a.161.161,0,0,1,.322,0Z"/><path d="M726.971,297.878a.186.186,0,1,1,.185-.188.188.188,0,0,1-.185.188Zm0-.322a.135.135,0,0,0-.135.135.135.135,0,1,0,.135-.135Z"/><path class="d" d="M726.762,297.655a.163.163,0,0,1-.16.161.166.166,0,0,1-.164-.161h0a.165.165,0,0,1,.164-.161.162.162,0,0,1,.16.161Z"/><path d="M726.6,297.842a.187.187,0,1,1,0-.373.187.187,0,0,1,0,.373Zm0-.323a.136.136,0,1,0,.134.136.135.135,0,0,0-.134-.136Z"/><path class="d" d="M726.4,297.675a.164.164,0,0,1-.164.162.158.158,0,0,1-.158-.162h0a.153.153,0,0,1,.158-.159.162.162,0,0,1,.164.159Z"/><path d="M726.238,297.861a.184.184,0,0,1-.183-.186.177.177,0,0,1,.054-.131.191.191,0,0,1,.315.131.186.186,0,0,1-.186.186Zm0-.322a.141.141,0,0,0-.1.04.134.134,0,0,0-.039.1.138.138,0,1,0,.136-.136Z"/><path class="d" d="M726.059,297.793a.166.166,0,0,1-.164.161.162.162,0,0,1-.161-.161h0a.16.16,0,0,1,.157-.161.167.167,0,0,1,.168.16Z"/><path d="M725.9,297.98a.186.186,0,0,1-.188-.187.194.194,0,0,1,.318-.131.172.172,0,0,1,.055.13.187.187,0,0,1-.185.188Zm0-.323a.136.136,0,1,0,0,.273.137.137,0,0,0,0-.273Z"/><path class="d" d="M725.764,298.007a.162.162,0,1,1-.323,0h0a.163.163,0,0,1,.164-.161.16.16,0,0,1,.159.161Z"/><path d="M725.6,298.193a.186.186,0,1,1,.184-.186.184.184,0,0,1-.184.186Zm0-.323a.137.137,0,1,0,0,.274.137.137,0,1,0,0-.274Z"/><path class="d" d="M725.559,298.3a.163.163,0,0,1-.325,0h0a.165.165,0,0,1,.164-.161.163.163,0,0,1,.161.161Z"/><path d="M725.4,298.492a.187.187,0,0,1-.185-.187.189.189,0,0,1,.051-.131.192.192,0,0,1,.318.131.185.185,0,0,1-.184.187Zm0-.322a.134.134,0,0,0-.1.04.13.13,0,0,0-.041.1.137.137,0,0,0,.138.136.136.136,0,1,0,0-.271Z"/><path class="d" d="M725.459,298.657a.161.161,0,0,1-.322,0h0a.161.161,0,0,1,.322,0Z"/><path d="M725.3,298.842a.186.186,0,1,1,0-.372.186.186,0,0,1,0,.372Zm0-.322a.136.136,0,1,0,0,.271.136.136,0,0,0,0-.271Z"/><path class="d" d="M725.463,299.02a.161.161,0,1,1-.322,0h0a.161.161,0,1,1,.322,0Z"/><path d="M725.3,299.2a.186.186,0,1,1,0-.372.186.186,0,0,1,0,.372Zm0-.321a.136.136,0,1,0,.133.136.136.136,0,0,0-.133-.136Z"/><path class="d" d="M725.531,299.375a.161.161,0,1,1-.322,0h0a.161.161,0,1,1,.322,0Z"/><path d="M725.373,299.561a.186.186,0,0,1,0-.371.186.186,0,1,1,0,.371Zm0-.322a.138.138,0,0,0-.139.136.138.138,0,1,0,.139-.136Z"/><path class="d" d="M728.139,298.146l-.014.209a9.25,9.25,0,0,0-1.5-.285c-.49,0-.873.2-.873.691a2.7,2.7,0,0,0,.48,1.379l-.281.134a3.05,3.05,0,0,1-.469-1.484.963.963,0,0,1,1.024-.944,7.571,7.571,0,0,1,1.631.3Z"/><path d="M725.953,300.3a.027.027,0,0,1-.025-.014,3.138,3.138,0,0,1-.469-1.495.987.987,0,0,1,1.049-.968,5.369,5.369,0,0,1,1.279.212c.123.031.242.063.36.088v.236h0a2.211,2.211,0,0,1-.516-.087,4.054,4.054,0,0,0-1-.175c-.318,0-.848.087-.848.665a2.7,2.7,0,0,0,.479,1.366l-.295.17-.01,0Zm.555-2.429a.939.939,0,0,0-1,.92,3.051,3.051,0,0,0,.453,1.452l.262-.125a2.43,2.43,0,0,1-.495-1.356c0-.453.329-.715.9-.715a4.135,4.135,0,0,1,1.018.176c.179.045.341.088.484.109l-.012-.187h0a1.6,1.6,0,0,1-.34-.062,5.2,5.2,0,0,0-1.265-.212Z"/><path class="d" d="M728.549,298.235l.06,2.039h2.071a3.087,3.087,0,0,0,.465-1.484.863.863,0,0,0-.915-.855,8.038,8.038,0,0,0-1.681.3Z"/><path class="d" d="M730.9,298.329v0Z"/><path d="M730.9,299.532a.026.026,0,0,1-.027-.025v-1.178c0-.026.049-.026.049,0v1.178a.025.025,0,0,1-.022.025Z"/><path class="d" d="M730.73,298.21v0Z"/><path d="M730.73,299.8a.027.027,0,0,1-.025-.027V298.21c0-.027.051-.027.051,0v1.565a.025.025,0,0,1-.026.027Z"/><path class="d" d="M730.565,298.125v0Z"/><path d="M730.565,300.02a.026.026,0,0,1-.026-.027v-1.868c0-.025.051-.025.051,0v1.868a.027.027,0,0,1-.025.027Z"/><path class="d" d="M730.4,298.088v0Z"/><path d="M730.4,299.577a.025.025,0,0,1-.026-.024v-1.465c0-.028.051-.028.051,0v1.465a.023.023,0,0,1-.025.024Z"/><path class="d" d="M730.234,298.081v0Z"/><path d="M730.234,299.585a.025.025,0,0,1-.025-.025v-1.479c0-.026.047-.026.047,0v1.479a.024.024,0,0,1-.022.025Z"/><path class="d" d="M730.063,298.03v0Z"/><path d="M730.063,299.583a.023.023,0,0,1-.02-.023v-1.53c0-.027.047-.027.047,0v1.53c0,.012-.008.023-.027.023Z"/><path class="d" d="M729.9,298.03v0Z"/><path d="M729.9,299.583a.025.025,0,0,1-.025-.023v-1.53c0-.027.047-.027.047,0v1.53a.022.022,0,0,1-.022.023Z"/><path class="d" d="M729.734,298.045v0Z"/><path d="M729.734,299.6a.024.024,0,0,1-.025-.026v-1.528c0-.027.051-.027.051,0v1.528a.026.026,0,0,1-.026.026Z"/><path class="d" d="M729.566,298.06v0Z"/><path d="M729.566,299.613a.025.025,0,0,1-.025-.023v-1.53c0-.028.051-.028.051,0v1.53a.024.024,0,0,1-.026.023Z"/><path class="d" d="M729.4,298.156v0Z"/><path d="M729.4,299.711a.024.024,0,0,1-.025-.023v-1.532c0-.025.051-.025.051,0v1.532a.025.025,0,0,1-.026.023Z"/><path class="d" d="M729.234,298.172v0Z"/><path d="M729.234,299.921a.023.023,0,0,1-.023-.025v-1.724c0-.028.047-.028.047,0V299.9a.024.024,0,0,1-.024.025Z"/><path class="d" d="M729.066,298.172v0Z"/><path d="M729.066,299.726a.025.025,0,0,1-.025-.025v-1.529c0-.028.051-.028.051,0V299.7a.024.024,0,0,1-.026.025Z"/><path class="d" d="M728.9,298.172v0Z"/><path d="M728.9,299.726a.024.024,0,0,1-.021-.025v-1.529c0-.028.051-.028.051,0V299.7a.029.029,0,0,1-.03.025Z"/><path d="M729.854,298.093c-.352.057-1.124.42-1.034.908.123.692.53.414,1.067.314l.4.134c.145.149.359.285.5.106h.238v.938h-2.652v-2.266Z"/><path d="M731.031,300.518h-2.652l-.027-2.291,1.5-.159c.013,0,.029.008.029.022s-.008.025-.022.027a1.614,1.614,0,0,0-.923.531.469.469,0,0,0-.092.348c.072.383.228.434.369.434a1.617,1.617,0,0,0,.375-.07c.094-.023.191-.05.293-.069l.418.136c.111.109.348.273.473.113l.261-.009.026.962a.025.025,0,0,1-.026.025Zm-1.441-2.374-1.209.109.019,2.24,2.606-.025v-.913l-.213.026a.19.19,0,0,1-.168.083.593.593,0,0,1-.355-.2l-.4-.128c-.086.019-.184.044-.279.067a1.612,1.612,0,0,1-.385.074c-.227,0-.357-.148-.416-.476a.5.5,0,0,1,.1-.388,1.475,1.475,0,0,1,.693-.473Z"/><path class="d" d="M728.5,297.932a.162.162,0,0,0,.324,0h0a.162.162,0,0,0-.324,0Z"/><path d="M728.668,298.119a.187.187,0,1,1,.186-.187.188.188,0,0,1-.186.187Zm0-.325a.137.137,0,1,0,.135.138.14.14,0,0,0-.135-.138Z"/><path class="d" d="M728.867,297.845a.158.158,0,0,0,.16.162.16.16,0,0,0,.161-.162h0a.16.16,0,1,0-.321,0Z"/><path d="M729.027,298.031a.186.186,0,1,1,.188-.186.187.187,0,0,1-.188.186Zm0-.323a.137.137,0,0,0,0,.274.137.137,0,1,0,0-.274Z"/><path class="d" d="M729.234,297.753a.163.163,0,0,0,.325,0h0a.163.163,0,0,0-.325,0Z"/><path d="M729.4,297.939a.186.186,0,0,1,0-.373.186.186,0,0,1,.185.187.18.18,0,0,1-.055.131.185.185,0,0,1-.13.055Zm0-.323a.137.137,0,1,0,0,.273h0a.121.121,0,0,0,.093-.039.14.14,0,0,0,.041-.1.138.138,0,0,0-.134-.137Z"/><path class="d" d="M729.6,297.691a.161.161,0,0,0,.322,0h0a.161.161,0,0,0-.322,0Z"/><path d="M729.766,297.878a.187.187,0,0,1-.188-.187.194.194,0,0,1,.319-.131.18.18,0,0,1,.054.131.188.188,0,0,1-.185.187Zm0-.322a.136.136,0,0,0-.137.134.138.138,0,0,0,.137.138.135.135,0,0,0,.134-.137.139.139,0,0,0-.039-.1.131.131,0,0,0-.1-.038Z"/><path class="d" d="M729.973,297.655a.161.161,0,0,0,.164.161.163.163,0,0,0,.16-.161h0a.162.162,0,0,0-.16-.161.16.16,0,0,0-.164.161Z"/><path d="M730.137,297.842a.191.191,0,0,1-.19-.189.187.187,0,0,1,.19-.184.187.187,0,0,1,0,.373Zm0-.323a.137.137,0,0,0-.139.136.136.136,0,1,0,.272,0,.136.136,0,0,0-.133-.136Z"/><path class="d" d="M730.336,297.675a.161.161,0,0,0,.16.162.164.164,0,0,0,.162-.162h0a.161.161,0,0,0-.162-.159.158.158,0,0,0-.16.159Z"/><path d="M730.5,297.861a.186.186,0,1,1,.188-.186.187.187,0,0,1-.188.186Zm0-.322a.136.136,0,0,0,0,.272.136.136,0,1,0,0-.272Z"/><path class="d" d="M730.68,297.793a.161.161,0,1,0,.322,0h0a.161.161,0,0,0-.322,0Z"/><path d="M730.84,297.98a.187.187,0,0,1,0-.373.187.187,0,0,1,0,.373Zm0-.323a.141.141,0,0,0-.1.04.134.134,0,0,0-.037.1.135.135,0,0,0,.135.138.136.136,0,1,0,0-.273Z"/><path class="d" d="M730.971,298.007a.159.159,0,0,0,.158.163.163.163,0,0,0,.164-.163h0a.162.162,0,0,0-.164-.161.16.16,0,0,0-.158.161Z"/><path d="M731.129,298.193a.186.186,0,0,1,0-.371.186.186,0,1,1,0,.371Zm0-.323a.137.137,0,0,0,0,.274.137.137,0,1,0,0-.274Z"/><path class="d" d="M731.176,298.3a.162.162,0,0,0,.324,0h0a.162.162,0,0,0-.324,0Z"/><path d="M731.336,298.492a.187.187,0,1,1,.186-.187.185.185,0,0,1-.186.187Zm0-.322a.136.136,0,0,0,0,.271.136.136,0,1,0,0-.271Z"/><path class="d" d="M731.273,298.657a.163.163,0,0,0,.325,0h0a.163.163,0,0,0-.325,0Z"/><path d="M731.438,298.842a.186.186,0,1,1,.185-.185.186.186,0,0,1-.185.185Zm0-.322a.136.136,0,0,0,0,.271.136.136,0,0,0,0-.271Z"/><path class="d" d="M731.272,299.02a.161.161,0,1,0,.322,0h0a.161.161,0,1,0-.322,0Z"/><path d="M731.43,299.2a.186.186,0,1,1,.189-.185.188.188,0,0,1-.189.185Zm0-.321a.136.136,0,0,0,0,.271.137.137,0,0,0,.138-.135.135.135,0,0,0-.134-.136Z"/><path class="d" d="M731.2,299.375a.16.16,0,1,0,.32,0h0a.16.16,0,1,0-.32,0Z"/><path d="M731.361,299.561a.186.186,0,1,1,.19-.186.185.185,0,0,1-.19.186Zm0-.322a.136.136,0,0,0-.134.136.137.137,0,1,0,.134-.136Z"/><path class="d" d="M728.6,298.146l.013.209a9.325,9.325,0,0,1,1.5-.285c.489,0,.866.2.866.691a2.664,2.664,0,0,1-.479,1.379l.287.134a3.087,3.087,0,0,0,.465-1.484.962.962,0,0,0-1.02-.944,7.542,7.542,0,0,0-1.634.3Z"/><path d="M730.785,300.3l-.012,0-.285-.135a3.054,3.054,0,0,0,.467-1.4c0-.578-.529-.665-.844-.665a4.1,4.1,0,0,0-1.011.175c-.174.044-.342.087-.487.11l-.043-.233a3.176,3.176,0,0,1,.377-.114,5.411,5.411,0,0,1,1.283-.212.984.984,0,0,1,1.043.968,3.075,3.075,0,0,1-.47,1.495.018.018,0,0,1-.018.014Zm-.674-2.253c.569,0,.891.262.891.715a2.725,2.725,0,0,1-.482,1.391l.25.093a3.031,3.031,0,0,0,.453-1.455.937.937,0,0,0-.993-.92,5.346,5.346,0,0,0-1.273.212c-.121.031-.242.062-.357.088l.033.184c.115-.044.281-.087.455-.132a4.158,4.158,0,0,1,1.023-.176Z"/><rect class="e" width="33.563" height="9.788" transform="translate(721.125 304.035)"/><path class="d" d="M728.371,295.98l-.174.314.174.313.162-.313Zm0,.793-.174.316.174.314.162-.314Z"/><path d="M728.371,297.428a.025.025,0,0,1-.025-.012l-.166-.316.166-.337a.024.024,0,0,1,.025-.014h0c.008,0,.01.005.018.014l.17.314-.17.339c-.008.007-.01.012-.018.012Zm0-.6-.148.276.144.252.145-.275-.141-.253Zm0-.191a.024.024,0,0,1-.025-.014l-.166-.314.166-.337a.024.024,0,0,1,.025-.014h0c.008,0,.01.005.018.014l.17.314-.17.337c-.008.009-.01.014-.018.014Zm0-.6-.148.276.144.252.145-.275-.141-.253Z"/><path class="d" d="M727.77,296.692l.263.167.266-.167-.266-.169Zm.665,0,.268.167.262-.167-.262-.169Z"/><path d="M728.7,296.884l-.013,0-.264-.169a.022.022,0,0,1-.012-.02.024.024,0,0,1,.012-.021l.264-.17.29.17a.026.026,0,0,1,.01.021.025.025,0,0,1-.01.02l-.265.169-.012,0Zm-.221-.194.221.141.219-.139-.232-.148-.208.146Zm-.449.194-.013,0-.266-.169a.02.02,0,0,1-.01-.02.022.022,0,0,1,.01-.021l.266-.17.289.17a.029.029,0,0,1,.015.021.028.028,0,0,1-.015.02l-.262.169-.014,0Zm-.22-.194.22.141.217-.139-.23-.148-.207.146Z"/><path class="d" d="M728.494,296.694a.124.124,0,0,1-.123.128.127.127,0,1,1,0-.254.124.124,0,0,1,.123.126Z"/><path d="M728.371,296.847a.154.154,0,0,1-.156-.153.153.153,0,0,1,.3,0,.154.154,0,0,1-.149.153Zm0-.255a.1.1,0,0,0-.1.1c0,.115.2.115.2,0a.1.1,0,0,0-.1-.1Z"/><path class="d" d="M728.711,297.51a.342.342,0,1,1-.34-.342.343.343,0,0,1,.34.342Z"/><path d="M728.371,297.875a.367.367,0,1,1,.363-.365.368.368,0,0,1-.363.365Zm0-.684a.319.319,0,0,0-.32.319.317.317,0,0,0,.634,0,.32.32,0,0,0-.314-.319Z"/><path d="M728.7,297.617h0a1.981,1.981,0,0,0-.652,0,.026.026,0,0,1-.029-.019.029.029,0,0,1,.021-.03,2.037,2.037,0,0,1,.67,0,.029.029,0,0,1,.02.03.028.028,0,0,1-.026.02Zm0-.173h0a2.172,2.172,0,0,0-.24-.026l-.023-.239c0-.028.05-.028.05,0v.216a.457.457,0,0,1,.221,0,.025.025,0,0,1,.022.027.027.027,0,0,1-.026.021Zm-.656,0a.023.023,0,0,1-.025-.021.022.022,0,0,1,.021-.027,1.7,1.7,0,0,1,.244-.026l-.023-.051v-.14c0-.028.047-.028.047,0v.216a2.651,2.651,0,0,1-.264.049Z"/><path class="d" d="M728.033,298.085a3.968,3.968,0,0,1-.314,1.538l.351-.142a9.947,9.947,0,0,0,.188-1.358Zm.668,0-.224.038a9.338,9.338,0,0,0,.187,1.358l.352.142a3.951,3.951,0,0,1-.315-1.538Z"/><path d="M727.719,299.648a.026.026,0,0,1-.02-.009.036.036,0,0,1,0-.029,3.881,3.881,0,0,0,.313-1.526l.254.016a1.451,1.451,0,0,1-.008.314,6.9,6.9,0,0,1-.158,1.071l-.369.161-.008,0Zm.31-1.538a3.56,3.56,0,0,1-.259,1.466l.289-.118a7.482,7.482,0,0,0,.144-1.048c.012-.114.024-.213.029-.291l-.2-.009Zm.987,1.538-.012,0-.352-.142a5.919,5.919,0,0,1-.17-1.08c-.009-.116-.021-.218-.031-.3l.246-.062a4.515,4.515,0,0,0,.34,1.547.029.029,0,0,1,0,.029.021.021,0,0,1-.019.009Zm-.34-1.562-.194.062a.794.794,0,0,1,.049.27,7.347,7.347,0,0,0,.154,1.057l.28.1a4.132,4.132,0,0,1-.289-1.492Z"/><path class="d" d="M728.367,299.292a.667.667,0,0,0-.75.706c-.1-.183-.541-.752-.947-.676a.691.691,0,0,0-.416.764.738.738,0,0,0-1.215-.328c.381.312.547,1.235.867,1.635h4.918c.324-.4.494-1.323.871-1.635a.738.738,0,0,0-1.215.328.686.686,0,0,0-.42-.764c-.406-.076-.841.493-.943.676a.668.668,0,0,0-.75-.706Z"/><path d="M730.824,301.417h-4.918a2.755,2.755,0,0,1-.388-.754,2.353,2.353,0,0,0-.5-.887.764.764,0,0,1,.55-.24.719.719,0,0,1,.653.421.674.674,0,0,1,.443-.658c.4-.076.785.406.93.622a.78.78,0,0,1,1.539,0c.144-.216.543-.7.926-.622a.68.68,0,0,1,.447.66.722.722,0,0,1,.652-.423.9.9,0,0,1,.551.2,2.9,2.9,0,0,0-.5.927,3.04,3.04,0,0,1-.369.743.037.037,0,0,1-.024.009Zm-5.252-1.831a.848.848,0,0,0-.517.19,1.983,1.983,0,0,1,.51.869,2.865,2.865,0,0,0,.363.732l4.887-.009a3.246,3.246,0,0,0,.355-.723,2.417,2.417,0,0,1,.51-.907,1.139,1.139,0,0,0-.518-.152.692.692,0,0,0-.656.509.029.029,0,0,1-.029.016.021.021,0,0,1-.018-.026.676.676,0,0,0-.4-.739c-.366-.069-.791.438-.918.665,0,.01-.018.013-.03.012a.026.026,0,0,1-.017-.025.726.726,0,0,0-1.449,0,.031.031,0,0,1-.018.025c-.012,0-.023,0-.027-.012-.082-.141-.514-.742-.924-.665a.667.667,0,0,0-.4.739.028.028,0,0,1-.017.026c-.016,0-.028-.005-.03-.016a.7.7,0,0,0-.66-.509Z"/><path d="M730.818,301.393c0,.18-1.1.381-2.447.381s-2.455-.2-2.455-.381,1.1-.279,2.455-.279,2.447.1,2.447.279Z"/><path d="M728.371,301.8c-1.324,0-2.48-.189-2.48-.4,0-.281,1.9-.3,2.48-.3s2.473.022,2.473.3c0,.216-1.156.4-2.473.4Zm0-.66c-1.6,0-2.433.129-2.433.255a8.432,8.432,0,0,0,4.855,0c0-.126-.83-.255-2.422-.255Z"/><path class="d" d="M728.482,297.98a.114.114,0,1,1-.228,0h0a.114.114,0,1,1,.228,0Z"/><path d="M728.371,298.119a.139.139,0,0,1-.141-.139.128.128,0,0,1,.04-.1.144.144,0,0,1,.238.1.14.14,0,0,1-.137.139Zm0-.229a.107.107,0,0,0-.07.027.1.1,0,0,0-.024.063c0,.1.18.1.18,0a.089.089,0,0,0-.086-.09Z"/><path class="d" d="M728.49,298.227a.122.122,0,0,1-.119.122.12.12,0,0,1-.123-.122h0a.12.12,0,0,1,.123-.122.121.121,0,0,1,.119.121Z"/><path d="M728.371,298.374a.147.147,0,1,1,0-.293.147.147,0,0,1,0,.293Zm0-.243a.093.093,0,0,0-.1.1c0,.108.192.108.192,0a.094.094,0,0,0-.094-.1Z"/><path class="d" d="M728.5,298.493a.133.133,0,0,1-.129.133.131.131,0,0,1-.135-.133h0a.131.131,0,0,1,.135-.133.133.133,0,0,1,.129.133Z"/><path d="M728.371,298.65h0a.157.157,0,1,1,0-.313.156.156,0,0,1,0,.313Zm0-.265a.109.109,0,0,0-.113.108c0,.12.219.119.219,0a.107.107,0,0,0-.106-.108Z"/><path class="d" d="M728.52,298.789a.153.153,0,0,1-.3,0h0a.152.152,0,0,1,.3,0Z"/><path d="M728.371,298.966h0a.177.177,0,0,1,0-.354.177.177,0,0,1,0,.354Zm0-.3a.132.132,0,0,0-.131.128.127.127,0,1,0,.131-.128Z"/><path class="d" d="M728.533,299.119a.164.164,0,0,1-.162.167.167.167,0,0,1-.172-.167h0a.169.169,0,0,1,.172-.168.166.166,0,0,1,.162.168Z"/><path d="M728.371,299.31a.191.191,0,1,1,.188-.191.191.191,0,0,1-.188.191Zm0-.333a.143.143,0,1,0,.137.142.141.141,0,0,0-.137-.142Z"/><path d="M728.3,299.44c-.016,0-.033.016-.026.045a1.261,1.261,0,0,0,.014.139c.008.05.037.037.045,0s0-.062.006-.132c0-.035-.018-.051-.039-.051Zm.133,0c-.018,0-.035.016-.035.051a.9.9,0,0,0,.005.132c.008.038.038.051.045,0s.014-.1.018-.139a.035.035,0,0,0-.033-.045Zm-.25.018a.043.043,0,0,0-.034.037c0,.032.012.072.016.12s.039.031.043,0a.6.6,0,0,0,0-.129c0-.019-.012-.029-.021-.031Zm.363,0c-.012,0-.018.012-.022.031a.69.69,0,0,0,0,.129c0,.028.039.048.043,0s.014-.088.014-.12a.041.041,0,0,0-.033-.037Zm-.5.059a.031.031,0,0,0-.021.041.824.824,0,0,1,.013.131c0,.035.033.022.033,0s0-.08,0-.128-.015-.046-.029-.041Zm.644,0a.041.041,0,0,0-.021.041c0,.048,0,.1,0,.128s.033.038.033,0,.01-.089.014-.131a.029.029,0,0,0-.022-.041Zm-1.931,0c-.018,0-.029.024-.018.051a1.185,1.185,0,0,1,.061.117c.019.043.047.016.037-.014a.844.844,0,0,0-.045-.121c-.01-.022-.023-.033-.035-.033Zm3.226,0c-.011,0-.025.011-.037.033a1.064,1.064,0,0,0-.043.121c-.007.03.018.057.038.014s.042-.074.06-.117c.014-.027,0-.051-.018-.051Zm-3.095,0a.028.028,0,0,0-.012.041c.016.04.041.082.055.124s.047.027.037-.008-.016-.055-.037-.119c-.01-.031-.03-.04-.043-.038Zm2.955,0a.048.048,0,0,0-.033.038c-.022.064-.026.085-.037.119s.023.045.037.008.039-.084.054-.124c.006-.019,0-.037-.011-.041Zm-2.789.032c-.018,0-.031.028-.018.059a1.01,1.01,0,0,0,.051.123c.018.045.047.036.039.008s-.014-.076-.035-.148c-.012-.033-.025-.044-.037-.042Zm2.637,0c-.016,0-.03.009-.041.042-.022.072-.03.119-.038.148s.024.037.045-.008a.958.958,0,0,0,.047-.123c.014-.031,0-.056-.013-.059Zm-3.043.022c-.018,0-.032.031-.022.055s.029.048.045.087.039.008.031-.018a.926.926,0,0,1-.025-.091c-.006-.025-.018-.034-.029-.033Zm3.445,0c-.012,0-.024.008-.03.033s-.017.065-.025.091.014.057.028.018.033-.05.05-.087a.04.04,0,0,0-.023-.055Zm-2.188.092a.041.041,0,0,0-.035.048,1.065,1.065,0,0,1,.043.122c.012.043.039.021.037-.009a.551.551,0,0,0-.019-.129c0-.022-.014-.032-.026-.032Zm.93,0c-.012,0-.023.01-.027.032a.826.826,0,0,0-.02.129c0,.03.031.052.039.009s.03-.082.043-.122a.04.04,0,0,0-.035-.048Zm-.461.038c-.025,0-.029.032-.033.058a.405.405,0,0,1-.065.207c-.029.039-.076.028-.113.007a.647.647,0,0,1-.109-.07c-.047-.033-.074-.013-.024.06a1.184,1.184,0,0,1,.311.749c0,.045.012.058.033.058s.026-.013.026-.058a1.171,1.171,0,0,1,.314-.749c.051-.073.016-.093-.026-.06s-.068.048-.107.07-.088.032-.117-.007a.4.4,0,0,1-.064-.207c0-.026-.008-.058-.026-.058Zm-1.152-.053h-.008c-.012,0-.02.015-.012.033,0,.033.03.1.037.126s.047.025.037-.016a.878.878,0,0,0-.019-.1c-.008-.027-.025-.044-.035-.044Zm2.3,0a.05.05,0,0,0-.04.044c-.011.046-.011.059-.019.1s.027.049.037.016.029-.093.037-.126c.006-.018,0-.031-.012-.033Zm-2.987.015c-.017,0-.033.025-.015.06s.058.085.072.112.045.009.027-.027a1.084,1.084,0,0,1-.051-.121c-.011-.018-.023-.027-.033-.024Zm3.672,0a.035.035,0,0,0-.037.024.8.8,0,0,1-.051.121c-.017.036.012.054.028.027s.05-.075.07-.112,0-.059-.01-.06Zm-4.709.107c-.019,0-.029.038,0,.065a.678.678,0,0,0,.08.088c.03.025.037-.006.026-.031s-.033-.048-.063-.089c-.013-.023-.025-.033-.039-.033Zm5.742,0c-.011,0-.025.01-.039.033-.027.041-.047.065-.062.089s0,.056.021.031a.368.368,0,0,0,.084-.088c.022-.027.018-.066,0-.065Zm-5.576.035c-.017,0-.029.011-.014.041s.043.09.059.124.068.044.047-.007-.024-.077-.041-.123a.059.059,0,0,0-.051-.035Zm5.408,0a.057.057,0,0,0-.05.035.921.921,0,0,1-.04.123c-.021.051.03.041.047.007s.041-.08.063-.124,0-.041-.02-.041Zm-5.726.01c-.026,0-.029.026-.008.042a1.109,1.109,0,0,1,.1.072c.039.034.058,0,.037-.024a.306.306,0,0,0-.1-.083.075.075,0,0,0-.033-.007Zm6.047,0a.091.091,0,0,0-.034.007.3.3,0,0,0-.1.083c-.022.027-.006.058.037.024s.068-.051.1-.072.018-.042-.007-.042Zm-3.578.024c-.016,0-.026.017-.018.038.006.038.021.078.029.117s.051.038.043.005-.012-.077-.021-.13c-.008-.02-.016-.029-.026-.03Zm1.105,0c-.012,0-.021.01-.025.03-.014.053-.018.1-.026.13s.037.033.047-.005.02-.079.026-.117a.028.028,0,0,0-.018-.038Zm-2.088-.066c-.012,0-.017.025-.008.053a.866.866,0,0,1,.051.294c-.006.04-.029.046-.057.032a.361.361,0,0,1-.095-.052c-.026-.019-.053,0-.018.036a1.04,1.04,0,0,1,.387.574c.012.046.045.051.033,0a1.224,1.224,0,0,1,.016-.663c.025-.055,0-.108-.041-.018-.028.058-.073.082-.11.03a1.959,1.959,0,0,1-.125-.251c-.008-.023-.019-.033-.025-.035Zm3.067,0a.066.066,0,0,0-.022.035,1.655,1.655,0,0,1-.131.251c-.035.052-.08.028-.107-.03-.041-.09-.067-.037-.041.018a1.26,1.26,0,0,1,.013.663c-.005.051.02.046.032,0a1.051,1.051,0,0,1,.39-.574c.035-.033.008-.055-.019-.036a.384.384,0,0,1-.09.052c-.029.014-.055.008-.061-.032a.864.864,0,0,1,.053-.294c.008-.028,0-.05-.01-.053Zm-4.057.08c-.022,0-.035.011-.03.039s.045.089.051.118.041.014.034-.025-.008-.059-.014-.1a.047.047,0,0,0-.041-.031Zm5.058,0a.046.046,0,0,0-.044.031c-.006.042-.006.064-.014.1s.025.051.031.025a1.074,1.074,0,0,0,.049-.118c.01-.028,0-.039-.022-.039Zm-4.449-.057c-.017,0-.021.05-.008.071s.059.063.092.1.043,0,.03-.024a.986.986,0,0,1-.084-.124.059.059,0,0,0-.03-.026Zm3.836,0a.051.051,0,0,0-.029.026,1.477,1.477,0,0,1-.084.124c-.014.028,0,.058.033.024s.061-.075.084-.1.014-.075,0-.071Zm-4.306.129c-.016,0-.026.009-.018.035s.018.067.023.1.034.028.034,0a.978.978,0,0,0-.01-.1c0-.018-.02-.028-.029-.029Zm4.777,0a.036.036,0,0,0-.029.029.994.994,0,0,0-.01.1c0,.031.025.038.033,0s.018-.064.023-.1,0-.037-.017-.035Zm-4.35.048c-.021,0-.041.021-.015.051a1.074,1.074,0,0,0,.093.1c.016.018.049.011.032-.027a1.039,1.039,0,0,1-.081-.113.026.026,0,0,0-.029-.012Zm3.914,0a.025.025,0,0,0-.021.012c-.014.03-.053.074-.076.113s.015.045.029.027.055-.052.1-.1c.019-.03,0-.05-.02-.051Zm-4.59.133c-.017,0-.019.014,0,.042a.651.651,0,0,1,.106.21c0,.044-.018.044-.039.044-.059,0-.086-.044-.141-.056s-.062.015-.023.044a1.7,1.7,0,0,1,.476.452c.032.059.079.081.055.024a.783.783,0,0,1-.082-.41.84.84,0,0,0,.037-.2c0-.051-.029-.047-.043,0a.334.334,0,0,1-.033.092c-.012.015-.059.025-.1-.031a1.189,1.189,0,0,0-.181-.19.072.072,0,0,0-.034-.019Zm5.276,0a.08.08,0,0,0-.035.019,1.4,1.4,0,0,0-.182.19c-.043.056-.088.046-.1.031a.369.369,0,0,1-.033-.092c-.01-.047-.043-.051-.047,0a1.509,1.509,0,0,0,.039.2.784.784,0,0,1-.076.41c-.025.057.02.035.051-.024a1.644,1.644,0,0,1,.479-.452c.037-.029.029-.057-.026-.044s-.082.056-.144.056c-.018,0-.039,0-.036-.044a.589.589,0,0,1,.108-.21c.017-.028.014-.042,0-.042Z"/><path class="f" d="M726.025,301.185l.061.2Zm.131-.039.055.2Zm.141-.023.037.208Zm.131-.026.039.206Zm.166-.017.033.208Zm.178,0,.037.208Zm.177-.059.022.211Zm.164.011.026.21Zm.16-.021.024.21Zm.159-.016.013.21Zm.17,0,.011.21Zm.156-.012.012.21Zm.17-.011.007.213Zm.2,0,.006.21Zm2.584.216-.061.2Zm-.131-.039-.055.2Zm-.137-.023-.041.208Zm-.134-.026-.041.206Zm-.166-.017-.034.208Zm-.178,0-.041.208Zm-.174-.059-.029.211Zm-.168.011-.029.21Zm-.16-.021-.023.21Zm-.158-.016-.014.21Zm-.17,0-.012.21Zm-.153-.012-.015.21Zm-.171-.011-.01.213Zm-.2,0-.007.21Zm-.238-.016v0Z"/><path d="M730.648,301.409h-.007a.022.022,0,0,1-.016-.031l.063-.2a.022.022,0,0,1,.029-.019.028.028,0,0,1,.017.032l-.062.2a.028.028,0,0,1-.024.014Zm-4.562,0a.022.022,0,0,1-.021-.014l-.065-.2a.026.026,0,0,1,.014-.03.024.024,0,0,1,.033.017l.062.2a.022.022,0,0,1-.015.031Zm4.437-.034h-.007c-.01-.005-.02-.018-.014-.03l.055-.206a.024.024,0,0,1,.029-.016.025.025,0,0,1,.018.031l-.055.2a.026.026,0,0,1-.026.019Zm-4.312,0a.021.021,0,0,1-.023-.019l-.057-.2a.023.023,0,0,1,.017-.031.025.025,0,0,1,.03.016l.054.206c.006.012,0,.025-.017.03Zm.123-.019a.029.029,0,0,1-.025-.021l-.037-.207a.024.024,0,0,1,.017-.029.024.024,0,0,1,.029.02l.041.207a.024.024,0,0,1-.019.029Zm4.066,0H730.4a.025.025,0,0,1-.02-.029l.041-.207a.024.024,0,0,1,.029-.02.022.022,0,0,1,.018.029l-.037.207a.03.03,0,0,1-.026.021Zm-.134-.029h0a.021.021,0,0,1-.018-.029l.039-.206c0-.013.014-.021.03-.021a.027.027,0,0,1,.017.03l-.043.207a.021.021,0,0,1-.023.019Zm-3.8,0a.027.027,0,0,1-.026-.019l-.039-.207a.027.027,0,0,1,.018-.03c.015,0,.029.008.029.021l.043.206a.024.024,0,0,1-.021.029Zm3.455-.016h0a.023.023,0,0,1-.018-.027l.038-.209a.019.019,0,0,1,.027-.019.028.028,0,0,1,.023.028l-.041.209c0,.011-.009.018-.025.018Zm-3.113,0a.027.027,0,0,1-.026-.018l-.033-.209a.022.022,0,0,1,.02-.028c.013-.005.023.007.027.019l.037.209a.022.022,0,0,1-.018.027Zm3.3,0h0a.025.025,0,0,1-.022-.027l.031-.209a.029.029,0,0,1,.032-.019.028.028,0,0,1,.019.028l-.035.209c0,.011-.012.018-.022.018Zm-3.48,0c-.01,0-.022-.007-.022-.018l-.037-.209a.024.024,0,0,1,.022-.028.025.025,0,0,1,.029.019l.033.209a.022.022,0,0,1-.021.027Zm2.965-.044h0a.027.027,0,0,1-.022-.028l.026-.211a.032.032,0,0,1,.029-.019.023.023,0,0,1,.022.026l-.03.21a.023.023,0,0,1-.025.023Zm-2.453,0a.03.03,0,0,1-.026-.023l-.025-.21a.023.023,0,0,1,.021-.026.025.025,0,0,1,.03.019l.025.211a.023.023,0,0,1-.023.028Zm2.621-.011h0a.029.029,0,0,1-.022-.027l.028-.211c0-.014,0-.023.031-.021.01,0,.017.012.017.026l-.025.21a.024.024,0,0,1-.025.023Zm-2.789,0c-.01,0-.018-.009-.022-.023l-.025-.21a.021.021,0,0,1,.021-.026c.024,0,.026.007.026.021l.025.211a.024.024,0,0,1-.017.027h-.008Zm2.467-.012h0a.027.027,0,0,1-.024-.025l.028-.211c0-.013.009-.027.027-.023a.028.028,0,0,1,.023.029l-.027.21a.023.023,0,0,1-.023.02Zm-2.141,0a.027.027,0,0,1-.024-.02l-.027-.21a.028.028,0,0,1,.024-.029.022.022,0,0,1,.023.023l.031.209a.025.025,0,0,1-.023.027Zm1.824-.014h0a.025.025,0,0,1-.025-.027l.009-.209c0-.014.008-.023.032-.024s.019.011.019.025l-.009.212a.023.023,0,0,1-.026.023Zm.168,0h0a.027.027,0,0,1-.027-.027l.015-.21c0-.014.026-.022.03-.023a.025.025,0,0,1,.021.025l-.015.212a.022.022,0,0,1-.024.023Zm-1.844,0a.022.022,0,0,1-.023-.023l-.016-.212a.022.022,0,0,1,.022-.025c.025,0,.025.009.029.023l.016.21a.028.028,0,0,1-.028.027Zm.168,0a.022.022,0,0,1-.021-.023l-.016-.212a.026.026,0,0,1,.026-.025c.023,0,.023.01.025.024l.012.209a.027.027,0,0,1-.026.027Zm1.352-.01h0a.027.027,0,0,1-.025-.028l.011-.211c0-.011.014-.014.029-.022a.025.025,0,0,1,.022.025l-.012.212a.023.023,0,0,1-.025.024Zm-1.2,0a.024.024,0,0,1-.026-.024l-.012-.212a.022.022,0,0,1,.022-.025c.019.008.025.011.029.022l.008.211a.023.023,0,0,1-.021.028Zm.6-.01c-.019,0-.029-.011-.029-.025v-.232c0-.027.051-.027.051,0v.232a.025.025,0,0,1-.022.025Zm.428,0h0a.03.03,0,0,1-.026-.027l.012-.212c0-.012.006-.018.024-.024a.028.028,0,0,1,.023.028l-.008.21a.026.026,0,0,1-.025.025Zm-.864,0c-.009,0-.021-.013-.025-.025l-.008-.21a.028.028,0,0,1,.026-.028c.019.006.021.012.021.024l.012.212a.03.03,0,0,1-.026.027Zm.667-.007h0a.025.025,0,0,1-.022-.025l.01-.211a.029.029,0,0,1,.025-.025.027.027,0,0,1,.022.028l-.006.211a.034.034,0,0,1-.027.022Zm-.471,0a.025.025,0,0,1-.026-.022l-.007-.211a.027.027,0,0,1,.023-.028.028.028,0,0,1,.027.025l.008.211a.024.024,0,0,1-.021.025Z"/></g></g></g></svg>