<svg xmlns="http://www.w3.org/2000/svg" xmlns:xlink="http://www.w3.org/1999/xlink" width="33.562" height="19.578" viewBox="0 0 33.562 19.578"><defs><style>.a{fill:none;}.b{clip-path:url(#a);}.c{fill:#1c2a7d;}.d{fill:#fff;}.e{fill:#f4c533;}</style><clipPath id="a"><rect class="a" width="33.562" height="19.578" transform="translate(304.131 179.824)"/></clipPath></defs><g transform="translate(-304.131 -179.824)"><g class="b"><rect class="c" width="33.562" height="19.578" transform="translate(304.131 179.824)"/><path class="d" d="M312.685,196.956l-.422-1.687-1.209,1.249.477-1.672-1.672.478,1.25-1.208-1.687-.423,1.687-.423-1.25-1.208,1.672.477-.477-1.673,1.209,1.25.422-1.687.423,1.687,1.209-1.25-.478,1.673,1.672-.477-1.25,1.208,1.688.423-1.687.423,1.25,1.208-1.672-.478.478,1.672-1.209-1.249Z"/><rect class="e" width="33.562" height="1.632" transform="translate(304.131 188.799)"/></g></g></svg>