<svg xmlns="http://www.w3.org/2000/svg" xmlns:xlink="http://www.w3.org/1999/xlink" width="33.561" height="19.578" viewBox="0 0 33.561 19.578"><defs><style>.a{fill:none;}.b{clip-path:url(#a);}.c{fill:#3564c2;}.d{fill:#fff;}.e{fill:#f5cd28;}.f{fill:#95d4fd;}.g{fill:#487ba2;}.h{fill:#c0003b;}.i{fill:#5b7133;}.j{fill:#263732;}.k{fill:#93c438;}.l{fill:#b0008a;}.m{fill:#f3cd2d;}.n{fill:#6091be;}.o{fill:#2f4791;}</style><clipPath id="a"><rect class="a" width="33.561" height="19.578" transform="translate(147.762 217.965)"/></clipPath></defs><g transform="translate(-147.762 -217.965)"><g class="b"><rect class="c" width="33.561" height="6.525" transform="translate(147.762 231.018)"/><rect class="c" width="33.561" height="6.526" transform="translate(147.762 217.965)"/><rect class="d" width="33.561" height="6.526" transform="translate(147.762 224.491)"/><path class="e" d="M162.574,228.891l1.969-3.409,1.967,3.409Z"/><path class="f" d="M162.767,228.778l1.774-3.071,1.774,3.071Z"/><g class="b"><path class="f" d="M163.119,228.494a.43.43,0,0,1-.072-.009l-.054-.014,0-.036.065.019a1.033,1.033,0,0,0,.164.014.206.206,0,0,1-.1.026Z"/><path class="f" d="M162.955,228.712l-.042-.022c.022-.009.038-.033.064-.062a.138.138,0,0,1,.1,0,.294.294,0,0,0,.06.011.149.149,0,0,0,.124,0l.051-.007-.038.035a.164.164,0,0,1-.148,0,.151.151,0,0,1-.058-.008.1.1,0,0,0-.07,0,.552.552,0,0,0-.038.057Z"/><path class="f" d="M163.3,228.745a.793.793,0,0,0-.139-.006l-.05-.016v.017c-.034,0-.048,0-.056-.005l-.008.005v-.018a.163.163,0,0,1,.064-.016h.05c.06,0,.106,0,.139.039Z"/><path class="f" d="M163.792,228.48c-.069,0-.091-.024-.106-.092a.222.222,0,0,0-.108.011h-.054l-.014-.032h.06a.173.173,0,0,1,.141,0c.02.076.035.084.087.086,0-.014.026-.025.048-.037l.042.014a.3.3,0,0,0-.079.049Z"/><path class="a" d="M163.548,228.5h0Z"/><path class="f" d="M163.678,228.661l-.041-.023c.023-.008.037-.032.064-.061a.161.161,0,0,1,.16-.04c.063.049.079.063.127.068a.29.29,0,0,0,.073-.009l.055-.009a.059.059,0,0,1-.05.042.509.509,0,0,1-.08.008.186.186,0,0,1-.117-.054.117.117,0,0,0-.141.015.475.475,0,0,0-.05.063Z"/><path class="f" d="M164.035,228.773a.3.3,0,0,1-.127-.033l-.045-.019a.108.108,0,0,1-.041.027l-.013-.025h.012c0-.008.016-.017.04-.031l.06.019a.282.282,0,0,0,.114.029c.016,0,.029-.005.044-.007a.333.333,0,0,1,.063-.01.089.089,0,0,1-.055.043l-.052.007Z"/><path class="f" d="M164.461,228.416a.455.455,0,0,0-.151-.016h-.061l-.013-.032h.059a.438.438,0,0,1,.172.018h.162l-.168.031Z"/><path class="f" d="M164.536,228.62a.208.208,0,0,1-.121-.047l-.036-.023a.224.224,0,0,0-.132-.049.123.123,0,0,1-.046.026l-.013-.024h.013c0-.009.014-.018.039-.032a.259.259,0,0,1,.164.054l.031.021a.173.173,0,0,0,.1.041.492.492,0,0,1,.076-.032l-.026.047a.092.092,0,0,1-.05.018Z"/><path class="f" d="M164.616,228.7a.457.457,0,0,1-.124-.015.111.111,0,0,0-.115.013l-.02-.026a.143.143,0,0,1,.148-.019.413.413,0,0,0,.147.016c.019-.007.039-.017.059-.025a.253.253,0,0,0,.072-.04l.006,0h.041l-.036.032a.187.187,0,0,1-.069.041.478.478,0,0,0-.054.024.534.534,0,0,1-.055,0Z"/><path class="f" d="M165.047,228.5a.415.415,0,0,0-.166-.017l-.015-.016.015-.016a.447.447,0,0,1,.17.019c.036-.009.056-.036.084-.07l.026-.028a.236.236,0,0,1,.138.013.375.375,0,0,1-.125.014c-.044.058-.072.092-.127.1Z"/><path class="f" d="M165.1,228.689l-.009-.033a.521.521,0,0,1,.085-.017c.036-.043.064-.022.087-.006a.087.087,0,0,0,.038.023.18.18,0,0,0,.1-.11.133.133,0,0,1-.1.143.164.164,0,0,1-.061-.029c-.021-.017-.027-.021-.052.006-.043.009-.09.023-.09.023Z"/><path class="f" d="M165.236,228.559l-.013-.022h.011c-.007-.014.012-.024.036-.047l.033-.026a.117.117,0,0,1,.084-.045c.03-.04.065-.007.088.012-.05,0-.058,0-.075.016a.124.124,0,0,0-.077.038.144.144,0,0,1-.033.032l-.054.042Z"/><path class="f" d="M165.486,228.69l-.03-.005a1.2,1.2,0,0,1,.035-.12c.038-.026.063-.04.09-.034a.132.132,0,0,1,.06.065.241.241,0,0,1,.054.027.387.387,0,0,0,.068.033.067.067,0,0,1-.084-.006.412.412,0,0,0-.059-.03c-.023-.038-.037-.053-.048-.056a.1.1,0,0,0-.057.021c0,.021-.026.094-.029.1Z"/><path class="f" d="M165.78,228.5c-.042-.072-.058-.107-.1-.119a.2.2,0,0,1-.02.07l-.039-.017c.017-.01.028-.037.05-.076.075.006.094.053.116.1a.126.126,0,0,0,.112-.022c-.014.059-.057.061-.12.061Z"/><path class="f" d="M166.151,228.661a.119.119,0,0,1-.084-.038.178.178,0,0,0-.054-.037c-.026-.016-.043-.009-.074.056l-.03-.013c.018-.038.044-.089.08-.092l.042.026a.131.131,0,0,1,.058.037.238.238,0,0,0,.055.041c-.01-.024.007-.031.038-.036-.018.036-.022.037-.031.056Z"/><path class="f" d="M164.893,228.715l-.015-.025h.013c0-.011.014-.019.04-.033a.3.3,0,0,0,.1-.111.2.2,0,0,1,.083,0,.6.6,0,0,0,.084.009.086.086,0,0,1-.088.023l-.064-.01a.213.213,0,0,1-.085.107c-.039.024-.059.033-.067.04Z"/><path class="f" d="M163.373,228.505l-.032,0c0-.019.017-.033.08-.065.022-.026.047-.017.068-.009l.035.038a.163.163,0,0,1-.046-.009v0l-.041,0a.26.26,0,0,0-.064.039Z"/><path class="f" d="M163.559,228.671a.081.081,0,0,1-.038-.012.142.142,0,0,0-.048-.022.24.24,0,0,1-.044.028l-.013-.026h.013c0-.01.014-.018.039-.033a.149.149,0,0,1,.071.025.138.138,0,0,0,.059.024.067.067,0,0,1-.039.016Z"/><path class="d" d="M164.55,228.08l-.016-2.344h.016v2.344Z"/><path class="d" d="M163.7,227.189v-.016h1.691l-1.691.016Z"/><path class="d" d="M165.814,227.909l-1.9-1.077.009-.017,1.891,1.094Z"/><path class="d" d="M163.275,227.927l1.9-1.117.009.014-1.913,1.1Z"/><path class="d" d="M164.167,227.855l-.015-.007.717-1.24-.7,1.247Z"/><path class="d" d="M165,227.95l-.813-1.379.015-.009.8,1.388Z"/><path class="f" d="M164.8,227.181a.262.262,0,1,1-.263-.261.263.263,0,0,1,.263.261Z"/><path class="g" d="M166,228.223l-.879.014s0,.128.063.134a3.929,3.929,0,0,1,.814.05c.031.059-.709.089-.709.089a3.309,3.309,0,0,1,.686.045c.036.05-.358.059-.328.068a2.146,2.146,0,0,1,.5.039c.041.05-.194.081-.194.081s.355.035.363.033l-.317-.553Z"/><path class="h" d="M164.411,227.009c-.028.019.066.032.059.093a.641.641,0,0,1-.08.144c-.024.04.1.187.216.108a.184.184,0,0,0,.063-.252c-.092-.061-.151-.153-.258-.093Z"/><path d="M164.577,227.346a.274.274,0,0,0-.075-.075c-.028-.016-.074-.028-.087-.018s0,.014,0,.016l-.007.005,0-.03c.02-.015.075.006.1.02s.077.056.07.082Z"/><path class="i" d="M163.788,227.542c.1-.024.133.095.166.117a1.5,1.5,0,0,0,.148.042l.111.074s.041-.106.086-.116.247.128.247.128.021-.128.075-.11a2.865,2.865,0,0,1,.319.217.124.124,0,0,1,.07-.09c.057-.021.254.1.254.1s.021-.1.061-.1c.116,0,.494.41.577.42.038,0-.138.055-.138.055s.031.026.013.049a4.394,4.394,0,0,1-.537,0s.015.035.006.046-2.27.036-2.27.036a2.342,2.342,0,0,1,.812-.874Z"/><path class="j" d="M164.679,228.4c.078-.021.023-.24-.409-.573.683.474.249.539.949.559-.125.009-.54.014-.54.014Z"/><path class="j" d="M164.567,227.81s.648.5.675.524l.137.005a3.792,3.792,0,0,1-.812-.529Z"/><path class="j" d="M164.953,227.909s.544.426.457.429a2.867,2.867,0,0,0,.365-.005c-.351-.019-.28-.034-.822-.424Z"/><path class="j" d="M165.283,227.925l.481.356a.957.957,0,0,0,.114-.039c-.144.023-.169-.042-.6-.317Z"/><path class="k" d="M163.873,227.589c.037.025.048.073.071.088a1.544,1.544,0,0,1,.369.245c.122.128.308.288.242.309s-.129-.05-.129-.05.092.151-.032.16-.423-.445-.423-.445.143.413-.041.4-.166-.314-.166-.314-.05.143-.086.139,0-.184,0-.184-.214.356-.295.316.328-.688.49-.659Z"/><path class="k" d="M164.316,227.71c0-.033.027-.024.093.011a3.15,3.15,0,0,1,.587.489c-.014.043-.649-.3-.68-.5Z"/><path class="k" d="M164.713,227.779c-.042-.008.424.463.533.435s-.5-.427-.533-.435Z"/><path class="k" d="M165.033,227.82c-.051-.005.453.451.562.426s-.482-.42-.562-.426Z"/><path class="k" d="M165.329,227.846c-.056.01.376.343.428.339s-.3-.362-.428-.339Z"/><path class="l" d="M163.84,226.921a.946.946,0,0,1,1.4,0l-.105-.186a.923.923,0,0,0-1.188-.005Z"/><path class="h" d="M165.07,226.62a.857.857,0,0,0-.529-.162.841.841,0,0,0-.527.164l-.088.149a.93.93,0,0,1,1.234,0Z"/><path class="m" d="M165.005,226.487a.828.828,0,0,0-.464-.128.766.766,0,0,0-.443.118l-.094.16a.786.786,0,0,1,.539-.172.8.8,0,0,1,.539.172Z"/><path class="k" d="M164.923,226.366l.084.142a.832.832,0,0,0-.466-.127.811.811,0,0,0-.467.135l.084-.144a.675.675,0,0,1,.383-.088.7.7,0,0,1,.382.082Z"/><path class="n" d="M164.864,226.267l.071.119a.96.96,0,0,0-.394-.084.871.871,0,0,0-.4.107l.067-.117a.692.692,0,0,1,.337-.073.822.822,0,0,1,.323.048Z"/><path class="o" d="M164.828,226.2l.055.1a.645.645,0,0,0-.34-.071.662.662,0,0,0-.344.071l.057-.1a.893.893,0,0,1,.285-.039.8.8,0,0,1,.287.043Z"/><path class="d" d="M164.111,228.448l.885.008s-.153.019-.15.036a1.913,1.913,0,0,0,.315.026s-.19.013-.193.034.087.026.087.026-.174.017-.174.036a.965.965,0,0,0,.206.027,1.179,1.179,0,0,0-.293.026c0,.023.2.068.2.068l-1.162.022s.182-.027.182-.062-.128-.046-.128-.046a4,4,0,0,0,.495-.013c.021-.022-.1-.038-.1-.038s.19.01.2-.011-.252-.06-.252-.06.155,0,.178-.022-.293-.057-.293-.057Z"/><path class="g" d="M163.942,228.47a6.844,6.844,0,0,0-.947.076c-.075.049.487.1.487.1a2.7,2.7,0,0,0-.625.058c-.044.055.347.046.347.046l-.437.03.209-.359Z"/><path class="m" d="M162,228.527a.06.06,0,0,1-.037.074.058.058,0,0,1-.034-.111.055.055,0,0,1,.071.037Z"/><path class="a" d="M162,228.527a.06.06,0,0,1-.037.074.058.058,0,0,1-.034-.111A.055.055,0,0,1,162,228.527Z"/><path class="m" d="M162.093,229.083c-.034.031-.061.052-.037.1l-.021.01-.092-.2.018-.009c.017.034.03.039.047.033a.105.105,0,0,0,.029-.023l.056-.052-.069-.145-.04,0a.141.141,0,0,0-.051.011c-.031.015-.029.044-.019.072l-.019.007-.07-.15.019-.01c.039.047.072.045.127.041l.342-.031.065.071Zm.175-.3-.21.019.058.124Z"/><path class="m" d="M162.4,229.575c-.034.027-.034.048-.008.084l-.017.012-.132-.181.017-.013c.026.037.046.042.082.015l.261-.194h0l-.407.127-.012-.02.23-.347h0l-.2.149c-.08.062-.088.072-.06.12l-.016.013-.092-.13.016-.01c.041.037.052.041.132-.018l.193-.144c.037-.027.035-.049.01-.083l.017-.012.108.148-.17.253.288-.089.105.144-.015.012c-.03-.035-.044-.044-.083-.015Z"/><path class="m" d="M162.477,229.74c.034.031.052.031.082,0l.2-.228c.029-.032.027-.053-.009-.083l.015-.016.279.251-.048.114-.02,0a.233.233,0,0,0-.066-.195c-.041-.037-.054-.023-.083.011l-.081.092.009.009a.1.1,0,0,0,.133.018l.015.017-.117.135-.02-.018a.092.092,0,0,0-.028-.13l-.011-.01-.088.1c-.025.026-.038.048,0,.076a.259.259,0,0,0,.211.057l0,.017-.111.056-.279-.252Z"/><path class="m" d="M163.193,230.183c0,.049-.008.092.037.125l-.011.017-.129-.082a.566.566,0,0,1,0-.058l.01-.087c.013-.088-.005-.107-.027-.121L163,230.1c-.023.038-.019.059.02.084l-.01.016-.189-.119.011-.02c.037.025.059.023.081-.015l.159-.258c.022-.035.017-.056-.02-.081l.01-.016.227.142c.077.05.1.124.063.18s-.1.053-.161.032a.128.128,0,0,1,.006.067Zm-.091-.226c.085.056.13.043.167-.014s.013-.091-.043-.128c-.035-.02-.044-.009-.063.022l-.071.115Z"/><path class="m" d="M163.453,230.006c.018-.04.011-.059-.03-.077l.009-.021.2.1-.008.018c-.041-.018-.063-.013-.078.027l-.125.275c-.018.041-.009.061.03.079l-.007.02-.2-.1.009-.018c.041.018.06.012.079-.028Z"/><path class="m" d="M163.949,230.244h-.028a.186.186,0,0,0-.106-.165c-.088-.029-.144.079-.167.15-.046.144.005.227.072.25a.17.17,0,0,0,.153-.045l.013.016a.213.213,0,0,1-.22.062.219.219,0,0,1-.134-.28.238.238,0,0,1,.283-.18.178.178,0,0,1,.05.027.281.281,0,0,0,.035.026.4.4,0,0,0,.049,0l.007,0Z"/><path class="m" d="M164.262,230.528c.008.046.008.078.064.089l0,.021-.216-.036,0-.019c.04.005.051,0,.055-.02a.171.171,0,0,0,0-.039l-.012-.075-.156-.025-.019.035a.132.132,0,0,0-.021.051c-.006.031.021.048.048.055l-.005.021-.161-.028,0-.02c.058-.006.076-.036.1-.083l.171-.3.095-.014Zm-.148-.321-.1.188.135.024Z"/><path class="m" d="M164.9,230.288l-.027.01a.189.189,0,0,0-.157-.116c-.094.007-.109.128-.1.2.011.15.09.21.157.206a.161.161,0,0,0,.126-.1l.019.011a.213.213,0,0,1-.183.139.217.217,0,0,1-.224-.212.242.242,0,0,1,.2-.273.239.239,0,0,1,.058.008.106.106,0,0,0,.041.008.117.117,0,0,0,.044-.018l.007,0Z"/><path class="m" d="M164.988,230.586c.044-.01.057-.028.045-.07l-.067-.3c-.009-.041-.03-.051-.072-.041l0-.021.364-.085.063.106-.015.011a.238.238,0,0,0-.2-.058c-.053.014-.049.031-.039.078l.027.117.013,0c.06-.014.085-.031.09-.1l.024-.007.043.177-.024.006c-.032-.058-.066-.065-.127-.05H165.1l.03.13c.009.035.015.058.06.048a.262.262,0,0,0,.166-.141l.017,0-.017.125-.366.085Z"/><path class="m" d="M165.768,230.205l-.083-.192c-.023-.047-.039-.074-.1-.053l-.009-.021.149-.065.01.018c-.051.034-.047.057-.024.107l.139.322-.052.022-.37-.227.094.223c.029.062.039.072.106.057l.008.02-.162.07-.008-.018c.051-.034.053-.055.029-.108l-.113-.265a.123.123,0,0,0-.08-.01l-.009-.02.143-.063Z"/><path class="m" d="M166.06,229.641l.1.086-.014.018a.205.205,0,0,0-.179-.006l.2.293c.023.037.044.041.08.014l.012.018-.183.126-.011-.017c.038-.024.041-.045.016-.081l-.2-.295a.211.211,0,0,0-.059.17l-.022.009-.046-.124Z"/><path class="m" d="M166.594,229.616c.046.014.088.028.128-.007l.014.015-.11.108a.45.45,0,0,1-.056-.018l-.08-.03c-.082-.032-.105-.021-.123,0l.1.1c.031.032.052.031.083,0l.014.016-.158.156-.014-.014a.052.052,0,0,0,0-.084l-.209-.216c-.033-.032-.054-.03-.084,0l-.015-.015.189-.189c.069-.064.141-.069.19-.022a.132.132,0,0,1-.009.168.1.1,0,0,1,.066.011Zm-.239.037c.075-.071.073-.119.026-.166s-.085-.037-.133.011c-.031.028-.02.043.005.067l.1.1Z"/><path class="m" d="M166.909,229.207c.047.016.075.028.109-.016l.016.013-.126.178-.016-.012c.02-.035.018-.045,0-.057a.12.12,0,0,0-.034-.015l-.072-.024-.092.13.024.036a.143.143,0,0,0,.038.04c.023.018.05,0,.069-.02l.017.014-.1.133-.016-.009a.132.132,0,0,0-.028-.134l-.192-.288.026-.092Zm-.346-.007.121.179.077-.113Z"/><path class="m" d="M167.026,229.167c.021-.044.015-.063-.024-.083l-.268-.135c-.039-.019-.058-.01-.078.03l-.018-.009.1-.2.02.008c-.022.04-.015.063.023.08l.27.135c.031.015.048.024.067-.018a.266.266,0,0,0-.011-.219l.013-.011.1.091-.168.341Z"/><path class="m" d="M167.073,228.527a.056.056,0,0,1,.071-.036.057.057,0,0,1,.038.073.058.058,0,0,1-.071.037.059.059,0,0,1-.038-.074Z"/><path class="m" d="M162.006,227.963c.037-.03.073-.057.067-.112l.022,0,.023.155c-.015.012-.032.02-.048.032l-.07.049c-.075.05-.078.076-.073.1l.137-.022c.043-.006.054-.024.047-.067l.022-.005.033.223-.02,0c-.007-.045-.023-.058-.065-.05l-.3.046c-.044.007-.055.025-.048.07l-.019,0-.041-.268c-.015-.094.026-.157.091-.167s.108.044.128.1a.136.136,0,0,1,.05-.048Zm-.11.217c-.015-.1-.054-.129-.119-.116s-.079.047-.07.114c.008.041.024.041.06.036l.131-.024Z"/><path class="m" d="M162.077,227.826c0-.045-.013-.06-.056-.062l-.3-.013c-.044,0-.059.015-.059.06h-.02l.013-.378.117-.036.008.02a.238.238,0,0,0-.105.174c0,.056.016.058.06.058l.123.006v-.013c0-.062-.007-.091-.069-.115V227.5l.181.008v.024c-.065.015-.079.047-.083.107v.013l.131.006c.035,0,.06,0,.062-.046a.258.258,0,0,0-.094-.2L162,227.4l.115.05-.014.378Z"/><path class="m" d="M161.947,227.175l.128.028c.043.012.059,0,.069-.047l.02,0-.048.221-.021-.006c.01-.043,0-.062-.041-.07l-.293-.067c-.042-.009-.059,0-.069.046l-.02,0,.049-.222c.03-.137.1-.177.158-.162.112.025.1.137.08.223Zm-.024-.005.01-.035c.015-.075,0-.115-.076-.132a.087.087,0,0,0-.115.074c-.011.049.009.053.05.065Z"/><path class="m" d="M162.109,226.791c.1.045.146.024.173-.038.033-.086-.008-.132-.091-.167l-.2-.084c-.041-.016-.058-.006-.076.036l-.019-.008.058-.144.019.008c-.017.041-.01.061.029.079l.207.085a.146.146,0,0,1,.09.22c-.047.117-.122.152-.211.116l-.218-.09c-.041-.017-.059-.008-.076.035l-.019-.01.084-.207.018.008c-.016.041-.01.06.031.079Z"/><path class="m" d="M162.361,226.586l-.016-.011a.053.053,0,0,0-.017-.084l-.253-.162c-.036-.022-.056-.018-.08.02l-.018-.011.121-.19c.087-.137.146-.14.193-.111s.045.109.024.16h0c.048-.052.109-.1.179-.052s.073.111.009.213Zm-.111-.309c.041-.067.039-.112-.016-.145s-.093-.015-.125.037a.074.074,0,0,0-.014.043.05.05,0,0,0,.025.023l.112.073Zm.115.117c.047.03.065.042.1-.013a.1.1,0,0,0-.033-.148c-.048-.03-.094-.039-.156.06l-.019.03Z"/><path class="m" d="M162.6,226.183c.031-.034.031-.055,0-.083l-.221-.2c-.034-.03-.054-.028-.084.005l-.015-.013.15-.167.014.014c-.029.034-.029.055,0,.084l.222.2c.027.025.041.036.071,0a.257.257,0,0,0,.048-.213l.016-.006.064.113-.251.28Z"/><path class="m" d="M162.7,225.558c-.027-.034-.051-.035-.084-.005l-.013-.017.171-.143.014.015c-.035.032-.039.05-.01.085l.191.233c.029.034.049.034.084.005l.012.015-.171.145-.012-.016c.033-.03.035-.05.009-.084Z"/><path class="m" d="M163.235,225.241l-.016.024a.186.186,0,0,0-.2-.027c-.078.052-.031.165.006.227.082.13.178.141.238.1a.162.162,0,0,0,.064-.145h.021a.221.221,0,0,1-.1.21.212.212,0,0,1-.3-.077.239.239,0,0,1,.046-.333.157.157,0,0,1,.052-.023.3.3,0,0,0,.039-.012.12.12,0,0,0,.03-.038l0-.006Z"/><path class="m" d="M163.742,225.274c.031.036.046.065.1.044l.008.021-.2.082-.009-.019c.035-.017.043-.027.035-.045a.126.126,0,0,0-.021-.032l-.048-.058-.146.059v.043a.171.171,0,0,0,.01.053c.01.03.042.03.069.021l.008.02-.153.061-.008-.019c.046-.037.046-.07.046-.125l-.011-.348.074-.063Zm-.289-.2.006.214.126-.052Z"/><path class="m" d="M164.031,225.273c.045-.006.059-.021.054-.067l-.032-.3c0-.044-.022-.057-.067-.051l0-.019.216-.025a.316.316,0,0,1,.107,0,.223.223,0,0,1,.161.2.218.218,0,0,1-.112.223.278.278,0,0,1-.106.03l-.214.023Zm.155-.083c0,.046,0,.06.061.054.077-.009.13-.059.11-.231-.017-.153-.079-.187-.162-.177-.048,0-.045.024-.043.062Z"/><path class="m" d="M164.5,225.223c.047,0,.062-.01.064-.055l.022-.3c0-.041-.013-.056-.057-.06l0-.02.372.025.033.12-.02.007a.243.243,0,0,0-.172-.113c-.055,0-.055.016-.058.063l-.007.121h.01c.063,0,.091,0,.117-.066h.024l-.012.182-.025,0c-.013-.064-.043-.082-.1-.084l-.014,0-.007.133c0,.037,0,.062.043.063a.255.255,0,0,0,.2-.086l.017.009-.054.115-.375-.027Z"/><path class="m" d="M165.491,225.292l.069-.2c.015-.053.021-.082-.037-.106l.006-.02.157.053-.009.018c-.059-.008-.072.014-.089.066l-.109.331-.054-.018L165.3,225l-.077.23c-.02.063-.018.079.04.112l-.007.02-.166-.056.006-.021c.059.01.075,0,.093-.055l.093-.277a.118.118,0,0,0-.056-.062l.009-.021.149.051Z"/><path class="m" d="M165.755,225.149c.02-.04.011-.059-.028-.079l.011-.018.2.1-.007.019c-.041-.022-.062-.017-.08.024l-.134.269c-.022.04-.012.059.026.081l-.009.018-.2-.1.009-.02c.04.021.061.015.079-.023Z"/><path class="m" d="M166.256,225.519l-.028-.01a.184.184,0,0,0-.053-.189c-.079-.052-.162.035-.2.1-.083.125-.057.22,0,.259a.159.159,0,0,0,.159,0l.008.019a.207.207,0,0,1-.229,0,.218.218,0,0,1-.049-.3.235.235,0,0,1,.32-.093.146.146,0,0,1,.041.042.158.158,0,0,0,.029.029.084.084,0,0,0,.046.015h.007Z"/><path class="m" d="M166.43,226c-.024.043-.041.071,0,.11l-.017.016-.155-.152.014-.016c.031.026.041.027.054.015a.1.1,0,0,0,.02-.032l.035-.069-.112-.112-.038.019a.139.139,0,0,0-.046.031c-.021.02-.01.048.008.071l-.013.014-.12-.116.015-.014a.127.127,0,0,0,.133-.008l.311-.149.087.042Zm.06-.345-.192.092.1.1Z"/><path class="m" d="M166.722,226.394a.118.118,0,0,0-.016.127l-.017.012-.087-.128a.563.563,0,0,1,.029-.053l.043-.074c.047-.076.037-.1.023-.124l-.116.08c-.036.027-.037.046-.012.084l-.016.011-.127-.184.017-.012c.026.036.045.041.08.016l.248-.169c.037-.025.039-.047.014-.084l.017-.01.152.221c.05.078.043.154-.013.191a.121.121,0,0,1-.158-.037.141.141,0,0,1-.025.064Zm.005-.245c.058.085.1.093.159.054s.049-.079.01-.134c-.023-.034-.036-.025-.065-.006l-.11.075Z"/><path class="m" d="M166.949,226.9c-.039.031-.064.049-.045.1l-.018.009-.084-.2.02-.009c.016.036.026.041.044.035a.09.09,0,0,0,.03-.021l.06-.05-.06-.148-.043,0a.216.216,0,0,0-.051.007c-.029.013-.031.044-.021.072l-.02.006-.063-.153.021-.01c.035.05.069.05.123.048l.345-.012.061.074Zm.192-.292-.214.006.051.129Z"/><path class="m" d="M167.289,227.341l-.013-.02c.063-.07.1-.115.084-.172s-.08-.11-.235-.077-.2.089-.186.159.065.067.121.056.052-.024.045-.072l.023,0,.044.209-.024,0c-.016-.049-.03-.052-.077-.041l-.091.018a.234.234,0,0,0-.03-.084.319.319,0,0,1-.038-.087.21.21,0,0,1,.175-.261.242.242,0,0,1,.295.172.106.106,0,0,1,0,.05.135.135,0,0,0,0,.04.121.121,0,0,0,.028.046Z"/><path class="m" d="M167.128,227.588c-.11,0-.144.038-.142.1,0,.091.057.118.148.117l.218,0c.042,0,.056-.017.054-.063h.022l0,.156h-.022c0-.047-.015-.061-.058-.061l-.224.005c-.107,0-.166-.045-.167-.166s.054-.191.15-.193l.236,0c.042,0,.053-.016.053-.061h.021l0,.225h-.02c0-.046-.015-.059-.058-.059Z"/><path class="m" d="M167.012,228.3c-.048.006-.081.007-.09.063l-.02,0,.033-.219.021,0c0,.041,0,.05.019.052a.1.1,0,0,0,.038,0l.074-.009.029-.16-.04-.019a.136.136,0,0,0-.048-.02c-.031-.006-.048.021-.055.049l-.019,0,.026-.164.02,0c.008.06.035.077.082.1l.3.174.013.094Zm.314-.15-.185-.1-.021.136Z"/></g></g></g></svg>