<svg xmlns="http://www.w3.org/2000/svg" xmlns:xlink="http://www.w3.org/1999/xlink" width="33.565" height="19.58" viewBox="0 0 33.565 19.58"><defs><style>.a{fill:none;}.b{clip-path:url(#a);}.c{fill:#fff;}.d{fill:#3564c2;}.e{fill:#c0003b;}</style><clipPath id="a"><rect class="a" width="33.565" height="19.58"/></clipPath></defs><g transform="translate(-558.66 -545.356)"><g transform="translate(558.66 545.356)"><g transform="translate(0 0)"><g class="b"><rect class="c" width="33.565" height="19.58"/><path class="d" d="M602.323,557.45l-.756,2.327,1.164.378Z" transform="translate(-592.884 -555.003)"/><path class="d" d="M603.7,557.45l.757,2.327-1.164.378Z" transform="translate(-594.261 -555.003)"/><path class="d" d="M607.16,565.807h-2.447v1.224Z" transform="translate(-595.393 -561.668)"/><path class="d" d="M606.168,565.807l-1.98,1.439-.72-.99Z" transform="translate(-594.401 -561.668)"/><path class="d" d="M593.8,565.807l1.981,1.439.719-.99Z" transform="translate(-586.689 -561.668)"/><path class="d" d="M593.8,565.807h2.448v1.224Z" transform="translate(-586.689 -561.668)"/><path class="d" d="M604.848,570.153l-.756-2.329-1.164.378Z" transform="translate(-593.97 -563.277)"/><path class="d" d="M604.612,569.759l-1.98-1.44.72-.989Z" transform="translate(-593.733 -562.883)"/><path class="d" d="M598.2,569.759l1.98-1.44-.72-.989Z" transform="translate(-590.198 -562.883)"/><path class="d" d="M598.2,570.153l.755-2.329,1.164.378Z" transform="translate(-590.198 -563.277)"/><rect class="d" width="16.782" height="9.791" transform="translate(0 9.789)"/><rect class="e" width="16.783" height="9.79" transform="translate(16.782)"/><path class="e" d="M674.885,605.824l-.757,2.327,1.164.378Z" transform="translate(-650.761 -593.587)"/><path class="e" d="M676.263,605.824l.757,2.327-1.164.378Z" transform="translate(-652.139 -593.587)"/><path class="e" d="M679.724,614.18h-2.447V615.4Z" transform="translate(-653.273 -600.252)"/><path class="e" d="M678.73,614.18l-1.98,1.44-.719-.991Z" transform="translate(-652.279 -600.252)"/><path class="e" d="M666.369,614.18l1.98,1.44.719-.991Z" transform="translate(-644.572 -600.252)"/><path class="e" d="M666.369,614.18h2.447V615.4Z" transform="translate(-644.572 -600.252)"/><path class="e" d="M677.411,618.532l-.756-2.328-1.164.378Z" transform="translate(-651.848 -601.866)"/><path class="e" d="M677.173,618.132l-1.98-1.439.72-.99Z" transform="translate(-651.61 -601.467)"/><path class="e" d="M670.763,618.132l1.98-1.439-.72-.99Z" transform="translate(-648.076 -601.467)"/><path class="e" d="M670.763,618.532l.756-2.328,1.164.378Z" transform="translate(-648.076 -601.866)"/></g></g></g></g></svg>