<svg xmlns="http://www.w3.org/2000/svg" xmlns:xlink="http://www.w3.org/1999/xlink" width="33.561" height="19.578" viewBox="0 0 33.561 19.578"><defs><style>.a{fill:none;}.b{clip-path:url(#a);}.c{fill:#bc0030;}.d{fill:#f3d02f;}.e{fill:#fff;}</style><clipPath id="a"><rect class="a" width="33.561" height="19.578" transform="translate(147.762 179.824)"/></clipPath></defs><g transform="translate(-147.762 -179.824)"><g class="b"><rect width="33.561" height="19.578" transform="translate(147.762 179.824)"/><path class="c" d="M147.762,179.824,181.322,199.4V179.824Z"/><g class="b"><path class="d" d="M169.525,185.514c-.19.248-.647-.25-1.194-.263s-.936.525-1.094.707a5.756,5.756,0,0,0-.659,1.24c.01.1.317-.285.432-.352.011.135-.125.3-.092.342s.4-.275.524-.286c.035.092-.069.183-.034.32.045.046.25-.228.387-.284.023.1-.126.295-.046.419.057.013.4-.385.512-.432s-.055.376,0,.41c.1-.067.423-.433.525-.479s-.01.468.034.468a3.485,3.485,0,0,0,.479-.592c.034-.069-.034.661.319,1.047a4.981,4.981,0,0,0,.946.831c.067-.125-.024-.387.031-.375a1.9,1.9,0,0,0,.527.42c.067,0-.047-.272.044-.272a3.834,3.834,0,0,0,1.73,1.149c-.068-.193-.216-.363-.228-.455a2.819,2.819,0,0,0,.353.113c.048-.009-.5-.682-.466-.774.125-.01.182.069.227.013-.055-.091-.536-.626-.536-.752s.148.021.194,0-.181-.5-.134-.558.546.309.671.309.034-.447.092-.469.477.239.57.239.077-.193.113-.17a2.39,2.39,0,0,1,.682,2.175,1.464,1.464,0,0,1-2.027.912,1.273,1.273,0,0,0,1.173.374,1.554,1.554,0,0,0,1.207-1.753,2.253,2.253,0,0,0-.513-1.468c-.057-.171.093.046.216.089s-.021-.238-.056-.363.376.263.478.3-.239-.935-.342-1,.1.023.172.045-.627-1.059-.776-1.059.126-.056.207-.056a3.417,3.417,0,0,0-.946-.706c-.147,0,.319-.183.364-.194a2.076,2.076,0,0,0-1.993.011c-.055-.045.462-.4.479-.558.006-.041-.172-.125-.183-.17s.274-.182.285-.285c-.069-.092-.193-.055-.263-.081-.016-.085.241-.295.218-.387-.019-.051-.205-.067-.25-.033s.117-.238.092-.319c-.024-.035-.116-.012-.207.011-.058-.011.3-.5.229-.568a2.78,2.78,0,0,0-1.38,1.137,2.29,2.29,0,0,0-.125,1.367c-.044.217-.1.433-.248.433a1.4,1.4,0,0,1-.6-.342c-.117-.113-.14-.193-.3-.238a2.416,2.416,0,0,0-.66.1c-.137.012-.673-.1-.707-.069s.524.239.649.308.138.159.228.215.947.308.671.662"/><path class="d" d="M172.862,187.119c.274.274,2.117,1.5,2.117,3a1.384,1.384,0,0,1-1.729,1.413,1.41,1.41,0,0,0,2.074-1.413c0-1.5-2.119-3-2.392-3.143s-.343-.135-.07.138"/><path class="e" d="M156.4,185.893l.287.98h.986l-.78.6.286.955-.779-.6-.778.572.286-.927-.779-.6h.961Z"/><path class="e" d="M153.411,189.715l.284.982h.988l-.778.6.285.953-.779-.6-.777.571.285-.926-.779-.6h.959Z"/><path class="e" d="M159.379,189.444l.286.98h.985l-.777.6.283.954-.777-.6-.777.571.283-.928-.777-.6h.961Z"/><path class="e" d="M156.4,194.883l.287.98h.986l-.78.6.286.953-.779-.6-.778.571.286-.924-.779-.6h.961Z"/><path class="e" d="M157.737,192.8l.142.489h.494l-.389.3.144.477-.391-.3-.39.286.142-.463-.389-.3h.48Z"/></g></g></g></svg>