<svg xmlns="http://www.w3.org/2000/svg" xmlns:xlink="http://www.w3.org/1999/xlink" width="33.563" height="19.577" viewBox="0 0 33.563 19.577"><defs><style>.a{fill:none;}.b{clip-path:url(#a);}.c{fill:#fff;}.d{fill:#2534a4;}.e{fill:#bc0030;}.f{fill:#2a690b;}.g{fill:#3e60bd;}.h{fill:#f5cd28;}.i{fill:#f8e72a;}</style><clipPath id="a"><rect class="a" width="33.563" height="19.577" transform="translate(252.012 141.686)"/></clipPath></defs><g transform="translate(-252.012 -141.686)"><g class="b"><rect class="c" width="33.563" height="6.526" transform="translate(252.012 148.212)"/><rect class="d" width="33.563" height="6.525" transform="translate(252.012 154.738)"/><rect class="e" width="33.563" height="6.525" transform="translate(252.012 141.686)"/><g class="b"><path class="c" d="M271.279,151.475a2.487,2.487,0,1,1-2.489-2.486,2.487,2.487,0,0,1,2.489,2.486Z"/><path d="M268.79,154a2.527,2.527,0,1,1,2.53-2.527A2.53,2.53,0,0,1,268.79,154Zm0-4.973a2.446,2.446,0,1,0,2.447,2.446,2.448,2.448,0,0,0-2.447-2.446Z"/><path class="e" d="M268.79,149.343a2.132,2.132,0,1,0,2.134,2.132,2.133,2.133,0,0,0-2.134-2.132Zm0,3.73a1.6,1.6,0,1,1,1.6-1.6,1.6,1.6,0,0,1-1.6,1.6Z"/><path d="M268.79,153.609a2.134,2.134,0,1,1,2.136-2.134,2.136,2.136,0,0,1-2.136,2.134Zm0-4.262a2.129,2.129,0,1,0,2.131,2.128,2.131,2.131,0,0,0-2.131-2.128Zm0,3.73a1.6,1.6,0,1,1,1.6-1.6,1.6,1.6,0,0,1-1.6,1.6Zm0-3.2a1.6,1.6,0,1,0,1.6,1.6,1.6,1.6,0,0,0-1.6-1.6Z"/><path class="f" d="M269.127,150.313s.96.412.792,1.266a1.056,1.056,0,0,1-.911.942c-.209.094-.354.228-.438.209a.88.88,0,0,1-.19-.081.165.165,0,0,0,.159.166c.169.025.391-.221.495-.25a1.078,1.078,0,0,0,.917-.965c.186-.928-.816-1.26-.824-1.287Z"/><path d="M268.566,152.819h0l-.027,0a.167.167,0,0,1-.16-.167h0a1.107,1.107,0,0,0,.193.08.46.46,0,0,0,.211-.087,1.915,1.915,0,0,1,.225-.123.993.993,0,0,1,.13-.043.986.986,0,0,0,.779-.9,1.173,1.173,0,0,0-.663-1.2l-.077-.039c-.037-.021-.05-.026-.052-.029a.57.57,0,0,1,.133.063l0,.005a1.145,1.145,0,0,1-.188,2.178.531.531,0,0,0-.185.1.633.633,0,0,1-.315.157Zm-.187-.168a.172.172,0,0,0,.162.162h.025a.645.645,0,0,0,.314-.156.622.622,0,0,1,.154-.1,1.145,1.145,0,0,0,.22-2.181,1.166,1.166,0,0,1,.669,1.2.99.99,0,0,1-.783.9c-.05.015-.1.028-.131.043a1.709,1.709,0,0,0-.224.123.5.5,0,0,1-.2.089.786.786,0,0,1-.209-.084Z"/><path class="f" d="M269.611,150.495c.019.07.019.128,0,.13s-.046-.056-.062-.125-.019-.13,0-.132.046.056.062.127Z"/><path d="M269.611,150.628c-.02,0-.049-.065-.064-.127a.214.214,0,0,1-.008-.13h.01a.179.179,0,0,0,0,.126c.019.077.047.124.059.124v0l.006-.005a.23.23,0,0,0-.007-.125.336.336,0,0,0-.051-.117.22.22,0,0,1,.054.117.19.19,0,0,1,.008.127l-.01.006Z"/><path class="f" d="M269.578,150.5c.033.067.048.128.032.131s-.054-.044-.089-.111-.046-.125-.03-.131.056.043.087.111Z"/><path d="M269.606,150.638c-.018,0-.057-.057-.087-.113a.215.215,0,0,1-.035-.129h.009c-.011.021,0,.069.032.127s.068.111.081.111h0a.222.222,0,0,0-.034-.13.411.411,0,0,0-.067-.1.271.271,0,0,1,.071.1.223.223,0,0,1,.037.13l-.011.006Z"/><path class="f" d="M269.484,150.566c.068.019.119.052.119.068s-.058.018-.126,0-.122-.051-.12-.069.057-.017.127,0Z"/><path d="M269.569,150.649a.312.312,0,0,1-.092-.015c-.063-.018-.124-.051-.124-.071.013,0,.024,0,.032-.007-.023.025.024.052.092.072a.313.313,0,0,0,.092.018v0l.033-.014c0-.014-.046-.044-.12-.065a.33.33,0,0,0-.072-.015.245.245,0,0,1,.074.011c.061.016.122.049.12.069l-.035.015Z"/><path class="f" d="M269.5,150.532c.063.041.107.088.1.1s-.065-.006-.125-.049-.106-.087-.1-.1.063.008.124.049Z"/><path d="M269.584,150.641a.27.27,0,0,1-.114-.053c-.058-.037-.111-.087-.1-.107h.015c-.015.016.022.06.089.1a.253.253,0,0,0,.112.053v0l.009-.006c.007-.013-.033-.057-.1-.1a.372.372,0,0,0-.109-.052.249.249,0,0,1,.111.048c.056.037.108.087.1.1l-.015.007Z"/><path class="f" d="M269.537,150.516c.054.053.086.107.074.118s-.062-.022-.115-.076-.087-.108-.074-.12.064.022.115.078Z"/><path d="M269.6,150.64a.256.256,0,0,1-.111-.081c-.047-.049-.088-.109-.073-.124s.073.032.119.08.089.107.072.123l-.007,0Zm-.175-.2c-.015.011.012.06.067.118a.267.267,0,0,0,.108.078v0l.006,0c.009-.009-.019-.059-.074-.117a.271.271,0,0,0-.107-.079Z"/><path class="f" d="M269.6,150.634a.161.161,0,0,1-.044.024c-.008,0-.02-.01-.043,0a.11.11,0,0,0-.048.049c-.006.014.007.02.035.005s.038-.036.053-.046a.258.258,0,0,1,.052-.027.36.36,0,0,1,.035-.056c.01-.016.047-.041.062-.072s.008-.046-.007-.038a.156.156,0,0,0-.05.052c-.009.017,0,.041-.012.058s-.03.049-.033.049Z"/><path d="M269.477,150.724l-.011,0a.089.089,0,0,1,.048-.064h.043c.008,0,.043-.021.046-.023l.033-.049,0,0,.012-.058a.147.147,0,0,1,.05-.052l.013.042a.266.266,0,0,1-.045.05l-.032.041a.181.181,0,0,0-.022.035.383.383,0,0,0-.053.03.167.167,0,0,1-.052.045l-.028.008Z"/><path class="f" d="M269.9,150.733c0,.11-.016.193-.041.188s-.046-.1-.048-.209.017-.191.04-.187.047.1.049.208Z"/><path d="M269.862,150.921h0c-.029-.006-.048-.111-.049-.209a.363.363,0,0,1,.031-.183l.01,0a.3.3,0,0,0-.036.18c0,.118.025.2.046.205l0,0,.009-.008a.388.388,0,0,0,.028-.18.564.564,0,0,0-.026-.177.422.422,0,0,1,.029.177.342.342,0,0,1-.029.184l-.011,0Z"/><path class="f" d="M269.852,150.731c.025.112.025.2,0,.2s-.063-.088-.086-.2-.024-.2,0-.2.061.089.086.2Z"/><path d="M269.852,150.935c-.03,0-.067-.1-.088-.2a.354.354,0,0,1-.007-.2h.009a.31.31,0,0,0,0,.2c.025.118.062.2.083.2h0l.006-.008a.361.361,0,0,0-.008-.2.568.568,0,0,0-.065-.181.427.427,0,0,1,.069.18.368.368,0,0,1,.008.2l-.01,0Z"/><path class="f" d="M269.7,150.78c.087.058.152.127.144.151s-.085,0-.175-.062-.149-.126-.142-.151.085,0,.173.062Z"/><path d="M269.824,150.943a.389.389,0,0,1-.157-.072c-.089-.061-.153-.128-.144-.153a.057.057,0,0,1,.018,0c-.016.03.039.093.128.152a.352.352,0,0,0,.155.069v0l.015-.009c.007-.02-.047-.086-.141-.151a.794.794,0,0,0-.118-.061.37.37,0,0,1,.12.059c.089.06.152.127.144.156l-.02.009Z"/><path class="f" d="M269.729,150.736c.072.087.117.172.1.191s-.085-.038-.158-.126-.117-.173-.1-.191.086.038.158.126Z"/><path d="M269.822,150.934c-.024,0-.089-.055-.151-.131s-.119-.171-.1-.195c.034,0,.1.049.162.125s.121.174.1.194l-.011.007Zm-.242-.326c-.02.02.019.1.1.191.062.073.123.128.147.128v0l.007-.007c.013-.013-.024-.092-.1-.187-.062-.074-.124-.129-.147-.129Z"/><path class="f" d="M269.792,150.73c.054.1.083.194.062.205s-.079-.061-.135-.164-.083-.192-.064-.205.082.062.137.164Z"/><path d="M269.85,150.94c-.026,0-.081-.07-.133-.167s-.085-.194-.062-.208.085.067.137.164.088.195.062.207l0,0Zm-.189-.372c-.02.011,0,.094.06.2s.108.164.129.164h0c.017-.01-.006-.094-.063-.2-.051-.093-.105-.163-.128-.163Z"/><path class="f" d="M269.844,150.934s-.059.012-.071.012-.025-.025-.062-.019a.147.147,0,0,0-.081.05c-.011.017,0,.03.05.023s.062-.036.086-.042a.3.3,0,0,1,.08-.015c.014-.017.048-.047.068-.067s.081-.037.11-.075.027-.064,0-.058a.219.219,0,0,0-.085.055c-.016.021-.014.057-.035.076s-.058.06-.06.06Z"/><path d="M269.657,151.005l-.031-.011.008-.014.023.023.021,0a.168.168,0,0,0,.06-.028.3.3,0,0,1,.108-.031.326.326,0,0,1,.046-.046.184.184,0,0,1,.057-.042.214.214,0,0,0,.073-.053.085.085,0,0,0,.019-.034.056.056,0,0,1-.014.038.24.24,0,0,1-.076.054.143.143,0,0,0-.035.022c-.038.034-.058.055-.068.064a.286.286,0,0,0-.08.017.233.233,0,0,1-.088.043l-.023,0Zm-.02-.031a.1.1,0,0,1,.074-.048l.05.01a.283.283,0,0,0,.083-.005l.058-.059a.075.075,0,0,0,.021-.037.079.079,0,0,1,.016-.039.187.187,0,0,1,.085-.055l.011.012a.139.139,0,0,0-.094.046.1.1,0,0,0-.014.038.078.078,0,0,1-.021.039l-.062.059-.071.014-.05-.021a.143.143,0,0,0-.086.046Z"/><path class="f" d="M270.058,151.133c-.017.106-.052.184-.075.175s-.027-.108-.008-.216.051-.187.074-.175.027.106.009.216Z"/><path d="M269.987,151.31h-.006c-.027-.011-.025-.12-.008-.217s.044-.179.07-.179.033.122.017.22-.048.177-.073.177Zm.06-.392c-.021,0-.052.067-.07.176s-.012.2.006.21h0c.019,0,.05-.065.068-.175s.013-.2-.008-.211Z"/><path class="f" d="M270.01,151.12c0,.114-.015.2-.037.2s-.045-.1-.048-.212.011-.2.037-.2.044.1.048.213Z"/><path d="M269.975,151.322h0c-.03,0-.048-.114-.05-.215a.412.412,0,0,1,.026-.2h0l.009,0a.33.33,0,0,0-.032.2c0,.125.026.207.047.21l.006,0a.425.425,0,0,0,.027-.194.647.647,0,0,0-.03-.192.5.5,0,0,1,.034.192.393.393,0,0,1-.027.2l-.01.005Z"/><path class="f" d="M269.852,151.136c.075.076.125.156.112.179s-.084-.019-.159-.094-.125-.156-.113-.179.083.019.16.094Z"/><path d="M269.951,151.323a.312.312,0,0,1-.146-.1c-.078-.076-.127-.157-.115-.181h.015c-.018.027.022.1.1.179a.327.327,0,0,0,.144.1v0l.011-.006c.011-.02-.032-.1-.112-.175a.508.508,0,0,0-.121-.093.369.369,0,0,1,.123.089c.078.077.127.157.113.181l-.014.007Z"/><path class="f" d="M269.889,151.1c.054.1.084.193.065.208s-.076-.055-.132-.156-.084-.191-.065-.207.078.054.132.155Z"/><path d="M269.949,151.314c-.024,0-.078-.069-.128-.158s-.088-.194-.066-.212c.041,0,.085.063.136.155s.087.193.065.211l-.007,0Zm-.185-.368c-.022.016,0,.1.06.206.049.087.1.156.125.156v0l0,0c.016-.012-.008-.1-.066-.2-.048-.088-.1-.156-.123-.156Z"/><path class="f" d="M269.951,151.1c.036.112.046.209.024.215s-.067-.076-.1-.186-.047-.207-.025-.216.068.077.1.187Z"/><path d="M269.973,151.324c-.028,0-.074-.1-.1-.189s-.05-.208-.025-.218h0c.029,0,.071.082.105.188s.049.209.024.218Zm-.121-.4c-.021.006-.013.094.023.213s.079.185.1.185v0l0,0c.017-.008.012-.092-.026-.211s-.078-.186-.1-.186Z"/><path class="f" d="M269.965,151.316s-.059,0-.071,0-.019-.03-.057-.03a.138.138,0,0,0-.089.033c-.013.016,0,.032.044.033s.07-.025.093-.026a.426.426,0,0,1,.08,0c.016-.012.057-.037.078-.051a.535.535,0,0,0,.122-.053c.03-.027.038-.059.011-.057a.184.184,0,0,0-.091.036c-.024.018-.025.055-.05.07s-.066.046-.07.045Z"/><path d="M269.889,151.328l.043-.006.017,0h-.055c-.023-.018-.032-.029-.057-.029h0a.144.144,0,0,0-.076.021.1.1,0,0,1,.123-.006l.044.011a.12.12,0,0,0,.073-.024c.044-.028.052-.042.057-.055a.1.1,0,0,1,.027-.038.186.186,0,0,1,.091-.036l.009.011a.133.133,0,0,0-.1.029.11.11,0,0,0-.024.035.1.1,0,0,1-.026.036l-.035.021a.027.027,0,0,1-.013.01l.025-.012a.253.253,0,0,1,.069-.035.2.2,0,0,0,.08-.038.068.068,0,0,0,.025-.033.051.051,0,0,1-.022.038.289.289,0,0,1-.081.039.415.415,0,0,0-.042.012c-.046.033-.065.044-.076.052Z"/><path class="f" d="M270.068,151.573c-.058.093-.119.153-.135.133s.018-.109.077-.2.118-.151.135-.131-.017.11-.077.2Z"/><path d="M269.941,151.713l-.009-.006c-.02-.022.022-.12.074-.2s.1-.138.131-.138l.006.009c-.03,0-.085.054-.133.132-.061.1-.087.183-.075.2l.006,0c.021,0,.069-.044.125-.135a.474.474,0,0,0,.079-.176.387.387,0,0,1-.075.179c-.05.081-.1.138-.129.138Z"/><path class="f" d="M270.029,151.544c-.04.107-.09.183-.11.171s0-.11.039-.217.091-.184.11-.172,0,.112-.039.218Z"/><path d="M269.925,151.719l-.008,0c-.023-.015,0-.125.039-.219s.085-.174.109-.174c.029.018.005.125-.032.222s-.084.174-.108.174Zm.141-.391c-.023,0-.065.064-.106.171s-.058.2-.039.214h0c.016,0,.062-.063.1-.17s.058-.2.041-.215Z"/><path class="f" d="M269.88,151.494c.037.1.053.2.034.212s-.068-.052-.107-.152-.054-.2-.034-.212.067.054.107.152Z"/><path d="M269.906,151.711c-.024,0-.067-.065-.1-.157s-.053-.2-.034-.213h0c.034,0,.075.063.109.153s.053.2.034.213l-.01,0Zm-.127-.369c-.022.015-.011.1.03.212s.078.151.1.151v0l.006-.005c.016-.014.007-.1-.034-.207s-.08-.155-.1-.155Z"/><path class="f" d="M269.928,151.476c.011.115,0,.214-.02.219s-.05-.081-.062-.2,0-.213.023-.219.048.08.059.2Z"/><path d="M269.9,151.7c-.026,0-.052-.1-.058-.2s-.006-.215.021-.223h0c.03,0,.054.1.063.2s0,.214-.024.222Zm-.033-.416c-.021,0-.032.093-.021.217s.037.2.054.2v0l0,0c.019,0,.03-.092.021-.216s-.038-.194-.056-.194Z"/><path class="f" d="M269.981,151.508c-.01.118-.04.211-.06.208s-.032-.1-.022-.215.039-.212.063-.209.031.1.019.216Z"/><path d="M269.921,151.719l-.009-.006a.424.424,0,0,1-.015-.212c.011-.105.036-.212.063-.212a.33.33,0,0,1,.025.219c-.01.105-.036.211-.064.211Zm.044-.421c-.024,0-.049.078-.063.2a.459.459,0,0,0,.014.21l.005.005h0c.018,0,.046-.079.058-.207a.443.443,0,0,0-.012-.21Z"/><path class="f" d="M269.914,151.707a.465.465,0,0,1-.066-.028c-.009-.007,0-.036-.039-.051a.126.126,0,0,0-.094-.006c-.017.006-.012.027.029.047s.071.006.093.015a.259.259,0,0,1,.073.034c.02-.006.067-.012.091-.016s.088.016.13,0,.057-.039.032-.05a.209.209,0,0,0-.1,0c-.027.007-.044.039-.071.044a.659.659,0,0,1-.081.012Z"/><path d="M269.91,151.72h0a.425.425,0,0,0-.071-.034.257.257,0,0,1,.073.029.348.348,0,0,1,.063-.011l.068,0a.4.4,0,0,0,.051,0,.169.169,0,0,0,.072-.026c0,.012-.017.021-.035.026a.367.367,0,0,1-.09,0l-.04,0c-.05.008-.076.012-.089.016Zm.006-.009a.631.631,0,0,1-.068-.029c-.013-.028-.019-.042-.041-.052a.118.118,0,0,0-.054-.012l-.044.015c0,.01.012.022.035.035a.111.111,0,0,0,.056.011l.035.007a.228.228,0,0,1-.093-.014c-.025-.013-.039-.027-.039-.039l.05-.02a.128.128,0,0,1,.056.013.059.059,0,0,1,.035.039.242.242,0,0,0,.07.04.091.091,0,0,0,.042-.007c.052-.008.063-.016.073-.026a.1.1,0,0,1,.037-.023.2.2,0,0,1,.1,0v.013a.114.114,0,0,0-.1-.012c-.046.032-.056.042-.071.044-.056.01-.072.014-.079.014Z"/><path class="f" d="M269.949,152.023c-.1.083-.18.125-.192.1s.053-.114.147-.2.183-.123.2-.1-.057.113-.151.194Z"/><path d="M269.773,152.132l-.02-.011c-.011-.028.056-.116.149-.2a.429.429,0,0,1,.181-.107l.006.012a.387.387,0,0,0-.181.1c-.1.086-.16.17-.147.192l.012.007a.415.415,0,0,0,.176-.106.737.737,0,0,0,.13-.14.5.5,0,0,1-.128.144.408.408,0,0,1-.178.107Z"/><path class="f" d="M269.917,151.977c-.08.1-.16.169-.179.147s.035-.121.114-.225.162-.169.179-.148-.034.122-.114.226Z"/><path d="M269.748,152.132l-.011-.006c-.022-.024.04-.135.115-.23s.14-.153.168-.153l.007.009h0c-.037,0-.1.063-.173.147-.085.112-.127.207-.114.223l.008,0c.027,0,.1-.063.168-.151a.654.654,0,0,0,.113-.193.6.6,0,0,1-.11.2c-.071.088-.142.153-.171.153Z"/><path class="f" d="M269.768,151.868c.007.125-.005.234-.033.245s-.059-.081-.068-.208.006-.233.033-.244.057.081.068.207Z"/><path d="M269.729,152.115c-.028,0-.054-.087-.064-.21s0-.235.033-.247h0c.037,0,.063.107.071.21.008.128-.007.238-.036.245l-.006,0Zm-.024-.452c-.029.01-.046.108-.036.242s.04.207.06.207h0l0,0c.024-.009.042-.108.033-.243s-.039-.205-.061-.205Z"/><path class="f" d="M269.827,151.864c-.026.132-.068.238-.1.236s-.026-.108,0-.24.071-.234.1-.234.026.106,0,.238Z"/><path d="M269.731,152.1l-.01-.006a.436.436,0,0,1,.006-.236c.025-.118.067-.238.1-.238l.005.009a.436.436,0,0,0-.1.23.469.469,0,0,0-.006.232l.006.007v0c.024,0,.067-.094.093-.234a.623.623,0,0,0,.016-.214.537.537,0,0,1-.011.216c-.022.114-.065.236-.1.236Z"/><path class="f" d="M269.877,151.917c-.053.127-.113.22-.139.21s0-.119.051-.243.11-.22.136-.21,0,.119-.048.243Z"/><path d="M269.742,152.13h0a.4.4,0,0,1,.047-.249c.048-.121.107-.211.136-.211s0,.136-.043.248-.107.212-.136.212Zm.181-.455c-.026,0-.081.08-.133.209a.5.5,0,0,0-.055.236l.007.006c.024,0,.079-.077.131-.209s.068-.234.052-.242Z"/><path class="f" d="M269.735,152.113a.476.476,0,0,1-.062-.054c-.009-.012.005-.04-.027-.071a.144.144,0,0,0-.1-.038c-.024,0-.026.024.013.061s.077.033.1.049a.526.526,0,0,1,.068.064c.025,0,.076.012.1.016a.649.649,0,0,0,.146.05c.043,0,.074-.022.05-.042a.235.235,0,0,0-.1-.041c-.034,0-.063.029-.1.023a.435.435,0,0,1-.092-.017Z"/><path d="M269.979,152.191h0a.215.215,0,0,1-.1-.032.183.183,0,0,0-.046-.015.745.745,0,0,0-.1-.017.341.341,0,0,0-.068-.062.241.241,0,0,1,.07.057l.072.011a.3.3,0,0,1,.077.022.248.248,0,0,0,.1.03l0,.005v-.005a.074.074,0,0,0,.041-.008.047.047,0,0,1-.041.014Zm.048-.031a.166.166,0,0,0-.1-.049c-.022-.011-.034,0-.046.01a.106.106,0,0,1-.042.012l-.052-.007c-.046-.006-.05-.006-.05-.011a.463.463,0,0,1-.062-.055.116.116,0,0,0-.027-.071.137.137,0,0,0-.079-.035.116.116,0,0,1,.083.033.081.081,0,0,1,.025.056.25.25,0,0,0,.064.07.166.166,0,0,0,.046.008.183.183,0,0,1,.044.008.106.106,0,0,0,.048-.012.119.119,0,0,1,.042-.011.173.173,0,0,1,.11.04.033.033,0,0,1,0,.014Z"/><path class="f" d="M269.643,152.417c-.138.023-.245.015-.242-.019s.117-.077.252-.1.242-.015.239.017-.117.079-.249.1Z"/><path d="M269.505,152.434c-.054,0-.089-.008-.1-.023l0-.011c.03.035.12.035.236.016a.654.654,0,0,0,.222-.071.58.58,0,0,1-.22.075.733.733,0,0,1-.138.014Zm-.07-.067a.563.563,0,0,1,.218-.071.378.378,0,0,1,.238.009l0,.01c-.027-.037-.12-.033-.236-.014a.7.7,0,0,0-.218.066Z"/><path class="f" d="M269.636,152.352c-.135.052-.249.07-.251.041s.1-.1.23-.151.248-.067.254-.037-.1.1-.233.147Z"/><path d="M269.422,152.409c-.026,0-.039-.007-.041-.016-.006-.034.1-.1.234-.153s.25-.069.256-.036-.1.1-.234.151a.685.685,0,0,1-.215.054Zm.393-.208a.581.581,0,0,0-.2.044c-.144.054-.236.12-.232.148l.037.01a.667.667,0,0,0,.214-.052c.143-.055.235-.121.231-.146a.474.474,0,0,0-.052,0Z"/><path class="f" d="M269.552,152.164c-.059.123-.134.221-.167.215s-.01-.111.05-.236.13-.222.165-.215.01.111-.048.236Z"/><path d="M269.387,152.381h0l-.006-.011.008.005c.035,0,.106-.093.162-.212a.717.717,0,0,0,.061-.18.538.538,0,0,1-.056.183c-.06.119-.13.215-.167.215Zm-.014-.047a.536.536,0,0,1,.058-.194c.058-.12.129-.216.166-.216l.006.012h0c-.044,0-.114.093-.168.208a.639.639,0,0,0-.062.19Z"/><path class="f" d="M269.61,152.2c-.1.111-.2.186-.221.167s.033-.117.129-.227.2-.185.222-.167-.033.119-.13.227Z"/><path d="M269.4,152.369l-.011,0,0-.013.013.01a.509.509,0,0,0,.21-.168.974.974,0,0,0,.117-.159.6.6,0,0,1-.114.162c-.086.1-.176.172-.213.172Zm-.007-.043a.608.608,0,0,1,.125-.193.506.506,0,0,1,.215-.17.037.037,0,0,1,0,.014h0c-.048,0-.131.069-.212.159a.693.693,0,0,0-.13.19Z"/><path class="f" d="M269.628,152.273c-.119.091-.229.144-.245.122s.063-.115.179-.205.228-.144.247-.121-.063.116-.181.2Z"/><path d="M269.4,152.4l-.017-.007,0-.014v0l.015.014a.586.586,0,0,0,.228-.125,1.13,1.13,0,0,0,.142-.127.391.391,0,0,0,.039-.057.135.135,0,0,1-.036.059,1.18,1.18,0,0,1-.141.129.592.592,0,0,1-.232.125Zm-.011-.033a.813.813,0,0,1,.407-.309l.007.009a.879.879,0,0,0-.238.121.7.7,0,0,0-.176.179Z"/><path class="f" d="M269.385,152.381a.9.9,0,0,1-.03-.089c0-.016.03-.037.013-.084a.166.166,0,0,0-.075-.095c-.023-.013-.037.009-.02.067s.056.077.068.1a.69.69,0,0,1,.032.1,1.071,1.071,0,0,1,.091.076c.027.02.061.1.112.13s.085.022.074-.012a.247.247,0,0,0-.083-.1c-.03-.021-.074-.009-.1-.033s-.081-.063-.081-.067Z"/><path d="M269.626,152.61a.1.1,0,0,1-.052-.017.37.37,0,0,1-.078-.089.175.175,0,0,0-.034-.042l-.09-.075a.53.53,0,0,0-.033-.1.333.333,0,0,1,.036.1c.014.008.041.032.064.05a.27.27,0,0,1,.061.066.306.306,0,0,0,.078.086.084.084,0,0,0,.048.019v0l0,0,0,0Zm.018-.022a.216.216,0,0,0-.079-.106.137.137,0,0,0-.047-.015.079.079,0,0,1-.054-.018l-.037-.029c-.042-.033-.044-.036-.044-.04h0a.51.51,0,0,1-.03-.088.117.117,0,0,0,.013-.084.2.2,0,0,0-.048-.075.135.135,0,0,1,.052.075.079.079,0,0,1-.006.065.427.427,0,0,0,.021.106.382.382,0,0,0,.046.037l.037.03a.079.079,0,0,0,.05.017.107.107,0,0,1,.051.017.239.239,0,0,1,.082.1l-.007.01Zm-.307-.3a.3.3,0,0,1-.067-.1c-.009-.033-.009-.059,0-.068a.047.047,0,0,1,.016,0c-.018.013-.018.035-.011.063a.165.165,0,0,0,.046.071.263.263,0,0,1,.017.033Z"/><path class="f" d="M269.235,152.638c-.138,0-.251-.028-.249-.07s.111-.072.251-.074.252.029.252.066-.114.075-.254.078Z"/><path d="M269.223,152.64a.412.412,0,0,1-.231-.049v-.017a.33.33,0,0,0,.231.061v0l.012,0c.14,0,.251-.034.251-.075s-.1-.064-.236-.064a.68.68,0,0,0-.219.033.471.471,0,0,1,.206-.038h0c.148,0,.254.032.254.069s-.112.078-.256.08Z"/><path class="f" d="M269.2,152.411c-.089.114-.185.186-.214.162s.018-.138.106-.251.182-.186.214-.162-.019.137-.106.251Z"/><path d="M269.007,152.579l-.019-.006c-.031-.024.017-.134.106-.252.076-.1.158-.167.2-.167l.011.008c-.05-.014-.134.068-.207.161-.086.112-.134.225-.1.247l.015,0c.038,0,.12-.069.2-.164a.628.628,0,0,0,.11-.2.464.464,0,0,1-.106.2c-.077.1-.159.167-.2.167Z"/><path class="f" d="M269.239,152.527c-.13.057-.245.073-.26.033s.079-.111.208-.167.248-.07.261-.034-.08.113-.209.168Z"/><path d="M269.033,152.584q-.048,0-.057-.024c-.015-.037.079-.112.209-.167s.25-.072.264-.035-.077.115-.21.171a.587.587,0,0,1-.206.055Zm.361-.242a.6.6,0,0,0-.207.053c-.127.054-.22.13-.206.165s.134.018.256-.035.222-.13.209-.165c-.005-.012-.022-.018-.052-.018Z"/><path class="f" d="M269.308,150.335c.064.057.1.111.085.121s-.081-.031-.145-.089-.1-.11-.087-.122.082.031.147.09Z"/><path d="M269.387,150.46a.356.356,0,0,1-.141-.092c-.057-.051-.092-.1-.09-.116h.01c0,.019.025.061.084.112a.33.33,0,0,0,.137.091h0l0,0c.005-.02-.025-.062-.085-.118a.5.5,0,0,0-.113-.082.455.455,0,0,1,.117.078c.054.05.091.1.089.118l-.012.01Z"/><path class="f" d="M269.23,150.4c.086.01.159.034.163.054s-.064.023-.152.011-.158-.036-.162-.054.065-.023.151-.011Z"/><path d="M269.325,150.473a.7.7,0,0,1-.084-.006c-.078-.011-.16-.033-.164-.056.024-.04.1-.021.153-.015.078.011.161.033.164.055s-.047.022-.069.022Zm-.177-.077c-.035,0-.06,0-.065.011s.067.043.16.056a.241.241,0,0,0,.146-.007c0-.018-.067-.042-.161-.055a.451.451,0,0,0-.08-.005Z"/><path class="f" d="M269.261,150.358c.082.042.14.086.132.1s-.083-.009-.165-.051-.138-.087-.131-.1.082.007.164.048Z"/><path d="M269.381,150.467a.451.451,0,0,1-.153-.056.329.329,0,0,1-.132-.1l.015,0c0,.025.055.062.119.1a.475.475,0,0,0,.151.054v0l.006,0-.006.007Zm.01-.011a.33.33,0,0,0-.131-.1.571.571,0,0,0-.115-.046.349.349,0,0,1,.118.043.327.327,0,0,1,.133.1l-.005,0Z"/><path class="f" d="M268.125,152.393a3.774,3.774,0,0,1,.394.111c.184.066.463.3.539.31a.239.239,0,0,0,.246-.148c-.132.035-.208.087-.332.019a3.337,3.337,0,0,0-.344-.214,3.791,3.791,0,0,0-.473-.15Z"/><path d="M269.071,152.816h-.013a.881.881,0,0,1-.2-.115,2.163,2.163,0,0,0-.338-.2,3.762,3.762,0,0,0-.394-.111l.027-.076h0a3.509,3.509,0,0,1,.477.148,1.531,1.531,0,0,1,.26.161.536.536,0,0,0,.083.056.3.3,0,0,0,.256,0l.074-.024a.229.229,0,0,1-.231.152Zm-.944-.423a2.742,2.742,0,0,1,.393.11,1.7,1.7,0,0,1,.341.194.849.849,0,0,0,.2.113h.013a.228.228,0,0,0,.229-.144l-.072.026a.3.3,0,0,1-.257,0,.691.691,0,0,1-.086-.055,1.254,1.254,0,0,0-.259-.161,3.665,3.665,0,0,0-.473-.149l-.026.072v0Z"/><path class="f" d="M268.35,150.483l.242-.127-.267.067-.031.049Z"/><path d="M268.352,150.486l-.058-.011.029-.053.269-.068s-.234.126-.24.132Zm.24-.131-.266.07-.03.048.056.008c.008-.006.052-.031.24-.126Z"/><path class="f" d="M268.581,150.544c-.094-.019-.24-.049-.331-.057.064-.07.151-.189.2-.263a2.049,2.049,0,0,0-.114.23c.065.034.167.062.24.09Z"/><path d="M268.58,150.544l-.072-.012c-.085-.016-.187-.037-.258-.043.06-.072.149-.192.2-.267l-.03.07a.82.82,0,0,0-.078.162,1.123,1.123,0,0,0,.155.059l.081.028v0Zm-.127-.322a2.578,2.578,0,0,1-.2.266,1.822,1.822,0,0,1,.258.039l.04.006-.052-.016a1.117,1.117,0,0,1-.157-.062.885.885,0,0,1,.076-.165l.036-.068Z"/><path class="f" d="M268.307,150.5l.216-.167-.251.113-.021.052Z"/><path d="M268.307,150.5l-.057,0,.019-.056.251-.113c0,.005-.206.166-.213.172Zm.213-.173-.247.117-.021.051h.053l.215-.167Z"/><path class="f" d="M268.537,150.541c-.1-.018-.239-.052-.334-.06a2.914,2.914,0,0,0,.2-.271,2.353,2.353,0,0,0-.11.236c.068.035.17.066.243.1Z"/><path d="M268.537,150.544l-.075-.015a2.5,2.5,0,0,0-.259-.046c.06-.074.144-.191.2-.267h0a1.879,1.879,0,0,1-.192.265,2.168,2.168,0,0,1,.257.042l.043.009-.052-.019a.94.94,0,0,1-.159-.064.868.868,0,0,1,.077-.174l.023-.048-.019.049a1.524,1.524,0,0,0-.077.171,1.255,1.255,0,0,0,.157.062l.082.029v.006Z"/><path class="f" d="M268.271,150.513l.253-.107-.272.045-.036.045Z"/><path d="M268.271,150.516l-.056-.019.035-.047.274-.046c-.067.031-.246.106-.251.111Zm.253-.112-.272.05-.034.042.053.014c.011-.006.057-.027.253-.106Z"/><path class="f" d="M268.508,150.544a3.245,3.245,0,0,0-.334-.025c.052-.081.122-.215.166-.3a1.93,1.93,0,0,0-.081.252,2.586,2.586,0,0,0,.249.071Z"/><path d="M268.508,150.544l-.083-.007c-.08-.008-.172-.016-.238-.016h0a2.309,2.309,0,0,1,.238.012l.053.005-.055-.014a.129.129,0,1,1-.111-.233l.014-.042-.009.043a1.151,1.151,0,0,0-.056.182,1.058,1.058,0,0,0,.164.046l.085.022,0,0Zm-.278-.117c.033-.067.072-.139.1-.2l0,0c-.028.06-.064.129-.1.192Z"/><path class="f" d="M268.244,150.513l.173-.209-.219.163-.009.055Z"/><path d="M268.185,150.525l.011-.058.22-.164c-.043.059-.166.2-.17.212l-.061.01Zm.231-.222-.215.167-.011.05.054-.009s.017-.023.172-.208Z"/><path class="f" d="M268.507,150.556c-.1,0-.261-.012-.359,0,.048-.09.109-.243.146-.336-.017.086-.054.2-.06.28a2.587,2.587,0,0,0,.273.058Z"/><path d="M268.507,150.559l-.086,0c-.093,0-.2-.005-.273,0,.042-.09.1-.234.14-.326v0c-.04.108-.1.241-.138.324a1.1,1.1,0,0,1,.271,0h.057c-.019,0-.041-.007-.064-.011a1.086,1.086,0,0,1-.18-.041.964.964,0,0,1,.037-.2l.013-.052-.007.054a.96.96,0,0,0-.039.192,1.367,1.367,0,0,0,.178.039c.032.007.063.011.092.017v.005Z"/><path class="f" d="M268.211,150.563l.208-.2-.253.141-.018.06Z"/><path d="M268.211,150.565h-.063l.016-.063.253-.142c-.077.081-.2.2-.2.205Zm.206-.205-.249.146-.018.057.061,0c.007-.009.044-.045.206-.2Z"/><path class="f" d="M268.462,150.563c-.11,0-.28-.005-.389.006.071-.1.169-.27.229-.374-.039.1-.1.224-.124.312.077.026.2.037.284.056Z"/><path d="M268.069,150.573l0-.005c.07-.1.169-.267.227-.371h0a4.311,4.311,0,0,1-.22.371,1.469,1.469,0,0,1,.2-.009h.177c-.018,0-.051-.006-.085-.012a1.162,1.162,0,0,1-.187-.039,1.39,1.39,0,0,1,.083-.224l.035-.081-.03.085a1.712,1.712,0,0,0-.084.218,1.371,1.371,0,0,0,.185.037l.1.016-.091.005h-.1c-.072,0-.144,0-.2.006l-.005,0Z"/><path class="f" d="M268.139,150.579l.268-.227-.3.16-.03.066Z"/><path d="M268.069,150.581l.033-.07.3-.161c-.087.079-.258.223-.263.23Zm.335-.231-.3.165-.027.061h.06l.266-.226Z"/><path class="f" d="M268.421,150.569c-.109.016-.278.035-.384.063.058-.111.129-.289.176-.4a2.59,2.59,0,0,0-.081.32,2.115,2.115,0,0,0,.289.016Z"/><path d="M268.032,150.634l0,0c.057-.108.127-.279.171-.388v0a4.15,4.15,0,0,1-.164.383c.083-.02.2-.035.291-.048l.089-.012c-.03,0-.063,0-.1,0a1.041,1.041,0,0,1-.193-.013,1.506,1.506,0,0,1,.053-.234l.018-.063-.014.066a1.758,1.758,0,0,0-.053.229c.049.007.121.009.189.011.033,0,.066,0,.1,0l-.087.015a2.994,2.994,0,0,0-.3.051Z"/><path class="f" d="M268.1,150.623l.207-.285-.259.231-.013.071Z"/><path d="M268.036,150.646l.015-.077.258-.234c-.052.082-.2.281-.2.288l-.069.023Zm.271-.31-.253.235-.013.067.061-.017s.02-.031.205-.285Z"/><path class="f" d="M268.36,150.6a3.776,3.776,0,0,0-.385.042c.061-.108.145-.282.2-.389-.029.1-.081.226-.1.316a2.426,2.426,0,0,0,.287.031Z"/><path d="M267.97,150.648l0,0c.062-.109.146-.282.2-.387l-.027.1a2.163,2.163,0,0,0-.067.218c.053.01.12.015.187.021a.722.722,0,0,1,.1.008l-.092.012a2.926,2.926,0,0,0-.293.034Zm.2-.391a3.7,3.7,0,0,1-.19.384c.082-.015.194-.025.29-.033l.092-.006c-.028,0-.066,0-.1-.005a.875.875,0,0,1-.188-.022,1.423,1.423,0,0,1,.063-.221l.032-.1Z"/><path class="f" d="M268.066,150.653l.264-.229-.3.16-.028.068Z"/><path d="M268,150.657l.031-.072.3-.161c-.086.08-.255.224-.259.23l-.072,0Zm.329-.233-.294.164-.026.063.06,0s.027-.024.26-.225Z"/><path class="f" d="M268.33,150.616c-.11.024-.281.052-.387.085.052-.111.117-.292.157-.4a3.258,3.258,0,0,0-.064.322,2.418,2.418,0,0,0,.294,0Z"/><path d="M267.939,150.705l0-.006c.048-.1.108-.266.148-.378v0a3.654,3.654,0,0,1-.139.372,2.73,2.73,0,0,1,.293-.066l.086-.018a.61.61,0,0,1-.1.009.944.944,0,0,1-.192,0,1.9,1.9,0,0,1,.04-.235l.01-.038,0,.041a1.682,1.682,0,0,0-.043.23c.049,0,.124,0,.189,0,.036,0,.07,0,.1,0l-.086.021c-.1.02-.219.045-.3.07Z"/><path class="f" d="M268.023,150.664l.166-.31-.227.268,0,.069Z"/><path d="M267.958,150.7l0-.075.228-.27c-.053.107-.163.3-.164.314l-.067.031Zm.231-.343-.223.271,0,.065.058-.028s.015-.031.168-.308Z"/><path class="f" d="M268.33,150.634c-.119.03-.3.07-.414.111.043-.125.094-.331.121-.456a3.109,3.109,0,0,0-.027.36,2.713,2.713,0,0,0,.32-.015Z"/><path d="M267.912,150.75l0-.005c.044-.127.092-.331.122-.456l-.006.1a1.59,1.59,0,0,0-.018.255c.011,0,.029,0,.046,0,.049,0,.106,0,.162-.009a.859.859,0,0,1,.11-.009l-.1.028c-.105.027-.228.057-.314.088l0,0Zm.124-.461a4.06,4.06,0,0,1-.116.452c.084-.029.2-.059.31-.086l.1-.023-.108.013a1.418,1.418,0,0,1-.212.007,1.718,1.718,0,0,1,.017-.258l.011-.1Z"/><path class="f" d="M267.991,150.736l.21-.311-.271.252-.011.079Z"/><path d="M267.916,150.759l.013-.082.269-.255c-.052.088-.2.305-.2.315l-.077.022Zm.282-.335-.265.255-.009.074.065-.02s.021-.035.209-.309Z"/><path class="f" d="M268.282,150.669a4.17,4.17,0,0,0-.4.134c.037-.128.077-.333.1-.459a2.941,2.941,0,0,0-.013.357,2.542,2.542,0,0,0,.318-.032Z"/><path d="M267.873,150.807l0,0c.037-.13.077-.333.1-.459v.106a1.5,1.5,0,0,0-.01.162,1.259,1.259,0,0,1,0-.162l.007-.106c-.019.126-.059.325-.094.454a3.1,3.1,0,0,1,.3-.1l.1-.03a.6.6,0,0,1-.1.019,1.253,1.253,0,0,1-.192.02l0,0c.069,0,.131-.011.192-.019.039-.007.074-.013.108-.016l-.1.035a2.952,2.952,0,0,0-.3.1l-.006,0Z"/><path class="f" d="M267.947,150.783l.16-.346-.229.3,0,.08Z"/><path d="M267.879,150.817l0-.084.228-.295c-.039.094-.153.335-.155.345l-.071.034Zm.226-.379-.222.3v.074l.064-.03s.012-.035.158-.342Z"/><path class="f" d="M268.24,150.715c-.12.028-.3.062-.416.1.046-.125.1-.324.139-.448a3.5,3.5,0,0,0-.045.356,3.2,3.2,0,0,0,.322-.008Z"/><path d="M267.818,150.819l0,0c.048-.123.1-.32.139-.445h0a3.922,3.922,0,0,1-.132.439c.085-.026.2-.051.309-.074l.1-.023a.724.724,0,0,1-.109.01,1.07,1.07,0,0,1-.211,0,1.384,1.384,0,0,1,.029-.257l.012-.088-.009.088a1.893,1.893,0,0,0-.03.255c.055,0,.136,0,.209,0,.037,0,.076-.006.111-.006l-.1.026a3.086,3.086,0,0,0-.312.078l-.006,0Z"/><path class="f" d="M267.91,150.815l.262-.27-.31.2-.024.076Z"/><path d="M267.835,150.824l.026-.079.309-.2c-.068.076-.254.266-.258.272l-.077.008Zm.335-.28-.308.2-.02.072.068-.005s.026-.031.26-.27Z"/><path class="f" d="M268.185,150.761c-.117.017-.3.033-.412.062.056-.123.124-.321.166-.443a3.221,3.221,0,0,0-.067.358,2.3,2.3,0,0,0,.313.023Z"/><path d="M267.769,150.826l0,0c.05-.114.115-.3.157-.42v0a4.174,4.174,0,0,1-.152.414c.084-.02.2-.035.309-.048l.1-.012a.936.936,0,0,1-.106,0,1.285,1.285,0,0,1-.206-.018,1.4,1.4,0,0,1,.044-.266l.009-.044,0,.046a2.172,2.172,0,0,0-.047.261,1.185,1.185,0,0,0,.205.016c.038,0,.074,0,.107.005l-.1.018c-.106.014-.229.028-.313.047l0,0Z"/><path class="f" d="M267.857,150.789l.179-.338-.24.285-.006.079Z"/><path d="M267.788,150.819l0-.083.242-.286c-.045.094-.172.33-.173.339l-.073.03Zm.246-.369-.238.286,0,.074.061-.023s.018-.037.179-.337Z"/><path class="f" d="M268.2,150.722c-.129.051-.327.126-.448.189.04-.152.083-.391.107-.539a3.289,3.289,0,0,0-.009.417,3.408,3.408,0,0,0,.35-.067Z"/><path d="M267.748,150.917l0-.006c.04-.152.081-.391.107-.54l0,.12a2.778,2.778,0,0,0-.005.3,1.776,1.776,0,0,0,.228-.042c.044-.011.085-.02.122-.027l-.109.049c-.114.045-.247.1-.337.144l-.006,0Zm.109-.545c-.021.147-.061.382-.1.535.088-.047.219-.1.331-.144l.109-.043c-.034.011-.074.021-.118.031a1.52,1.52,0,0,1-.23.041,1.887,1.887,0,0,1,0-.3l.007-.119Z"/><path class="f" d="M267.835,150.89s.212-.386.212-.386l-.282.328-.007.089Z"/><path d="M267.754,150.926l.009-.1.282-.328c-.068.132-.207.379-.209.389l-.082.035Zm.291-.423-.278.33-.007.085.071-.03s.019-.036.214-.385Z"/><path class="f" d="M268.15,150.77c-.125.059-.321.141-.437.212.032-.152.064-.392.083-.538a3.963,3.963,0,0,0,.006.411,2.885,2.885,0,0,0,.348-.085Z"/><path d="M267.709,150.986l0,0c.032-.149.062-.386.081-.532h0c-.015.15-.046.378-.077.527a3.278,3.278,0,0,1,.33-.162l.1-.046-.118.036a1.26,1.26,0,0,1-.228.052,1.75,1.75,0,0,1-.012-.3l0-.1,0,.1a2.29,2.29,0,0,0,.008.3,1.607,1.607,0,0,0,.226-.056c.041-.012.082-.023.118-.03l-.1.05c-.114.052-.247.112-.336.164l0,0Z"/><path class="f" d="M267.79,150.949s.155-.417.155-.417l-.234.372.006.091Z"/><path d="M267.715,151l-.006-.095.234-.372c-.049.141-.149.408-.151.417l-.077.05Zm.228-.467-.23.373.008.085.067-.044s.011-.035.155-.414Z"/><path class="f" d="M268.1,150.8a4.672,4.672,0,0,0-.437.216c.032-.154.061-.39.078-.54,0,.127-.005.3.01.413a3.189,3.189,0,0,0,.349-.089Z"/><path d="M267.656,151.023l0,0c.03-.152.061-.391.078-.538l.005.125a2.353,2.353,0,0,0,.009.288,2.075,2.075,0,0,0,.227-.059c.042-.012.083-.025.12-.032l-.1.052a3.182,3.182,0,0,0-.336.168Zm.08-.542a5.129,5.129,0,0,1-.073.534c.087-.053.22-.113.33-.166l.1-.046c-.034.012-.075.025-.117.037a1.411,1.411,0,0,1-.23.056,1.664,1.664,0,0,1-.012-.29v-.125Z"/><path class="f" d="M267.754,151l.243-.367-.3.3-.015.092Z"/><path d="M267.674,151.025l.014-.094.307-.3c-.079.125-.233.358-.237.368l-.084.026Zm.319-.394-.3.3-.013.085.072-.023s.021-.036.241-.365Z"/><path class="f" d="M268.084,150.784c-.11.09-.286.221-.389.318,0-.153-.019-.389-.032-.534a3.861,3.861,0,0,0,.1.391,3.159,3.159,0,0,0,.326-.175Z"/><path d="M267.693,151.107v0c0-.14-.015-.349-.028-.5l0,0c.018.17.031.358.031.487.075-.074.194-.163.291-.24l.093-.073a1.113,1.113,0,0,1-.107.066,1.418,1.418,0,0,1-.215.11,1.393,1.393,0,0,1-.075-.281l-.007-.038.012.037a1.99,1.99,0,0,0,.072.28c.058-.024.136-.07.21-.111.04-.024.077-.046.11-.063l-.089.076c-.1.08-.22.171-.3.245l0,0Z"/><path class="f" d="M267.767,151.016l.029-.439-.116.429.031.08Z"/><path d="M267.709,151.088l-.033-.082.116-.43c0,.12-.023.43-.023.439l-.06.073Zm.083-.512-.11.429.029.074.054-.064s0-.03.027-.439Z"/><path class="f" d="M268.052,150.824c-.111.089-.287.22-.389.316,0-.152-.018-.387-.03-.534a3.508,3.508,0,0,0,.093.391,3.023,3.023,0,0,0,.326-.173Z"/><path d="M267.661,151.148v-.008c0-.148-.017-.371-.028-.518v0c.015.158.034.367.034.51.074-.07.186-.158.285-.233l.1-.078c-.032.023-.07.042-.107.065a1.487,1.487,0,0,1-.218.11,1.711,1.711,0,0,1-.071-.277l-.016-.073.02.073a1.791,1.791,0,0,0,.069.274,1.708,1.708,0,0,0,.212-.112c.039-.023.078-.042.111-.06l-.1.08c-.1.078-.216.167-.291.239l0,0Z"/><path class="f" d="M267.738,151.09l.111-.43-.193.4.016.088Z"/><path d="M267.671,151.149l-.017-.092.2-.4c-.036.147-.109.422-.109.431l-.07.059Zm.179-.49-.192.4.016.082.062-.051s.007-.038.114-.429Z"/><path class="f" d="M268.041,150.837c-.106.1-.272.259-.367.369-.016-.157-.063-.4-.091-.546a3.556,3.556,0,0,0,.14.391,3.476,3.476,0,0,0,.318-.214Z"/><path d="M267.672,151.212v-.006c-.016-.152-.061-.384-.089-.531v0c.035.156.076.374.092.523a3.9,3.9,0,0,1,.273-.279l.09-.086c-.031.025-.067.053-.106.08a1.64,1.64,0,0,1-.209.139,1.607,1.607,0,0,1-.105-.277l-.025-.079.029.078a2.073,2.073,0,0,0,.1.274,1.7,1.7,0,0,0,.207-.139c.037-.027.075-.054.108-.076l-.087.091c-.1.093-.207.2-.276.281l0,.005Z"/><path class="f" d="M267.74,151.145l.02-.457-.113.444.037.083Z"/><path d="M267.682,151.221l-.037-.088.113-.445c0,.155-.018.447-.017.458l-.059.075Zm.076-.532-.11.444.036.079.052-.068s0-.042.022-.455Z"/><path class="f" d="M268.008,150.911c-.114.1-.293.232-.393.333-.006-.159-.031-.4-.046-.554a3.8,3.8,0,0,0,.105.406,3.4,3.4,0,0,0,.334-.185Z"/><path d="M267.611,151.251v-.007c0-.159-.028-.4-.046-.554l.034.12a1.966,1.966,0,0,0,.079.284,1.978,1.978,0,0,0,.217-.12c.04-.023.077-.047.111-.063l-.094.081c-.1.082-.22.179-.295.253l-.006.006Zm-.046-.561c.021.149.046.389.052.549a3.806,3.806,0,0,1,.293-.251l.1-.077a1.185,1.185,0,0,1-.108.066,1.5,1.5,0,0,1-.222.12,1.65,1.65,0,0,1-.082-.287l-.029-.12Z"/><path class="g" d="M269.6,151.377a.8.8,0,1,1-.8-.8.8.8,0,0,1,.8.8Z"/><path class="f" d="M267.7,151.2l.16-.43-.238.381.007.092Z"/><path d="M267.63,151.247l-.007-.1.238-.381c-.051.145-.152.42-.153.43l-.078.049Zm.231-.478-.233.381.005.089.069-.044s.013-.039.159-.426Z"/><path class="f" d="M268.006,150.913c-.1.106-.261.263-.348.376-.016-.16-.06-.4-.088-.552a3.393,3.393,0,0,0,.134.4,3.286,3.286,0,0,0,.3-.22Z"/><path d="M267.656,151.3v-.007c-.016-.151-.057-.378-.084-.53l0,0c.034.168.071.376.086.522a3.472,3.472,0,0,1,.26-.286l.084-.088a1.052,1.052,0,0,1-.1.084,1.337,1.337,0,0,1-.2.14,2.13,2.13,0,0,1-.1-.283l-.018-.059.025.057a2.015,2.015,0,0,0,.1.283,2.013,2.013,0,0,0,.194-.143l.1-.079-.08.09c-.091.095-.2.2-.264.291l0,0Z"/><path class="f" d="M267.711,151.219l-.018-.454-.073.453.041.078Z"/><path d="M267.66,151.3l-.043-.083.073-.454c.01.152.021.444.023.453l-.053.084Zm.03-.537-.067.453.038.074.048-.074s-.005-.042-.019-.453Z"/><path class="f" d="M267.956,150.948c-.1.107-.252.264-.335.379-.02-.16-.072-.4-.1-.554a3.5,3.5,0,0,0,.143.4,3.2,3.2,0,0,0,.295-.222Z"/><path d="M267.619,151.333v-.006c-.021-.157-.072-.4-.1-.549v0c.037.151.085.383.107.54.063-.084.165-.194.25-.288l.081-.086a1.173,1.173,0,0,1-.1.08,1.347,1.347,0,0,1-.2.145,1.651,1.651,0,0,1-.108-.277l-.036-.1.041.1a2.228,2.228,0,0,0,.1.276,1.521,1.521,0,0,0,.192-.144c.037-.028.069-.055.1-.077l-.075.09a3.879,3.879,0,0,0-.256.292l0,0Z"/><path class="f" d="M267.686,151.264l.05-.461-.136.437.029.09Z"/><path d="M267.628,151.335l-.029-.1.135-.436c-.013.156-.046.451-.046.46l-.06.072Zm.106-.532-.132.436.028.085.055-.061s0-.04.049-.46Z"/><path class="f" d="M267.935,150.966c-.087.115-.231.288-.3.409-.032-.156-.1-.393-.146-.538a3.711,3.711,0,0,0,.174.378,3.494,3.494,0,0,0,.277-.249Z"/><path d="M267.63,151.382l0-.006c-.034-.152-.1-.381-.144-.527l0,0c.048.152.113.369.145.516.057-.089.15-.207.228-.308l.074-.1c-.025.028-.056.059-.087.09a1.512,1.512,0,0,1-.186.162,1.889,1.889,0,0,1-.133-.27l-.031-.077.037.074a2.032,2.032,0,0,0,.127.27,2.037,2.037,0,0,0,.184-.163,1.2,1.2,0,0,1,.091-.086l-.073.1c-.081.1-.174.225-.231.315v.006Z"/><path class="f" d="M267.685,151.308l-.031-.461-.057.457.04.081Z"/><path d="M267.638,151.39l-.044-.086.058-.457c.015.154.033.451.034.461l-.048.082Zm.014-.543-.053.457.039.075.044-.071s-.006-.044-.03-.461Z"/><path class="f" d="M267.927,150.992c-.083.12-.218.3-.287.429-.041-.157-.122-.392-.172-.534a3.973,3.973,0,0,0,.192.37,3.332,3.332,0,0,0,.267-.265Z"/><path d="M267.638,151.428l0-.006c-.035-.142-.107-.349-.159-.495l-.011-.04.055.105a2.494,2.494,0,0,0,.142.264c.05-.043.112-.108.173-.173.03-.033.061-.064.089-.093l-.066.1c-.076.107-.164.233-.217.328l0,.006Zm-.172-.541.016.04c.051.143.12.346.158.486.053-.094.141-.215.213-.323l.071-.1c-.024.032-.054.063-.084.1a1.5,1.5,0,0,1-.179.173,1.75,1.75,0,0,1-.143-.265l-.052-.108Z"/><path class="f" d="M267.713,151.351l.047-.464-.132.436.028.09Z"/><path d="M267.654,151.419l-.028-.1.132-.437c-.013.157-.043.454-.043.464l-.061.068Zm.1-.532-.128.437.026.085.055-.058s0-.041.047-.464Z"/><path class="f" d="M267.91,151.036c-.072.131-.187.328-.247.467-.054-.151-.156-.374-.219-.509a3.994,3.994,0,0,0,.225.343,3.777,3.777,0,0,0,.241-.3Z"/><path d="M267.663,151.509l0-.006c-.052-.149-.153-.367-.216-.5h0c.068.136.165.349.219.494.043-.1.118-.23.181-.344l.064-.117c-.021.035-.049.069-.075.107a1.778,1.778,0,0,1-.162.2,1.754,1.754,0,0,1-.164-.24l-.058-.089.061.086a2.1,2.1,0,0,0,.161.239,2.1,2.1,0,0,0,.158-.2c.026-.035.054-.071.079-.1l-.06.119c-.065.119-.14.252-.183.351l0,.006Z"/><path class="f" d="M267.7,151.39l-.128-.44.044.464.06.065Z"/><path d="M267.671,151.484l-.062-.07-.044-.465c.046.148.128.43.133.439l-.027.1Zm-.106-.535.048.464.056.059.024-.082s-.011-.036-.128-.441Z"/><path class="f" d="M267.908,151.087c-.075.131-.2.328-.26.464-.052-.147-.156-.369-.22-.506a3.451,3.451,0,0,0,.23.342c.08-.073.171-.209.25-.3Z"/><path d="M267.648,151.558l0-.006c-.052-.148-.156-.368-.22-.506l.068.1a1.966,1.966,0,0,0,.166.241,2.123,2.123,0,0,0,.16-.194c.03-.038.059-.075.086-.106l-.062.117c-.069.116-.147.251-.192.35l0,.006Zm-.222-.512a4.9,4.9,0,0,1,.222.5c.047-.1.124-.231.19-.345l.068-.115c-.023.035-.054.072-.082.109a1.562,1.562,0,0,1-.164.194,1.806,1.806,0,0,1-.172-.242l-.062-.1Z"/><path class="f" d="M267.7,151.472l-.048-.462-.043.462.047.079Z"/><path d="M267.658,151.556l-.049-.084.043-.462c.02.155.048.453.052.46l-.046.086Zm-.006-.546-.037.462.043.076.042-.076s-.007-.039-.048-.462Z"/><path class="f" d="M267.914,151.127c-.076.129-.2.325-.266.458-.05-.15-.151-.373-.212-.511a3.66,3.66,0,0,0,.224.347,3.589,3.589,0,0,0,.254-.294Z"/><path d="M267.648,151.591l0,0c-.048-.148-.15-.374-.211-.511h0a4.932,4.932,0,0,1,.213.5c.05-.1.135-.24.2-.357l.059-.1c-.022.034-.053.069-.083.108a1.53,1.53,0,0,1-.168.188,1.734,1.734,0,0,1-.164-.243l-.061-.1.065.1a2.129,2.129,0,0,0,.162.243,2,2,0,0,0,.162-.189c.03-.038.06-.073.087-.1l-.053.1a3.933,3.933,0,0,0-.207.363l0,0Z"/><path class="f" d="M267.7,151.51l-.086-.455,0,.466.051.073Z"/><path d="M267.661,151.6l-.055-.078,0-.466c.035.152.088.445.091.454l-.039.09Zm-.052-.544v.466l.051.067.035-.079s-.009-.039-.086-.454Z"/><path class="f" d="M267.881,151.192c-.082.124-.216.311-.285.439-.045-.152-.134-.382-.189-.524a4.161,4.161,0,0,0,.206.362,3.079,3.079,0,0,0,.268-.277Z"/><path d="M267.594,151.638v-.005c-.043-.145-.124-.36-.181-.5l0,.005c.066.157.14.354.183.492a3.468,3.468,0,0,1,.212-.332l.069-.1c-.024.032-.054.065-.083.1a1.59,1.59,0,0,1-.181.179,1.87,1.87,0,0,1-.155-.258l-.026-.051.032.048a2.044,2.044,0,0,0,.149.257,1.748,1.748,0,0,0,.175-.178c.03-.035.062-.069.089-.1l-.067.108a3.4,3.4,0,0,0-.214.335l0,.005Z"/><path class="f" d="M267.658,151.56l.037-.464-.125.439.03.091Z"/><path d="M267.6,151.63l-.032-.094.124-.44c-.008.155-.033.453-.033.464l-.059.07Zm.092-.534-.121.44.029.084.055-.061s0-.042.037-.463Z"/><path class="f" d="M267.887,151.2c-.071.136-.187.338-.243.477-.06-.148-.17-.364-.237-.5a3.448,3.448,0,0,0,.239.331,3.7,3.7,0,0,0,.241-.312Z"/><path d="M267.644,151.686l0,0c-.054-.138-.152-.333-.22-.467l0,0c.083.152.17.33.222.456.042-.1.114-.235.176-.351l.065-.121c-.023.037-.049.073-.075.112a1.716,1.716,0,0,1-.164.2,1.588,1.588,0,0,1-.172-.232l-.027-.04.03.037a2,2,0,0,0,.171.232c.047-.051.1-.13.158-.2.027-.039.053-.074.079-.108l-.06.123c-.063.118-.137.255-.179.357l0,0Z"/><path class="f" d="M267.644,151.6s-.145-.433-.145-.433l.056.46.062.063Z"/><path d="M267.617,151.692l-.064-.064-.056-.462c.052.144.143.422.148.431l-.028.1Zm-.12-.526.06.46.058.058.025-.087s-.014-.032-.143-.431Z"/><path class="f" d="M267.868,151.239c-.05.148-.134.372-.17.521-.079-.132-.221-.321-.3-.437a3.029,3.029,0,0,0,.285.274c.065-.094.13-.25.19-.358Z"/><path d="M267.7,151.766l0-.006c-.073-.118-.194-.284-.28-.4l-.026-.035.083.08a1.73,1.73,0,0,0,.206.19c.037-.06.08-.146.121-.23l.063-.125-.035.118c-.046.132-.1.289-.127.4l0,.006Zm-.309-.442.029.033c.087.115.206.277.278.4.028-.11.081-.266.127-.4l.039-.116c-.014.04-.037.083-.058.128a1.6,1.6,0,0,1-.126.23,1.383,1.383,0,0,1-.209-.191l-.08-.082Z"/><path class="f" d="M267.77,151.634l-.155-.427.068.458.062.061Z"/><path d="M267.747,151.73l-.065-.064-.069-.459c.056.144.154.419.159.424l-.025.1Zm-.134-.523.072.458.06.055.024-.087s-.017-.032-.156-.426Z"/><path class="f" d="M267.866,151.285c-.048.148-.13.373-.164.521-.081-.131-.225-.318-.311-.433a2.994,2.994,0,0,0,.289.27c.063-.093.128-.251.186-.358Z"/><path d="M267.7,151.813l0-.007c-.081-.129-.223-.317-.311-.432l.087.079a2.1,2.1,0,0,0,.2.189,2.427,2.427,0,0,0,.122-.236c.022-.044.042-.087.06-.124l-.037.128c-.044.133-.1.285-.121.4l0,.007Zm-.313-.439a5.178,5.178,0,0,1,.311.425c.027-.11.077-.26.12-.39l.042-.127a.709.709,0,0,1-.056.125,1.69,1.69,0,0,1-.126.238,1.572,1.572,0,0,1-.207-.188l-.084-.083Z"/><path class="f" d="M267.77,151.706l-.2-.4.118.443.069.049Z"/><path d="M267.76,151.8l-.074-.053-.116-.443c.07.132.2.388.2.4l-.012.1Zm-.19-.5.12.442.066.045.013-.09s-.019-.027-.2-.4Z"/><path class="f" d="M267.85,151.32c-.03.155-.085.39-.1.542-.1-.119-.258-.282-.357-.385a2.748,2.748,0,0,0,.315.227,3.74,3.74,0,0,0,.144-.384Z"/><path d="M267.75,151.868l-.005,0c-.085-.106-.224-.25-.325-.351l-.031-.033.09.064a2.049,2.049,0,0,0,.227.159,2.061,2.061,0,0,0,.1-.248c.017-.048.032-.1.049-.135l-.025.133c-.027.136-.062.3-.075.41v.006Zm-.361-.388.035.028c.1.1.236.243.321.347.015-.113.047-.268.075-.4l.03-.132c-.012.041-.028.087-.044.134a2,2,0,0,1-.1.251,1.606,1.606,0,0,1-.231-.157l-.088-.068Z"/><path class="f" d="M267.783,151.768l-.105-.445.016.465.057.067Z"/><path d="M267.75,151.861l-.058-.074-.018-.465c.039.15.107.438.112.446l-.036.093Zm-.076-.539.021.465.053.065.033-.084s-.012-.038-.107-.446Z"/><path class="f" d="M267.852,151.369c-.016.156-.05.4-.051.552-.108-.1-.283-.246-.391-.334a2.562,2.562,0,0,0,.333.181,3.921,3.921,0,0,0,.109-.4Z"/><path d="M267.8,151.928l0,0c-.1-.1-.265-.233-.374-.321h0a4.853,4.853,0,0,1,.37.314c0-.117.02-.282.038-.422l.014-.126c-.008.045-.019.093-.032.144a1.872,1.872,0,0,1-.073.259,1.623,1.623,0,0,1-.246-.128l-.044-.026.048.021a1.758,1.758,0,0,0,.242.129c.025-.07.047-.166.069-.258.011-.048.024-.1.036-.141l-.01.126c-.016.144-.036.311-.038.427v.007Z"/><path class="f" d="M267.788,151.8l-.281-.324.212.391.079.026Z"/><path d="M267.8,151.9l-.082-.027-.216-.392c.1.107.28.314.287.32l.011.1Zm-.3-.419.218.388.073.026-.01-.091h0s-.023-.023-.281-.323Z"/><path class="f" d="M267.857,151.424c-.017.156-.051.4-.053.553-.106-.106-.283-.25-.391-.339a2.972,2.972,0,0,0,.334.185,3.872,3.872,0,0,0,.11-.4Z"/><path d="M267.806,151.98h0c-.1-.1-.264-.236-.372-.325l0,0a4.656,4.656,0,0,1,.367.314c0-.114.021-.27.037-.407l.015-.139a1.045,1.045,0,0,1-.028.137,1.666,1.666,0,0,1-.075.264,1.438,1.438,0,0,1-.245-.13l-.043-.025.046.02a1.543,1.543,0,0,0,.24.131,2.436,2.436,0,0,0,.072-.261c.011-.048.024-.1.033-.138l-.009.142c-.017.14-.036.3-.038.413v0Z"/><path class="f" d="M267.82,151.877l-.218-.389.138.436.07.048Z"/><path d="M267.812,151.977l-.074-.049-.137-.44c.062.1.213.38.221.387l-.01.1Zm-.211-.488.14.435.069.044.008-.091s-.019-.028-.217-.388Z"/><path class="f" d="M267.87,151.489c-.009.157-.034.4-.03.555-.109-.1-.293-.231-.4-.314a2.841,2.841,0,0,0,.341.164,3.75,3.75,0,0,0,.093-.4Z"/><path d="M267.844,152.049l-.006,0c-.1-.09-.273-.215-.383-.3h0a4.683,4.683,0,0,1,.377.292c0-.114.012-.275.021-.416l.011-.133c-.006.042-.016.091-.024.141a2.326,2.326,0,0,1-.063.266,1.322,1.322,0,0,1-.25-.114l-.043-.022.045.017a1.6,1.6,0,0,0,.246.115c.022-.071.041-.167.061-.264.01-.049.017-.1.028-.14l-.006.134c-.01.144-.022.309-.02.422l0,0Z"/><path class="f" d="M267.85,151.948l-.27-.341.2.4.076.032Z"/><path d="M267.853,152.047l-.08-.032-.2-.406c.094.112.264.332.272.337l0,.1Zm-.275-.437.2.4.073.031,0-.091h0s-.022-.026-.268-.34Z"/><path class="f" d="M267.873,151.561c-.011.158-.031.4-.027.554-.11-.1-.291-.227-.406-.309a2.623,2.623,0,0,0,.343.162,4.1,4.1,0,0,0,.09-.407Z"/><path d="M267.85,152.121l0,0c-.112-.1-.293-.226-.408-.309l.1.047a1.475,1.475,0,0,0,.245.11,2.634,2.634,0,0,0,.061-.27c.008-.047.017-.094.026-.135l0,.126c-.009.144-.02.314-.016.429v.006Zm-.41-.313a4.625,4.625,0,0,1,.4.3c0-.117.008-.284.017-.426l.009-.124c0,.041-.013.088-.02.135a2.452,2.452,0,0,1-.065.273,1.486,1.486,0,0,1-.249-.111l-.1-.05Z"/><path class="f" d="M267.872,152.007l-.187-.411.1.448.067.055Z"/><path d="M267.857,152.1l-.071-.058-.1-.45c.066.135.186.4.191.408l-.016.1Zm-.175-.508.108.447.063.051.017-.088s-.018-.032-.188-.41Z"/><path class="f" d="M267.879,151.607c.006.16.008.4.025.557-.118-.081-.31-.187-.43-.255a2.439,2.439,0,0,0,.355.116c.028-.117.033-.291.05-.418Z"/><path d="M267.908,152.169l-.006,0c-.112-.078-.293-.179-.412-.246l0,0a4.067,4.067,0,0,1,.408.236c-.014-.113-.017-.274-.021-.416l0-.136c0,.045-.005.1-.009.146a1.967,1.967,0,0,1-.037.272,1.222,1.222,0,0,1-.257-.075l-.053-.019.055.014a1.4,1.4,0,0,0,.253.078,2.285,2.285,0,0,0,.033-.271c.006-.051.01-.1.015-.145l.01.136c0,.144.007.309.021.421v.005Z"/><path class="f" d="M267.906,151.991l-.345-.236.29.32.083.006Z"/><path d="M267.937,152.083l-.085,0-.292-.322c.1.061.337.229.346.232l.031.095Zm-.377-.327.3.318.076,0-.029-.086h0c-.005,0-.216-.147-.342-.236Z"/><path class="f" d="M267.892,151.626c.012.156.026.4.053.552-.123-.076-.322-.175-.444-.237a2.5,2.5,0,0,0,.36.1c.024-.119.02-.292.031-.418Z"/><path d="M267.949,152.184l-.006,0c-.114-.074-.3-.163-.422-.225h0a4.179,4.179,0,0,1,.416.219c-.019-.117-.031-.283-.043-.425l-.01-.124a1.3,1.3,0,0,1,0,.139,1.8,1.8,0,0,1-.025.279,1.271,1.271,0,0,1-.261-.067l-.041-.013.042.008a1.839,1.839,0,0,0,.259.071,2.3,2.3,0,0,0,.02-.278c0-.05,0-.1.007-.139l.016.124c.01.142.023.313.043.428l0,.006Z"/><path class="f" d="M267.941,152.078l-.285-.328.217.394.079.029Z"/><path d="M267.954,152.176l-.082-.03-.218-.395c.1.107.282.318.289.324l.011.1Zm-.3-.425.221.393.074.025-.01-.091h0s-.025-.022-.285-.327Z"/><path class="f" d="M267.916,151.685c.02.158.045.4.077.55-.125-.068-.328-.155-.453-.21a2.529,2.529,0,0,0,.364.081,4.149,4.149,0,0,0,.012-.421Z"/><path d="M268,152.24l-.006,0c-.119-.067-.307-.148-.432-.2l0,0a4.407,4.407,0,0,1,.428.194c-.025-.118-.044-.285-.062-.428l-.013-.118c0,.045,0,.094,0,.145a2.373,2.373,0,0,1-.01.276,1.132,1.132,0,0,1-.258-.05l-.054-.013.054.009a1.988,1.988,0,0,0,.256.053c.008-.077.008-.177.008-.275,0-.051,0-.1,0-.145l.019.117c.017.145.037.318.062.433l0,.005Z"/><path class="f" d="M268,152.133l-.342-.241.289.327.079,0Z"/><path d="M268.03,152.227l-.083-.006-.291-.327c.117.079.337.233.344.238l.03.1Zm-.374-.333.293.324.074,0-.026-.089h0s-.187-.129-.341-.239Z"/><path class="f" d="M267.927,151.752c.031.155.07.4.112.544a4.834,4.834,0,0,0-.461-.167,2.7,2.7,0,0,0,.365.046c.009-.121-.012-.295-.016-.423Z"/><path d="M268.043,152.3l0,0c-.123-.055-.316-.117-.445-.16h0a4.051,4.051,0,0,1,.438.155c-.03-.11-.061-.271-.087-.408l-.025-.132a1.282,1.282,0,0,1,.013.147,1.753,1.753,0,0,1,.008.276,1.451,1.451,0,0,1-.261-.027l-.054-.008.055,0a1.679,1.679,0,0,0,.24.027.867.867,0,0,0,.008-.272c0-.053-.008-.1-.009-.147l.03.129c.024.14.058.3.087.415l0,0Z"/><path class="f" d="M268.037,152.182l-.283-.336.212.4.079.032Z"/><path d="M268.047,152.28l-.081-.033-.214-.4c.1.11.278.327.287.332l.008.1Zm-.295-.432.216.4.073.028-.007-.091h0s-.022-.025-.282-.334Z"/><path class="f" d="M267.945,151.794c.046.152.107.389.162.529-.132-.039-.342-.081-.474-.1a2.622,2.622,0,0,0,.367,0c0-.122-.039-.292-.055-.421Z"/><path d="M268.113,152.328l-.006,0a4.5,4.5,0,0,0-.465-.1h0a3.909,3.909,0,0,1,.458.1c-.039-.1-.083-.259-.123-.391l-.037-.132c.011.044.018.1.027.144a1.79,1.79,0,0,1,.032.275,1.237,1.237,0,0,1-.262.008l-.075,0,.075,0a1.453,1.453,0,0,0,.26-.006,2.3,2.3,0,0,0-.036-.271c-.008-.05-.015-.1-.021-.145l.043.129c.039.135.083.294.125.4l0,.006Z"/><path class="f" d="M268.052,152.183l-.394-.085.374.186.077-.029Z"/><path d="M268.032,152.285l-.376-.185c.134.022.385.08.4.08l.059.075-.079.03Zm-.376-.185.376.182.077-.029-.058-.069c-.008,0-.379-.079-.395-.084Z"/><path class="f" d="M267.972,151.843c.045.151.1.387.16.527-.133-.04-.344-.082-.474-.106a2.474,2.474,0,0,0,.367,0c0-.12-.037-.291-.053-.417Z"/><path d="M268.136,152.375l0,0c-.123-.038-.317-.076-.445-.1h0a3.9,3.9,0,0,1,.439.1c-.039-.108-.086-.265-.123-.4l-.036-.122c.01.042.018.09.027.137a2.058,2.058,0,0,1,.031.28,1.007,1.007,0,0,1-.261.009h-.041l.041,0c.043,0,.088,0,.132,0h0a.706.706,0,0,0,.128-.009,2.515,2.515,0,0,0-.036-.277c-.007-.048-.014-.1-.021-.139l.042.122c.037.137.083.3.124.4l0,.005Z"/><path class="f" d="M268.118,152.224l-.378-.181.338.273.081-.009Z"/><path d="M268.076,152.319l-.338-.275c.1.045.369.175.38.178l.043.086-.085.011Zm-.338-.275.34.27.081-.007-.045-.081h0c-.007,0-.289-.139-.376-.182Z"/><path class="f" d="M267.952,151.868c.074.139.184.356.268.481-.138-.011-.352,0-.484,0a2.645,2.645,0,0,0,.355-.083c-.027-.12-.1-.279-.139-.4Z"/><path d="M267.736,152.352h0l.005,0h-.007l.1-.02a1.389,1.389,0,0,0,.253-.064c-.02-.074-.057-.169-.091-.26-.02-.048-.037-.094-.051-.136l.066.112a3.97,3.97,0,0,0,.207.368c-.136,0-.334,0-.466,0h-.02Zm.214-.483c.018.039.036.087.054.134a2.263,2.263,0,0,1,.091.265,1.525,1.525,0,0,1-.257.065l-.073.014c.133,0,.326-.009.455,0a3.206,3.206,0,0,1-.208-.364l-.062-.114Z"/><path class="f" d="M268.177,152.266l-.394-.108.369.208.078-.023Z"/><path d="M268.152,152.367h0l-.367-.208c.107.025.383.1.393.105l.056.077-.08.026Zm-.369-.208.37.2.075-.022-.052-.071s-.352-.1-.393-.109Z"/><path class="f" d="M267.993,151.928c.075.137.185.354.27.478-.138-.01-.351,0-.484,0a2.39,2.39,0,0,0,.357-.087c-.029-.118-.1-.275-.143-.4Z"/><path d="M267.781,152.413l0,0h0l.106-.023a1.466,1.466,0,0,0,.249-.065,2.8,2.8,0,0,0-.1-.265c-.018-.045-.035-.089-.05-.129l.073.124c.067.123.141.262.2.352h-.144c-.114,0-.239.007-.33.009h0l-.007,0Zm.208-.485c.021.037.036.082.056.128a2.275,2.275,0,0,1,.093.268,1.461,1.461,0,0,1-.253.069l-.077.014c.131-.006.328-.012.455-.005a3.657,3.657,0,0,1-.2-.348l-.069-.126Z"/><path class="f" d="M268.226,152.3l-.364-.219.318.307h.083Z"/><path d="M268.266,152.387h-.086l-.321-.306c.125.07.359.211.368.215l.039.091Zm-.407-.306.323.3h.077l-.035-.083h0s-.231-.137-.365-.218Z"/><path class="f" d="M268.023,151.962c.088.127.217.33.313.445-.138.01-.347.046-.475.069a2.5,2.5,0,0,0,.34-.134c-.038-.116-.127-.266-.178-.38Z"/><path d="M267.861,152.48v0h0l0,0h0l.1-.034a1.311,1.311,0,0,0,.244-.1,2.117,2.117,0,0,0-.116-.246c-.023-.047-.045-.09-.064-.13l.077.1c.079.117.169.253.239.34-.133.012-.334.048-.464.07h0l-.007,0Zm.159-.517c.023.038.044.081.068.126a2.011,2.011,0,0,1,.115.252,1.31,1.31,0,0,1-.245.1l-.068.026a4.282,4.282,0,0,1,.446-.065,3.118,3.118,0,0,1-.245-.337l-.071-.1Z"/><path class="f" d="M268.253,152.33l-.393-.011.389.116.069-.043Z"/><path d="M268.25,152.439l-.393-.117c0-.006.313.006.383.006l0,0c-.089,0-.385-.01-.385-.01l.389.112.069-.045-.017-.015.019.019-.069.046Z"/><path class="f" d="M268.481,150.419l.284-.049-.284.007-.048.025Z"/><path d="M268.481,150.42l-.047-.015.047-.03.285-.007s-.277.051-.285.052Zm.285-.052-.285.011-.046.026.046.012c.011,0,.062-.012.285-.049Z"/><path class="f" d="M268.637,150.479c-.082-.024-.2-.066-.29-.085.088-.036.221-.1.3-.137a2.045,2.045,0,0,0-.2.128,1.954,1.954,0,0,0,.189.094Z"/><path d="M268.637,150.48l-.077-.024c-.071-.021-.154-.047-.213-.06.088-.04.22-.1.3-.142h0c-.082.044-.214.106-.3.142a1.552,1.552,0,0,1,.215.058l.041.012-.031-.015a.817.817,0,0,1-.126-.064.887.887,0,0,1,.145-.1l.056-.036-.055.04a1.3,1.3,0,0,0-.142.093,1.355,1.355,0,0,0,.124.059l.065.031,0,0Z"/><path class="f" d="M268.469,150.427l.275-.073-.285.034-.042.031Z"/><path d="M268.469,150.429l-.053-.009.043-.033.285-.036s-.266.074-.273.078Zm.275-.078-.285.041-.042.028.052.005c.01,0,.055-.016.275-.074Z"/><path class="f" d="M268.651,150.5c-.1-.009-.245-.027-.339-.028.072-.063.171-.169.232-.235-.04.063-.107.143-.136.2a1.961,1.961,0,0,0,.243.063Z"/><path d="M268.649,150.5l-.081-.008a2.5,2.5,0,0,0-.256-.02c.07-.068.167-.17.231-.238l0,0a2.966,2.966,0,0,1-.227.236,2.142,2.142,0,0,1,.254.014l.046.005-.048-.012a1,1,0,0,1-.158-.042.871.871,0,0,1,.092-.143l.039-.054-.035.057a1.011,1.011,0,0,0-.092.14c.041.012.1.026.154.039l.085.019,0,.005Z"/><path class="f" d="M268.367,150.447l.286-.03-.278-.012-.052.023Z"/><path d="M268.367,150.45l-.044-.018.05-.028.28.007c0,.006-.278.036-.286.039Z"/><path class="f" d="M268.58,150.51c-.09-.017-.222-.045-.311-.056.084-.043.208-.113.283-.156a1.748,1.748,0,0,0-.181.14c.054.026.145.049.209.072Z"/><path d="M268.578,150.512l-.08-.016c-.077-.016-.164-.032-.23-.04.084-.046.2-.115.278-.158h0a2.506,2.506,0,0,1-.275.158,1.767,1.767,0,0,1,.231.036l.039.006-.031-.009a1.089,1.089,0,0,1-.139-.051.71.71,0,0,1,.125-.1l.049-.035-.047.038a1.118,1.118,0,0,0-.125.1c.035.013.089.032.139.045l.07.024,0,0Z"/><path class="f" d="M268.343,150.444l.251-.108-.276.073-.031.032Z"/><path d="M268.343,150.446l-.057,0,.029-.037.277-.073c0,.005-.24.107-.247.112Zm.249-.112-.273.076-.031.034.055,0c.009,0,.048-.022.249-.107Z"/><path class="f" d="M268.57,150.542a2.313,2.313,0,0,0-.256-.1c.055-.053.134-.143.184-.2a1.454,1.454,0,0,0-.108.183,1.744,1.744,0,0,0,.18.118Z"/><path d="M268.568,150.544l-.052-.023c-.068-.029-.147-.062-.2-.08.051-.054.127-.14.176-.2v0a1.683,1.683,0,0,1-.174.2,1.335,1.335,0,0,1,.2.076l.023.008-.034-.019a.749.749,0,0,1-.119-.081.665.665,0,0,1,.074-.134l.023-.039-.02.04c-.026.046-.057.093-.074.133a1.3,1.3,0,0,0,.119.077l.06.037,0,.005Z"/><path class="f" d="M268.356,150.464l.2-.086-.214.029-.025.037Z"/><path d="M268.356,150.466l-.044-.019.026-.042.214-.029c-.074.037-.19.087-.194.09Zm.2-.09-.212.033-.025.037.041.014c.008,0,.041-.019.2-.084Z"/><path class="f" d="M268.192,152.292l-.4,0,.41.1.067-.043Z"/><path d="M268.2,152.4l-.41-.1c.109,0,.394-.007.4-.008l.078.06-.07.049Zm-.008-.1s-.04,0-.4,0l.41.1.066-.044-.074-.055Z"/><path class="f" d="M268.266,152.319l-.412-.1.4.193.076-.024Z"/><path d="M268.25,152.42h0l-.395-.194c.14.029.4.09.413.09l.062.077-.078.027Zm-.4-.194.4.19.076-.023-.062-.072h0c-.016,0-.394-.091-.411-.1Z"/><path class="f" d="M268.334,152.347l-.409-.02.409.123.068-.039Z"/><path d="M268.334,152.45l-.41-.121c0-.006.362.016.406.016l.074.062-.07.043Zm-.409-.12.409.116.067-.039-.069-.059c-.063-.005-.407-.019-.407-.019Z"/><path class="f" d="M268.074,152.058c.106.117.266.3.378.408-.138.019-.345.075-.474.108a2.144,2.144,0,0,0,.329-.162c-.054-.107-.163-.245-.233-.354Z"/><path d="M267.98,152.578l0,0h0l.1-.044a1.219,1.219,0,0,0,.232-.119,2.449,2.449,0,0,0-.152-.232c-.028-.042-.056-.082-.08-.119l.086.089a4.035,4.035,0,0,0,.294.315c-.132.025-.326.075-.456.11h-.006l-.011.005Zm.093-.519c.027.034.056.074.086.116a2.067,2.067,0,0,1,.15.236,1.22,1.22,0,0,1-.235.125l-.066.028c.128-.033.315-.082.444-.1a3.768,3.768,0,0,1-.3-.311l-.082-.093Z"/><path class="f" d="M268.391,152.367l-.41-.134.385.229.081-.017Z"/><path d="M268.364,152.465h0l-.384-.23c.14.042.4.129.411.13l.057.078-.084.022Zm-.384-.23.385.225.081-.017-.058-.074h0c-.009,0-.367-.119-.408-.134Z"/><path class="f" d="M268.113,152.084c.115.106.289.276.409.365-.131.04-.328.12-.448.17a2.383,2.383,0,0,0,.3-.2c-.065-.106-.187-.232-.264-.333Z"/><path d="M268.074,152.622v0h0l.086-.055a1.266,1.266,0,0,0,.216-.151c-.043-.064-.109-.14-.172-.215-.033-.039-.065-.077-.092-.111l.1.088a4.077,4.077,0,0,0,.311.273c-.13.042-.319.12-.438.171h0l-.008,0Zm.037-.535c.03.03.065.07.1.107.062.077.129.153.172.219a1.263,1.263,0,0,1-.216.155l-.061.038a4.345,4.345,0,0,1,.418-.158,3.938,3.938,0,0,1-.311-.27l-.1-.091Z"/><path class="f" d="M268.423,152.393l-.387.076.408.028.058-.057Z"/><path d="M268.446,152.5h0l-.408-.027c.1-.024.376-.077.385-.079l.083.046-.058.06Zm-.023-.1s-.032.008-.387.077l.406.023.058-.056-.077-.044Z"/><path class="f" d="M268.343,152.369l-.405.031.417.071.064-.05Z"/><path d="M268.354,152.473l-.417-.072c.11-.012.395-.032.4-.035l.08.055-.067.052Zm-.013-.1s-.039.006-.4.031l.417.068.063-.048-.076-.051Z"/><path class="f" d="M268.417,152.389l-.418-.066.409.166.075-.031Z"/><path d="M268.408,152.491h0l-.407-.166c.007,0,.4.062.417.062l.069.07-.077.034Zm-.409-.166.409.161.073-.029-.067-.064h0c-.02,0-.4-.065-.415-.068Z"/><path class="f" d="M268.487,152.411c0,.005-.411.009-.411.009l.418.094.066-.043Z"/><path d="M268.494,152.517l-.418-.1c.111,0,.4-.01.409-.012l.077.059-.068.048Zm-.009-.1s-.041,0-.409.006l.418.09.065-.043-.074-.053Z"/><path class="f" d="M268.2,152.144c.116.107.289.282.409.379-.136.029-.337.1-.464.141a2.21,2.21,0,0,0,.315-.184,3.982,3.982,0,0,0-.26-.336Z"/><path d="M268.152,152.666l0,0,0,0h0l.092-.049a1.83,1.83,0,0,0,.222-.133,2.553,2.553,0,0,0-.17-.223c-.031-.039-.064-.077-.091-.113l.1.089c.1.1.221.215.309.288-.133.033-.328.1-.453.141h0l-.007,0Zm.053-.522c.031.032.061.071.093.111a1.811,1.811,0,0,1,.169.225,1.241,1.241,0,0,1-.223.135l-.066.037c.125-.042.307-.1.434-.131a3.23,3.23,0,0,1-.31-.285l-.1-.092Z"/><path class="f" d="M268.544,152.43l-.417-.105.4.2.08-.023Z"/><path d="M268.526,152.527l-.4-.2c.139.031.406.1.417.1l.064.075-.082.026Zm-.4-.2.4.2.077-.024-.062-.067h0c-.015,0-.4-.1-.416-.106Z"/><path class="f" d="M268.246,152.167c.123.1.311.254.437.336-.128.047-.318.143-.435.2a2.489,2.489,0,0,0,.285-.222,3.623,3.623,0,0,0-.287-.313Z"/><path d="M268.25,152.7l0,0,.007,0-.009,0,.086-.063a1.385,1.385,0,0,0,.2-.162c-.05-.063-.123-.135-.19-.205l-.1-.1.111.082c.111.088.238.192.33.251-.121.049-.3.137-.415.194l-.018.009Zm-.006-.536c.033.029.066.063.1.1a2.17,2.17,0,0,1,.188.209,1.282,1.282,0,0,1-.2.165l-.063.046c.118-.058.289-.143.408-.187a3.593,3.593,0,0,1-.329-.246l-.108-.087Z"/><path class="f" d="M268.58,152.45c0,.006-.382.1-.382.1h.41l.054-.06Z"/><path d="M268.2,152.556v0c.1-.027.37-.1.38-.1l.086.043-.054.064Zm.382-.1s-.039.013-.362.1h.39l.052-.059-.08-.038Z"/><path class="h" d="M269.227,151.931l-.435-.3-.436.3.162-.482-.381-.3h.491l.163-.482.164.482h.49l-.382.3Z"/><path d="M269.232,151.936l-.442-.306-.432.3.16-.483-.38-.3.491-.005.159-.48.169.482.489,0-.38.306.166.486Zm-.444-1.27-.159.482h-.491l.382.3-.162.484.432-.3.434.3-.164-.475.383-.3-.487,0-.168-.483Z"/><path class="i" d="M270.417,151.856l.14.052.234-.042-.019.048-.121.021a.391.391,0,0,1-.067.007l.047.055.076.093-.018.046-.146-.188-.141-.052Z"/><path class="i" d="M270.811,151.318l0,.041-.2.023a.3.3,0,0,1-.085,0,.1.1,0,0,1-.055-.035.105.105,0,0,1-.029-.07.159.159,0,0,1,.009-.074.126.126,0,0,1,.044-.045.361.361,0,0,1,.088-.022l.2-.022.006.042-.2.023a.221.221,0,0,0-.068.014.062.062,0,0,0-.03.03.089.089,0,0,0-.006.048.083.083,0,0,0,.03.061.155.155,0,0,0,.091.009Z"/><path class="i" d="M270.529,150.907l.039-.009.027.129-.128.028a.277.277,0,0,1-.054-.054.155.155,0,0,1-.025-.065.142.142,0,0,1,0-.084.133.133,0,0,1,.051-.068.237.237,0,0,1,.09-.039.232.232,0,0,1,.1,0,.167.167,0,0,1,.076.039.192.192,0,0,1,.038.077.236.236,0,0,1,0,.065.1.1,0,0,1-.027.049.156.156,0,0,1-.052.035l-.018-.035a.107.107,0,0,0,.039-.026.087.087,0,0,0,.018-.036.1.1,0,0,0,0-.042.112.112,0,0,0-.02-.047.07.07,0,0,0-.032-.027.161.161,0,0,0-.037-.013.212.212,0,0,0-.071,0,.224.224,0,0,0-.076.029.1.1,0,0,0-.037.051.124.124,0,0,0,0,.06.1.1,0,0,0,.022.05.152.152,0,0,0,.032.034l.064-.014Z"/><path class="i" d="M269.047,149.79l.061-.35.041.009-.053.308.15.026-.007.04Z"/><path class="i" d="M268.7,149.765v-.353h.227v.042h-.184v.107h.173v.043h-.173v.121h.192v.039Z"/><path class="i" d="M267.723,149.988l.039-.016a.144.144,0,0,1,.021.1.119.119,0,0,1-.042.078.133.133,0,0,1-.078.035.125.125,0,0,1-.08-.02.272.272,0,0,1-.075-.06.225.225,0,0,1-.048-.085.128.128,0,0,1,0-.082.141.141,0,0,1,.043-.067.126.126,0,0,1,.079-.03.147.147,0,0,1,.081.028l-.023.034a.12.12,0,0,0-.06-.022.081.081,0,0,0-.053.022.091.091,0,0,0-.031.054.122.122,0,0,0,.007.062.31.31,0,0,0,.037.057.292.292,0,0,0,.061.053.088.088,0,0,0,.059.015.091.091,0,0,0,.051-.022.079.079,0,0,0,.03-.056.111.111,0,0,0-.018-.073Z"/><path class="i" d="M267.574,150.3l-.263-.234.029-.032.262.234Z"/><path class="i" d="M267.405,150.5l-.28-.215.024-.033.248.189.095-.122.031.025Z"/><path class="i" d="M266.879,150.708l.015-.039.189.076a.221.221,0,0,1,.075.042.087.087,0,0,1,.034.055.146.146,0,0,1-.008.075.156.156,0,0,1-.042.06.1.1,0,0,1-.06.019.315.315,0,0,1-.09-.021l-.188-.077.015-.038.19.075a.289.289,0,0,0,.066.018.065.065,0,0,0,.041-.01.069.069,0,0,0,.027-.039.076.076,0,0,0,0-.069.131.131,0,0,0-.076-.051Z"/><path class="i" d="M267.085,151.564l-.353,0,0-.226h.041l0,.186h.107v-.174h.042l0,.172h.12v-.191l.04,0Z"/><path class="i" d="M268.4,149.816l-.068-.346.105-.022a.175.175,0,0,1,.057-.005.1.1,0,0,1,.05.016.143.143,0,0,1,.048.052.311.311,0,0,1,.028.08.245.245,0,0,1,.005.07.138.138,0,0,1-.011.055.093.093,0,0,1-.02.037.166.166,0,0,1-.032.026.3.3,0,0,1-.048.016Zm.033-.048.067-.013a.162.162,0,0,0,.046-.016.062.062,0,0,0,.022-.024.086.086,0,0,0,.015-.049.28.28,0,0,0,0-.068.2.2,0,0,0-.033-.079.076.076,0,0,0-.046-.032.127.127,0,0,0-.054,0l-.066.014Z"/><path class="i" d="M269.549,149.958l.164-.313.1.054a.107.107,0,0,1,.041.027.065.065,0,0,1,.028.031.082.082,0,0,1,.007.04.144.144,0,0,1-.014.049.111.111,0,0,1-.06.055.109.109,0,0,1-.094-.014l-.072-.037-.065.127Zm.122-.144.071.037a.084.084,0,0,0,.059.01.075.075,0,0,0,.038-.034.072.072,0,0,0,.007-.038.04.04,0,0,0-.013-.03.2.2,0,0,0-.033-.022l-.073-.036Z"/><path class="i" d="M269.727,150.05l.328-.183.034.031-.142.347-.035-.03.044-.1-.1-.088-.1.057Zm.167-.047.079.07.039-.093c.014-.031.023-.053.031-.07a.579.579,0,0,1-.054.039Z"/><path class="i" d="M269.981,150.289l.28-.216.084.11a.158.158,0,0,1,.032.056.076.076,0,0,1-.006.05.1.1,0,0,1-.033.042.093.093,0,0,1-.065.021.1.1,0,0,1-.065-.033.185.185,0,0,1,0,.031.259.259,0,0,1-.019.055l-.042.1-.032-.04.034-.079.019-.053a.05.05,0,0,0,.006-.031.045.045,0,0,0,0-.022.129.129,0,0,0-.013-.019l-.028-.037-.125.094Zm.182-.088.054.07a.126.126,0,0,0,.032.033.07.07,0,0,0,.032.006.059.059,0,0,0,.03-.013.06.06,0,0,0,.023-.04.077.077,0,0,0-.017-.05l-.063-.076Z"/><path class="i" d="M270.17,150.529l.368-.065.021.038-.246.282-.023-.039.077-.086-.064-.113-.112.022Zm.172.008.051.1.07-.078a.763.763,0,0,1,.052-.056.476.476,0,0,1-.067.021Z"/><path class="i" d="M270.48,151.446l.339.155,0,.045-.365.09.006-.047.11-.025.013-.13-.1-.045Zm.136.1-.011.1.1-.022c.03-.007.056-.011.075-.014a.367.367,0,0,1-.064-.025Z"/><path class="i" d="M267.142,151.888l-.345.077-.031-.136a.156.156,0,0,1,0-.063.055.055,0,0,1,.025-.041.1.1,0,0,1,.05-.027.1.1,0,0,1,.066.008.109.109,0,0,1,.046.06.09.09,0,0,1,.011-.03.3.3,0,0,1,.039-.044l.082-.073.01.051-.062.056a.53.53,0,0,0-.041.04.091.091,0,0,0-.019.025l0,.022a.073.073,0,0,0,0,.022l.01.049.152-.036Zm-.2,0-.019-.087a.105.105,0,0,0-.016-.042.052.052,0,0,0-.025-.021.086.086,0,0,0-.032,0,.044.044,0,0,0-.037.025.074.074,0,0,0-.006.053l.021.1Z"/><path class="i" d="M267.1,151.251l-.353-.03.01-.119a.277.277,0,0,1,.01-.046.065.065,0,0,1,.019-.037.093.093,0,0,1,.035-.023.143.143,0,0,1,.05-.006.127.127,0,0,1,.073.033.109.109,0,0,1,.025.094l-.008.081.143.011Zm-.18-.058.007-.081a.071.071,0,0,0-.012-.057.068.068,0,0,0-.048-.022.079.079,0,0,0-.037.007.041.041,0,0,0-.022.025.131.131,0,0,0-.007.037l-.008.082Z"/><path class="i" d="M267.246,150.729l-.294-.2.066-.1a.092.092,0,0,1,.041-.04.064.064,0,0,1,.046-.012.115.115,0,0,1,.044.016.085.085,0,0,1,.032.033.086.086,0,0,1,.006.046.09.09,0,0,1,.052-.021.114.114,0,0,1,.054.019.1.1,0,0,1,.033.034.106.106,0,0,1,.015.035.067.067,0,0,1-.006.039.11.11,0,0,1-.024.045Zm-.148-.149.038-.057a.156.156,0,0,0,.019-.035.069.069,0,0,0,0-.029.048.048,0,0,0-.021-.024.069.069,0,0,0-.03-.011.03.03,0,0,0-.027.008.181.181,0,0,0-.031.038l-.033.051Zm.137.091.043-.065a.175.175,0,0,1,.015-.025.079.079,0,0,0,.005-.025.036.036,0,0,0-.009-.024.059.059,0,0,0-.02-.022.074.074,0,0,0-.034-.012.056.056,0,0,0-.032.011.089.089,0,0,0-.028.035l-.041.06Z"/><path class="i" d="M267.829,150.05l-.086-.364.038-.023.295.231-.04.027-.087-.071-.111.067.028.11Zm0-.171.087-.056-.078-.066c-.026-.02-.042-.036-.057-.049a.275.275,0,0,1,.021.065Z"/></g></g></g></svg>