<svg xmlns="http://www.w3.org/2000/svg" xmlns:xlink="http://www.w3.org/1999/xlink" width="33.563" height="19.577" viewBox="0 0 33.563 19.577"><defs><style>.a{fill:none;}.b{clip-path:url(#a);}.c{fill:#ea0020;}.d{fill:#2a680b;}.e{fill:#fcff2c;}.f{fill:#fff;}.g{fill:#1a0095;}</style><clipPath id="a"><rect class="a" width="33.563" height="19.577" transform="translate(147.762 294.244)"/></clipPath></defs><g transform="translate(-147.762 -294.244)"><g class="b"><rect class="c" width="21.823" height="19.577" transform="translate(159.501 294.244)"/><rect class="d" width="11.739" height="19.577" transform="translate(147.762 294.244)"/><g class="b"><path class="e" d="M163.325,307.069c-1.476-.043-8.251-4.276-8.3-4.95l.372-.623c.674.978,7.6,5.093,8.28,4.946l-.355.627Z"/><path class="e" d="M155.322,301.409c-.134.359,1.77,1.535,4.055,2.925a15.688,15.688,0,0,0,4.406,2.131c.007-.017.071-.125.065-.125-.027.043-.1.054-.2.024a22.859,22.859,0,0,1-4.223-2.13,19,19,0,0,1-4-2.8.32.32,0,0,1-.03-.139h0l-.057.1-.01.015Zm8.038,5.681c-.024.045-.07.049-.158.038a17.854,17.854,0,0,1-4.216-2.065c-2.308-1.384-4.215-2.645-4.008-2.975l.055-.1.013,0c-.188.559,3.763,2.819,3.994,2.962,2.288,1.418,4.212,2.246,4.383,2.03l-.063.107Z"/><path d="M163.269,307.146c-.019,0-.042,0-.069,0a17.835,17.835,0,0,1-4.221-2.07c-2.619-1.569-3.936-2.514-4.026-2.888a.138.138,0,0,1,.013-.1l.054-.1v.032l-.029.082a.11.11,0,0,0-.011.084c.089.365,1.4,1.305,4.014,2.871a17.627,17.627,0,0,0,4.21,2.062c.082.009.125.007.146-.029l.036-.065a.181.181,0,0,1-.074.012,14.756,14.756,0,0,1-4.277-2.065l-.157-.092c-2.554-1.5-3.849-2.459-3.854-2.838.054.249.651.918,3.867,2.814.082.047.136.079.158.093a14.836,14.836,0,0,0,4.263,2.06.148.148,0,0,0,.1-.026h0a.034.034,0,0,1-.009.03l-.028.091a.107.107,0,0,1-.1.048Zm.462-.657a18.558,18.558,0,0,1-4.361-2.142c-2.462-1.5-4.191-2.586-4.06-2.942l.066-.118,0,.008-.038.106c-.139.375,2.081,1.729,4.041,2.922a18.515,18.515,0,0,0,4.348,2.138c.028,0,.038-.005.042-.009.012-.023.026-.048.038-.068a.276.276,0,0,1-.165-.006,23.344,23.344,0,0,1-4.228-2.131c-1.82-1.1-3.72-2.3-4.007-2.807a.33.33,0,0,1-.031-.145c.028.049.04.1.056.132.287.5,2.287,1.758,4,2.8a23.082,23.082,0,0,0,4.22,2.127c.091.028.158.02.183-.018.029.009.029.011-.027.11-.03.042-.049.047-.078.047Z"/><path class="e" d="M159.507,302.527a13.886,13.886,0,0,0,4.354-.621l-.226-.368a12.348,12.348,0,0,1-4.14.6c-1.992-.017-3.4-.2-4.1-.678l-.214.392a10.748,10.748,0,0,0,4.328.671Z"/><path class="e" d="M163.924,301.915a6.381,6.381,0,0,1-1.731.469,17.787,17.787,0,0,1-2.691.194,18.863,18.863,0,0,1-2.576-.163,7.461,7.461,0,0,1-1.809-.48c.02-.037.032-.065.052-.1a8.066,8.066,0,0,0,1.774.469,19,19,0,0,0,2.558.164,18.085,18.085,0,0,0,2.669-.2,4.334,4.334,0,0,0,1.68-.483l.074.127Zm-.2-.373a5.268,5.268,0,0,1-1.655.445,17.766,17.766,0,0,1-2.556.18,16.873,16.873,0,0,1-2.469-.16,6.667,6.667,0,0,1-1.723-.435c.022-.032.039-.062.061-.1a5.775,5.775,0,0,0,1.675.427,18.771,18.771,0,0,0,4.994-.026,4.47,4.47,0,0,0,1.6-.453l.072.12Z"/><path d="M159.47,302.592a19.054,19.054,0,0,1-2.546-.163,7.6,7.6,0,0,1-1.793-.473l-.007-.062.032-.065a8.643,8.643,0,0,0,1.789.462,18.918,18.918,0,0,0,2.539.164,18.212,18.212,0,0,0,2.684-.2,4.349,4.349,0,0,0,1.671-.478l.1.129a5.48,5.48,0,0,1-1.739.488,17.7,17.7,0,0,1-2.694.2Zm-4.306-.744-.034.093a8.947,8.947,0,0,0,1.8.459,18.925,18.925,0,0,0,2.54.164v.014l.032-.014a17.9,17.9,0,0,0,2.689-.2,6.551,6.551,0,0,0,1.721-.462l-.073-.112a3.828,3.828,0,0,1-1.665.489,18,18,0,0,1-2.673.2,18.756,18.756,0,0,1-2.562-.165,7.853,7.853,0,0,1-1.775-.47Zm4.333.332a17.381,17.381,0,0,1-2.453-.159,6.668,6.668,0,0,1-1.644-.4l-.08-.03.034-.09c0-.009.028-.034.035-.034a5.764,5.764,0,0,0,1.67.427,18.8,18.8,0,0,0,4.989-.029,4.5,4.5,0,0,0,1.6-.449l.092.123a4.51,4.51,0,0,1-1.663.467,17.445,17.445,0,0,1-2.559.179Zm-4.121-.693-.039.092.074.011a6.61,6.61,0,0,0,1.637.4,17.3,17.3,0,0,0,2.449.159v.014l.017-.014a17.806,17.806,0,0,0,2.554-.18,5.126,5.126,0,0,0,1.648-.443l-.075-.1a3.905,3.905,0,0,1-1.587.46,18.929,18.929,0,0,1-5,.026,5.689,5.689,0,0,1-1.678-.428Z"/><path class="e" d="M154.652,304.31a12.734,12.734,0,0,0,4.841.755,13.781,13.781,0,0,0,4.858-.72l-.025-.49c-.265.416-2.7.812-4.85.8a11.821,11.821,0,0,1-4.828-.781l0,.44Z"/><path class="e" d="M164.4,304.241v.116a5.318,5.318,0,0,1-1.929.545,19.716,19.716,0,0,1-2.995.206,19.041,19.041,0,0,1-2.844-.2,7.141,7.141,0,0,1-2.035-.55v-.136a7.341,7.341,0,0,0,2.051.579,18.979,18.979,0,0,0,2.828.194,19.931,19.931,0,0,0,2.979-.2,6.207,6.207,0,0,0,1.945-.555Zm0-.418v.118a5.268,5.268,0,0,1-1.929.545,19.693,19.693,0,0,1-2.995.207,18.76,18.76,0,0,1-2.844-.2,7.081,7.081,0,0,1-2.035-.55l0-.136a7.277,7.277,0,0,0,2.049.579,18.714,18.714,0,0,0,2.828.194,19.668,19.668,0,0,0,2.979-.2,6.116,6.116,0,0,0,1.945-.556Z"/><path d="M159.472,305.121a18.77,18.77,0,0,1-2.846-.2,7.133,7.133,0,0,1-2.04-.551l-.008-.147a8.07,8.07,0,0,0,2.067.563,18.767,18.767,0,0,0,2.827.194,20.014,20.014,0,0,0,2.977-.2,6.214,6.214,0,0,0,1.939-.551l.023.127a5.1,5.1,0,0,1-1.942.558,19.75,19.75,0,0,1-3,.206Zm-4.886-.883.021.125a7.546,7.546,0,0,0,2.022.535,18.992,18.992,0,0,0,2.843.2,19.966,19.966,0,0,0,2.993-.2,5.51,5.51,0,0,0,1.922-.54l0-.108a5.572,5.572,0,0,1-1.93.566,19.677,19.677,0,0,1-2.981.2,18.644,18.644,0,0,1-2.829-.194,7.047,7.047,0,0,1-2.057-.579Zm4.886.469a18.7,18.7,0,0,1-2.846-.2,7.1,7.1,0,0,1-2.04-.551l-.006-.148a7.96,7.96,0,0,0,2.065.564,18.955,18.955,0,0,0,2.827.2,19.8,19.8,0,0,0,2.977-.2,6.246,6.246,0,0,0,1.939-.55l.023.126a5.119,5.119,0,0,1-1.94.559,19.872,19.872,0,0,1-3,.207Zm-4.886-.885.021.124a7.458,7.458,0,0,0,2.024.536,19.04,19.04,0,0,0,2.841.2,20.171,20.171,0,0,0,2.993-.2,5.462,5.462,0,0,0,1.922-.542l0-.109a5.474,5.474,0,0,1-1.93.569,19.72,19.72,0,0,1-2.981.2,18.825,18.825,0,0,1-2.829-.195,7.111,7.111,0,0,1-2.057-.58Z"/><path class="e" d="M159.49,306.986a16.785,16.785,0,0,1-4.263-.661l.276.431a11.416,11.416,0,0,0,4.006.654,10.239,10.239,0,0,0,3.959-.646l.281-.449a15.059,15.059,0,0,1-4.259.671Z"/><path class="e" d="M163.574,306.663c-.042.064-.085.126-.126.188a10.973,10.973,0,0,1-1.5.382,13.328,13.328,0,0,1-2.459.226,11.834,11.834,0,0,1-4.083-.7l-.057-.1.008-.015.1.038a13.128,13.128,0,0,0,4.045.668,13.538,13.538,0,0,0,2.411-.224,7.188,7.188,0,0,0,1.626-.445l.035-.02Zm.245-.4,0,0c-.031.054-.062.107-.094.16a10.534,10.534,0,0,1-1.891.422,15.064,15.064,0,0,1-2.322.2,15.947,15.947,0,0,1-4.319-.646l-.054-.107a18.255,18.255,0,0,0,4.373.645,16.563,16.563,0,0,0,2.306-.2,12.1,12.1,0,0,0,1.883-.417l-.006-.011.122-.045Z"/><path d="M159.491,307.473h0a11.689,11.689,0,0,1-4.089-.7l-.064-.106c0-.005.019-.034.025-.034h0l.1.039a12.931,12.931,0,0,0,4.039.666h0a13.618,13.618,0,0,0,2.406-.224,6.573,6.573,0,0,0,1.624-.444.072.072,0,0,1,.026-.008l0-.007.013.008,0,0,.013.005c-.042.063-.083.127-.126.188a11.109,11.109,0,0,1-1.505.389,13.481,13.481,0,0,1-2.463.226Zm-4.137-.814.066.094a12,12,0,0,0,4.073.693,13.527,13.527,0,0,0,2.455-.225,11.323,11.323,0,0,0,1.495-.382c.027-.044.059-.09.09-.137a7.316,7.316,0,0,1-1.617.44,13.821,13.821,0,0,1-2.375.224h0a13.163,13.163,0,0,1-4.089-.669l-.1-.038Zm4.16.394h0a16.156,16.156,0,0,1-4.322-.647l-.064-.111a19.439,19.439,0,0,0,4.386.623,15.507,15.507,0,0,0,2.093-.17l.211-.028a12.411,12.411,0,0,0,1.858-.41l.139-.065-.005.01-.109.062a10.279,10.279,0,0,1-1.88.428l-.208.029a15.248,15.248,0,0,1-2.1.171,18.222,18.222,0,0,1-4.377-.644l.071.087a16.3,16.3,0,0,0,4.306.638,13.966,13.966,0,0,0,2.046-.159l.272-.037a10.613,10.613,0,0,0,1.891-.422l.087-.15-.074.17a10.084,10.084,0,0,1-1.9.427l-.275.039a13.737,13.737,0,0,1-2.049.159Z"/><path class="e" d="M159.491,299.68a4.353,4.353,0,1,1-4.347,4.352,4.352,4.352,0,0,1,4.347-4.352Zm0-.431a4.784,4.784,0,1,1-4.776,4.783,4.791,4.791,0,0,1,4.776-4.783Z"/><path class="e" d="M159.495,299.192a4.847,4.847,0,1,1-4.843,4.846,4.854,4.854,0,0,1,4.843-4.846Zm0,.107a4.74,4.74,0,1,1-4.736,4.739,4.757,4.757,0,0,1,4.736-4.739Z"/><path d="M159.495,308.9a4.86,4.86,0,1,1,4.857-4.86,4.862,4.862,0,0,1-4.857,4.86Zm0-9.693a4.833,4.833,0,1,0,4.829,4.833,4.836,4.836,0,0,0-4.829-4.833Zm0,9.586a4.754,4.754,0,1,1,4.75-4.753,4.757,4.757,0,0,1-4.75,4.753Zm0-9.478a4.725,4.725,0,1,0,4.721,4.725,4.729,4.729,0,0,0-4.721-4.725Z"/><path class="e" d="M159.5,299.6a4.44,4.44,0,1,1-4.437,4.44,4.454,4.454,0,0,1,4.437-4.44Zm0,.106a4.332,4.332,0,1,1-4.33,4.334,4.349,4.349,0,0,1,4.33-4.334Z"/><path d="M159.5,308.488a4.454,4.454,0,1,1,4.448-4.453,4.457,4.457,0,0,1-4.448,4.453Zm0-8.88a4.426,4.426,0,1,0,4.42,4.427,4.43,4.43,0,0,0-4.42-4.427Zm0,8.773a4.347,4.347,0,1,1,4.341-4.346,4.351,4.351,0,0,1-4.341,4.346Zm0-8.666a4.32,4.32,0,1,0,4.314,4.32,4.325,4.325,0,0,0-4.314-4.32Z"/><rect class="e" width="0.423" height="9.751" transform="translate(159.299 299.169)"/><path class="a" d="M159.353,299.174h0Z"/><path class="a" d="M159.353,308.911h0Z"/><path class="e" d="M159.654,299.116h.1v9.852h-.1v-9.852Zm-.415,0h.108l0,9.852h-.11v-9.852Z"/><path d="M159.759,308.981h-.1l-.014-9.865.119-.012.014,9.864,0,.009-.009,0Zm-.015-9.865-.09.015.014,9.837.076-.013v-9.839Zm-.4,9.865h-.11l-.012-9.865.12-.012.016,9.864-.006.009-.008,0Zm-.016-9.865-.094.015.015,9.837.079-.013v-9.839Z"/><path class="e" d="M154.636,303.832c.608-.559,2.847-.923,4.836-.913s4.341.418,4.854.9l0,.416c-.43-.4-2.257-.885-4.854-.89s-4.484.49-4.84.9v-.416Z"/><path d="M154.648,304.211l-.028-.359a.014.014,0,0,1,.028,0v.359Z"/><path d="M164.355,304.227l-.029-.361c0-.014.029-.014.029,0v.361Z"/><path class="e" d="M159.5,303.288a17.127,17.127,0,0,1,3.135.279,3.643,3.643,0,0,1,1.764.666v.126a3.876,3.876,0,0,0-1.786-.683,16.492,16.492,0,0,0-3.113-.278,17.316,17.316,0,0,0-3.178.282c-.69.138-1.61.412-1.728.679v-.13c.064-.186.749-.465,1.712-.657a17.316,17.316,0,0,1,3.194-.284Zm0-.415a16.837,16.837,0,0,1,3.133.28,3.679,3.679,0,0,1,1.764.663v.126a3.868,3.868,0,0,0-1.784-.682,16.607,16.607,0,0,0-3.113-.278,17.426,17.426,0,0,0-3.175.283c-.664.127-1.624.411-1.733.677v-.129a3.207,3.207,0,0,1,1.714-.657,17.392,17.392,0,0,1,3.194-.283Z"/><path d="M154.591,304.374v0a.014.014,0,0,1-.012-.013v-.13c.068-.206.793-.486,1.724-.671a17.335,17.335,0,0,1,3.195-.285,17,17,0,0,1,3.137.281,3.613,3.613,0,0,1,1.773.669l0,.136a4.326,4.326,0,0,0-1.8-.669,16.47,16.47,0,0,0-3.072-.278,17.683,17.683,0,0,0-3.211.282c-.753.151-1.612.424-1.718.671a.014.014,0,0,1-.014.009Zm4.906-.99a16.694,16.694,0,0,1,3.116.277,3.991,3.991,0,0,1,1.794.689l-.024-.117a3.682,3.682,0,0,0-1.755-.652,16.861,16.861,0,0,0-3.107-.279,17.438,17.438,0,0,0-3.214.284c-1.033.206-1.646.486-1.7.647v.076a3.989,3.989,0,0,1,1.71-.643,17.461,17.461,0,0,1,3.18-.282Zm-4.9.573h0a.014.014,0,0,1-.013-.014v-.13c.07-.208.813-.494,1.725-.672a17.45,17.45,0,0,1,3.2-.283,16.915,16.915,0,0,1,3.136.28,3.6,3.6,0,0,1,1.774.671l0,.133a4.339,4.339,0,0,0-1.8-.669,16.776,16.776,0,0,0-3.085-.278,17.593,17.593,0,0,0-3.195.283c-.764.147-1.627.429-1.721.67a.016.016,0,0,1-.014.009Zm4.906-.988a16.637,16.637,0,0,1,3.114.277,3.99,3.99,0,0,1,1.794.687l-.024-.117a3.709,3.709,0,0,0-1.755-.65,16.629,16.629,0,0,0-3.094-.28,17.581,17.581,0,0,0-3.225.282,3.2,3.2,0,0,0-1.7.648v.076a3.9,3.9,0,0,1,1.716-.641,17.322,17.322,0,0,1,3.176-.282Z"/><path class="e" d="M159.476,300.753a10.417,10.417,0,0,1,4.091.621l.263.454a10.518,10.518,0,0,0-4.353-.636,11.045,11.045,0,0,0-4.313.656l.313-.524a10.988,10.988,0,0,1,4-.571Z"/><path class="a" d="M163.612,301.447l.178.288Z"/><path class="e" d="M159.5,301.128a16.379,16.379,0,0,1,2.81.2,5.151,5.151,0,0,1,1.539.452l.076.138a5.652,5.652,0,0,0-1.631-.484,15.633,15.633,0,0,0-2.8-.194,16.19,16.19,0,0,0-2.836.193,5.057,5.057,0,0,0-1.526.475l.077-.145a5.01,5.01,0,0,1,1.431-.437,16.693,16.693,0,0,1,2.856-.2Zm0-.415a15.862,15.862,0,0,1,2.714.188,4.363,4.363,0,0,1,1.4.459l.116.18a3.727,3.727,0,0,0-1.564-.531,17.185,17.185,0,0,0-2.667-.19,16.353,16.353,0,0,0-2.728.2,4.393,4.393,0,0,0-1.352.418l.1-.151a4.817,4.817,0,0,1,1.238-.375,16.414,16.414,0,0,1,2.742-.2Z"/><path d="M163.924,301.93l-.007,0a5.663,5.663,0,0,0-1.626-.482,15.238,15.238,0,0,0-2.7-.194h-.2a15.836,15.836,0,0,0-2.729.193,5,5,0,0,0-1.519.473l.055-.163a5.135,5.135,0,0,1,1.44-.444,16.365,16.365,0,0,1,2.86-.2h.061a16.2,16.2,0,0,1,2.752.2,4.957,4.957,0,0,1,1.544.459l.081.138a.021.021,0,0,1,0,.019l-.011,0Zm-4.364-.789H159.5a16.452,16.452,0,0,0-2.855.2,5.223,5.223,0,0,0-1.426.436l-.069.14a3.989,3.989,0,0,1,1.508-.5,16.034,16.034,0,0,1,2.735-.192h.2a15.375,15.375,0,0,1,2.709.192,6.21,6.21,0,0,1,1.589.459l-.05-.092a5.26,5.26,0,0,0-1.529-.444,16.133,16.133,0,0,0-2.747-.2Zm4.168.415s-.006,0-.01-.005a3.745,3.745,0,0,0-1.558-.528,16.871,16.871,0,0,0-2.663-.191,16.394,16.394,0,0,0-2.724.2,4.55,4.55,0,0,0-1.349.417l.081-.171a4.807,4.807,0,0,1,1.246-.381,16.394,16.394,0,0,1,2.746-.2h.08a15.622,15.622,0,0,1,2.635.189,4.346,4.346,0,0,1,1.411.462l.117.184a.014.014,0,0,1,0,.019l-.008,0ZM159.5,300.8a16.745,16.745,0,0,1,2.669.19,4.54,4.54,0,0,1,1.5.473l-.062-.1a4.415,4.415,0,0,0-1.4-.454,15.661,15.661,0,0,0-2.63-.187h-.08a16.337,16.337,0,0,0-2.741.2,4.883,4.883,0,0,0-1.233.372l-.1.148a3.707,3.707,0,0,1,1.34-.439,15.814,15.814,0,0,1,2.729-.2Z"/><path class="e" d="M161.9,306.055a12.387,12.387,0,0,0-2.407-.185c-3,.034-3.974.617-4.093.793l-.224-.366a8.057,8.057,0,0,1,4.333-.834,15.55,15.55,0,0,1,2.6.223l-.207.369Z"/><path class="a" d="M155.23,306.348l.148.254Z"/><path class="e" d="M159.478,305.817a14.809,14.809,0,0,1,2.449.2l-.057.1a12.779,12.779,0,0,0-2.388-.182,11.483,11.483,0,0,0-3.205.374c-.309.086-.82.284-.871.447l-.055-.094c.016-.1.324-.3.9-.46a11.71,11.71,0,0,1,3.226-.382Zm.038-.419a14.772,14.772,0,0,1,2.628.229l-.058.1a13.7,13.7,0,0,0-2.563-.223,12.321,12.321,0,0,0-3.364.393c-.347.1-.945.321-.964.493l-.056-.1c.012-.157.529-.36.995-.5a12.346,12.346,0,0,1,3.382-.4Z"/><path d="M155.406,306.767l-.011-.005-.057-.1c.016-.116.343-.318.91-.479a11.557,11.557,0,0,1,3.23-.382,14.73,14.73,0,0,1,2.451.2l-.048.121a13.536,13.536,0,0,0-2.291-.176h-.235a11.223,11.223,0,0,0-3.076.375c-.328.092-.81.288-.859.439a.015.015,0,0,1-.012.009h0Zm4.072-.934a11.438,11.438,0,0,0-3.223.38c-.583.165-.877.364-.892.448l.041.065c.1-.184.655-.374.869-.434a11.382,11.382,0,0,1,3.082-.375h.235a12.575,12.575,0,0,1,2.281.185l.043-.1a16.858,16.858,0,0,0-2.436-.173Zm-4.283.573a.013.013,0,0,1-.012-.007l-.057-.1c.015-.215.772-.451,1-.519a12.231,12.231,0,0,1,3.386-.4,15.2,15.2,0,0,1,2.632.231l-.05.123a14.8,14.8,0,0,0-2.575-.216,11.98,11.98,0,0,0-3.36.392c-.448.133-.936.337-.955.481a.015.015,0,0,1-.011.012Zm4.321-1a12.131,12.131,0,0,0-3.378.4c-.589.171-.976.363-.987.484l.039.067c.1-.211.872-.445.963-.47a12.05,12.05,0,0,1,3.37-.4,14.008,14.008,0,0,1,2.566.225l.045-.1a16.994,16.994,0,0,0-2.618-.211Z"/><path d="M158.619,305.691a.063.063,0,0,1,.016-.036.039.039,0,0,1,.033-.015.033.033,0,0,1,.02,0,.023.023,0,0,1,.013.014.051.051,0,0,1,0,.025.061.061,0,0,1-.008.025.1.1,0,0,1-.014.018.051.051,0,0,1-.025,0,.047.047,0,0,1-.021,0,.042.042,0,0,1-.014-.016.047.047,0,0,1,0-.023Zm.013,0a.036.036,0,0,0,.007.026.019.019,0,0,0,.019.007.033.033,0,0,0,.025-.012.061.061,0,0,0,.009-.028.027.027,0,0,0,0-.018.017.017,0,0,0-.007-.011.03.03,0,0,0-.04.006.07.07,0,0,0-.011.03Zm.114.015.011,0,0,.011.01,0,.011-.005.006-.005,0-.008-.011,0-.016,0-.007-.006,0-.009,0-.008,0-.006.008,0,.008,0a.023.023,0,0,1,.015,0l.006.006,0,.008-.012,0,0-.008-.011,0-.01,0,0,.006v0l.006.005.008,0,.017,0,.006.007v.009l0,.012-.01.008-.014,0a.02.02,0,0,1-.018,0,.026.026,0,0,1-.007-.015Zm.11-.01.011,0a.031.031,0,0,1-.011.016.023.023,0,0,1-.019.006.022.022,0,0,1-.022-.007.042.042,0,0,1-.005-.027.035.035,0,0,1,.012-.024.028.028,0,0,1,.023-.01.036.036,0,0,1,.02.006.039.039,0,0,1,0,.027h0l-.047.005a.023.023,0,0,0,0,.016.012.012,0,0,0,.013,0l.01,0a.051.051,0,0,0,.007-.013Zm-.032-.014h.035l0-.012c0-.006-.007-.006-.013-.006l-.011.006a.017.017,0,0,0-.008.013Zm.054.041h.009l0,.008h.01l.012,0s0-.006.006-.01l0-.014a.028.028,0,0,1-.019.009.016.016,0,0,1-.018-.009.034.034,0,0,1-.007-.022l.007-.018a.021.021,0,0,1,.011-.013.022.022,0,0,1,.014-.006.019.019,0,0,1,.018.009l0-.009h.008l-.006.058a.054.054,0,0,1,0,.022l-.011.009a.044.044,0,0,1-.018.005.022.022,0,0,1-.017-.005s-.008-.006-.006-.013Zm.013-.041c0,.009,0,.014,0,.018s.005.006.011.006.008,0,.014-.007l.007-.017c0-.011,0-.016,0-.019a.014.014,0,0,0-.024,0,.047.047,0,0,0-.007.019Zm.055.03.009-.066h.01v.01l.008-.009.011,0,.012,0,.005.009a.025.025,0,0,1,.021-.011l.015,0a.038.038,0,0,1,0,.019l0,.044h-.011l0-.041v-.01l0,0,0,0a.049.049,0,0,0-.013,0,.045.045,0,0,0-.008.017l0,.038h-.012l.006-.042,0-.013h-.015l-.008.009,0,.014,0,.033Zm.15-.026h.01a.025.025,0,0,1-.012.016.027.027,0,0,1-.019.007.018.018,0,0,1-.018-.009.03.03,0,0,1-.008-.023.062.062,0,0,1,.013-.027.031.031,0,0,1,.023-.009.039.039,0,0,1,.019.006.034.034,0,0,1,.006.026l0,0h-.046l0,.017a.017.017,0,0,0,.013.005l.011,0,.008-.009Zm-.033-.017h.037c0-.006,0-.013,0-.013a.021.021,0,0,0-.013-.009s-.009.006-.013.008-.006.008-.007.014Zm.054.037.009-.065h.011v.006a.021.021,0,0,1,.019-.007h.013l0,0,0,.008v.01l0,.04-.011,0,0-.04v-.01l0-.008h-.008a.013.013,0,0,0-.012.006.034.034,0,0,0-.007.017l0,.036Zm.1-.013v.01H159.2l-.006-.006,0-.012.006-.038h-.01l0-.006h.008l0-.018.011-.007,0,.025.011,0v.009h-.011l-.006.038v.007h.011Zm.011-.023c0-.014,0-.023.012-.025a.025.025,0,0,1,.021-.01.019.019,0,0,1,.019.01c.006,0,.008.011.006.024a.027.027,0,0,1-.007.018l-.01.012a.054.054,0,0,1-.019,0,.023.023,0,0,1-.022-.033Zm.01,0a.022.022,0,0,0,0,.017.012.012,0,0,0,.012.007.023.023,0,0,0,.015-.007.034.034,0,0,0,.008-.018.092.092,0,0,0,0-.019.02.02,0,0,0-.015,0,.024.024,0,0,0-.015,0,.037.037,0,0,0-.006.02Zm.137.011h.011a.067.067,0,0,1-.015.014.021.021,0,0,1-.017.006.024.024,0,0,1-.022-.009.034.034,0,0,1,0-.024c0-.013,0-.022.013-.024a.026.026,0,0,1,.022-.012.024.024,0,0,1,.02.012s0,.011,0,.024l0,0h-.046a.016.016,0,0,0,0,.016c0,.005.008.006.013.006l.01,0,.009-.01Zm-.033-.018h.035l0-.016-.013,0-.013,0a.033.033,0,0,0-.007.016Zm.053.036.013-.091h.011l-.014.091Zm.039-.077,0-.014h.01l0,.014Zm-.013.077.012-.066h.01l-.01.066Zm.027,0,.012-.066h.01l0,.012.009-.01a.021.021,0,0,1,.012,0l.011,0,.006.01a.022.022,0,0,1,.02-.014.014.014,0,0,1,.013.006s0,.009,0,.018l-.008.044h-.011l.008-.043v-.009l0,0-.009,0-.011,0-.006.015-.008.038h-.009l.006-.043v-.01s0,0-.01,0l-.008,0s0,0-.005.008l-.006.013,0,.033Zm.117-.077v-.014h.01l0,.014Zm-.013.077.011-.066h.009l-.009.066Zm.026,0,.011-.063h.011l0,.009a.027.027,0,0,1,.022-.011l.01,0,.005.008,0,.006v.012l-.009.04h-.009l.005-.04,0-.012,0,0,0,0a.028.028,0,0,0-.015,0s-.008.009-.009.017l-.006.033Zm.109,0-.01.007-.013,0a.02.02,0,0,1-.016-.006l0-.013,0-.009.007-.007.009,0h.009l.019,0,0,0,0-.01-.01,0-.012,0a.012.012,0,0,0-.008.01l-.009,0c0-.006,0-.008.006-.012l.011-.006.013,0,.013,0,.007.005,0,.007,0,.009,0,.017a.057.057,0,0,0,0,.019v.008h-.01l0-.008Zm0-.023-.017,0-.009,0,0,0,0,.005,0,.009h.021l.007-.009s0-.005,0-.011v0Zm.063.031,0-.008a.018.018,0,0,1-.019.009.018.018,0,0,1-.013-.005.019.019,0,0,1-.007-.012v-.018l.006-.019.011-.01a.019.019,0,0,1,.014,0l.012,0,.005.007.007-.033h.009l-.016.09Zm-.026-.031a.031.031,0,0,0,0,.017l.01.006a.019.019,0,0,0,.015-.006.034.034,0,0,0,.007-.017.032.032,0,0,0,0-.022s-.006-.005-.012-.005a.03.03,0,0,0-.013.005.059.059,0,0,0-.007.019Zm.057,0a.032.032,0,0,1,.014-.025.031.031,0,0,1,.021-.008.019.019,0,0,1,.019.012s.006.011,0,.024a.046.046,0,0,1-.007.017.021.021,0,0,1-.012.01.029.029,0,0,1-.016.006.025.025,0,0,1-.023-.036Zm.01,0a.024.024,0,0,0,0,.017.013.013,0,0,0,.013.006.022.022,0,0,0,.014-.006.045.045,0,0,0,.009-.017.038.038,0,0,0,0-.022l-.013,0s-.008,0-.014,0a.056.056,0,0,0-.009.022Zm.088.034.013-.066h.007v.01l.006-.006.007-.006c.006,0,.009,0,.013.006l-.005.009,0,0c-.008,0-.01,0-.011,0l-.006.006,0,.013,0,.034Zm.087-.019.013,0a.041.041,0,0,1-.015.014.023.023,0,0,1-.019.006.02.02,0,0,1-.018-.011c-.006,0-.006-.013,0-.024a.054.054,0,0,1,.013-.025.032.032,0,0,1,.023-.009.025.025,0,0,1,.02.009.041.041,0,0,1,0,.027v0l-.048,0c0,.009,0,.013,0,.018a.013.013,0,0,0,.011.005l.012,0,.007-.009Zm-.03-.019h.035v-.013a.014.014,0,0,0-.013-.007l-.013,0a.025.025,0,0,0-.008.015Zm.051.019H160s0,.008,0,.01l.01,0h.01l.006-.008,0-.005-.01-.005L160,305.67l-.007-.005v-.01l0-.009,0,0,.01,0h.021l.008.006,0,.009-.011,0,0-.009-.009,0s-.009,0-.011,0l0,.006v0l0,0,.008,0,.015.005.006.006v.009a.014.014,0,0,1-.006.01s-.005.007-.011.01h-.012a.021.021,0,0,1-.017-.006.024.024,0,0,1-.006-.017Zm.056.048.017-.091h.01v.008l.009,0,.011,0c.006,0,.009,0,.015,0s0,.007.006.013v.018a.123.123,0,0,1-.008.017.037.037,0,0,1-.013.012.024.024,0,0,1-.015,0l-.009,0-.005-.007-.007.032Zm.02-.057a.033.033,0,0,0,0,.019l.011.006a.015.015,0,0,0,.013-.005.041.041,0,0,0,.009-.02.03.03,0,0,0,0-.019l-.009-.006a.036.036,0,0,0-.015.006.042.042,0,0,0-.009.019Zm.1.016h.009c0,.007-.005.013-.012.015a.026.026,0,0,1-.017.005c-.011,0-.019,0-.022-.009a.037.037,0,0,1,0-.026c0-.011.007-.021.015-.024a.028.028,0,0,1,.023-.008.016.016,0,0,1,.017.01c.006,0,.006.014,0,.024v0h-.048c0,.005,0,.012,0,.015a.012.012,0,0,0,.013.007l.008,0,.01-.009Zm-.031-.02.035,0a.019.019,0,0,0,0-.014.011.011,0,0,0-.01-.006l-.014,0a.034.034,0,0,0-.007.015Zm.067-.036,0-.013h.011l0,.013Zm-.015.077.013-.066h.01l-.013.067Zm.05-.007v.01h0l-.011,0,0-.007,0-.013.007-.038h-.007l0-.009h.006l0-.016.012-.007-.006.023h.012l0,.009h-.01l-.008.039v.008l0,0Zm.051,0-.014.007h-.012a.02.02,0,0,1-.015-.006.018.018,0,0,1,0-.015l0-.009.007,0,.009-.005h.008l.02,0v-.012l-.013-.007-.009,0-.009.011h-.01l.006-.013.013-.006.013,0a.022.022,0,0,1,.013.006l.007,0,0,.01,0,.009,0,.016,0,.018,0,.008h-.011v-.008Zm0-.025s-.009,0-.016,0l-.008.005h-.007l0,0,0,.011.009,0,.009,0a.013.013,0,0,0,.01-.007l0-.012v0Zm.058,0a.052.052,0,0,1,.016-.025.035.035,0,0,1,.022-.006c.008,0,.015,0,.018.01a.028.028,0,0,1,0,.022l-.007.022a.038.038,0,0,1-.014.011.024.024,0,0,1-.014,0,.026.026,0,0,1-.021-.009.04.04,0,0,1,0-.028Zm.012,0c0,.009,0,.016,0,.02a.014.014,0,0,0,.011.008.017.017,0,0,0,.014-.008.042.042,0,0,0,.011-.016.03.03,0,0,0,0-.02c0-.005-.007-.008-.012-.008a.021.021,0,0,0-.015.007.03.03,0,0,0-.009.017Zm.082.061.02-.089h.009l0,.01.01-.008.011,0a.018.018,0,0,1,.013.006s.005.006.005.012a.025.025,0,0,1,0,.017.036.036,0,0,1-.007.018c0,.007-.007.011-.012.013a.038.038,0,0,1-.016,0l-.008,0-.005-.005-.009.029Zm.022-.056a.023.023,0,0,0,0,.019.013.013,0,0,0,.01.009.025.025,0,0,0,.014-.006.037.037,0,0,0,.008-.02.03.03,0,0,0,0-.019l-.01-.006a.027.027,0,0,0-.014,0,.042.042,0,0,0-.009.019Zm.05.038.015-.067h.008l0,.01.009-.007.009,0,.009.006-.005.008,0,0-.011,0,0,.005,0,.013-.008.035-.011,0Zm.044-.031a.049.049,0,0,1,.014-.028.1.1,0,0,1,.022-.005.02.02,0,0,1,.019.011.035.035,0,0,1,0,.024l-.009.02a.019.019,0,0,1-.012.01l-.016,0c-.01,0-.016,0-.02-.009a.036.036,0,0,1,0-.026Zm.01,0a.025.025,0,0,0,0,.021.013.013,0,0,0,.011.005.014.014,0,0,0,.015-.005.038.038,0,0,0,.01-.019v-.019a.018.018,0,0,0-.028,0c-.006,0-.008.009-.01.017Zm.069-.04.006-.013h.008v.013Zm-.033.1,0-.009h0l.008,0,0-.012.015-.068h.011l-.015.07-.007.016a.013.013,0,0,1-.013,0Zm.091-.041h.011a.017.017,0,0,1-.013.013.025.025,0,0,1-.019.007.038.038,0,0,1-.02-.01.046.046,0,0,1,0-.025.033.033,0,0,1,.015-.024.024.024,0,0,1,.023-.009c.008,0,.016,0,.017.009s.006.014,0,.027v0l-.046,0c0,.007,0,.012,0,.016s0,.006.01.006a.018.018,0,0,0,.011,0,.017.017,0,0,0,.008-.01Zm-.029-.021.035,0a.018.018,0,0,0,0-.014.012.012,0,0,0-.01-.005.02.02,0,0,0-.013,0c-.006.005-.008.007-.008.013Z"/><path d="M160.756,305.722h.009a.032.032,0,0,1-.011.017.049.049,0,0,1-.02.005.021.021,0,0,1-.02-.012.033.033,0,0,1,0-.023.025.025,0,0,1,.009-.019.014.014,0,0,1,.01-.01.034.034,0,0,1,.017-.005l.016.007a.019.019,0,0,1,.005.016h-.01l0-.01-.009-.005a.018.018,0,0,0-.015.006s0,.01-.008.019a.033.033,0,0,0,0,.02.015.015,0,0,0,.012,0l.011,0a.016.016,0,0,0,.009-.009Zm.039.016v.01h-.008l-.011,0,0-.005,0-.012.009-.038h-.008l0-.009.008,0,0-.018.013-.005-.005.023h.011l0,.009h-.011l-.009.039v.007h.009Zm.013-.02a.036.036,0,0,1,.013-.027.031.031,0,0,1,.022-.006.026.026,0,0,1,.02.01.035.035,0,0,1,0,.027.061.061,0,0,1-.007.018.036.036,0,0,1-.014.01.047.047,0,0,1-.017,0,.029.029,0,0,1-.018-.012.021.021,0,0,1,0-.024Zm.01,0a.015.015,0,0,0,0,.018.021.021,0,0,0,.012.008.033.033,0,0,0,.015-.007.028.028,0,0,0,.008-.018.019.019,0,0,0,0-.018.011.011,0,0,0-.012-.008.021.021,0,0,0-.015.005.025.025,0,0,0-.008.02Zm.124.042,0-.007a.03.03,0,0,1-.02.008.029.029,0,0,1-.014-.005l-.007-.012a.026.026,0,0,1,0-.018.077.077,0,0,1,.005-.018l.014-.014h.024l.007.01.006-.033h.011l-.021.09Zm-.026-.034,0,.018a.014.014,0,0,0,.01.009l.012-.007c.006,0,.008-.009.01-.017a.066.066,0,0,0,0-.02.011.011,0,0,0-.011-.006.011.011,0,0,0-.012,0,.068.068,0,0,0-.011.019Zm.1.02.01,0c-.005.006-.007.011-.014.015a.034.034,0,0,1-.02,0,.023.023,0,0,1-.018-.012.052.052,0,0,1,0-.026.051.051,0,0,1,.015-.023.024.024,0,0,1,.022-.008.018.018,0,0,1,.017.011.03.03,0,0,1,0,.026l0,0-.046-.007c0,.009,0,.014,0,.019l.01.007.011,0,.011-.01Zm-.032-.02.035,0v-.012a.016.016,0,0,0-.012-.009.018.018,0,0,0-.013,0c-.006,0-.007.008-.01.013Zm.154.021.009.006a.034.034,0,0,1-.017.02.05.05,0,0,1-.026.006.031.031,0,0,1-.02-.009.04.04,0,0,1-.01-.017.09.09,0,0,1,0-.024.043.043,0,0,1,.013-.025.032.032,0,0,1,.017-.014.03.03,0,0,1,.022-.005.023.023,0,0,1,.019.009.034.034,0,0,1,.009.023h-.012c0-.008,0-.013,0-.015s-.007-.006-.013-.009a.047.047,0,0,0-.018.005.035.035,0,0,0-.013.014.044.044,0,0,0-.006.016.046.046,0,0,0,0,.02.02.02,0,0,0,.005.015c.005,0,.008.006.013.006a.045.045,0,0,0,.019-.005.07.07,0,0,0,.014-.018Zm.02,0a.04.04,0,0,1,.017-.026.053.053,0,0,1,.021-.005.03.03,0,0,1,.019.011.027.027,0,0,1,0,.025.049.049,0,0,1-.008.019.02.02,0,0,1-.013.009.023.023,0,0,1-.016,0c-.009,0-.016-.005-.018-.011a.029.029,0,0,1,0-.026Zm.011,0a.033.033,0,0,0,0,.02.018.018,0,0,0,.011.008.014.014,0,0,0,.014-.006c.007,0,.009-.008.013-.017a.034.034,0,0,0,0-.019c0-.006-.005-.007-.011-.007l-.014,0a.033.033,0,0,0-.011.018Zm.05.041.025-.09h.011l-.024.09Zm.068.006,0-.008a.031.031,0,0,1-.023.008l-.011,0,0-.008v-.017l.011-.041h.01l-.01.036,0,.012,0,.005,0,0a.019.019,0,0,0,.011,0l.01-.007.005-.01.009-.038.011,0-.018.065-.009,0Zm.023,0,.018-.065h.011l0,.009.011-.006s.007,0,.012,0l.008,0,.006.011a.022.022,0,0,1,.021-.011c.008,0,.011,0,.013.008l0,.016-.013.046-.01,0,.01-.039,0-.011,0,0,0,0a.021.021,0,0,0-.016,0,.027.027,0,0,0-.008.015l-.01.037h-.008l.01-.042c0-.006,0-.009,0-.011a.013.013,0,0,0-.009-.007l-.007,0-.007.007-.006.014-.009.033Zm.111.014h-.009l.022-.088.013,0-.011.03a.023.023,0,0,1,.02-.005l.011,0,.007.008v.023a.052.052,0,0,1-.016.027.046.046,0,0,1-.022.006c-.007,0-.011-.006-.013-.012l0,.007Zm.008-.033v.018a.009.009,0,0,0,.01.009c.005,0,.009,0,.013,0a.036.036,0,0,0,.011-.019c0-.008,0-.015,0-.017a.01.01,0,0,0-.009-.01.018.018,0,0,0-.014.006.026.026,0,0,0-.01.016Zm.089.04-.012.006h-.013a.032.032,0,0,1-.015-.009.012.012,0,0,1,0-.013l0-.01.008-.005.007,0h.011l.019,0v-.013a.012.012,0,0,0-.01,0h-.011l-.009.009-.009,0,.007-.009.011-.007h.016l.011.005,0,.005,0,.008,0,.009,0,.016-.006.019v.01l-.011,0v-.007Zm.006-.026h-.018l-.009,0-.006,0v.011a.012.012,0,0,0,.009.006l.011,0,.008,0,.006-.012v0Zm.017.038.02-.064h.009l0,.009a.028.028,0,0,1,.024-.007l.008,0,0,.006v.009l0,.01-.01.041h-.011l.012-.041,0-.01,0-.008h0a.03.03,0,0,0-.014,0,.026.026,0,0,0-.011.017l-.01.037-.012,0Zm.072-.022a.054.054,0,0,1,.016-.027.043.043,0,0,1,.021,0,.029.029,0,0,1,.02.011.032.032,0,0,1,0,.027.042.042,0,0,1-.009.019.059.059,0,0,1-.015.009l-.015,0a.031.031,0,0,1-.018-.013.029.029,0,0,1,0-.026Zm.011,0a.026.026,0,0,0,0,.018c0,.006,0,.007.011.01a.014.014,0,0,0,.013,0c.006-.005.007-.009.011-.019s0-.015,0-.019a.012.012,0,0,0-.011-.008.016.016,0,0,0-.013.005c-.006,0-.009.009-.011.018Z"/><path class="c" d="M161.877,306.129a.014.014,0,0,1-.011,0,.022.022,0,0,1-.01-.03l.266-.47a.019.019,0,0,1,.029-.008c.013.006.017.022.009.029l-.264.47a.019.019,0,0,1-.019.013Z"/><path class="e" d="M155.436,301.318c1.488-.02,8.358,4.2,8.379,4.979l-.425.654c-.194-.9-7.165-5.011-8.316-4.933l.362-.7Z"/><path d="M163.434,306.92l.337-.574a.014.014,0,0,1,.019-.005c.006.005.009.011,0,.018l-.36.561Z"/><path d="M155.1,301.985l.309-.636a.016.016,0,0,1,.021-.005.012.012,0,0,1,0,.017l-.334.624Z"/><path class="e" d="M155.031,301.991c.277-.186,2.306.719,4.428,2s4.143,2.735,3.961,3.008l-.06.094-.028.023c.006-.005.036-.042,0-.141-.09-.3-1.526-1.446-3.907-2.884-2.322-1.386-4.256-2.222-4.451-1.983l.06-.118Zm8.825,4.355c.175-.347-1.707-1.765-4.04-3.146-2.388-1.354-4.108-2.152-4.422-1.913l-.072.125c0,.007,0-.007.018-.019a.307.307,0,0,1,.194-.047,14.95,14.95,0,0,1,4.257,1.964c.95.554,4.014,2.52,4,3.074,0,.046,0,.056-.015.081l.077-.119Z"/><path d="M163.341,307.126l-.014-.019,0,0s.03-.031-.007-.126c-.092-.3-1.61-1.491-3.9-2.877a15.439,15.439,0,0,0-4.311-2.02.162.162,0,0,0-.122.035l0-.006a.07.07,0,0,1,.006-.019l.03-.107a.218.218,0,0,1,.126-.031,15.411,15.411,0,0,1,4.321,2.026c1.908,1.156,3.886,2.541,3.975,2.949a.1.1,0,0,1-.009.078l-.061.1-.018.009-.01.015Zm-8.238-5.071a15.341,15.341,0,0,1,4.326,2.025c2.329,1.407,3.817,2.572,3.914,2.89a.275.275,0,0,1,.019.1l.045-.074a.061.061,0,0,0,.007-.056c-.087-.4-2.1-1.807-3.96-2.932a15.5,15.5,0,0,0-4.309-2.022.2.2,0,0,0-.106.022l-.035.072a.17.17,0,0,1,.1-.02Zm8.683,4.41-.007,0h0l-.005-.017,0,0-.008.014.008-.014a.129.129,0,0,0,0-.043c.011-.566-3.111-2.562-4-3.078a15.077,15.077,0,0,0-4.25-1.962.286.286,0,0,0-.183.044h0a.218.218,0,0,1,.178-.072A15,15,0,0,1,159.8,303.3c.626.364,4.023,2.483,4.009,3.087v.01l.037-.057c.162-.316-1.612-1.691-4.035-3.126-2.566-1.453-4.125-2.127-4.407-1.915l-.058.109c-.012,0-.036.013-.036.008l.074-.134a.27.27,0,0,1,.18-.049c.669,0,2.687,1.063,4.261,1.956,2.108,1.249,4.239,2.781,4.046,3.164l-.07.108a.016.016,0,0,1-.013.007Z"/><path class="f" d="M156.594,304.573a2.932,2.932,0,0,0,2.9,2.9,2.909,2.909,0,0,0,2.908-2.9h0V300.7l-5.807-.006v3.881Z"/><path d="M159.493,307.492a2.942,2.942,0,0,1-2.915-2.919v-3.881l5.823-.008.018,3.891a2.928,2.928,0,0,1-2.926,2.917Zm2.893-6.794-5.792.01.017,3.865a2.888,2.888,0,0,0,5.775,0V300.7Z"/><path class="c" d="M156.705,304.578v0a2.785,2.785,0,0,0,5.569,0h0v-3.761h-5.568v3.756Zm4.449-2.63v2.393l0,.252h0a1.784,1.784,0,0,1-.011.207,1.611,1.611,0,0,1-.477.965,1.66,1.66,0,0,1-1.174.486,1.642,1.642,0,0,1-1.167-.494,1.669,1.669,0,0,1-.49-1.172V301.94l3.321.008Z"/><path d="M159.491,307.37a2.808,2.808,0,0,1-2.8-2.789l0-3.759,5.581-.012.013,3.773a2.8,2.8,0,0,1-2.8,2.787Zm2.771-6.548-5.556.012.011,3.744a2.773,2.773,0,0,0,5.545.005v-3.761Zm-2.772,5.442a1.7,1.7,0,0,1-1.672-1.679v-2.656l3.336.006.013,2.406v.253a1.453,1.453,0,0,1-.014.208,1.627,1.627,0,0,1-.478.972,1.66,1.66,0,0,1-1.184.49Zm-1.646-4.31,0,2.631a1.646,1.646,0,0,0,2.81,1.172,1.627,1.627,0,0,0,.474-.958,1.762,1.762,0,0,0,.011-.205l0-2.646-3.3.006Z"/><path class="g" d="M159.14,304.15h0a.414.414,0,0,0,.107.28.357.357,0,0,0,.26.117.352.352,0,0,0,.259-.116.411.411,0,0,0,.109-.281v-.525h-.733l0,.526Z"/><path class="f" d="M159.715,303.753a.074.074,0,0,0-.074.073.075.075,0,0,0,.074.072.074.074,0,0,0,.072-.072.073.073,0,0,0-.072-.073Z"/><path class="f" d="M159.511,303.947a.074.074,0,0,0-.073.074.073.073,0,0,0,.146,0,.074.074,0,0,0-.073-.074Z"/><path class="f" d="M159.715,304.15a.077.077,0,0,0-.075.075.074.074,0,0,0,.075.072.072.072,0,0,0,.072-.072.075.075,0,0,0-.072-.075Z"/><path class="f" d="M159.316,304.153a.072.072,0,0,0,0,.144.072.072,0,1,0,0-.144Z"/><path class="f" d="M159.316,303.753a.071.071,0,0,0-.073.07.072.072,0,0,0,.073.073.073.073,0,0,0,.074-.073.072.072,0,0,0-.074-.07Z"/><path class="g" d="M159.137,305.413h0a.4.4,0,0,0,.108.279.343.343,0,0,0,.258.116.349.349,0,0,0,.26-.116.4.4,0,0,0,.106-.278v-.526l-.732,0v.527Z"/><path class="f" d="M159.711,305.016a.072.072,0,0,0,0,.144.072.072,0,1,0,0-.144Z"/><path class="f" d="M159.507,305.211a.07.07,0,0,0-.072.072.072.072,0,1,0,.143,0,.07.07,0,0,0-.071-.072Z"/><path class="f" d="M159.711,305.414a.072.072,0,1,0,0,.145.073.073,0,0,0,0-.145Z"/><path class="f" d="M159.312,305.414a.073.073,0,0,0,0,.146.073.073,0,1,0,0-.146Z"/><path class="f" d="M159.312,305.015a.072.072,0,1,0,0,.145.073.073,0,1,0,0-.145Z"/><path class="g" d="M158.122,304.153h0a.417.417,0,0,0,.108.279.352.352,0,0,0,.259.116.339.339,0,0,0,.258-.115.4.4,0,0,0,.109-.278v-.527h-.732l0,.526Z"/><path class="f" d="M158.7,303.755a.073.073,0,0,0-.072.073.072.072,0,0,0,.072.072.074.074,0,0,0,.074-.072.076.076,0,0,0-.074-.073Z"/><path class="f" d="M158.493,303.951a.072.072,0,0,0,0,.144.072.072,0,1,0,0-.144Z"/><path class="f" d="M158.7,304.155a.072.072,0,1,0,.072.072.072.072,0,0,0-.072-.072Z"/><path class="f" d="M158.3,304.155a.073.073,0,1,0,0,.146.073.073,0,1,0,0-.146Z"/><path class="f" d="M158.3,303.755a.073.073,0,0,0-.071.072.072.072,0,1,0,.144,0,.073.073,0,0,0-.073-.072Z"/><path class="g" d="M160.155,304.153h0a.407.407,0,0,0,.107.279.353.353,0,0,0,.259.116.345.345,0,0,0,.259-.116.4.4,0,0,0,.109-.279v-.526h-.733l0,.526Z"/><path class="f" d="M160.73,303.755a.071.071,0,0,0-.074.072.073.073,0,1,0,.074-.072Z"/><path class="f" d="M160.525,303.95a.072.072,0,1,0,0,.145.073.073,0,1,0,0-.145Z"/><path class="f" d="M160.728,304.153a.072.072,0,0,0-.072.074.071.071,0,0,0,.072.072.073.073,0,0,0,.074-.072.074.074,0,0,0-.074-.074Z"/><path class="f" d="M160.333,304.155a.072.072,0,1,0,0,.144.072.072,0,0,0,0-.144Z"/><path class="f" d="M160.332,303.755a.073.073,0,0,0-.074.072.075.075,0,0,0,.074.073.073.073,0,0,0,.072-.073.071.071,0,0,0-.072-.072Z"/><path class="g" d="M159.14,302.88h0a.408.408,0,0,0,.107.276.357.357,0,0,0,.26.117.346.346,0,0,0,.259-.117.414.414,0,0,0,.109-.276v-.528h-.735v.528Z"/><path class="f" d="M159.715,302.479a.074.074,0,0,0-.074.074.072.072,0,0,0,.074.07.071.071,0,0,0,.072-.07.073.073,0,0,0-.072-.074Z"/><path class="f" d="M159.511,302.676a.072.072,0,0,0-.073.071.073.073,0,0,0,.073.073.072.072,0,0,0,.071-.073.071.071,0,0,0-.071-.071Z"/><path class="f" d="M159.713,302.88a.073.073,0,0,0-.073.07.075.075,0,0,0,.073.074.074.074,0,0,0,.074-.074.072.072,0,0,0-.074-.07Z"/><path class="f" d="M159.316,302.88a.072.072,0,0,0,0,.144.072.072,0,1,0,0-.144Z"/><path class="f" d="M159.316,302.479a.072.072,0,0,0-.073.074.071.071,0,0,0,.073.07.072.072,0,0,0,.074-.07.073.073,0,0,0-.074-.074Z"/><path class="e" d="M157.064,301.8a.345.345,0,0,1,.2-.336.334.334,0,0,1,.209.337Z"/><path class="e" d="M156.9,301.474l-.033.31h.2a.271.271,0,0,1,.2-.3.3.3,0,0,1,.2.3h.2l-.039-.313-.734,0Z"/><path d="M157.684,301.8h-.216a.325.325,0,0,0-.2-.3.267.267,0,0,0-.185.287l-.216.011.021-.324.746-.011.052.337Zm-.439-.317-.347,0-.021.3.191-.011a.266.266,0,0,1,.177-.293Zm.039,0a.313.313,0,0,1,.2.3l.176-.011-.035-.3-.337.006Z"/><path class="e" d="M156.852,301.784h.828a.038.038,0,0,1,.032.04.036.036,0,0,1-.032.038h-.828a.036.036,0,0,1-.032-.038.038.038,0,0,1,.032-.04Z"/><path d="M157.68,301.874h-.828a.051.051,0,0,1,0-.1h.828a.051.051,0,0,1,0,.1Zm-.828-.077v.051h.828a.022.022,0,0,0,.02-.024l-.848-.027Z"/><path class="e" d="M157.153,301.784a.215.215,0,0,1,.11-.209.217.217,0,0,1,.115.209Z"/><path d="M157.391,301.8h-.238a.144.144,0,1,1,.238-.011v.011Zm-.131-.208a.218.218,0,0,0-.094.2l.2-.011a.2.2,0,0,0-.108-.186Z"/><path class="e" d="M156.869,301.345h.795a.033.033,0,0,1,.03.035.032.032,0,0,1-.03.033h-.795a.032.032,0,0,1-.031-.033.033.033,0,0,1,.031-.035Z"/><path d="M157.664,301.424h-.795a.045.045,0,0,1,0-.09h.795a.045.045,0,0,1,0,.09Zm-.795-.067v.043h.795a.018.018,0,0,0,.018-.02l-.813-.023Z"/><path class="e" d="M156.886,301.413h.759a.033.033,0,0,1,.03.035.032.032,0,0,1-.03.035h-.759a.031.031,0,0,1-.029-.035.032.032,0,0,1,.029-.035Z"/><path d="M157.645,301.5h-.759a.049.049,0,0,1,0-.1h.759a.048.048,0,0,1,0,.1Zm-.759-.072v.047h.759c.009,0,.017-.011.017-.023l-.776-.024Z"/><path class="e" d="M157.131,300.9h.06v.043h.044V300.9h.062v.043h.044V300.9h.06v.1a.026.026,0,0,1-.027.026h-.216a.029.029,0,0,1-.027-.027v-.1Z"/><path d="M157.374,301.03h-.226l-.03-.037v-.1l.073-.014.012.057.032-.014-.012-.029.074-.014.013.057.031-.014-.013-.029.073-.014.013.125-.04.023Zm-.193-.134-.05.011.013.086.23.027.017-.026v-.1l-.05.011.012.032-.056.012-.013-.055-.049.011.013.032-.057.012-.01-.055Z"/><path class="e" d="M157.357,301.027l.015.316h-.214l.017-.318.183,0Z"/><path d="M157.384,301.355h-.226l0-.33.195-.01.027.34Zm-.039-.328-.17.01,0,.307.185-.013-.012-.3Z"/><path class="e" d="M157.393,301.05h.058v.042h.043v-.043h.061v.043h.043v-.043h.058v.1a.027.027,0,0,1-.026.028h-.21a.028.028,0,0,1-.027-.028v-.1Z"/><path d="M157.63,301.185h-.223l-.027-.039v-.1l.071-.013.013.055.03-.012-.012-.031.073-.013.012.056.031-.012-.012-.031.07-.013.013.123-.039.026Zm-.192-.135-.045.013.012.083.225.028.015-.028v-.1l-.047.012.01.031-.053.013-.013-.056-.048.012.011.031-.054.013-.013-.055Z"/><path class="e" d="M157.619,301.174l.007.17h-.2l.006-.17Z"/><path d="M157.639,301.355h-.215l-.006-.184.2-.012.02.2Zm-.033-.181-.176.011.006.159.177-.013-.007-.157Z"/><path class="e" d="M156.873,301.05h.06v.043h.043v-.044h.06v.043h.043v-.044h.061v.1a.028.028,0,0,1-.03.028h-.21a.03.03,0,0,1-.027-.028v-.1Z"/><path d="M157.11,301.185h-.222l-.027-.039v-.1l.072-.013.012.056.031-.012-.013-.032.073-.012.012.056.031-.012-.013-.032.074-.013.01.123-.04.026Zm-.19-.134-.047.012.011.083.226.028.017-.028v-.1l-.048.012.013.032-.056.012-.013-.055-.047.011.011.032-.054.012-.013-.054Z"/><path class="e" d="M157.1,301.174l.006.17h-.2l0-.17Z"/><path d="M157.12,301.356h-.214l-.008-.185.2-.012.02.2Zm-.032-.182-.177.011.006.159.178-.01-.007-.16Z"/><path d="M157.245,301.128a.02.02,0,1,1,.04,0v.074h-.04v-.074Z"/><path d="M157.505,301.235a.02.02,0,1,1,.039,0v.058h-.039v-.058Z"/><path d="M156.983,301.235a.021.021,0,1,1,.042,0v.06h-.042v-.06Z"/><path class="e" d="M159.366,300.9h.062v.043h.042V300.9h.062v.043h.045V300.9h.061v.1a.027.027,0,0,1-.027.026h-.217a.029.029,0,0,1-.028-.026v-.1Z"/><path d="M159.611,301.031h-.228l-.03-.037v-.1l.075-.014.011.057.031-.013-.013-.03.075-.014.013.057.032-.013-.013-.03.074-.014.012.125-.039.024Zm-.2-.135-.048.011.013.087.232.026.014-.026v-.1l-.048.011.011.032-.056.012-.013-.055-.049.011.012.032-.054.012-.014-.055Z"/><path class="e" d="M159.593,301.027l.013.316H159.4l.015-.316Z"/><path d="M159.617,301.355H159.4l0-.33.2-.008.024.338Zm-.037-.328-.169.012,0,.3.186-.013-.013-.3Z"/><path class="e" d="M159.629,301.05h.056v.042h.044v-.043h.06v.043h.042v-.043h.062v.1a.026.026,0,0,1-.026.028h-.212a.028.028,0,0,1-.026-.028v-.1Z"/><path d="M159.866,301.185h-.223l-.028-.039v-.1l.07-.013.013.056.031-.012-.011-.032.071-.013.013.057.029-.012-.012-.032.074-.013.011.123-.038.026Zm-.191-.135-.046.013.011.083.226.028.016-.028v-.1l-.051.012.013.032-.055.012-.012-.056-.048.012.012.032-.056.012-.01-.055Z"/><path class="e" d="M159.855,301.174l.007.17h-.2l.006-.17Z"/><path d="M159.648,301.356l.006-.185.2-.012.02.185-.227.012Zm.194-.182-.177.011.007.146h.19l-.02-.157Z"/><path class="e" d="M159.11,301.051h.059v.042h.043v-.043h.058v.043h.042v-.043h.063v.1a.025.025,0,0,1-.025.025h-.212a.028.028,0,0,1-.027-.028v-.1Z"/><path d="M159.349,301.185h-.224l-.027-.039v-.1l.071-.014.01.056.033-.012-.013-.031.071-.013.013.056.029-.012-.011-.031.073-.013.013.122-.038.026Zm-.193-.134-.046.012.013.083.226.028.012-.025v-.1l-.049.013.014.03-.056.012-.012-.055-.046.013.013.03-.056.012-.013-.054Z"/><path class="e" d="M159.337,301.174l0,.17h-.2l.006-.17Z"/><path d="M159.353,301.356h-.213l-.005-.182.2-.013.016.195Zm-.029-.182-.177.011,0,.159.177-.01,0-.16Z"/><path class="e" d="M159.3,301.8a.229.229,0,1,1,.4,0l-.4,0Z"/><path class="e" d="M159.135,301.474l-.034.31h.2a.271.271,0,0,1,.2-.3.3.3,0,0,1,.2.3h.2l-.035-.313-.734,0Z"/><path d="M159.919,301.8H159.7a.321.321,0,0,0-.2-.3.272.272,0,0,0-.187.287l-.214.013.023-.324.746-.013.05.337Zm-.441-.317-.343.007-.024.3.191-.011a.271.271,0,0,1,.176-.293Zm.041,0a.315.315,0,0,1,.2.3l.176-.011-.037-.3-.337.006Z"/><path class="e" d="M159.086,301.784h.83c.018,0,.031.02.031.04a.034.034,0,0,1-.031.038h-.83c-.016,0-.029-.016-.029-.038s.013-.04.029-.04Z"/><path d="M159.916,301.875h-.83a.047.047,0,0,1-.042-.051.047.047,0,0,1,.042-.051h.83a.048.048,0,0,1,.044.051.049.049,0,0,1-.044.051Zm-.83-.078v.054h.83c.011,0,.019-.012.019-.027l-.849-.027Z"/><path class="e" d="M159.39,301.784a.215.215,0,0,1,.109-.209.221.221,0,0,1,.116.209Z"/><path d="M159.627,301.8h-.237c-.013-.181.1-.231.1-.232a.215.215,0,0,1,.132.219v.013Zm-.132-.21a.221.221,0,0,0-.093.2l.2-.011a.2.2,0,0,0-.107-.186Z"/><path class="e" d="M159.106,301.345h.793a.033.033,0,0,1,.031.035.032.032,0,0,1-.031.033h-.793a.032.032,0,0,1-.032-.033.033.033,0,0,1,.032-.035Z"/><path d="M159.9,301.426H159.1a.045.045,0,0,1-.042-.046.043.043,0,0,1,.042-.046h.795a.043.043,0,0,1,.043.046.045.045,0,0,1-.043.046Zm-.795-.069v.044h.795a.021.021,0,0,0,.019-.021l-.814-.023Z"/><path class="e" d="M159.123,301.413h.759a.033.033,0,0,1,.028.036.032.032,0,0,1-.028.034h-.759a.033.033,0,0,1-.031-.034.034.034,0,0,1,.031-.036Z"/><path d="M159.882,301.5h-.759a.048.048,0,0,1,0-.1h.759a.048.048,0,0,1,0,.1Zm-.759-.07v.045h.759c.01,0,.015-.009.015-.022l-.774-.023Z"/><path d="M159.482,301.128c0-.031.041-.031.041,0v.075h-.041v-.075Z"/><path d="M159.741,301.235a.02.02,0,1,1,.039,0v.06h-.039v-.06Z"/><path d="M159.221,301.236a.02.02,0,1,1,.039,0v.059h-.039v-.059Z"/><path class="e" d="M161.578,300.9h.061v.042h.043V300.9h.062v.044h.042V300.9h.061v.1a.024.024,0,0,1-.026.025H161.6a.027.027,0,0,1-.027-.025v-.1Z"/><path d="M161.821,301.032h-.227l-.029-.037v-.1l.074-.014.009.056.034-.011-.012-.033.074-.012.013.056.029-.011-.013-.033.074-.012.012.123-.038.025Zm-.195-.134-.048.01.012.087.231.025.015-.025v-.1l-.05.012.013.032-.055.013-.013-.057-.049.012.011.032-.054.013-.013-.055Z"/><path class="e" d="M161.8,301.027l.014.317h-.211l.013-.316Z"/><path d="M161.831,301.357h-.224v-.329l.2-.01.026.34Zm-.039-.33-.172.014v.3l.185-.011-.013-.307Z"/><path class="e" d="M161.838,301.053h.06v.042h.041v-.044H162v.044h.043v-.044h.06v.1a.024.024,0,0,1-.024.026h-.213a.026.026,0,0,1-.026-.026l0-.1Z"/><path d="M162.079,301.188h-.225l-.027-.039v-.1l.071-.014.011.056.03-.014-.012-.03.073-.014.013.058.03-.014-.011-.03.071-.014.013.124-.037.027Zm-.193-.135-.048.011.013.085.228.026.012-.026v-.1l-.048.012.013.032-.056.01-.013-.054-.048.012.013.032-.054.01-.012-.052Z"/><path class="e" d="M162.066,301.175l.007.17h-.2l0-.17Z"/><path d="M162.084,301.357h-.214l0-.183.2-.013.018.2Zm-.03-.182-.177.013.006.157.176-.011-.005-.159Z"/><path class="e" d="M161.32,301.053h.058v.042h.045v-.042h.057v.042h.046v-.042h.059v.1a.027.027,0,0,1-.027.028h-.21a.029.029,0,0,1-.028-.028v-.1Z"/><path d="M161.558,301.188h-.223l-.026-.039v-.1l.069-.013.013.055.032-.013-.013-.029.07-.014.013.056.033-.013-.012-.029.071-.014.012.122-.039.027Zm-.191-.135-.047.012.013.084.225.028.014-.028v-.1l-.046.011.012.031-.058.011-.011-.053-.046.011.01.031-.055.011-.011-.053Z"/><path class="e" d="M161.547,301.177l.008.169h-.2l.007-.169Z"/><path d="M161.567,301.357h-.215l-.008-.182.2-.014.02.2Zm-.032-.18-.177.011.006.158.176-.012,0-.157Z"/><path class="e" d="M161.51,301.8a.34.34,0,0,1,.2-.334.334.334,0,0,1,.207.337l-.406,0Z"/><path class="e" d="M161.344,301.474l-.032.312h.2a.278.278,0,0,1,.2-.3.3.3,0,0,1,.2.3h.2l-.035-.312Z"/><path d="M162.131,301.8h-.218a.318.318,0,0,0-.2-.3.266.266,0,0,0-.187.287l-.214.011.021-.323.748-.012.05.335Zm-.441-.316-.346.006-.02.3.19-.013a.271.271,0,0,1,.176-.292Zm.039,0a.31.31,0,0,1,.2.3l.177-.01-.034-.3-.339.006Z"/><path class="e" d="M161.3,301.786h.829a.037.037,0,0,1,.032.039.035.035,0,0,1-.032.038H161.3c-.019,0-.031-.016-.031-.038s.012-.039.031-.039Z"/><path d="M162.127,301.876H161.3a.047.047,0,0,1-.043-.051.046.046,0,0,1,.043-.051h.829a.049.049,0,0,1,.045.051.05.05,0,0,1-.045.051Zm-.829-.078v.054h.829c.01,0,.019-.013.019-.027l-.848-.027Z"/><path class="e" d="M161.6,301.784a.213.213,0,0,1,.11-.206.215.215,0,0,1,.118.206Z"/><path d="M161.838,301.8H161.6c-.011-.18.1-.231.107-.231a.212.212,0,0,1,.132.22v.011Zm-.132-.208a.227.227,0,0,0-.1.2l.2-.01a.2.2,0,0,0-.106-.185Z"/><path class="e" d="M161.316,301.346h.795a.034.034,0,0,1,.03.036.032.032,0,0,1-.03.033h-.795a.033.033,0,0,1-.031-.033.034.034,0,0,1,.031-.036Z"/><path d="M162.111,301.427h-.795a.046.046,0,0,1-.044-.045.047.047,0,0,1,.044-.048h.795a.044.044,0,0,1,.04.048.042.042,0,0,1-.04.045Zm-.795-.069v.045h.795a.019.019,0,0,0,.018-.021l-.813-.024Z"/><path class="e" d="M161.331,301.415h.762a.034.034,0,0,1,.029.034.032.032,0,0,1-.029.034h-.762a.03.03,0,0,1-.028-.034.032.032,0,0,1,.028-.034Z"/><path d="M162.093,301.5h-.762a.045.045,0,0,1-.04-.047.043.043,0,0,1,.04-.046h.762a.043.043,0,0,1,.041.046.045.045,0,0,1-.041.047Zm-.762-.069v.044h.762c.009,0,.016-.009.016-.022l-.778-.022Z"/><path d="M161.69,301.128a.022.022,0,1,1,.044,0v.077h-.044v-.077Z"/><path d="M161.95,301.238a.021.021,0,1,1,.041,0v.057h-.041v-.057Z"/><path d="M161.43,301.238a.022.022,0,1,1,.043,0v.058h-.043v-.058Z"/><path class="e" d="M157.135,303.162h.056v.044h.044v-.045h.064v.045h.042v-.045h.062v.1a.026.026,0,0,1-.029.024h-.216a.024.024,0,0,1-.023-.024v-.1Z"/><path d="M157.374,303.3h-.226l-.027-.036v-.1l.07-.013.012.057.032-.012-.01-.033.074-.012.011.057.031-.012-.011-.033.073-.012.011.122-.04.025Zm-.193-.134-.046.011.01.087.229.024.017-.024v-.1l-.05.012.012.033-.054.01-.014-.055-.05.012.013.033-.057.01-.01-.054Z"/><path class="e" d="M157.357,303.293l.016.316h-.211l.013-.315h.183Z"/><path d="M157.385,303.621h-.223v-.327l.195-.012.028.34Zm-.038-.328-.172.012v.3l.186-.01-.014-.306Z"/><path class="e" d="M157.394,303.315h.057v.044h.043v-.044h.061v.044h.043v-.044h.06v.1a.025.025,0,0,1-.026.024h-.211a.026.026,0,0,1-.027-.024v-.1Z"/><path d="M157.632,303.45h-.222l-.028-.035v-.1l.069-.01.013.054.03-.012-.011-.032.072-.011.012.055.031-.012-.01-.032.07-.011.011.122-.037.024Zm-.192-.135-.046.012.011.088.227.024.015-.024v-.1l-.049.012.01.032-.053.012-.011-.056-.05.012.013.032-.056.012-.011-.056Z"/><path class="e" d="M157.621,303.439l.007.171h-.2l.006-.171Z"/><path d="M157.639,303.62h-.215l0-.181.2-.012.018.193Zm-.031-.181-.178.011.006.159.179-.01-.007-.16Z"/><path class="e" d="M156.875,303.318h.058v.041h.044v-.044h.059v.044h.043v-.044h.061v.1a.026.026,0,0,1-.028.025h-.21a.027.027,0,0,1-.027-.025v-.1Z"/><path d="M157.114,303.452h-.222l-.027-.037v-.1l.068-.013.012.054.032-.01-.012-.034.071-.01.012.054.033-.01-.013-.034.072-.01.01.122-.036.025Zm-.192-.134-.047.009.011.088.228.025.015-.025v-.1l-.048.012.011.032-.056.013-.011-.057-.048.012.01.032-.054.013-.011-.054Z"/><path class="e" d="M157.1,303.44l.008.171h-.2l0-.171Z"/><path d="M157.12,303.621h-.214l-.006-.182.2-.011.018.193Zm-.028-.181-.181.012.008.158.177-.01,0-.16Z"/><path class="e" d="M157.064,304.07a.341.341,0,0,1,.2-.335.334.334,0,0,1,.209.337l-.408,0Z"/><path class="e" d="M156.9,303.74l-.033.312h.2a.278.278,0,0,1,.2-.3.3.3,0,0,1,.2.3h.2l-.035-.314-.736,0Z"/><path d="M157.685,304.063h-.217a.311.311,0,0,0-.2-.3.266.266,0,0,0-.185.288l-.214.011.021-.325.748-.012.049.337Zm-.44-.318-.345.007-.023.3.191-.015a.27.27,0,0,1,.177-.293Zm.039,0a.31.31,0,0,1,.2.3l.176-.011-.033-.3-.339.006Z"/><path class="e" d="M156.852,304.052h.83a.036.036,0,0,1,.031.038.037.037,0,0,1-.031.039h-.83a.036.036,0,0,1-.032-.039.035.035,0,0,1,.032-.038Z"/><path d="M157.682,304.141h-.83a.049.049,0,0,1-.044-.051.05.05,0,0,1,.044-.051h.83a.05.05,0,0,1,.045.051.049.049,0,0,1-.045.051Zm-.83-.078v.052h.83c.01,0,.019-.01.019-.025l-.849-.027Z"/><path class="e" d="M157.153,304.05a.218.218,0,0,1,.113-.209.224.224,0,0,1,.116.209Z"/><path d="M157.394,304.063h-.241c-.009-.18.1-.233.113-.233a.224.224,0,0,1,.127.222v.011Zm-.133-.208a.215.215,0,0,0-.1.195l.2-.011a.2.2,0,0,0-.109-.184Z"/><path class="e" d="M156.87,303.61h.795a.033.033,0,0,1,.029.035.031.031,0,0,1-.029.035h-.795a.031.031,0,0,1-.03-.035.033.033,0,0,1,.03-.035Z"/><path d="M157.665,303.692h-.795a.044.044,0,0,1-.043-.047.043.043,0,0,1,.043-.046h.795a.043.043,0,0,1,.041.046.045.045,0,0,1-.041.047Zm-.795-.069v.043h.795a.02.02,0,0,0,.019-.021l-.814-.022Z"/><path class="e" d="M156.888,303.68h.757a.035.035,0,0,1,0,.069h-.757a.032.032,0,0,1-.031-.034.033.033,0,0,1,.031-.035Z"/><path d="M157.645,303.762h-.757a.046.046,0,0,1-.043-.047.048.048,0,0,1,.043-.049h.757a.047.047,0,0,1,.043.049.046.046,0,0,1-.043.047Zm-.757-.07v.044h.757a.02.02,0,0,0,.019-.021l-.776-.023Z"/><path d="M157.246,303.394a.022.022,0,1,1,.043,0v.074h-.043v-.074Z"/><path d="M157.505,303.5a.021.021,0,1,1,.041,0v.057h-.041V303.5Z"/><path d="M156.985,303.5a.02.02,0,1,1,.04,0v.057h-.04V303.5Z"/><path class="e" d="M161.449,305.554l.041.043-.03.03.03.028.03-.028.043.043-.028.03.03.031.03-.03.046.044-.071.07a.03.03,0,0,1-.037,0l-.154-.155a.028.028,0,0,1,0-.039l.069-.067Z"/><path d="M161.553,305.833l-.029-.012-.16-.161,0-.046.07-.069.061.043-.03.046.03.012.015-.028.058.044-.03.047.032.015.012-.032.062.043-.1.1Zm-.115-.27-.051.067.166.191.008-.017.07-.069-.045-.025-.012.03-.048-.031.031-.047-.043-.028-.015.031-.048-.031.029-.046-.042-.025Z"/><path class="e" d="M161.514,305.807l-.212.232-.149-.148.234-.215Z"/><path d="M161.3,306.058l-.158-.16.234-.23.144.13-.22.26Zm.076-.373-.218.213.14.125.205-.225-.127-.113Z"/><path class="e" d="M161.522,305.848l.041.042-.028.029.028.03.032-.031.044.042-.032.032.032.031.029-.031.043.043-.068.069a.029.029,0,0,1-.039,0l-.148-.149a.028.028,0,0,1,0-.037l.069-.068Z"/><path d="M161.624,306.123l-.029-.012-.157-.158.007-.046.069-.068.058.041-.03.048.03.013.014-.031.061.043-.032.048.032.013.012-.031.062.043-.1.1Zm-.11-.268-.05.07.16.186.007-.016.071-.069-.043-.025-.012.031L161.6,306l.031-.048-.044-.026-.014.031-.046-.03.031-.048-.043-.025Z"/><path class="e" d="M161.595,306.095l-.114.125-.142-.143.123-.117.133.135Z"/><path d="M161.48,306.236l-.152-.15.125-.135.151.135-.124.15Zm-.027-.266-.1.116.132.116.106-.116-.133-.116Z"/><path class="e" d="M161.154,305.48l.042.041-.029.032.029.03.032-.03.042.041-.03.031.03.03.032-.032.042.045-.07.069a.029.029,0,0,1-.037,0l-.147-.151a.024.024,0,0,1,0-.036l.066-.07Z"/><path d="M161.257,305.756l-.028-.011-.149-.155,0-.05.069-.069.058.042-.028.048.028.013.014-.03.06.041-.031.049.031.012.013-.031.061.043-.1.1Zm-.11-.268-.05.071.16.186.009-.015.069-.072-.043-.026-.013.033-.048-.031.031-.049-.043-.024-.014.03-.047-.031.031-.047-.042-.025Z"/><path class="e" d="M161.229,305.728l-.115.125-.143-.143.123-.116Z"/><path d="M161.114,305.87l-.151-.15.125-.136.149.136-.123.15Zm-.028-.268-.108.118.136.116.1-.116-.133-.118Z"/><path class="e" d="M160.76,306.148a.334.334,0,0,1,.376-.1.34.34,0,0,1-.092.387l-.284-.291Z"/><path class="e" d="M160.875,305.8l-.244.2.142.143a.276.276,0,0,1,.354-.071.3.3,0,0,1-.07.352l.143.145.2-.249-.52-.518Z"/><path d="M161.2,306.581l-.154-.153a.32.32,0,0,0,.069-.355h0a.263.263,0,0,0-.117-.028.313.313,0,0,0-.218.1l-.159-.141.245-.216.536.519-.2.274Zm-.058-.507a.3.3,0,0,1,.023.093.333.333,0,0,1-.1.261l.135.118.187-.239-.243-.233Zm-.278-.268-.228.2.144.124a.307.307,0,0,1,.332-.082l-.248-.24Z"/><path class="e" d="M160.622,305.985l.585.586a.036.036,0,0,1,0,.049.038.038,0,0,1-.051.006l-.586-.587a.036.036,0,0,1,.006-.05.036.036,0,0,1,.05,0Z"/><path d="M161.173,306.646l-.029-.012-.586-.586a.051.051,0,0,1,0-.067l.038-.017.615.6a.047.047,0,0,1,0,.065l-.039.018Zm-.6-.617.6.6.021-.02-.582-.618-.046.044.009-.01Z"/><path class="e" d="M160.834,306.2a.135.135,0,1,1,.162.16l-.162-.16Z"/><path d="M161,306.374l-.17-.169c.124-.154.236-.089.238-.089a.213.213,0,0,1-.059.249l-.009.009Zm.009-.241a.224.224,0,0,0-.16.072l.149.135a.2.2,0,0,0,.056-.206s-.018,0-.045,0Z"/><path class="e" d="M160.944,305.685l.562.562a.033.033,0,0,1,0,.047.037.037,0,0,1-.047,0l-.562-.564a.03.03,0,0,1,0-.043.036.036,0,0,1,.048-.005Z"/><path d="M161.479,306.317l-.03-.011-.561-.564a.044.044,0,0,1,0-.061l.064-.005.563.563a.053.053,0,0,1,0,.062l-.035.016Zm-.544-.623-.03.032.574.578.016-.019-.56-.591Z"/><path class="e" d="M160.907,305.745l.538.538a.032.032,0,0,1,0,.045.03.03,0,0,1-.044,0l-.538-.538a.033.033,0,0,1,0-.044c.014-.013.033-.017.044-.005Z"/><path d="M161.416,306.352l-.029-.012-.537-.536a.046.046,0,0,1,0-.063l.063,0,.537.537a.045.045,0,0,1,0,.063l-.035.015Zm-.516-.6-.032.029.548.556.017-.018-.533-.567Z"/><path d="M161.366,305.792c.019-.023.05.006.028.029l-.052.054-.03-.03.054-.053Z"/><path d="M161.471,306.052a.02.02,0,1,1,.028.028l-.039.042-.03-.029.041-.041Z"/><path d="M161.1,305.683a.021.021,0,1,1,.03.03l-.041.041-.031-.029.042-.042Z"/><path class="e" d="M161.576,303.162h.059v.044h.043v-.044h.062v.044h.043v-.044h.063v.1a.029.029,0,0,1-.028.026H161.6a.028.028,0,0,1-.026-.027v-.1Z"/><path d="M161.818,303.3h-.228l-.027-.037v-.1l.072-.013.012.057.031-.013-.013-.031.075-.013.013.057.03-.013-.014-.031.077-.013.011.124-.039.024Zm-.2-.135-.046.013.01.085.232.027.014-.026v-.1l-.049.012.012.032-.055.011-.013-.055-.049.012.012.032-.055.011-.013-.055Z"/><path class="e" d="M161.8,303.3l.014.315h-.21l.013-.316Z"/><path d="M161.827,303.621H161.6v-.328l.195-.012.028.34Zm-.039-.325-.171.009v.3l.186-.01-.015-.3Z"/><path class="e" d="M161.836,303.318h.059v.041h.04v-.044H162v.044h.045v-.044h.059v.1a.025.025,0,0,1-.025.025h-.212a.027.027,0,0,1-.027-.025v-.1Z"/><path d="M162.075,303.452h-.224l-.028-.037v-.1l.072-.013.013.054.027-.012-.01-.032L162,303.3l.014.055.031-.012-.015-.032.074-.011.012.123-.037.025Zm-.192-.134-.047.01.011.087.228.025.012-.025v-.1l-.046.012.011.032-.056.013-.012-.057-.049.012.013.032-.053.013-.012-.054Z"/><path class="e" d="M162.062,303.44l.006.171h-.2l0-.171Z"/><path d="M162.081,303.621h-.215l-.007-.182.2-.012.019.194Zm-.031-.181-.179.012.008.158.177-.011-.006-.159Z"/><path class="e" d="M161.317,303.318h.057v.041h.045v-.044h.058v.044h.045v-.044h.06v.1a.025.025,0,0,1-.027.025h-.211a.026.026,0,0,1-.027-.025v-.1Z"/><path d="M161.555,303.452h-.224l-.026-.037v-.1l.069-.013.013.054.032-.012-.013-.032.071-.011.013.055.032-.012-.012-.032.072-.011.012.123-.039.025Zm-.191-.134-.047.01.011.087.227.025.015-.025v-.1l-.048.012.013.032-.058.013-.01-.057-.048.012.011.032-.056.013-.01-.054Z"/><path class="e" d="M161.543,303.44l.008.171h-.2l.006-.171Z"/><path d="M161.335,303.623l.007-.184.2-.011.02.181-.228.014Zm.2-.183-.178.012.007.147h.191l-.02-.159Z"/><path class="e" d="M161.508,304.07a.229.229,0,1,1,.4,0l-.4,0Z"/><path class="e" d="M161.342,303.74l-.033.312h.2a.28.28,0,0,1,.2-.3.3.3,0,0,1,.2.3h.2l-.035-.313Z"/><path d="M162.127,304.063h-.218a.314.314,0,0,0-.2-.3.272.272,0,0,0-.187.288l-.213.011.019-.324.747-.012.052.336Zm-.439-.317-.346.007-.022.3.19-.014a.268.268,0,0,1,.178-.293Zm.041,0a.318.318,0,0,1,.193.307l.176-.012-.034-.3-.335.005Z"/><path class="e" d="M161.294,304.053h.829a.039.039,0,0,1,0,.076h-.829a.039.039,0,0,1,0-.076Z"/><path d="M162.123,304.141h-.829a.048.048,0,0,1-.044-.049.049.049,0,0,1,.044-.052h.829a.049.049,0,0,1,.045.052.048.048,0,0,1-.045.049Zm-.829-.076v.05h.829a.022.022,0,0,0,.021-.023l-.85-.027Z"/><path class="e" d="M161.6,304.052a.212.212,0,0,1,.112-.208.218.218,0,0,1,.116.208Z"/><path d="M161.836,304.063H161.6a.146.146,0,1,1,.241-.011v.011Zm-.134-.208a.218.218,0,0,0-.1.2l.2-.013a.194.194,0,0,0-.107-.184Z"/><path class="e" d="M161.312,303.611h.795a.033.033,0,0,1,.03.034.033.033,0,0,1-.03.035h-.795a.033.033,0,0,1-.031-.035.034.034,0,0,1,.031-.034Z"/><path d="M162.107,303.692h-.795a.046.046,0,0,1-.043-.047.044.044,0,0,1,.043-.045h.795a.042.042,0,0,1,.042.045.045.045,0,0,1-.042.047Zm-.795-.068v.042h.795a.019.019,0,0,0,.018-.021l-.813-.021Z"/><path class="e" d="M161.328,303.68h.761a.033.033,0,0,1,.029.036.032.032,0,0,1-.029.034h-.761a.032.032,0,0,1-.028-.034.032.032,0,0,1,.028-.036Z"/><path d="M162.087,303.762h-.759a.044.044,0,0,1-.041-.046.047.047,0,0,1,.041-.05h.759a.049.049,0,0,1,.044.05.045.045,0,0,1-.044.046Zm-.759-.07v.046h.759a.02.02,0,0,0,.018-.022l-.777-.024Z"/><path d="M161.688,303.394a.022.022,0,1,1,.043,0v.077h-.043v-.077Z"/><path d="M161.948,303.5a.021.021,0,1,1,.041,0v.057h-.041V303.5Z"/><path d="M161.429,303.5a.019.019,0,1,1,.038,0v.06h-.038v-.06Z"/><path class="e" d="M157.352,305.741l.042-.042.03.031.031-.032-.031-.03.044-.045.032.032.03-.032-.03-.031.042-.043.069.069a.025.025,0,0,1,0,.037l-.152.153a.029.029,0,0,1-.039,0l-.068-.069Z"/><path d="M157.436,305.83l-.026-.013-.067-.067.042-.06.047.03.014-.03-.03-.014.045-.061.048.03.012-.031-.031-.013.043-.061.1.078-.011.047-.183.165Zm-.051-.122-.024.042.075.066.013-.018.153-.152-.069-.088-.024.043.029.013-.029.05-.048-.032-.029.044.032.014-.032.047-.047-.029Z"/><path class="e" d="M157.6,305.674l.232.215-.148.147-.214-.232Z"/><path d="M157.688,306.055l-.222-.245.13-.145.25.214-.158.176Zm-.092-.372-.113.13.205.206.139-.139-.231-.2Z"/><path class="e" d="M157.645,305.665l.042-.042.03.031.031-.031-.033-.03.045-.041.03.029.03-.029-.03-.032.043-.041.069.069a.022.022,0,0,1,0,.035l-.151.15a.026.026,0,0,1-.037,0l-.068-.068Z"/><path d="M157.731,305.754l-.025-.012-.069-.068.041-.059.049.03.011-.03-.03-.013.042-.06.05.03.011-.03-.032-.014.045-.06.088.076,0,.048-.179.162Zm-.053-.122-.024.042.077.067.013-.017.148-.149-.068-.088-.026.041.031.014-.029.048-.05-.031-.025.043.031.013-.029.047-.049-.03Z"/><path class="e" d="M157.894,305.592l.123.116-.141.144-.118-.124Z"/><path d="M157.874,305.868l-.124-.135.135-.15.141.116-.152.169Zm.011-.267-.118.132.107.1.134-.134-.123-.1Z"/><path class="e" d="M157.278,306.032l.041-.04.033.031.03-.031-.032-.032.043-.042.03.03.032-.03-.032-.029.041-.044.071.069a.024.024,0,0,1,0,.035l-.15.152a.029.029,0,0,1-.037,0l-.07-.07Z"/><path d="M157.366,306.12l-.027-.01-.07-.068.041-.06.051.031.012-.031-.032-.012.044-.061.047.032.014-.031-.032-.014.043-.058.087.072,0,.048-.176.162ZM157.31,306l-.025.043.081.066.01-.016.15-.15-.069-.088-.025.042.03.014-.03.047-.047-.03-.026.043.03.012-.028.047-.051-.03Z"/><path class="e" d="M157.526,305.958l.124.116-.142.145-.116-.125Z"/><path d="M157.509,306.235l-.127-.133.136-.153.142.116-.151.17Zm.01-.267-.12.134.11.1.133-.134-.123-.1Z"/><path class="e" d="M157.945,306.431a.342.342,0,0,1-.1-.378.334.334,0,0,1,.384.092l-.289.286Z"/><path class="e" d="M157.6,306.315l.2.244.143-.145a.273.273,0,0,1-.07-.353.3.3,0,0,1,.352.072l.143-.146-.247-.194-.517.522Z"/><path d="M157.79,306.575l-.2-.253.519-.538.262.2-.141.162a.388.388,0,0,0-.235-.1.283.283,0,0,0-.121.027h0a.271.271,0,0,0,.073.332l-.153.17Zm.052-.5-.24.248.19.217.134-.135a.277.277,0,0,1-.108-.252.345.345,0,0,1,.024-.078Zm.149-.054a.343.343,0,0,1,.235.1l.126-.141-.247-.179-.231.243a.286.286,0,0,1,.117-.024Z"/><path class="e" d="M157.783,306.567l.584-.585a.04.04,0,0,1,.051,0,.04.04,0,0,1,.005.051l-.586.586a.039.039,0,0,1-.054-.055Z"/><path d="M157.816,306.643l-.037-.017a.055.055,0,0,1-.005-.067l.584-.586c.044-.013.058-.006.069.006a.054.054,0,0,1,0,.067l-.615.6Zm.574-.658-.6.592-.005.04.029.012.011-.016.587-.586,0-.042Z"/><path class="e" d="M157.995,306.352a.134.134,0,1,1,.159-.158l-.159.158Z"/><path d="M157.995,306.371l-.009-.009a.22.22,0,0,1-.07-.239c.015-.015.122-.062.247.062l-.168.186Zm-.064-.231a.219.219,0,0,0,.064.2l.151-.152a.251.251,0,0,0-.215-.045Z"/><path class="e" d="M157.483,306.244l.562-.561a.032.032,0,0,1,.047,0,.035.035,0,0,1,0,.046l-.562.561a.029.029,0,0,1-.045,0,.034.034,0,0,1,0-.046Z"/><path d="M157.512,306.313l-.035-.021,0-.057.561-.561.065,0a.049.049,0,0,1,0,.064l-.59.573Zm0-.026v.013l.011-.017.561-.56.008-.038h-.026l-.574.568-.006.037.026,0Z"/><path class="e" d="M157.544,306.281l.536-.538a.033.033,0,0,1,.046,0,.031.031,0,0,1,0,.046l-.537.538a.031.031,0,0,1-.044,0c-.013-.013-.017-.035,0-.045Z"/><path d="M157.574,306.35l-.036-.016a.044.044,0,0,1,0-.061l.539-.54.061,0a.048.048,0,0,1,.006.063l-.567.55Zm0-.025v.012l.01-.015.538-.539,0-.037H158.1l-.548.543,0,.036Z"/><path d="M157.6,305.817c-.022-.02.006-.051.03-.029l.052.055-.029.028-.053-.054Z"/><path d="M157.856,305.711a.02.02,0,1,1,.029-.028l.041.041-.029.028-.041-.041Z"/><path d="M157.488,306.079a.021.021,0,1,1,.03-.028l.041.041-.029.028-.042-.041Z"/></g></g></g></svg>