<svg xmlns="http://www.w3.org/2000/svg" xmlns:xlink="http://www.w3.org/1999/xlink" width="33.563" height="19.578" viewBox="0 0 33.563 19.578"><defs><style>.a{fill:none;}.b{clip-path:url(#a);}.c{fill:#fff;}.d{fill:#223e84;}.e{fill:#bc0030;}.f{clip-path:url(#d);}.g{clip-path:url(#e);}.h{clip-path:url(#f);}.i{clip-path:url(#g);}.j{clip-path:url(#h);}.k{clip-path:url(#i);}.l{clip-path:url(#j);}.m{fill:#f5cd28;}.n{fill:#272015;}.o{fill:#999396;}.p{fill:#347c63;}.q{fill:#1a4104;}.r{fill:#1a4204;}.s{fill:#c0003b;}.t{clip-path:url(#k);}.u{clip-path:url(#l);}.v{clip-path:url(#m);}.w{clip-path:url(#n);}.x{clip-path:url(#o);}</style><clipPath id="a"><rect class="a" width="33.563" height="19.578" transform="translate(564.746 217.965)"/></clipPath><clipPath id="d"><rect class="a" width="0.771" height="0.858" transform="translate(583.002 225.306)"/></clipPath><clipPath id="e"><rect class="a" width="0.865" height="0.553" transform="translate(582.76 225.159)"/></clipPath><clipPath id="f"><rect class="a" width="1.529" height="0.638" transform="translate(581.854 224.965)"/></clipPath><clipPath id="g"><rect class="a" width="0.773" height="0.858" transform="translate(579.285 225.298)"/></clipPath><clipPath id="h"><rect class="a" width="0.865" height="0.552" transform="translate(579.435 225.151)"/></clipPath><clipPath id="i"><rect class="a" width="1.529" height="0.637" transform="translate(579.678 224.958)"/></clipPath><clipPath id="j"><rect class="a" width="1.439" height="0.502" transform="translate(580.813 224.715)"/></clipPath><clipPath id="k"><rect class="a" width="0.836" height="0.451" transform="translate(582.992 229.425)"/></clipPath><clipPath id="l"><rect class="a" width="0.92" height="0.346" transform="translate(582.539 229.294)"/></clipPath><clipPath id="m"><rect class="a" width="0.838" height="0.451" transform="translate(579.238 229.425)"/></clipPath><clipPath id="n"><rect class="a" width="0.916" height="0.346" transform="translate(579.613 229.294)"/></clipPath><clipPath id="o"><rect class="a" width="3.049" height="0.614" transform="translate(580.004 228.933)"/></clipPath></defs><g transform="translate(-564.746 -217.965)"><g class="b"><g class="b"><rect class="c" width="33.563" height="19.578" transform="translate(564.746 217.965)"/><rect class="d" width="14.385" height="7.522" transform="translate(564.746 217.965)"/><rect class="e" width="14.385" height="7.554" transform="translate(564.746 229.989)"/><rect class="d" width="14.387" height="7.554" transform="translate(583.922 229.989)"/><rect class="e" width="14.387" height="7.522" transform="translate(583.922 217.965)"/><g class="b"><path d="M583.832,226.295a.241.241,0,0,0-.1-.21c.022-.028.127.03.139.208l-.037,0Z"/><path d="M583.781,226.307a.241.241,0,0,0-.1-.21c.021-.028.127.03.135.208l-.034,0Z"/><path d="M583.727,226.311a.246.246,0,0,0-.1-.211c.02-.029.127.032.135.209l-.033,0Z"/><path d="M583.676,226.329a.24.24,0,0,0-.106-.21c.024-.027.129.03.139.207l-.033,0Z"/><path d="M583.619,226.352a.246.246,0,0,0-.1-.209c.021-.03.127.03.136.209Z"/><path d="M583.568,226.379a.246.246,0,0,0-.1-.209c.021-.027.127.03.133.209Z"/><g class="f"><path class="d" d="M583.773,226.076a1.7,1.7,0,0,0-.3-.622,2.41,2.41,0,0,0-.377-.148l-.094.213s.291.142.352.275a1.908,1.908,0,0,1,.1.37s.131-.054.174-.069.14-.006.14-.019Z"/></g><path d="M583.449,226.188l0-.019a2.094,2.094,0,0,0-.1-.369c-.059-.124-.342-.264-.344-.266l.086-.233a1.275,1.275,0,0,1,.4.142,1.8,1.8,0,0,1,.3.628c0,.028-.019.029-.062.029a.3.3,0,0,0-.086.008l-.174.072-.018.008Zm-.433-.664a.716.716,0,0,1,.351.262,1.793,1.793,0,0,1,.106.355c.041-.017.121-.05.156-.063a.334.334,0,0,1,.1-.011c-.149-.47-.227-.559-.264-.6a1.652,1.652,0,0,0-.369-.148l-.078.2v0Z"/><g class="g"><path class="d" d="M583.625,225.712a1.287,1.287,0,0,0-.5-.089c-.107-.026-.336-.087-.361-.142s.2-.322.2-.322l.156.16c.1.1.338.01.42.191Z"/></g><path d="M583.625,225.731h-.01a.849.849,0,0,0-.349-.079h-.039a.405.405,0,0,1-.112-.008c-.244-.062-.355-.108-.373-.154s.129-.26.2-.344l.184.158a.27.27,0,0,0,.164.055.3.3,0,0,1,.264.145l.092.2a.027.027,0,0,1,0,.023l-.016.005Zm-.359-.123a.825.825,0,0,1,.316.063l-.068-.152c-.047-.093-.135-.1-.229-.12a.289.289,0,0,1-.189-.066l-.155-.159c-.066.119-.171.269-.16.3s.063.056.344.13a.394.394,0,0,0,.066.006l.075,0Z"/><path d="M583.266,225.624a.857.857,0,0,1-.274-.1.793.793,0,0,0-.125-.053c-.072-.022-.1.013-.1.015-.028-.022.011-.075.1-.046a.573.573,0,0,1,.131.054c.084.039.258.12.279.093l.03.019a.065.065,0,0,1-.049.018Z"/><g class="h"><path class="d" d="M581.938,224.979a3.488,3.488,0,0,1,.828.028c.388.065.613.207.617.294a.458.458,0,0,1-.09.3c-.012-.005,0-.078-.1-.105a6.114,6.114,0,0,0-.654-.174c-.121-.005-.461.01-.512.006s-.177-.034-.177-.093a1.056,1.056,0,0,1,.084-.257Z"/></g><path d="M583.285,225.616l-.015-.026a.1.1,0,0,0-.075-.075l-.1-.029a4.2,4.2,0,0,0-.557-.147h-.066l-.233,0-.174,0-.039,0c-.008,0-.2-.021-.2-.108a1.28,1.28,0,0,1,.082-.265,2.154,2.154,0,0,1,.348-.022,2.7,2.7,0,0,1,.5.041c.388.068.628.21.628.311a.522.522,0,0,1-.083.307l-.03.008Zm-.808-.311h.066a4.021,4.021,0,0,1,.568.148l.09.027a.127.127,0,0,1,.1.088.524.524,0,0,0,.066-.267c0-.075-.215-.212-.6-.281a2.869,2.869,0,0,0-.5-.039c-.145,0-.258.008-.309.011a.757.757,0,0,0-.09.243c0,.039.1.068.164.075h.209c.084,0,.17-.005.237-.005Z"/><path d="M582.139,225.28l-.018,0a.2.2,0,0,1-.09-.026.158.158,0,0,0-.088-.022c-.046.006-.054.035-.054.035-.035-.009-.022-.059.051-.069a.144.144,0,0,1,.1.027.337.337,0,0,0,.08.023l.047.009,0-.032.026-.006.011.01-.017.042a.1.1,0,0,1-.045.011Z"/><path d="M579.229,226.287l-.038,0a.277.277,0,0,1,.122-.237c.013.032-.081.083-.084.239Z"/><path d="M579.279,226.3h-.037a.264.264,0,0,1,.125-.238c.01.031-.082.081-.088.238Z"/><path d="M579.334,226.3l-.033,0a.277.277,0,0,1,.119-.238c.012.033-.08.083-.086.24Z"/><path d="M579.387,226.321h-.035a.279.279,0,0,1,.119-.239c.011.031-.08.082-.084.239Z"/><path d="M579.441,226.346l-.035,0a.285.285,0,0,1,.119-.239c.014.032-.076.083-.084.241Z"/><path d="M579.492,226.373h-.035a.283.283,0,0,1,.123-.239c.01.03-.08.081-.088.24Z"/><g class="i"><path class="d" d="M579.285,226.069a1.692,1.692,0,0,1,.305-.624,2.257,2.257,0,0,1,.375-.147l.094.213s-.289.143-.352.274a2.07,2.07,0,0,0-.109.371l-.174-.071c-.043-.016-.139,0-.139-.016Z"/></g><path d="M579.613,226.18l-.019-.007-.174-.073a.49.49,0,0,0-.09-.007c-.041,0-.062,0-.062-.024a1.821,1.821,0,0,1,.3-.628,1.913,1.913,0,0,1,.385-.159l.115.223c-.009.023-.293.162-.351.287a1.849,1.849,0,0,0-.1.367l0,.021Zm-.226-.117a.169.169,0,0,1,.045.006c.033.014.115.049.156.065a1.583,1.583,0,0,1,.1-.356c.063-.134.35-.274.36-.281l-.1-.191a2.816,2.816,0,0,0-.347.151,1.838,1.838,0,0,0-.3.619.345.345,0,0,1,.086-.013Z"/><g class="j"><path class="d" d="M579.435,225.7a1.29,1.29,0,0,1,.506-.087c.11-.027.334-.088.36-.143s-.2-.322-.2-.322l-.153.16c-.1.1-.336.01-.42.193Z"/></g><path d="M579.435,225.723a.019.019,0,0,1-.015-.005.032.032,0,0,1,0-.024l.09-.2a.288.288,0,0,1,.262-.143.269.269,0,0,0,.165-.056l.153-.16c.1.087.256.286.232.345s-.129.092-.375.156a.291.291,0,0,1-.074.007h-.078a.83.83,0,0,0-.348.079Zm.653-.558-.119.16a.306.306,0,0,1-.194.068c-.093.013-.181.024-.228.118l-.068.154a.8.8,0,0,1,.314-.063h.041a.293.293,0,0,0,.1-.006c.272-.069.338-.109.344-.131a.9.9,0,0,0-.191-.3Z"/><path d="M579.793,225.616a.061.061,0,0,1-.047-.018l.029-.019c.022.029.194-.052.276-.092a.794.794,0,0,1,.134-.056c.094-.029.135.024.135.027-.023.015-.045,0-.08,0a.165.165,0,0,0-.049.009,1.174,1.174,0,0,0-.125.054.838.838,0,0,1-.273.1Z"/><g class="k"><path class="d" d="M581.125,224.971a3.556,3.556,0,0,0-.832.027c-.387.067-.611.208-.615.294a.42.42,0,0,0,.092.3c.009-.006,0-.078.093-.1a5.617,5.617,0,0,1,.657-.175c.115-.005.46.011.509.005s.178-.033.178-.093a1.171,1.171,0,0,0-.082-.256Z"/></g><path d="M579.77,225.61l-.024-.008a.546.546,0,0,1-.086-.31c0-.1.242-.243.631-.31a2.673,2.673,0,0,1,.5-.041c.144,0,.264.008.311.011a.528.528,0,0,1,.125.275c0,.088-.186.11-.194.11l-.043,0-.17,0c-.084,0-.172-.007-.236-.007l-.064,0a4.591,4.591,0,0,0-.571.148l-.082.024a.1.1,0,0,0-.078.078l-.019.027Zm1.021-.634a2.611,2.611,0,0,0-.494.039c-.387.068-.6.206-.6.278a.507.507,0,0,0,.067.271.121.121,0,0,1,.1-.09l.082-.025a4.537,4.537,0,0,1,.575-.151h.068c.064,0,.152,0,.236,0l.17,0c.106-.008.2-.038.2-.078a1.125,1.125,0,0,0-.081-.248c-.054,0-.174,0-.318,0Z"/><path d="M580.926,225.273c-.059,0-.063-.037-.067-.054l.034-.02,0,.015c0,.017,0,.03.038.024a.172.172,0,0,0,.081-.024.184.184,0,0,1,.1-.024c.076.009.086.06.086.062-.027.009-.039-.025-.086-.029a.148.148,0,0,0-.084.021.318.318,0,0,1-.093.029Z"/><g class="l"><path class="d" d="M581.516,224.715c-.534.007-.678.083-.7.174a.989.989,0,0,0,.063.328s.09-.169.644-.164.665.153.665.153a1.607,1.607,0,0,0,.064-.323c0-.082-.229-.171-.736-.168Z"/></g><path d="M580.875,225.256l-.012-.033a.929.929,0,0,1-.062-.337c.023-.085.125-.181.715-.188.457,0,.742.073.754.184a2.125,2.125,0,0,1-.065.328h0a1.253,1.253,0,0,0-.678-.14h0c-.537,0-.626.153-.63.157l-.018.029Zm.619-.221c.522,0,.67.123.7.155-.005-.041.047-.236.045-.3s-.2-.156-.707-.156c-.447.005-.672.059-.7.165a.74.74,0,0,0,.055.287c.047-.047.2-.147.609-.147Z"/><path class="m" d="M582.256,225.244l.021-.223.022,0-.018.194.078.008v.025Z"/><rect class="m" width="0.222" height="0.023" transform="translate(582.391 225.255) rotate(-85.461)"/><path class="m" d="M582.592,225.27l.037-.221.119.02,0,.026-.1-.016-.01.068.09.013,0,.025-.09-.014-.012.074.1.018,0,.023Z"/><path class="m" d="M582.938,225.351l.068-.185-.051-.017.008-.025.123.042-.008.024-.055-.017-.064.184Z"/><path class="m" d="M582.469,225.236l.043,0,.015,0,.016-.006.006-.01a.036.036,0,0,0,.008-.02.03.03,0,0,0,0-.02l-.01-.017-.027-.005-.036,0Zm.011-.1.036,0a.033.033,0,0,0,.023,0,.023.023,0,0,0,.014-.01.027.027,0,0,0,0-.018.041.041,0,0,0,0-.019.026.026,0,0,0-.012-.013s-.01-.005-.025-.006l-.032-.005Zm-.033.127.022-.223.062.006a.059.059,0,0,1,.029.012.04.04,0,0,1,.018.02v.03a.032.032,0,0,1-.008.026.04.04,0,0,1-.017.019c.01,0,.013.012.021.023a.077.077,0,0,1,0,.032.075.075,0,0,1-.008.03.046.046,0,0,1-.013.019.033.033,0,0,1-.018.01.057.057,0,0,1-.029,0Z"/><path class="m" d="M582.8,225.181l.047.01a.03.03,0,0,0,.021,0,.031.031,0,0,0,.02-.009.025.025,0,0,0,.006-.017.041.041,0,0,0,0-.027.024.024,0,0,0-.022-.017l-.051-.013Zm-.055.112.062-.213.069.021a.072.072,0,0,1,.033.014l.01.025a.1.1,0,0,1,0,.034.054.054,0,0,1-.021.034.042.042,0,0,1-.04.011l.01.014a.091.091,0,0,1,.008.035l.012.065-.026-.008-.007-.05c0-.014,0-.025-.008-.034s0-.014-.006-.014l-.008-.011-.012,0-.025-.008-.025.1Z"/><path class="m" d="M583.2,225.427l.032.013.025,0a.036.036,0,0,0,.018-.007.109.109,0,0,0,.023-.021c.006-.012.01-.025.017-.04a.217.217,0,0,0,.01-.054c0-.013,0-.023-.01-.029a.082.082,0,0,0-.025-.014l-.033-.01Zm-.033.016.076-.208.055.019a.045.045,0,0,1,.027.013.089.089,0,0,1,.02.022.07.07,0,0,1,0,.041.142.142,0,0,1-.012.054c-.008.014-.016.028-.022.041a.133.133,0,0,1-.021.025l-.019.015a.078.078,0,0,1-.024,0,.1.1,0,0,1-.027-.005Z"/><path class="m" d="M583.078,225.306l.051.019.008-.063a.166.166,0,0,1,0-.048l-.024.038Zm-.076.072.135-.19.025.008-.015.232-.022-.008,0-.071-.064-.021-.042.056Z"/><path class="m" d="M581.461,225.009v-.2h-.06v-.026h.145v.026h-.061v.2Z"/><path class="m" d="M581.766,225.009l.012-.223.022,0-.008.221Z"/><path class="m" d="M581.088,224.923l.047-.01a.054.054,0,0,0,.033-.015.071.071,0,0,0,0-.031.094.094,0,0,0-.012-.023l-.013-.009a.117.117,0,0,0-.026,0l-.047.008Zm0,.117-.043-.217.068-.012a.118.118,0,0,1,.03,0,.035.035,0,0,1,.021,0,.03.03,0,0,1,.018.02.062.062,0,0,1,.015.026.124.124,0,0,1-.007.052.065.065,0,0,1-.047.028l-.047.009.017.089Z"/><path class="m" d="M581.27,224.913l.064,0-.025-.061c-.008-.017-.014-.033-.018-.044a.164.164,0,0,1-.008.044Zm-.043.1.05-.225.028,0,.092.216-.026,0-.029-.065-.076,0-.016.068Z"/><path class="m" d="M581.592,224.886h.055a.118.118,0,0,0,.025,0c.008,0,.013-.009.013-.015a.029.029,0,0,0,.005-.019c0-.011,0-.021-.006-.025a.035.035,0,0,0-.03-.012h-.062Zm-.022.123v-.223h.08a.1.1,0,0,1,.04.007.04.04,0,0,1,.017.021.052.052,0,0,1,.008.034.072.072,0,0,1-.012.04.048.048,0,0,1-.039.018l.016.013.021.03.029.06H581.7l-.021-.047-.02-.029-.013-.016-.012-.005h-.043v.1Z"/><path class="m" d="M581.906,224.935l.063.01-.008-.063a.238.238,0,0,1-.006-.048c0,.014-.012.026-.017.039Zm-.068.08.109-.206.026,0,.035.231-.028,0-.007-.07-.076-.012-.034.061Z"/><path class="m" d="M580.2,225.318l-.031-.22.021,0,.033.221Z"/><path class="m" d="M580.457,225.2l.022-.005a.033.033,0,0,0,.011.028.021.021,0,0,0,.018.014.045.045,0,0,0,.029.005.057.057,0,0,0,.026-.008.02.02,0,0,0,.013-.014.034.034,0,0,0,0-.02.057.057,0,0,0-.006-.017.044.044,0,0,0-.019-.012l-.032-.007a.219.219,0,0,1-.037-.011.043.043,0,0,1-.021-.019c-.008-.008-.008-.016-.012-.026s0-.023,0-.033a.125.125,0,0,1,.022-.023.084.084,0,0,1,.033-.013.218.218,0,0,1,.039,0c.012.007.023.013.025.024a.074.074,0,0,1,.016.032l-.026.005a.05.05,0,0,0-.015-.031.043.043,0,0,0-.035-.006c-.016,0-.026,0-.03.011a.03.03,0,0,0-.007.025.022.022,0,0,0,.007.017.082.082,0,0,0,.037.013.343.343,0,0,1,.043.011.041.041,0,0,1,.026.021.05.05,0,0,1,.01.029.064.064,0,0,1,0,.036.042.042,0,0,1-.022.026.067.067,0,0,1-.035.012.122.122,0,0,1-.045-.005.117.117,0,0,1-.027-.024.06.06,0,0,1-.012-.04Z"/><path class="m" d="M580.242,225.188a.123.123,0,0,1,.012-.089.079.079,0,0,1,.059-.041.075.075,0,0,1,.046.007.074.074,0,0,1,.039.037.2.2,0,0,1,.02.057.109.109,0,0,1,0,.062.078.078,0,0,1-.025.044.074.074,0,0,1-.041.019.082.082,0,0,1-.051-.008.1.1,0,0,1-.035-.037.113.113,0,0,1-.02-.051Zm.028,0a.1.1,0,0,0,.023.059.063.063,0,0,0,.049.017.065.065,0,0,0,.043-.031.136.136,0,0,0,.008-.067.139.139,0,0,0-.016-.046.058.058,0,0,0-.025-.028.046.046,0,0,0-.032-.006.049.049,0,0,0-.045.028.126.126,0,0,0-.005.074Z"/><path class="m" d="M580.037,225.341l.035-.011a.164.164,0,0,0,.03-.012s.011-.011.011-.016a.042.042,0,0,0,0-.031.1.1,0,0,0-.008-.044.109.109,0,0,0-.025-.046.069.069,0,0,0-.029-.018.125.125,0,0,0-.033.005l-.036.011Zm-.015.034-.069-.212.063-.019.031-.008a.048.048,0,0,1,.029.008.058.058,0,0,1,.033.03.163.163,0,0,1,.026.049c0,.015.006.029.01.042a.1.1,0,0,1,0,.036.086.086,0,0,1-.01.024.057.057,0,0,1-.018.016.055.055,0,0,1-.029.011Z"/><path class="c" d="M579.986,225.753l.287.273v2.2a.4.4,0,0,0,.374.365h.466a.507.507,0,0,0,.848,0l.508.007a.4.4,0,0,0,.338-.372v-2.2l.283-.273Z"/><path d="M581.537,228.851l-.014-.021a.505.505,0,0,0-.41-.222h-.466a.424.424,0,0,1-.393-.382v-2.2l-.279-.262,3.115-.031-.274.3,0,2.189a.394.394,0,0,1-.115.265.334.334,0,0,1-.236.124h0l-.512-.007h0a.5.5,0,0,0-.4.222l-.016.021Zm1.541-3.111-3.092.029.293.245.008,2.212a.391.391,0,0,0,.36.348h.466a.534.534,0,0,1,.424.216.525.525,0,0,1,.414-.216l.518.007h0a.313.313,0,0,0,.215-.114.367.367,0,0,0,.1-.241v-2.2l.289-.286Z"/><path class="e" d="M581.773,225.753v1.28h1.033v-1.007l.283-.273Z"/><path d="M582.813,227.044h-1.04l-.011-1.291,1.328-.012-.277.293v1.01Zm.269-1.3-1.309.02.012,1.27,1.01-.01v-1l.287-.283Z"/><path class="d" d="M579.986,225.753H581.3v1.28h-1.027v-1.007Z"/><path d="M581.313,227.044h-1.04l-.015-1.018-.279-.268,1.322-.017.012,1.3Zm-.022-1.291-1.3.01.289.257,0,1.013,1.012-.01v-1.27Z"/><path class="e" d="M580.273,227.492H581.3v1.145l-.094-.046h-.56a.4.4,0,0,1-.374-.365Z"/><path d="M581.313,228.653l-.11-.052h-.556a.408.408,0,0,1-.389-.376v-.734l1.043-.012.012,1.173Zm-.022-1.161-1.018.011.006.723a.393.393,0,0,0,.368.355h.56l.084.039v-1.128Z"/><path class="d" d="M582.807,227.492h-1.034v1.145l.09-.046h.567a.4.4,0,0,0,.377-.365Z"/><path d="M581.762,228.653v-1.161l1.045-.012.006.746a.4.4,0,0,1-.383.376h-.567l-.1.051Zm1.033-1.161-1.022.011.012,1.117.074-.039h.571a.391.391,0,0,0,.365-.355v-.734Z"/><path d="M581.537,228.851l-.014-.021a.505.505,0,0,0-.41-.222h-.466a.424.424,0,0,1-.393-.382v-2.2l-.279-.262,3.115-.031-.274.3,0,2.189a.394.394,0,0,1-.115.265.334.334,0,0,1-.236.124h0l-.512-.007h0a.5.5,0,0,0-.4.222l-.016.021Zm1.541-3.111-3.092.029.293.245.008,2.212a.391.391,0,0,0,.36.348h.466a.534.534,0,0,1,.424.216.525.525,0,0,1,.414-.216l.518.007h0a.313.313,0,0,0,.215-.114.367.367,0,0,0,.1-.241v-2.2l.289-.286Z"/><path class="m" d="M581.49,226.484v.367h.094v-.367h.1v-.091h-.1V226.3h-.094v.093H581.4v.091Z"/><path d="M581.6,226.866h-.11l-.017-.382-.076.017-.018-.107.111-.017-.017-.076.111-.017.016.11.08-.017.017.107-.113.017.016.365Zm-.11-.4.018.384.058-.013v-.355l.114-.016-.02-.074-.076.016-.018-.109-.076.017.018.076-.111.016.017.074.076-.016Z"/><path class="n" d="M581.57,226.959l-.746-.988.047-.038.746.988-.047.038Z"/><path class="m" d="M580.816,225.972l-.08-.168.152.126Z"/><path class="e" d="M581.236,226.686c0,.013-.093.379-.093.379a1.853,1.853,0,0,0,.291.027,1.9,1.9,0,0,0-.059-.268,1.209,1.209,0,0,1-.139-.138Z"/><path class="c" d="M580.99,226.435l-.05.5s.337.3.33.257-.026-.5-.026-.5Z"/><path class="d" d="M580.711,226.136l-.018.546a2.564,2.564,0,0,0,.3.219c0-.022.03-.443.03-.443Z"/><path d="M580.707,226.595l-.017-.466.033,0-.016.464Z"/><path class="n" d="M581.531,226.991l-.883-.879.045-.044.881.879-.043.044Z"/><path class="m" d="M580.646,226.113l-.105-.155.17.1Z"/><path class="c" d="M580.551,226.3v1.376a.485.485,0,0,0,.472.457,3.345,3.345,0,0,0,.467-.092v-1.009Z"/><path d="M581,228.149a.5.5,0,0,1-.467-.472V226.3l.969.719.006,1.022a1.867,1.867,0,0,1-.485.107Zm-.459-1.835.029,1.363a.466.466,0,0,0,.43.439v.018l.02-.018a3.246,3.246,0,0,0,.466-.092l-.013-.991-.932-.719Z"/><path class="e" d="M580.551,227.4v.277a.485.485,0,0,0,.472.457,3.345,3.345,0,0,0,.467-.092c-.189-.092-.66.184-.66-.55a.346.346,0,0,1-.279-.092Z"/><path class="d" d="M580.846,226.516l-.016.793a1.1,1.1,0,0,1-.279-.092V226.3Z"/><path class="e" d="M581.1,226.742v.613a.364.364,0,0,1,.179.032l.213.087v-.443Z"/><path class="d" d="M581.469,227.677a1.6,1.6,0,0,0-.262-.109.467.467,0,0,0-.119.005,1.226,1.226,0,0,0,0,.148c0,.054.092.081.119.081s.266-.027.266-.027Z"/><path d="M581,228.149a.5.5,0,0,1-.467-.472V226.3l.969.719.006,1.022a1.867,1.867,0,0,1-.485.107Zm-.459-1.835.029,1.363a.466.466,0,0,0,.43.439v.018l.02-.018a3.246,3.246,0,0,0,.466-.092l-.013-.991-.932-.719Z"/><path class="n" d="M581.484,227.056l-.98-.776.041-.049.975.776-.035.049Z"/><path class="m" d="M580.5,226.281l-.115-.143.178.085Z"/><path class="n" d="M581.519,226.942l-.051-.037.75-.988.047.038-.746.987Z"/><path class="m" d="M582.273,225.955l.08-.169-.152.126Z"/><path class="e" d="M581.854,226.671c0,.011.093.376.093.376a2,2,0,0,1-.293.03c.006-.017.043-.253.057-.269a1.169,1.169,0,0,0,.143-.137Z"/><path class="c" d="M582.1,226.419l.05.5s-.341.295-.334.258.03-.5.03-.5Z"/><path class="d" d="M582.379,226.119l.018.546a2.552,2.552,0,0,1-.3.218c0-.02-.03-.443-.03-.443Z"/><path d="M582.418,226.577l-.051-.464h.037l.014.465Z"/><path class="n" d="M581.559,226.977l-.047-.046.881-.88.049.046-.883.88Z"/><path class="m" d="M582.443,226.1l.105-.156-.17.1Z"/><path class="c" d="M582.539,226.285v1.374a.484.484,0,0,1-.473.457,3.062,3.062,0,0,1-.466-.092v-1.007Z"/><path d="M582.088,228.134h-.022a3.191,3.191,0,0,1-.474-.093l-.008-1.024.943-.746.03,1.388a.507.507,0,0,1-.469.475Zm-.467-.111c.033,0,.279.064.449.077l.018.017V228.1a.469.469,0,0,0,.432-.442v-1.374l-.915.746.008.992Z"/><path class="e" d="M582.539,227.385v.274a.484.484,0,0,1-.473.457,3.062,3.062,0,0,1-.466-.092c.187-.089.656.185.656-.548a.357.357,0,0,0,.283-.091Z"/><path class="d" d="M582.248,226.5l.008.793a1.019,1.019,0,0,0,.283-.092v-.915Z"/><path class="e" d="M581.988,226.727v.61a.381.381,0,0,0-.179.034l-.217.087v-.441Z"/><path class="d" d="M581.621,227.66a2.038,2.038,0,0,1,.258-.11.546.546,0,0,1,.119.008.877.877,0,0,1,0,.147c0,.054-.088.082-.115.082s-.266-.028-.266-.028Z"/><path d="M582.088,228.134h-.022a3.191,3.191,0,0,1-.474-.093l-.008-1.024.943-.746.03,1.388a.507.507,0,0,1-.469.475Zm-.467-.111c.033,0,.279.064.449.077l.018.017V228.1a.469.469,0,0,0,.432-.442v-1.374l-.915.746.008.992Z"/><path class="n" d="M581.606,227.041l-.035-.05.975-.777.037.051-.976.776Z"/><path class="m" d="M582.59,226.265l.119-.143-.178.085Z"/><path class="e" d="M581.7,227.99c.022.025.1.127.123.1a1.352,1.352,0,0,0-.076-.309,1.4,1.4,0,0,1-.088-.36c-.006-.152-.1.017-.1.017Z"/><path d="M581.813,228.114c-.026,0-.065-.04-.116-.1l-.148-.568c.014-.037.051-.1.086-.1s.041.06.045.079a.752.752,0,0,0,.054.264c.01.033.02.063.028.092a1.1,1.1,0,0,1,.033.108c.043.137.059.2.041.218l-.023.01Zm-.178-.74a.218.218,0,0,0-.057.072l.141.54a.461.461,0,0,0,.09.093.68.68,0,0,0-.047-.183c-.01-.041-.022-.081-.032-.109a.435.435,0,0,0-.029-.089.97.97,0,0,1-.058-.275.093.093,0,0,0-.008-.049Z"/><path class="e" d="M581.621,228.288l.182.009s-.059-.237-.076-.375a5.213,5.213,0,0,0-.168-.557Z"/><path d="M581.824,228.314l-.2-.009-.08-.938a1.708,1.708,0,0,1,.2.552c.018.138.072.372.072.372l.008.023Zm-.279-.943.094.917.142-.007a3.159,3.159,0,0,1-.07-.358,5.178,5.178,0,0,0-.166-.552Z"/><path class="c" d="M581.49,227.324a1.754,1.754,0,0,0-.254.6.656.656,0,0,0,.161.394c.038.065.14.272.14.272a1.639,1.639,0,0,0,.135-.319c.013-.09-.047-.469-.029-.616a3.954,3.954,0,0,1,.13-.494Z"/><path d="M581.537,228.632l-.014-.03s-.1-.207-.14-.273l-.028-.034a.605.605,0,0,1-.136-.366,1.5,1.5,0,0,1,.254-.6l.289-.176a5.125,5.125,0,0,1-.1.511,2.209,2.209,0,0,0,.016.362,1.716,1.716,0,0,1,.014.254,1.606,1.606,0,0,1-.137.324l-.016.03Zm.217-1.472-.256.18a1.526,1.526,0,0,0-.244.589.583.583,0,0,0,.129.346l.027.036c.033.051.1.185.127.245a1.055,1.055,0,0,0,.117-.282,1.392,1.392,0,0,0-.011-.246,2.327,2.327,0,0,1-.018-.37,4.823,4.823,0,0,1,.129-.5Z"/><path class="d" d="M581.49,227.324a1.754,1.754,0,0,0-.254.6.656.656,0,0,0,.161.394,3.382,3.382,0,0,1-.014-.418,1.044,1.044,0,0,1,.3-.689Z"/><path class="e" d="M581.592,227.21a3.236,3.236,0,0,0-.1.5c0,.1.045.339.055.535a2.347,2.347,0,0,1-.008.351,1.639,1.639,0,0,0,.135-.319c.013-.09-.047-.469-.029-.616a3.954,3.954,0,0,1,.13-.494Z"/><path d="M581.537,228.632l-.014-.03s-.1-.207-.14-.273l-.028-.034a.605.605,0,0,1-.136-.366,1.5,1.5,0,0,1,.254-.6l.289-.176a5.125,5.125,0,0,1-.1.511,2.209,2.209,0,0,0,.016.362,1.716,1.716,0,0,1,.014.254,1.606,1.606,0,0,1-.137.324l-.016.03Zm.217-1.472-.256.18a1.526,1.526,0,0,0-.244.589.583.583,0,0,0,.129.346l.027.036c.033.051.1.185.127.245a1.055,1.055,0,0,0,.117-.282,1.392,1.392,0,0,0-.011-.246,2.327,2.327,0,0,1-.018-.37,4.823,4.823,0,0,1,.129-.5Z"/><path class="e" d="M581.453,227.234c-.056.05-.018.165-.018.165a.166.166,0,0,1,.124-.044c.08,0,.131.121.131.121a.164.164,0,0,0,.058-.113c.006-.079-.16-.165-.295-.129Z"/><path d="M581.684,227.5l-.012-.019s-.047-.109-.113-.112h0a.145.145,0,0,0-.108.038.13.13,0,0,1-.008-.187.281.281,0,0,1,.293.072.08.08,0,0,1,.026.071.184.184,0,0,1-.061.122l-.017.015Zm-.135-.166a.2.2,0,0,1,.144.112.145.145,0,0,0,.037-.089.046.046,0,0,0-.019-.043.286.286,0,0,0-.254-.063c-.031.027-.017.092-.01.121a.13.13,0,0,1,.1-.038Z"/><path d="M581.277,226.925l.163.42s.072-.032.119-.047a.2.2,0,0,1,.1-.006,1.27,1.27,0,0,1,.117-.056.45.45,0,0,1,.116-.014l.011-.016a4.254,4.254,0,0,0-.623-.311Z"/><path d="M581.43,227.367l-.168-.437.015-.051h0a3.764,3.764,0,0,1,.633.312l.016.009-.02.031c-.013.008-.09.009-.125.022a1.031,1.031,0,0,0-.109.053h-.051a.155.155,0,0,0-.055.008c-.046.014-.119.045-.119.045l-.017.008Zm-.143-.454.16.408c.026-.008.073-.027.108-.039a.289.289,0,0,1,.109-.007.539.539,0,0,1,.106-.054.459.459,0,0,1,.123-.015,5.521,5.521,0,0,0-.606-.293Z"/><path class="c" d="M581.287,226.888l.164.42s.072-.032.119-.049a.219.219,0,0,1,.1,0,1.085,1.085,0,0,1,.115-.057.536.536,0,0,1,.117-.014l-.164-.46a.509.509,0,0,0-.115.025.446.446,0,0,0-.1.066.44.44,0,0,0-.13.009.311.311,0,0,0-.11.064Z"/><path d="M581.443,227.33l-.17-.437a.239.239,0,0,1,.116-.083.307.307,0,0,1,.088-.012l.043,0a.5.5,0,0,1,.1-.069.754.754,0,0,1,.119-.027l.182.474c-.014.023-.09.024-.127.037a1.151,1.151,0,0,0-.107.053h-.051a.16.16,0,0,0-.055.008c-.047.016-.121.045-.121.045l-.014.009Zm.284-.6c-.008.007-.055.014-.094.029a.393.393,0,0,0-.1.065l-.06,0a.233.233,0,0,0-.075.009.311.311,0,0,0-.1.057l.16.387c.023-.01.07-.03.1-.041a.254.254,0,0,1,.11-.006.483.483,0,0,1,.1-.055.447.447,0,0,1,.123-.016l-.177-.432Z"/><path class="o" d="M581.69,227.251l-.174-.432.021,0,.152.437Z"/><path class="o" d="M581.32,226.925l-.015-.018a.34.34,0,0,1,.236-.064.453.453,0,0,0-.221.082Z"/><path class="o" d="M581.338,226.977l-.014-.019a.329.329,0,0,1,.231-.063.438.438,0,0,0-.217.082Z"/><path class="o" d="M581.352,227.031l-.014-.017a.33.33,0,0,1,.236-.064.49.49,0,0,0-.222.081Z"/><path class="o" d="M581.371,227.088l-.016-.015a.325.325,0,0,1,.237-.065.457.457,0,0,0-.221.08Z"/><path class="o" d="M581.4,227.148l-.011-.016a.33.33,0,0,1,.232-.064.492.492,0,0,0-.221.08Z"/><path class="o" d="M581.418,227.206l-.016-.017a.334.334,0,0,1,.233-.064.447.447,0,0,0-.217.081Z"/><path class="o" d="M581.44,227.259l-.01-.016a.318.318,0,0,1,.23-.062.5.5,0,0,0-.22.078Z"/><path class="o" d="M581.553,226.861l-.016-.013a.306.306,0,0,1,.217-.091.434.434,0,0,0-.2.1Z"/><path class="o" d="M581.566,226.927l-.013-.014a.306.306,0,0,1,.217-.09.431.431,0,0,0-.2.1Z"/><path class="o" d="M581.582,226.972l-.016-.015a.3.3,0,0,1,.219-.091.433.433,0,0,0-.2.106Z"/><path class="o" d="M581.6,227.031l-.013-.014a.315.315,0,0,1,.217-.09.46.46,0,0,0-.2.1Z"/><path class="o" d="M581.621,227.088l-.016-.011a.316.316,0,0,1,.219-.092.494.494,0,0,0-.2.1Z"/><path class="o" d="M581.65,227.142l-.017-.014a.32.32,0,0,1,.217-.093.458.458,0,0,0-.2.107Z"/><path class="o" d="M581.672,227.2l-.018-.015a.317.317,0,0,1,.217-.089.426.426,0,0,0-.2.1Z"/><path d="M581.443,227.33l-.17-.437a.239.239,0,0,1,.116-.083.307.307,0,0,1,.088-.012l.043,0a.5.5,0,0,1,.1-.069.754.754,0,0,1,.119-.027l.182.474c-.014.023-.09.024-.127.037a1.151,1.151,0,0,0-.107.053h-.051a.16.16,0,0,0-.055.008c-.047.016-.121.045-.121.045l-.014.009Zm.284-.6c-.008.007-.055.014-.094.029a.393.393,0,0,0-.1.065l-.06,0a.233.233,0,0,0-.075.009.311.311,0,0,0-.1.057l.16.387c.023-.01.07-.03.1-.041a.254.254,0,0,1,.11-.006.483.483,0,0,1,.1-.055.447.447,0,0,1,.123-.016l-.177-.432Z"/><path class="p" d="M580.99,229.792a2.723,2.723,0,0,0,.381-.263c.123-.107.234-.25.369-.383s.2-.1.272-.251a.7.7,0,0,0,.033-.368c.047,0,.064.049.092.1.01.025.068-.185.068-.122s0,.227,0,.221c.023-.037.117-.249.117-.249s-.043.3-.033.263a2.175,2.175,0,0,1,.123-.187v.187a.986.986,0,0,0,.1-.23c.023-.01.066.131.091.1s.043-.229.081-.208a.31.31,0,0,1,.054.122,3.9,3.9,0,0,1,.01-.623l.111.033v-.242s.092.284.1.318a1.093,1.093,0,0,0-.035-.295,1.809,1.809,0,0,1-.043-.2s.115.164.133.2a1.211,1.211,0,0,0-.112-.318c-.021,0-.123.122-.1.111s.08-.252.111-.252.1.173.092.154l-.069-.374.09.165a.343.343,0,0,0,0-.155A.789.789,0,0,1,583,226.9s.067.088.055.067a1.292,1.292,0,0,1,0-.2l.062.123a.916.916,0,0,0,.051.084V226.9l.061.049s-.127-.268-.184-.277-.135.088-.135.088.1-.175.135-.175h.047l-.037-.187s.224.306.213.262-.1-.251-.112-.327a2.009,2.009,0,0,0-.043-.207s.08.108.1.14.086.164.086.143-.006-.273-.006-.273l.107.24.1-.283.058.274s.044-.133.055-.187.047-.054.047-.054-.012.228-.012.25-.025.142-.025.142.1-.207.125-.252.111-.077.111-.077-.043.1-.054.132-.135.285-.112.285.112-.131.166-.131.157.142.135.152-.109-.042-.144-.042-.3.293-.258.284a1.149,1.149,0,0,0,.2-.179s-.055.134-.033.123.193-.109.193-.109-.248.22-.215.22a.862.862,0,0,0,.17-.066l-.17.208a.662.662,0,0,1,.184-.091.536.536,0,0,1,.143.037,1.679,1.679,0,0,0-.194.02c-.019.01-.191.253-.144.231a.754.754,0,0,0,.134-.122l-.054.144.236-.144-.326.338s.224-.174.256-.163a1.669,1.669,0,0,1,.193.188,2.252,2.252,0,0,0-.225-.1,1.714,1.714,0,0,0-.279.362,1.037,1.037,0,0,1,.246-.111c.045,0,.119.2.1.2s-.119-.056-.145-.056-.279.154-.279.154.191-.033.246-.045a1.291,1.291,0,0,0,.215-.02,1.626,1.626,0,0,1,.17-.067s-.131.084-.2.138a.458.458,0,0,1-.186.07l.215.021s-.293.091-.367.119-.111.055-.158.077c.035,0,.2-.009.242-.009s.258.033.258.033-.28.042-.313.042a.187.187,0,0,0-.08.033l.3.034-.2.033s.144.052.181.062a1.262,1.262,0,0,1,.135.079s-.262-.053-.316-.053a1.13,1.13,0,0,0-.141.014.427.427,0,0,1,.148.033.074.074,0,0,1,.047.041l-.144-.013a.939.939,0,0,0,.136.089.2.2,0,0,1,.067.044l-.225-.022.192.142s-.2-.045-.239-.045h-.033a1.129,1.129,0,0,1,.127.109c.018.035.043.078.043.078a1.071,1.071,0,0,1-.137-.043.5.5,0,0,0-.119-.035l.1.111-.172-.033.09.131-.17-.056s.08.046.08.077-.031.185-.055.164-.031-.107-.058-.143a.182.182,0,0,0-.053-.052.434.434,0,0,0-.117-.034c.011.022.131.1.15.123l-.215-.024s.2.1.17.1-1.113-.088-1.178-.088-.394.372-.46.4-.225.219-.293.231a.736.736,0,0,0-.157.054Z"/><path class="q" d="M581.113,229.876l-.133-.067c.028-.044.264-.186.379-.29a2.534,2.534,0,0,0,.2-.209c.05-.056.109-.118.167-.175a.9.9,0,0,1,.133-.1.282.282,0,0,0,.135-.143.457.457,0,0,0,.033-.251c0-.033,0-.068,0-.111.069-.014.09.029.112.078,0-.011.015-.038.021-.055.024-.058.028-.07.045-.07.014.116.014.228.018.241a1.161,1.161,0,0,1,.086-.248v.007s.007.012,0,.025a1.158,1.158,0,0,1,0,.2,1.311,1.311,0,0,1,.091-.158l.026.169c.012-.046.058-.135.072-.205.041-.014.055.011.072.045a.183.183,0,0,0,.03.046c0-.008.007-.049.013-.083.024-.083.037-.132.067-.132a.232.232,0,0,1,.076.135,1.847,1.847,0,0,1-.018-.63l.129.026-.021-.224c.015-.015.076.134.109.229-.014-.071-.029-.166-.041-.2-.019-.067-.047-.2-.047-.2.028-.011.106.1.149.156-.039-.075-.1-.247-.112-.265,0,.006-.037.038-.064.074a.085.085,0,0,1,0-.087c.039-.114.059-.16.082-.16.047,0,.1.146.1.157l0,0c-.05-.044-.089-.12-.1-.125a.707.707,0,0,0-.051.136v0a.064.064,0,0,1,.041-.029c.051,0,.131.329.131.334a.592.592,0,0,1-.131-.139c.014.041.026.1.039.133a1.135,1.135,0,0,1,.033.313,1.729,1.729,0,0,1-.134-.325l.037.237-.139-.018c0,.025,0,.333.012.608-.041-.035-.063-.094-.08-.106,0,.008-.018.07-.029.108a.251.251,0,0,1-.03.094c-.039.013-.054-.01-.074-.049a.2.2,0,0,0-.027-.043.622.622,0,0,1-.086.223l0-.012v-.013l-.029-.171a.941.941,0,0,1-.088.192c-.032,0-.039,0-.014-.174a1.293,1.293,0,0,1-.072.161c-.03,0-.035-.005-.035-.163-.024.061-.034.077-.049.077-.051-.076-.065-.1-.094-.107a.189.189,0,0,1,.021.092.488.488,0,0,1-.039.268.294.294,0,0,1-.144.158.646.646,0,0,0-.129.1c-.057.057-.115.117-.166.174-.068.075-.137.147-.205.209a3.027,3.027,0,0,1-.385.266l.115.031a.706.706,0,0,1,.153-.053.556.556,0,0,0,.164-.126.672.672,0,0,1,.125-.1,1.584,1.584,0,0,0,.179-.165c.153-.151.246-.243.289-.243s.415.031.743.056c.175.015.334.025.4.03a1.172,1.172,0,0,1-.143-.065l.19,0a.463.463,0,0,1-.051-.031.41.41,0,0,1-.08-.07.223.223,0,0,1,.137.01.292.292,0,0,1,.062.06.271.271,0,0,1,.029.078.191.191,0,0,0,.026.063,1.186,1.186,0,0,0,.025-.153c0-.013-.033-.043-.068-.061h.006a.064.064,0,0,1,.058.007l.116.017-.108-.108.188.008-.119-.082c.021-.025.1-.014.14.007.026.012.074.025.1.033-.006-.012-.018-.028-.024-.042a.979.979,0,0,0-.121-.1l-.039-.029h.08a2.422,2.422,0,0,1,.239.043l-.2-.112.189-.007-.025-.013a.657.657,0,0,1-.139-.089l.123-.015a.065.065,0,0,0-.025-.013.42.42,0,0,0-.145-.034c0-.031.09-.046.145-.046a2.267,2.267,0,0,1,.244.04c-.03-.012-.055-.027-.069-.031l-.179-.063.007,0a.028.028,0,0,1,.022-.008h0l.174-.056h-.3c0-.033.041-.065.08-.065.022,0,.135-.017.221-.03-.061,0-.141-.014-.166-.014s-.084,0-.135.007-.09,0-.107,0l.005-.016-.005-.017h.017l.008-.013a.973.973,0,0,1,.129-.063c.074-.028.363-.118.363-.118l-.14.008.148-.008c0,.032-.287.121-.359.151-.034.013-.065.027-.094.04h.035l.135-.006c.047,0,.262.033.262.033,0,.032-.28.077-.317.077a.126.126,0,0,0-.068.029l.293,0-.17.056a.947.947,0,0,1,.152.041,1.044,1.044,0,0,1,.139.08,2,2,0,0,1-.324-.024h-.022l.037.014a.17.17,0,0,1,.059.05l-.164.013h0a.407.407,0,0,1,.14.055.206.206,0,0,1,.075.046h-.012c-.008.011-.022.009-.037,0l-.188.007.2.111a1.151,1.151,0,0,1-.233-.012.332.332,0,0,1,.09.082c.023.033.047.078.047.078-.024.022-.112,0-.154-.021a.578.578,0,0,0-.12-.031l.115.081-.185-.005.109.106-.123-.02a.069.069,0,0,1,.037.05s-.023.184-.07.184a.169.169,0,0,1-.051-.086.192.192,0,0,0-.025-.067.165.165,0,0,0-.051-.048h0a.319.319,0,0,0-.051-.02.305.305,0,0,0,.034.021c.039.032.064.051.076.063l-.229,0c.2.057.192.07.192.083a2.562,2.562,0,0,1-.461-.019c-.311-.023-.7-.055-.739-.055a1.264,1.264,0,0,0-.265.234,1.345,1.345,0,0,1-.188.17.641.641,0,0,0-.119.1.5.5,0,0,1-.178.134.624.624,0,0,0-.152.054l-.008,0Zm2.711-1.828c0-.032.117-.049.18-.1.019-.017.051-.037.074-.056l-.027.014a.436.436,0,0,1-.135.017.644.644,0,0,0-.084,0c-.059.012-.246.045-.246.045l0-.006s.008-.012.021-.019a.923.923,0,0,1,.25-.162.3.3,0,0,1,.08.029c.026.009.059.025.065.025-.006-.018-.076-.158-.1-.162a.955.955,0,0,0-.2.088l-.039.018c-.025-.041.232-.392.275-.392a1.623,1.623,0,0,1,.233.1c-.1-.057-.182-.147-.2-.155a1.2,1.2,0,0,0-.244.161v0a.493.493,0,0,1,.062-.077l.238-.284-.212.169.021-.121a.275.275,0,0,1-.1.1c-.039-.048.11-.251.131-.259a.57.57,0,0,1,.115-.018.248.248,0,0,0-.058-.009.665.665,0,0,0-.172.088l0-.005a.066.066,0,0,1,.021-.038l.1-.162a.265.265,0,0,1-.137.065c-.019-.019-.025-.033.09-.146-.027.017-.055.031-.058.035-.028-.01-.04-.022-.006-.1a.524.524,0,0,1-.166.159c-.028-.06.212-.318.254-.318a.264.264,0,0,1,.074.026.294.294,0,0,0,.066.02c-.008-.015-.09-.121-.131-.121-.025,0-.076.05-.105.082s-.047.049-.061.049c-.025-.025-.019-.056.065-.233.013-.035.025-.064.029-.073a.962.962,0,0,1,.047-.111c-.018.023-.059.046-.072.069-.022.044-.119.251-.119.251-.034-.009-.012-.127-.012-.149s.008-.158.008-.222a.05.05,0,0,0-.008.029c-.014.056-.059.189-.059.189l0-.011c-.005,0-.005-.012-.005-.025l-.077-.241-.072.286-.119-.206a1.3,1.3,0,0,1,.019.234c-.027.02-.035.015-.086-.075a.438.438,0,0,0-.033-.058l-.056-.081a1.117,1.117,0,0,1,.031.135,1.663,1.663,0,0,0,.076.226c.018.047.033.085.037.1-.029.023-.043.024-.242-.249l.061.174-.061.018a.3.3,0,0,0-.059.069.109.109,0,0,1,.051-.016c.072.013.174.225.2.29l-.084-.028,0,.005-.011-.02.087.035c-.084-.1-.164-.241-.2-.247h0c-.043,0-.1.058-.117.081v0c-.008-.011,0-.033.016-.054.027-.079.078-.146.105-.146h.047l-.051-.166a2.3,2.3,0,0,1,.191.2.131.131,0,0,0-.015-.033,2.038,2.038,0,0,1-.078-.235c-.012-.075-.041-.206-.041-.206l0,0c.011-.006.017.01.025.026l.1.1c.007.011.019.035.033.06s.033.056.043.071a1.678,1.678,0,0,1-.03-.252l0,.006c.008,0,.012.008.016.023l.123.2.072-.283.077.241a.959.959,0,0,1,.035-.151c.015-.069.058-.07.062-.07a1.716,1.716,0,0,1,0,.269c0,.009,0,.028,0,.051.022-.064.061-.143.072-.167.026-.049.114-.08.12-.086.021.024-.022.122-.034.154a.394.394,0,0,1-.031.072c-.019.044-.055.119-.07.165l.011-.014c.043-.044.09-.094.131-.094.059,0,.145.113.153.154l-.022.035a.255.255,0,0,1-.08-.024.2.2,0,0,0-.06-.022,1.414,1.414,0,0,0-.248.269c.015-.023.115-.123.177-.189a.653.653,0,0,1-.008.13c0-.023.172-.12.172-.12l0,0c0,.01-.011.025-.033.044-.072.093-.148.17-.156.186a.72.72,0,0,1,.146-.081l0,.011-.008.011-.106.169a.3.3,0,0,1,.141-.076.577.577,0,0,1,.15.037l-.012,0a.021.021,0,0,1-.021.011,1.363,1.363,0,0,1-.156.037,1.042,1.042,0,0,0-.145.215.93.93,0,0,1,.114-.131l0,.007c.006.007,0,.019,0,.034l-.024.119.211-.162-.238.285a.434.434,0,0,1,.178-.113,1.014,1.014,0,0,1,.205.191,1.576,1.576,0,0,1-.235-.069,3.083,3.083,0,0,0-.246.307.737.737,0,0,1,.213-.09c.055,0,.119.169.119.205-.031.024-.056.014-.1,0a.317.317,0,0,0-.065-.026c-.013,0-.115.06-.207.113a1.541,1.541,0,0,1,.17-.037.781.781,0,0,1,.088-.006.392.392,0,0,0,.119-.014c.047-.024.174-.068.174-.068.016.03-.115.113-.182.166a.431.431,0,0,1-.191.074Zm-.808-.674-.09-.333.1.132a.729.729,0,0,0-.015-.119.97.97,0,0,1-.036-.147c.022-.005.047.016.067.033a.579.579,0,0,1-.012-.167c.035,0,.082.1.09.12s.041.061.055.076l0,.013c-.034.012-.073-.053-.084-.075s-.061-.125-.061-.125a.982.982,0,0,1,.031.183c-.017.018-.023.026-.05,0a.807.807,0,0,0,.029.078.411.411,0,0,1,0,.165l-.123-.162.09.33Z"/><path class="q" d="M582.045,228.989l-.022-.024a1.433,1.433,0,0,0,.153-.18.469.469,0,0,0,.025-.067c.033.009.026.04.006.079a1.383,1.383,0,0,1-.162.192Z"/><path class="q" d="M582.113,229.013l-.017-.027a.729.729,0,0,0,.189-.265c.024.019-.047.214-.172.292Z"/><path class="q" d="M582.32,228.936l-.017-.029a.474.474,0,0,0,.1-.177c.03.018-.025.165-.084.206Z"/><path class="q" d="M582.354,229.021l-.018-.027a.537.537,0,0,0,.2-.418.41.41,0,0,1-.185.445Z"/><path class="q" d="M582.492,229.026l-.027-.022a.912.912,0,0,0,.207-.556.673.673,0,0,1-.18.578Z"/><path class="q" d="M582.557,229.061l-.014-.029c.166-.089.172-.5.172-.551l.033-.029c0,.112-.01.513-.191.609Z"/><path class="q" d="M582.828,228.766a1.274,1.274,0,0,0-.08-.442c.037,0,.113.185.115.44l-.035,0Z"/><path class="q" d="M582.922,228.673l-.031,0a.976.976,0,0,0-.1-.467c.031-.015.141.175.133.469Z"/><path class="q" d="M582.947,228.653l-.035,0c.065-.627-.066-.7-.066-.7.025-.025.168.051.1.7Z"/><path class="q" d="M583.043,228.375l-.033,0a.587.587,0,0,0-.051-.365c.025-.019.106.088.084.369Z"/><path class="q" d="M583.133,228.19l-.033,0a.989.989,0,0,0-.1-.461h0a.647.647,0,0,1,.127.465Z"/><path class="q" d="M583.137,228.564l-.016-.031c.246-.164.418-.236.486-.21a1.685,1.685,0,0,0-.47.241Z"/><path class="q" d="M583.023,228.794l-.017-.027c.5-.348.609-.273.619-.262a1.24,1.24,0,0,0-.6.289Z"/><path class="q" d="M583.619,228.683a1.586,1.586,0,0,0-.334-.007l0-.033c.207-.013.326,0,.356.035a.027.027,0,0,1-.018.005Z"/><path class="q" d="M583.43,228.877a.745.745,0,0,0-.268-.023l0-.033a.432.432,0,0,1,.287.043c0,.009-.007.013-.015.013Z"/><path class="q" d="M583.3,227.933l-.026-.022a2.154,2.154,0,0,1,.424-.428c.008.035-.064.07-.4.45Z"/><path class="q" d="M583.289,228.032l-.019-.027c.345-.228.392-.262.392-.262.018.027-.017.057-.373.289Z"/><path class="q" d="M583.256,228.219l-.022-.025c.258-.25.37-.266.377-.266,0,.034-.109.049-.355.291Z"/><path class="q" d="M583.252,228.328l-.018-.025c.446-.35.637-.283.645-.282a1.307,1.307,0,0,0-.627.307Z"/><path class="q" d="M583.191,228.435l-.023-.03a1.215,1.215,0,0,1,.338-.161l.047.021a1.023,1.023,0,0,0-.362.17Z"/><path class="q" d="M583.416,227.005a5.464,5.464,0,0,0-.139-.582c.047.007.088.167.168.575l-.029.007Z"/><path class="q" d="M583.469,227.014c-.031-.009.015-.189.019-.227a.874.874,0,0,0-.109-.4l.029-.017a.9.9,0,0,1,.115.419c0,.039-.054.224-.054.224Z"/><path class="q" d="M583.553,226.561c-.033,0-.053-.064-.039-.263l.033,0a.635.635,0,0,0,.01.261Z"/><path class="q" d="M583.535,226.8l-.029-.017a2.118,2.118,0,0,0,.119-.3c.029.019-.035.214-.09.312Z"/><path class="q" d="M583.408,227.257a1.942,1.942,0,0,1,.088-.222c.057-.134.129-.311.18-.436l.029.009c-.047.128-.123.307-.178.439-.047.1-.078.182-.082.194l-.037.016Z"/><path class="q" d="M583.416,227.5l-.029-.016a2.137,2.137,0,0,1,.347-.579,6,6,0,0,1-.318.6Z"/><path class="q" d="M583.43,227.575l-.03-.017a3.661,3.661,0,0,0,.334-.509c.034.017-.011.117-.3.526Z"/><path class="q" d="M583.375,227.762l-.025-.02c.334-.429.465-.476.47-.478.012.032-.119.082-.445.5Z"/><path class="q" d="M583.176,227.984a1.244,1.244,0,0,0-.188-.575c.035-.013.18.193.221.572l-.033,0Z"/><path class="q" d="M583.238,227.784a4.228,4.228,0,0,0-.222-.572l.027-.018a1.569,1.569,0,0,1,.195.59Z"/><path class="q" d="M583.27,227.639a1.725,1.725,0,0,0-.231-.662l.027-.019a.979.979,0,0,1,.2.681Z"/><path class="q" d="M583.316,227.764a1.682,1.682,0,0,0-.169-.773l.033-.014a1.124,1.124,0,0,1,.136.787Z"/><path class="q" d="M583.375,227.451c-.031-.005-.027-.157-.156-.482l.029-.012a1.3,1.3,0,0,1,.127.494Z"/><path class="q" d="M583.4,227.151a.818.818,0,0,0-.33-.554l.024-.026c.39.368.31.571.306.58Z"/><path class="q" d="M583.06,228.692c-.029-.013.022-.15.022-.2,0-.017.008-.05.014-.085-.022.055-.053.126-.094.225l-.033-.013c.135-.309.152-.361.152-.363l0,.007c.008,0,.008.01.008.024a1.1,1.1,0,0,1-.016.207.8.8,0,0,1-.057.2Z"/><path class="q" d="M583.266,229.023a1.292,1.292,0,0,0-.551-.1l-.006-.033a.884.884,0,0,1,.564.126l-.007,0Z"/><path class="q" d="M583.078,229.058c-.064,0-.2-.026-.4-.042l0-.033a3.092,3.092,0,0,1,.437.064c0,.008-.017.011-.039.011Z"/><path class="q" d="M583.365,228.956c-.072,0-.443-.137-.572-.143v-.035a3.114,3.114,0,0,1,.582.177Z"/><path class="r" d="M582.113,228.846c-.025-.022-.013-.038.008-.087a.544.544,0,0,0,.016-.147h.031a.408.408,0,0,1-.018.16.23.23,0,0,1-.037.075Z"/><path class="p" d="M581.951,229.874c-.367-.184-.758-.691-.846-.712s-.978.132-.97.108a1.039,1.039,0,0,1,.064-.222c.043-.065.153-.13.139-.13l-.246.008a.729.729,0,0,1-.143.139c-.039.016-.224.033-.267.056a.717.717,0,0,0-.116.1,1.085,1.085,0,0,1-.019-.115.2.2,0,0,1,.037-.073,1.429,1.429,0,0,1-.186,0c.026-.009.034-.065.067-.106a.3.3,0,0,1,.133-.107l.117-.033-.1-.048a.659.659,0,0,1,.121-.048,1.055,1.055,0,0,0,.129-.025s-.078-.083-.078-.115-.074.123-.133.14a1.155,1.155,0,0,1-.232.031c-.057,0-.145.09-.145.09a.317.317,0,0,1-.013-.121.073.073,0,0,1,.039-.049l-.09.007s.023-.123.031-.139.051-.09.051-.09a.418.418,0,0,1-.082-.081.73.73,0,0,1-.045-.115h.178a.681.681,0,0,1,.152.05.314.314,0,0,1-.043-.09c0-.025-.033-.082-.019-.082a.851.851,0,0,1,.134.073s-.033-.154-.084-.188-.273-.072-.318-.13a2.086,2.086,0,0,1-.115-.31.156.156,0,0,0-.071-.074h.139l-.029-.131a.306.306,0,0,1,.019-.122s.057.1.09.1.086.058.086.058l.008-.058.1.13s.008-.088.026-.1a.172.172,0,0,1,.058-.032.24.24,0,0,0,.018.073.986.986,0,0,1,.055.164c0,.025-.016.293-.016.317a1.6,1.6,0,0,0,.1.212v-.195c0-.049-.053-.155-.047-.2s.019-.106.019-.106a.456.456,0,0,0,.065.1.455.455,0,0,1,.064.1l.063-.1a.807.807,0,0,1-.164-.162c-.014-.05-.028-.155-.028-.155a.743.743,0,0,1-.134-.083,2.568,2.568,0,0,1-.17-.261h.05a.564.564,0,0,1-.05-.155c0-.05.008-.147.008-.147s.054.041.06.057.072.025.072.025a1.293,1.293,0,0,1-.1-.31.682.682,0,0,1,.134-.263l.065.107.135-.2a.492.492,0,0,1,.056.115v.107s.088.008.1.008.058.032.058.032a.361.361,0,0,0-.089.049c-.026.025-.051.13-.077.139a.9.9,0,0,0-.16.106.62.62,0,0,0-.05.172.737.737,0,0,1,.1.155c.006.04.014.146.014.146s.043.05.076.041a.09.09,0,0,0,.059-.089c-.008-.033-.1-.114-.11-.156s.012-.309.012-.309l.133.073a.6.6,0,0,0,.09-.114,1.179,1.179,0,0,0,.044-.157l.057.172s.045-.074.084-.09a1.279,1.279,0,0,0,.123-.064,1.1,1.1,0,0,0-.031.114c0,.016.006.3,0,.333s-.236.239-.254.254-.019.14-.019.14l.16-.14s.019.073.025.115a.48.48,0,0,1,.008.082.575.575,0,0,0,.107-.042c.028-.015.082.017.082.017a.812.812,0,0,1-.044.083c-.018.016-.077.17-.1.195s-.178.082-.192.106-.146.163-.177.212a.325.325,0,0,0-.033.146.58.58,0,0,1,.091-.177,1.869,1.869,0,0,0,.141-.149l.025.124a.782.782,0,0,1,.127-.075l.211-.049s-.121.1-.121.124-.014.153-.058.187-.243.156-.26.163a.2.2,0,0,0-.033.1.116.116,0,0,0,.025.055.334.334,0,0,1,.062-.09c.034-.032.022-.1.022-.1s.08.073.086.1a1.241,1.241,0,0,1,.008.245.4.4,0,0,0,0,.163c.019.025.09.107.113.107s-.1-.212-.088-.311.088-.163.1-.211a.67.67,0,0,0,.025-.1.685.685,0,0,1,.088.123.245.245,0,0,1,.08-.077,1.463,1.463,0,0,1,.086.214.761.761,0,0,1,.094-.124.386.386,0,0,1,.066.226.315.315,0,0,1-.109.17.754.754,0,0,1-.094.047.828.828,0,0,0,.153.041.261.261,0,0,1,.084.024l-.186.059a1.1,1.1,0,0,0,.229.007.4.4,0,0,0-.026-.155.471.471,0,0,1-.037-.106.642.642,0,0,0,.109.024c.037,0,.094.009.094-.008s-.068-.147-.051-.147.237.195.237.164a1.26,1.26,0,0,1,.093-.207l.088.175a.834.834,0,0,1,.01.145.328.328,0,0,1-.057.14,1.51,1.51,0,0,0,.192.244,3.012,3.012,0,0,0,.494.474c.111.066.115.066.209.114Z"/><path class="q" d="M581.955,229.885l-.008,0a2.869,2.869,0,0,1-.646-.533.9.9,0,0,0-.2-.178c-.108,0-.362.034-.579.063-.175.025-.332.046-.375.046l-.013-.011,0-.039a.853.853,0,0,1,.06-.188.654.654,0,0,1,.11-.108c.019-.007-.207,0-.207,0a.54.54,0,0,1-.141.134.478.478,0,0,1-.109.025.639.639,0,0,0-.156.034.764.764,0,0,0-.116.094c-.017,0-.035-.1-.035-.12a.2.2,0,0,1,.031-.072.478.478,0,0,1-.133.014l-.029-.007a1.192,1.192,0,0,1,.178-.019c0,.036-.021.069-.021.084a1.011,1.011,0,0,0,.013.105.266.266,0,0,1,.1-.1.653.653,0,0,1,.162-.038.941.941,0,0,0,.1-.02.594.594,0,0,0,.139-.136c.008-.005.236-.012.254-.012v.007l-.022.037a.516.516,0,0,0-.1.1.7.7,0,0,0-.059.181.99.99,0,0,0,.364-.02c.22-.033.47-.067.562-.067.069.011.137.082.242.186a2.817,2.817,0,0,0,.631.525l.088-.118-.066-.017c-.039-.02-.067-.035-.145-.079a2.129,2.129,0,0,1-.4-.373,1.3,1.3,0,0,0-.1-.1,1.77,1.77,0,0,1-.2-.245.435.435,0,0,0,.058-.146.527.527,0,0,0-.012-.141,1.88,1.88,0,0,0-.085-.173c-.02.066-.073.178-.073.2-.033.014-.078-.017-.164-.091a.458.458,0,0,0-.086-.061c.01,0,.028.047.043.074a.45.45,0,0,1,.022.061v.011l-.047.01-.059,0a.465.465,0,0,1-.1-.023c.012.013.017.053.037.089a.441.441,0,0,1,.027.16v.011l-.047,0c-.064,0-.191-.014-.191-.014h0c0-.006.012-.008.021-.009l.139-.062c-.02,0-.045-.01-.062-.01a.839.839,0,0,1-.153-.041c0-.02.039-.038.086-.067a.292.292,0,0,0,.109-.166.431.431,0,0,0-.064-.215c-.018.03-.051.08-.08.124-.035-.055-.084-.194-.1-.212-.017.021-.039.043-.066.074a1.082,1.082,0,0,0-.094-.108.2.2,0,0,1-.014.081.182.182,0,0,1-.033.063.5.5,0,0,0-.068.147.646.646,0,0,0,.064.241c.024.055.026.065.024.073-.041.013-.121-.092-.129-.106a.34.34,0,0,1,0-.171,1.058,1.058,0,0,0-.008-.24.374.374,0,0,0-.068-.088.1.1,0,0,1-.024.094.3.3,0,0,0-.056.087.071.071,0,0,1-.047-.061c0-.024.014-.1.039-.109s.217-.13.258-.163.056-.152.056-.178.084-.1.122-.131l-.2.067a.475.475,0,0,0-.123.073l-.041-.125a.58.58,0,0,1-.127.148.45.45,0,0,0-.086.174c-.021,0-.021-.1.014-.156.02-.027.072-.088.113-.139a.959.959,0,0,1,.065-.073c.007-.015.045-.032.105-.062a.951.951,0,0,0,.088-.045.825.825,0,0,0,.053-.11.248.248,0,0,1,.049-.087.693.693,0,0,0,.039-.077c-.008.007-.033-.008-.051-.008a.707.707,0,0,1-.123.045c-.016-.009-.016-.049-.022-.089s-.025-.114-.025-.114l-.143.145a.214.214,0,0,1,0-.156,3.207,3.207,0,0,0,.25-.25,1.5,1.5,0,0,0,.008-.31.275.275,0,0,1,.03-.122.666.666,0,0,1-.11.066c-.029.009-.064.064-.076.083l-.072-.157a.556.556,0,0,1-.03.139.5.5,0,0,1-.093.118l-.149-.071c.01.065,0,.266.008.3a.246.246,0,0,0,.057.084.211.211,0,0,1,.05.071.07.07,0,0,1-.009.057.118.118,0,0,1-.055.047.127.127,0,0,1-.088-.046c0-.007-.01-.111-.018-.152a.886.886,0,0,0-.089-.151.484.484,0,0,1,.05-.184.886.886,0,0,1,.163-.108.37.37,0,0,0,.037-.068.164.164,0,0,1,.035-.069.394.394,0,0,1,.094-.051c-.018,0-.047-.014-.055-.014s-.1-.007-.1-.007l-.009-.117a.5.5,0,0,0-.055-.108l-.115.2-.084-.1c0,.016-.116.173-.116.254a1.329,1.329,0,0,0,.1.3c-.033.014-.084,0-.094-.014a.231.231,0,0,0-.05-.048.614.614,0,0,1,0,.133.581.581,0,0,0,.051.151l-.062.014c.058.064.148.217.177.244a.759.759,0,0,0,.131.08c.006.009.018.112.035.161a.937.937,0,0,0,.157.158l-.055.119c-.043-.041-.072-.089-.08-.093a.326.326,0,0,1-.061-.082.214.214,0,0,1-.007.082.321.321,0,0,0,.021.1.328.328,0,0,1,.025.1v.195a.7.7,0,0,1-.119-.212c0-.012,0-.085.008-.158s.01-.147.01-.159a.8.8,0,0,0-.059-.159.434.434,0,0,1-.017-.077c0,.013-.03.027-.043.04a.287.287,0,0,0-.022.1l-.117-.126.008.052c-.035-.015-.072-.047-.094-.047s-.072-.061-.09-.093a.984.984,0,0,0-.008.106l.026.13-.119.01a.111.111,0,0,1,.053.063l.015.049a1.259,1.259,0,0,0,.1.257.486.486,0,0,0,.2.086.944.944,0,0,1,.115.042.431.431,0,0,1,.088.195c-.068-.024-.135-.06-.146-.061a.19.19,0,0,1,.031.072.315.315,0,0,0,.039.085c-.047,0-.127-.033-.16-.033h-.17a.95.95,0,0,1,.043.1.364.364,0,0,0,.084.078.7.7,0,0,1-.047.1,1.14,1.14,0,0,0-.037.137l.084-.021c.008.02-.022.036-.033.061a.466.466,0,0,0,.017.114.2.2,0,0,1,.135-.093,1.09,1.09,0,0,0,.232-.033c.029-.007.073-.067.094-.1s.029-.04.039-.04a.429.429,0,0,0,.084.12.277.277,0,0,1-.135.043c-.013,0-.078.031-.119.046l.1.032-.119.053a.254.254,0,0,0-.127.1.143.143,0,0,0-.034.056c-.013.024-.021.043-.035.051l-.019-.006a.213.213,0,0,0,.033-.054.249.249,0,0,1,.037-.061.312.312,0,0,1,.137-.11l.121-.033-.1-.031a.269.269,0,0,1,.125-.067.811.811,0,0,0,.125-.025c-.019,0-.07-.052-.08-.089,0,.006-.008.014-.013.023-.032.043-.075.1-.11.111a1.068,1.068,0,0,1-.236.035c-.043,0-.111.061-.139.086a.194.194,0,0,1-.031-.133.1.1,0,0,1,.047-.056l-.086.029a.529.529,0,0,1,.019-.154.564.564,0,0,0,.051-.089.255.255,0,0,1-.082-.073.635.635,0,0,1-.039-.116l.184-.013a.524.524,0,0,1,.138.041.125.125,0,0,1-.041-.072l-.017-.086c.033-.008.115.046.152.067-.025-.029-.058-.144-.094-.169a.648.648,0,0,0-.113-.04c-.088-.026-.185-.055-.209-.094a1.111,1.111,0,0,1-.1-.263l-.02-.049a.149.149,0,0,0-.061-.069h0a.02.02,0,0,1,.02,0l.119-.017-.039-.119a.35.35,0,0,1,.018-.127c.043.037.082.092.1.092.039,0,.086.051.094.059l-.012-.052.113.123a.167.167,0,0,1,.016-.105.225.225,0,0,1,.065-.034.344.344,0,0,1,.029.079.8.8,0,0,1,.058.168c0,.012,0,.087-.007.159s-.008.146-.008.158a1.625,1.625,0,0,0,.1.207l-.021-.19a.311.311,0,0,0-.022-.088.3.3,0,0,1-.025-.108c.008-.042.018-.107.018-.107.039.037.072.085.08.09a.529.529,0,0,1,.072.1l.039-.108s-.141-.1-.162-.153a1.436,1.436,0,0,1-.029-.157.476.476,0,0,1-.133-.076,2.467,2.467,0,0,1-.168-.265l.055-.015a.256.256,0,0,1-.059-.144c0-.05.012-.149.012-.149h0a.123.123,0,0,1,.076.054.213.213,0,0,0,.064.018.786.786,0,0,1-.109-.3.657.657,0,0,1,.139-.267l.084.1.115-.2a.239.239,0,0,1,.076.12v.1a.3.3,0,0,1,.09,0c.019,0,.055.027.066.033,0,.019-.068.042-.09.065a.213.213,0,0,0-.033.063c-.017.047-.029.073-.047.08a.86.86,0,0,0-.156.1.622.622,0,0,0-.047.165h0a.6.6,0,0,1,.094.151c.008.041.018.147.018.147s.033.033.054.033a.065.065,0,0,0,.047-.037.086.086,0,0,0,.012-.042c-.008-.011-.029-.037-.047-.062a.32.32,0,0,1-.066-.092,2.508,2.508,0,0,1,.011-.314l.149.065c0-.007.062-.073.076-.108a1.452,1.452,0,0,0,.043-.155l0,.007,0,.009.064.146a.174.174,0,0,1,.076-.087c.041-.017.123-.065.123-.065,0,.062-.017.115-.017.124a1.824,1.824,0,0,1-.006.341,3.312,3.312,0,0,1-.237.237.254.254,0,0,0-.033.149l.141-.148c.02.006.033.078.041.121a.393.393,0,0,1,.01.084c.011-.017.074-.038.1-.049a.132.132,0,0,1,.085.014.2.2,0,0,1-.039.1c-.007.007-.025.048-.045.081a.432.432,0,0,1-.056.116.557.557,0,0,1-.094.05.446.446,0,0,0-.1.054.539.539,0,0,1-.064.075c-.039.05-.09.11-.111.137a.213.213,0,0,0-.028.086.3.3,0,0,1,.075-.132,1.731,1.731,0,0,0,.136-.146l.043.124a.283.283,0,0,1,.113-.078l.215-.05a1.428,1.428,0,0,0-.1.134.393.393,0,0,1-.067.2c-.025.02-.115.079-.183.12a.236.236,0,0,1,.09.1,1.829,1.829,0,0,1,.008.216l0-.012a.415.415,0,0,1,.069-.156.235.235,0,0,0,.033-.058.965.965,0,0,0,.022-.095c.021-.005.089.081.1.121a.112.112,0,0,1,.07-.08.9.9,0,0,1,.1.217.3.3,0,0,1,.08-.129.339.339,0,0,1,.084.235.29.29,0,0,1-.117.175.618.618,0,0,1-.094.052.625.625,0,0,1,.149.019.254.254,0,0,1,.085.025l-.005,0-.012,0-.141.062c.035,0,.115,0,.162,0a.173.173,0,0,0,0-.146.425.425,0,0,1-.035-.11c.014-.012.09.013.119.013l.059,0c.025-.006.014-.032,0-.053-.027-.068-.035-.088-.027-.1s.031,0,.1.063a.946.946,0,0,0,.137.1.8.8,0,0,1,.088-.2.743.743,0,0,1,.107.176.658.658,0,0,1,.012.148.342.342,0,0,1-.063.146h0a2.614,2.614,0,0,0,.194.23c.021.022.052.059.1.1a1.942,1.942,0,0,0,.391.367c.08.046.1.06.146.079l.065.036-.094.144Zm-1.892-1.376v.027a.338.338,0,0,0,0,.154.509.509,0,0,0,.093.1.245.245,0,0,1-.021-.045.716.716,0,0,1-.068-.234Zm-.114-.313c-.031.02-.054.033-.06.036a.165.165,0,0,0-.03.091.122.122,0,0,0,.018.041.154.154,0,0,1,.051-.083.153.153,0,0,0,.021-.085Z"/><path class="q" d="M579.289,228.589l-.017-.013a.171.171,0,0,1,.123-.055.17.17,0,0,0,.058-.013c.051-.025.141-.073.141-.073.011.019-.082.068-.133.092a.151.151,0,0,1-.063.013.168.168,0,0,0-.109.049Z"/><path class="q" d="M579.367,228.642c0-.021.1-.046.141-.069a.354.354,0,0,0,.068-.075.678.678,0,0,1,.16-.169l.01.018a.637.637,0,0,0-.152.166.464.464,0,0,1-.076.08.85.85,0,0,1-.151.049Z"/><path class="q" d="M579.391,228.683l0-.021a.439.439,0,0,0,.172-.037c.035-.034.089-.075.089-.075.016.017-.043.056-.076.089s-.17.042-.181.044Z"/><path class="a" d="M579.982,228.329v0Z"/><path class="q" d="M579.539,228.976l0-.02a2.4,2.4,0,0,0,.326-.063c.014.032-.275.078-.324.083Z"/><path class="q" d="M579.685,229.067h-.011v-.02a.492.492,0,0,0,.318-.159.382.382,0,0,1-.307.179Z"/><path class="q" d="M580.066,228.886a.71.71,0,0,1-.337-.066l.007-.017a1.4,1.4,0,0,0,.666.038.963.963,0,0,1-.336.045Z"/><path class="q" d="M580.242,228.766c-.006-.022.012-.054.028-.331h.017c-.014.331-.033.331-.045.331Z"/><path class="a" d="M580.174,228.606c.011-.089.017-.122.017-.122Z"/><path class="a" d="M580.219,228.323c0,.015-.008.112-.008.112Z"/><path class="q" d="M580.371,228.7l-.019-.012a.345.345,0,0,0,.041-.148c.021,0,.021.077-.022.16Z"/><path class="a" d="M580.352,228.5l-.008.058Z"/><path class="a" d="M580.494,228.559c-.033.082-.051.082-.051.082Z"/><path class="q" d="M580.918,228.86c-.025,0-.174-.14-.27-.186l.012-.019a1.755,1.755,0,0,1,.262.205Z"/><path class="q" d="M581.012,228.806c-.022,0-.09-.1-.17-.141l.01-.019a.707.707,0,0,1,.164.159Z"/><path class="q" d="M581.049,228.947c-.016-.014.06-.144-.041-.251l.015-.015a.231.231,0,0,1,.026.266Z"/><path class="a" d="M581.131,228.591l-.026.195Z"/><path class="q" d="M579.322,227.851c-.021,0-.072-.043-.1-.078a.174.174,0,0,1-.03-.075.119.119,0,0,0-.009-.049.264.264,0,0,0-.164-.133l0-.022a.264.264,0,0,1,.162.124.155.155,0,0,1,.031.075.1.1,0,0,0,.023.066,1.091,1.091,0,0,0,.088.09l0,0Z"/><path class="q" d="M579.5,227.982c-.018,0-.051-.066-.072-.1h0l-.059-.028a.216.216,0,0,1-.068-.109c-.012-.019-.016-.035-.022-.042l0-.042c0-.057.008-.154-.156-.167l0-.021c.178.015.174.132.174.19a.408.408,0,0,0,.021.074.29.29,0,0,0,.059.1c.043.011.055.013.068.035a.478.478,0,0,1,.063.108Z"/><path class="q" d="M579.221,227.5c-.018-.007,0-.051-.047-.1a.675.675,0,0,0-.065-.063l.01-.019a.417.417,0,0,1,.069.069c.054.059.037.112.033.114Z"/><path class="q" d="M579.381,227.654a.23.23,0,0,1-.051-.243l.018.008a.348.348,0,0,0,.033.234Z"/><path class="q" d="M579.441,227.682c-.017-.012.051-.15-.043-.217l.012-.019c.108.078.031.233.031.236Z"/><path class="a" d="M579.424,227.749l-.01.124Z"/><path class="a" d="M579.691,227.391a.161.161,0,0,1,.075.122Z"/><path class="q" d="M579.82,228.07c-.023-.005-.023-.013.02-.073a1.276,1.276,0,0,0,.1-.219l.02.008a1.967,1.967,0,0,1-.1.225.253.253,0,0,0-.039.059Z"/><path class="q" d="M579.8,228.242l-.018-.006c.057-.2.158-.232.162-.235.008.02-.09.054-.144.241Z"/><path class="q" d="M579.9,228.094l-.006-.019a.75.75,0,0,0,.3-.273.534.534,0,0,1-.3.292Z"/><path class="q" d="M579.3,228.462l-.008-.019a.331.331,0,0,1,.207-.069.145.145,0,0,0,.063-.006.232.232,0,0,0,.119-.077c.013.014-.03.071-.114.1a.2.2,0,0,1-.068.006.318.318,0,0,0-.2.067Z"/><path class="q" d="M579.488,228.347a.856.856,0,0,0-.293-.056l0-.021a.547.547,0,0,1,.3.077Z"/><path class="q" d="M579.648,228.295c-.021,0-.05-.11-.191-.125v-.022a.213.213,0,0,1,.191.147Z"/><path class="q" d="M579.957,228.785a.755.755,0,0,0-.309-.012v-.021c.28-.022.309.019.313.033Z"/><path class="a" d="M579.873,228.517c-.006-.106-.006-.129-.006-.129Z"/><path class="q" d="M579.809,227.852l-.02-.009a1.943,1.943,0,0,1,.262-.354c.015.017-.119.148-.242.363Z"/><path class="q" d="M580.051,227.586l-.014-.015a1.549,1.549,0,0,0,.2-.244.75.75,0,0,1-.185.259Z"/><path class="q" d="M579.838,227.571a2,2,0,0,0-.016-.212c-.009-.1-.017-.14.018-.2a.579.579,0,0,1,.109-.125.36.36,0,0,0,.071-.077.616.616,0,0,0,.052-.225.272.272,0,0,1,.092-.187c.01.016-.07.095-.07.187a.539.539,0,0,1-.043.2.363.363,0,0,1-.086.119.557.557,0,0,0-.106.121.279.279,0,0,0-.019.189c.008.051.012.118.019.215Z"/><path class="q" d="M579.84,227.4a.5.5,0,0,1-.051-.261c0-.02.027-.04.051-.07a.422.422,0,0,0,.15-.439l.022-.005a.446.446,0,0,1-.153.46.228.228,0,0,0-.05.061.932.932,0,0,0,.031.254Z"/><path class="q" d="M579.588,227.238a2.7,2.7,0,0,1-.279-.207l.009-.017a2.23,2.23,0,0,1,.272.222l0,0Z"/><path class="q" d="M579.623,227.142a.591.591,0,0,1-.111-.037.485.485,0,0,1-.08-.036.238.238,0,0,0-.059-.028v-.021a.165.165,0,0,1,.068.031c.028.014.055.028.077.037a.763.763,0,0,1,.117.049c0,.005-.008.005-.012.005Z"/><path class="q" d="M579.543,227.058c-.021-.007-.014-.041-.047-.086a.2.2,0,0,0-.051-.051.311.311,0,0,1-.132-.182l.021,0a.29.29,0,0,0,.123.169.478.478,0,0,1,.059.054.146.146,0,0,1,.027.1Z"/><path class="a" d="M579.8,228.559v0Z"/><path class="q" d="M579.772,227.017a2.131,2.131,0,0,1,.017-.3,1.778,1.778,0,0,1,0,.3l-.021,0Z"/><path class="q" d="M579.867,226.971c-.019-.012.047-.148.047-.308h.021a.767.767,0,0,1-.068.308Z"/><path class="q" d="M579.772,226.962a.466.466,0,0,1-.04-.13c0-.017,0-.03-.007-.051a.215.215,0,0,0-.034-.078c.016-.014.034.006.051.072q.006.033.012.054a.448.448,0,0,0,.039.125l-.021.008Z"/><path class="q" d="M579.525,226.787H579.5a.526.526,0,0,1,.059-.254c.017-.033.025-.051.017-.078a.923.923,0,0,0-.033-.114c.019-.009.037.035.055.109a.141.141,0,0,1-.018.091.543.543,0,0,0-.059.247Z"/><path class="q" d="M579.6,226.5c-.018-.015.046-.12.144-.162l.008.019a.443.443,0,0,0-.152.143Z"/><path class="q" d="M579.566,226.676l-.019-.009a.635.635,0,0,1,.152-.232.166.166,0,0,1,.131-.026c-.008.02-.072.005-.115.042a.588.588,0,0,0-.149.225Z"/><path class="a" d="M579.475,226.346a.333.333,0,0,0,.025.153Z"/><path class="q" d="M579.59,226.434l-.018-.011a.775.775,0,0,0,.084-.267.41.41,0,0,1-.066.278Z"/><path class="q" d="M579.945,227.579l-.021,0a1.361,1.361,0,0,1,.119-.381c.016.014-.082.216-.1.383Z"/><path class="s" d="M579.518,226.768a.054.054,0,1,0-.053.061.058.058,0,0,0,.053-.061Z"/><path class="q" d="M579.465,226.84a.069.069,0,0,1-.067-.072.064.064,0,0,1,.127,0,.065.065,0,0,1-.06.072Z"/><path class="s" d="M579.609,226.854a.058.058,0,0,0-.054-.059.056.056,0,0,0-.055.059.058.058,0,0,0,.055.063.059.059,0,0,0,.054-.063Z"/><path class="q" d="M579.555,226.927a.07.07,0,0,1-.067-.073.065.065,0,0,1,.129,0,.069.069,0,0,1-.062.073Z"/><path class="s" d="M579.809,227.289a.058.058,0,0,0-.055-.06.055.055,0,0,0-.051.06.057.057,0,0,0,.051.061.06.06,0,0,0,.055-.061Z"/><path class="q" d="M579.754,227.359a.068.068,0,0,1-.063-.07.065.065,0,0,1,.129,0,.069.069,0,0,1-.066.07Z"/><path class="s" d="M579.914,227.352a.057.057,0,0,0-.055-.061.062.062,0,0,0,0,.121.057.057,0,0,0,.055-.06Z"/><path class="q" d="M579.859,227.423a.068.068,0,0,1-.062-.071.064.064,0,0,1,.127,0,.068.068,0,0,1-.065.071Z"/><path class="s" d="M579.522,227.986a.056.056,0,0,0-.051-.06.057.057,0,0,0-.053.06.058.058,0,0,0,.053.062.057.057,0,0,0,.051-.062Z"/><path class="q" d="M579.471,228.06a.072.072,0,0,1-.065-.074.064.064,0,0,1,.127,0,.072.072,0,0,1-.062.074Z"/><path class="s" d="M579.783,228.12a.054.054,0,0,0-.054-.06.056.056,0,0,0-.051.06.059.059,0,0,0,.051.061.057.057,0,0,0,.054-.061Z"/><path class="q" d="M579.729,228.19a.066.066,0,0,1-.061-.07.063.063,0,0,1,.125,0,.066.066,0,0,1-.064.07Z"/><path class="s" d="M579.94,228.639a.059.059,0,0,0-.055-.061.055.055,0,0,0-.051.061.054.054,0,0,0,.051.06.058.058,0,0,0,.055-.06Z"/><path class="q" d="M579.885,228.711a.069.069,0,0,1-.065-.072.065.065,0,0,1,.129,0,.068.068,0,0,1-.064.072Z"/><path class="s" d="M580.219,228.784a.062.062,0,0,0-.055-.062.061.061,0,0,0-.055.062.06.06,0,0,0,.055.061.061.061,0,0,0,.055-.061Z"/><path class="q" d="M580.164,228.855a.068.068,0,0,1-.066-.071.064.064,0,0,1,.127,0,.066.066,0,0,1-.061.071Z"/><path class="s" d="M580.359,228.778a.057.057,0,0,0-.054-.06.054.054,0,0,0-.051.06.057.057,0,0,0,.051.062.06.06,0,0,0,.054-.062Z"/><path class="q" d="M580.3,228.849a.071.071,0,0,1-.065-.071.066.066,0,0,1,.131,0,.068.068,0,0,1-.066.071Z"/><path class="s" d="M580.8,228.877a.057.057,0,0,0-.053-.061.056.056,0,0,0-.051.061.057.057,0,0,0,.051.061.059.059,0,0,0,.053-.061Z"/><path class="q" d="M580.744,228.947a.067.067,0,0,1-.062-.07.064.064,0,0,1,.127,0,.069.069,0,0,1-.065.07Z"/><path class="a" d="M583.9,229.717c-.07-.111-.113-.12-.113-.12Z"/><path class="a" d="M583.879,229.754c-.069-.109-.111-.12-.111-.12Z"/><path class="a" d="M583.848,229.787c-.071-.11-.114-.12-.114-.12Z"/><path class="a" d="M583.82,229.825c-.064-.108-.107-.12-.107-.12Z"/><path class="a" d="M583.789,229.852c-.066-.11-.113-.12-.113-.12Z"/><path class="a" d="M583.768,229.892c-.069-.111-.114-.121-.114-.121Z"/><path class="a" d="M583.734,229.917c-.068-.108-.113-.119-.113-.119Z"/><path class="a" d="M583.713,229.956c-.068-.109-.115-.12-.115-.12Z"/><path class="a" d="M583.68,229.983c-.065-.107-.11-.119-.11-.119Z"/><g class="t"><path class="e" d="M583.828,229.624a.58.58,0,0,0-.453-.115.267.267,0,0,0-.25-.074c-.082.035-.133.213-.133.237,0,.05.09.088.162.093s.244.006.3.011.135.1.135.1a1.579,1.579,0,0,1,.242-.252Z"/></g><path d="M583.586,229.9l-.012-.016c-.021-.024-.082-.088-.123-.093s-.086,0-.144-.005-.116,0-.153-.006c-.072-.005-.177-.047-.177-.109,0-.029.05-.214.14-.251a.3.3,0,0,1,.27.075l.123-.005a.445.445,0,0,1,.33.12,3.094,3.094,0,0,0-.24.274l-.014.016Zm-.406-.46a.152.152,0,0,0-.051.009c-.069.031-.119.2-.119.222s.072.07.144.077c.037,0,.094,0,.153.005s.119,0,.148.006a.275.275,0,0,1,.131.088,1.393,1.393,0,0,1,.234-.241.536.536,0,0,0-.31-.083l-.1,0-.043-.006a.315.315,0,0,0-.185-.079Z"/><g class="u"><path class="e" d="M583.357,229.612c0-.083-.054-.125-.1-.115a3.715,3.715,0,0,1-.457.142c-.094.006-.256-.092-.256-.152s.234-.143.234-.143l.165.05a1.047,1.047,0,0,1,.328-.1c.125,0,.2.078.189.139a.443.443,0,0,1-.1.179Z"/></g><path d="M582.789,229.657a.365.365,0,0,1-.172-.058c-.027-.017-.1-.065-.1-.112,0-.068.189-.138.25-.158l.171.05a.9.9,0,0,1,.325-.1.247.247,0,0,1,.179.069.113.113,0,0,1,.028.088c0,.049-.09.194-.116.194-.017-.081-.054-.117-.091-.117a1.041,1.041,0,0,0-.149.049,1.586,1.586,0,0,1-.322.1Zm-.019-.3c-.1.039-.213.1-.213.128s.025.049.08.083a.334.334,0,0,0,.152.053v.017l.006-.017a1.532,1.532,0,0,0,.312-.1,1.326,1.326,0,0,1,.141-.047.113.113,0,0,1,.123.118c.008-.039.067-.126.07-.168a.074.074,0,0,0-.025-.061.194.194,0,0,0-.15-.059,1.033,1.033,0,0,0-.321.1l-.175-.048Z"/><path d="M583.256,229.677h-.018a.729.729,0,0,1-.142-.024c-.047-.009-.069,0-.09.024-.018-.029.014-.066.043-.066a.232.232,0,0,1,.051.01,1.1,1.1,0,0,0,.142.024c.106,0,.108-.048.108-.067l.037,0c0,.037-.03.1-.131.1Z"/><path d="M579.182,229.725l-.026-.018c.065-.112.116-.125.119-.128.01.032-.033.046-.093.146Z"/><path d="M579.2,229.763l-.025-.017c.064-.112.115-.127.119-.129.008.032-.029.046-.094.146Z"/><path d="M579.234,229.8l-.027-.019c.072-.112.119-.126.127-.126.006.033-.037.045-.1.145Z"/><path d="M579.262,229.833l-.03-.018c.069-.11.116-.125.123-.125.008.032-.033.044-.093.143Z"/><path d="M579.293,229.861l-.027-.018c.068-.111.119-.125.121-.126.011.032-.032.046-.094.144Z"/><path d="M579.316,229.9l-.031-.016c.074-.112.121-.127.125-.129.008.032-.033.046-.094.145Z"/><path d="M579.352,229.927l-.03-.019c.069-.111.116-.125.119-.127.012.033-.031.046-.089.146Z"/><path d="M579.373,229.966l-.029-.018c.07-.114.117-.127.125-.128.006.032-.034.046-.1.146Z"/><path d="M579.4,229.991l-.025-.015c.068-.114.115-.128.119-.129.012.032-.031.045-.094.144Z"/><g class="v"><path class="e" d="M579.238,229.624a.589.589,0,0,1,.457-.115.262.262,0,0,1,.25-.074c.08.035.131.213.131.237,0,.05-.09.088-.162.093s-.24.006-.3.011-.135.1-.135.1a1.443,1.443,0,0,0-.244-.252Z"/></g><path d="M579.482,229.9l-.013-.016a1.481,1.481,0,0,0-.237-.247.382.382,0,0,1,.331-.147l.1,0a.372.372,0,0,1,.289-.072c.094.037.143.222.143.251,0,.062-.1.1-.178.109-.037,0-.094,0-.148.006s-.121,0-.147.005c-.043,0-.1.069-.123.093l-.014.016Zm.081-.377a.408.408,0,0,0-.309.111c.062.016.187.165.228.213a.269.269,0,0,1,.135-.088c.028,0,.086,0,.145-.006s.115,0,.152-.005c.072-.007.145-.044.145-.077s-.047-.191-.119-.222a.28.28,0,0,0-.233.07l0,0-.043,0-.1,0Z"/><g class="w"><path class="e" d="M579.715,229.612c0-.083.051-.125.1-.115a3.808,3.808,0,0,0,.453.142c.094.006.256-.092.256-.152s-.236-.143-.236-.143l-.162.05a1.046,1.046,0,0,0-.33-.1c-.123,0-.2.078-.188.139a.437.437,0,0,0,.1.179Z"/></g><path d="M580.279,229.657h-.006a1.519,1.519,0,0,1-.32-.1c-.062-.024-.115-.042-.137-.048a.09.09,0,0,0-.087.1c-.044.018-.131-.13-.135-.177a.111.111,0,0,1,.033-.09.235.235,0,0,1,.174-.067,1.039,1.039,0,0,1,.338.1l.148-.052c.072.022.26.092.26.16s-.17.17-.268.17Zm-.478-.178a1.1,1.1,0,0,1,.164.049,1.448,1.448,0,0,0,.31.1l0,.017v-.017c.092,0,.233-.09.233-.136,0-.029-.117-.089-.225-.128l-.148.052a1.183,1.183,0,0,0-.338-.1.206.206,0,0,0-.149.056.084.084,0,0,0-.025.064.451.451,0,0,0,.094.168.085.085,0,0,1,.08-.12Z"/><path d="M579.813,229.677c-.106,0-.128-.058-.128-.1l.034,0c0,.048.043.071.111.067a1.045,1.045,0,0,0,.139-.024.286.286,0,0,1,.051-.01c.027,0,.06.035.068.045a.133.133,0,0,1-.068-.01l-.045.007a.778.778,0,0,1-.145.024Z"/><g class="x"><path class="e" d="M581.555,228.935c-1.1-.026-1.547.185-1.551.338a.275.275,0,0,0,.207.274c.072,0,.258-.1.25-.133-.029-.018-.033-.038-.016-.048a4.839,4.839,0,0,1,1.118-.093,3.96,3.96,0,0,1,1.1.093c.006.028-.054.045-.092.083.157-.014.2.08.27.087a.263.263,0,0,0,.217-.252c.007-.159-.461-.328-1.5-.349Z"/></g><path d="M580.211,229.564a.24.24,0,0,1-.139-.075.345.345,0,0,1-.086-.216c.006-.172.446-.357,1.4-.357l.172,0a2.75,2.75,0,0,1,1.476.277.121.121,0,0,1,.039.089.286.286,0,0,1-.226.269h0a.161.161,0,0,1-.092-.038.256.256,0,0,0-.152-.051h-.037l-.006-.026a.551.551,0,0,1,.05-.042c.014-.006.034-.021.034-.026a5.051,5.051,0,0,0-1.078-.081,4.881,4.881,0,0,0-1.11.093l.02.008-.008.056a.5.5,0,0,1-.254.118Zm1.172-.616c-.985,0-1.358.2-1.363.326a.284.284,0,0,0,.078.191.187.187,0,0,0,.113.063.4.4,0,0,0,.232-.112c-.015,0-.025-.017-.025-.034a3.169,3.169,0,0,1,1.145-.125,3.314,3.314,0,0,1,1.109.1c.008.028-.018.045-.047.063a.184.184,0,0,0-.043.035.206.206,0,0,1,.188.027.134.134,0,0,0,.066.032h0a.247.247,0,0,0,.2-.236.08.08,0,0,0-.025-.063c-.055-.058-.319-.244-1.455-.269l-.172,0Z"/><path class="m" d="M580.367,229.3l-.062-.171.1-.034.008.02-.084.027.022.053.076-.026.008.02-.076.028.018.058.088-.03.008.022Z"/><path class="m" d="M580.715,229.048h.021l.01.107v.045a.055.055,0,0,1-.017.03.082.082,0,0,1-.036.013.056.056,0,0,1-.062-.03c0-.013-.006-.028-.01-.046l-.008-.109h.018l.012.107a.209.209,0,0,1,.005.036.086.086,0,0,0,.016.017.063.063,0,0,0,.026.005.036.036,0,0,0,.029-.016c.008-.008.01-.024.008-.05Z"/><path class="m" d="M580.935,229.208v-.179h.021v.157h.076v.021Z"/><rect class="m" width="0.025" height="0.186" transform="translate(581.07 229.021)"/><path class="m" d="M581.236,229.146l.018.005a.089.089,0,0,1-.022.049.041.041,0,0,1-.035.017.056.056,0,0,1-.037-.013.152.152,0,0,1-.017-.036.233.233,0,0,1-.008-.054.186.186,0,0,1,.008-.05c.007-.016.009-.026.021-.035a.056.056,0,0,1,.033-.012.042.042,0,0,1,.035.015.062.062,0,0,1,.018.04l-.018.007a.042.042,0,0,0-.013-.031.028.028,0,0,0-.022-.009.036.036,0,0,0-.025.01.072.072,0,0,0-.016.03.11.11,0,0,0,0,.035.153.153,0,0,0,0,.045.147.147,0,0,0,.016.026.043.043,0,0,0,.025.008.034.034,0,0,0,.026-.011.079.079,0,0,0,.013-.036Z"/><path class="m" d="M581.846,229.206v-.177h.033l.039.125.008.025a.144.144,0,0,1,.008-.029l.039-.121H582v.177h-.022v-.148l-.046.148h-.02l-.047-.149v.149Z"/><rect class="m" width="0.025" height="0.181" transform="translate(582.031 229.032)"/><path class="m" d="M582.1,229.217v-.182h.018l.074.143v-.143h.018v.182h-.021l-.07-.142v.142Z"/><rect class="m" width="0.021" height="0.173" transform="translate(582.252 229.044)"/><path class="m" d="M582.41,229.182l.024.006a.146.146,0,0,1-.03.047.062.062,0,0,1-.045.012.066.066,0,0,1-.035-.016.078.078,0,0,1-.017-.04.2.2,0,0,1,0-.051c0-.02.01-.036.013-.051a.1.1,0,0,1,.03-.031.076.076,0,0,1,.041-.009.09.09,0,0,1,.035.018.081.081,0,0,1,.016.044l-.02,0a.091.091,0,0,0-.014-.031.023.023,0,0,0-.021-.012c-.016,0-.024,0-.029.008a.061.061,0,0,0-.018.026.123.123,0,0,0-.012.037v.043a.068.068,0,0,0,.018.028c0,.009.015.01.017.012a.05.05,0,0,0,.034-.008.071.071,0,0,0,.017-.035Z"/><path class="m" d="M582.592,229.287l.041-.188.021,0,.043.165.033-.148.017,0-.039.189-.018,0-.049-.165-.031.148Z"/><path class="m" d="M580.223,229.365l-.071-.175.059-.026a.1.1,0,0,1,.031-.008.037.037,0,0,1,.024.011c.007,0,.009.015.013.023a.054.054,0,0,1,0,.035.051.051,0,0,1-.021.03l.013,0a.205.205,0,0,1,.026.016l.043.036-.024.01-.033-.027c-.008-.01-.014-.015-.017-.019l-.016,0-.014,0-.008,0-.021.008.031.077Zm-.024-.106.041-.018a.037.037,0,0,0,.018-.01c.008-.006.008-.009.008-.015a.03.03,0,0,0,0-.018c0-.008-.008-.015-.016-.016a.019.019,0,0,0-.023,0l-.049.018Z"/><path class="m" d="M580.5,229.262l-.039-.181.058-.013.022,0a.044.044,0,0,1,.021,0c.008,0,.01.01.018.016a.049.049,0,0,1,.008.023.045.045,0,0,1,0,.042c0,.013-.018.021-.041.026l-.039.007.017.074Zm0-.1.041-.008a.073.073,0,0,0,.025-.013.062.062,0,0,0,0-.027.024.024,0,0,0-.011-.019l-.016-.007-.022,0-.035.008Z"/><path class="m" d="M580.791,229.223l-.012-.183.055,0a.054.054,0,0,1,.029,0,.1.1,0,0,1,.018.018.043.043,0,0,1,0,.023.045.045,0,0,1,0,.023c0,.007-.006.012-.014.017a.043.043,0,0,1,.026.015.064.064,0,0,1,.005.028.171.171,0,0,1,0,.024.021.021,0,0,1-.012.018.042.042,0,0,1-.014.011c-.008,0-.016,0-.023.005Zm.014-.107.029,0,.021,0,.008-.01s0-.009,0-.016a.024.024,0,0,0,0-.017l-.011-.008a.038.038,0,0,0-.022,0H580.8Zm0,.084.037,0h.013l.012-.007.008-.009a.054.054,0,0,0,0-.018c0-.005,0-.013-.006-.018l-.012-.009a.1.1,0,0,0-.025,0l-.029,0Z"/><path class="m" d="M581.273,229.208l.061-.191h.018l.062.191h-.021l-.018-.058h-.062l-.018.058Zm.043-.078h.055l-.019-.053a.145.145,0,0,0-.01-.039.1.1,0,0,1-.008.034Z"/><path class="m" d="M581.531,229.208v-.187h.053l.021,0a.063.063,0,0,1,.028.015.119.119,0,0,1,.017.031.162.162,0,0,1,0,.045.106.106,0,0,1,0,.037.031.031,0,0,1-.011.027.146.146,0,0,1-.01.018.067.067,0,0,1-.024.01l-.021,0Zm.018-.023h.035a.065.065,0,0,0,.021,0,.038.038,0,0,0,.016-.011.067.067,0,0,0,.012-.023c0-.009,0-.022,0-.036a.077.077,0,0,0-.01-.045.039.039,0,0,0-.02-.02s-.013-.005-.021-.005h-.035Z"/><path class="m" d="M581.685,229.116a.157.157,0,0,1,.018-.076.057.057,0,0,1,.049-.027.048.048,0,0,1,.033.013.091.091,0,0,1,.024.035c0,.016,0,.034,0,.052s0,.037,0,.054a.084.084,0,0,1-.024.033.073.073,0,0,1-.033.013.075.075,0,0,1-.037-.013.09.09,0,0,1-.018-.037.113.113,0,0,1-.012-.047Zm.018,0a.112.112,0,0,0,.016.055.037.037,0,0,0,.033.02.043.043,0,0,0,.033-.022.092.092,0,0,0,.01-.056.134.134,0,0,0,0-.041.1.1,0,0,0-.014-.026.032.032,0,0,0-.025-.012c-.016,0-.022.008-.033.021a.1.1,0,0,0-.016.061Z"/><path class="m" d="M582.434,229.246l.093-.179.022,0,.021.207-.021-.005,0-.063-.065-.014-.025.054Zm.058-.07.051.012,0-.056a.183.183,0,0,1,0-.043c0,.012-.012.024-.015.034Z"/><path class="m" d="M582.723,229.316l.131-.152.017.008-.021.207-.018-.009.008-.062-.055-.029-.041.047Zm.072-.054.045.022.006-.055a.2.2,0,0,0,.008-.044.286.286,0,0,1-.022.032Z"/><path class="e" d="M582.059,229.473a.3.3,0,0,0-.274-.016l.006.118a.334.334,0,0,1,.115.018l.114.055Z"/><path d="M582.031,229.672l-.131-.065a.442.442,0,0,0-.109-.013l-.021-.137a.3.3,0,0,1,.293,0l-.032.215Zm-.189-.107a.171.171,0,0,1,.072.013l.094.046.033-.155a1.253,1.253,0,0,0-.246,0l.01.1c0-.008.015-.008.037-.008Z"/><path class="e" d="M581.012,229.481a.307.307,0,0,1,.275-.017l-.006.12a.35.35,0,0,0-.117.018c-.033.014-.113.054-.113.054Z"/><path d="M581.041,229.681l-.043-.2a.315.315,0,0,1,.3-.035v.137c-.037.016-.1.018-.127.029l-.131.066Zm.141-.222a.425.425,0,0,0-.162.038l.043.136.093-.047a.4.4,0,0,1,.125-.021l-.008-.1c-.007,0-.041-.009-.091-.009Z"/><path class="e" d="M581.434,229.44v.174c.006.011.039.025.1.025a.2.2,0,0,0,.094-.025v-.181a.3.3,0,0,0-.109-.017.176.176,0,0,0-.082.024Z"/><path d="M581.531,229.657a.156.156,0,0,1-.113-.033v-.184c.017-.027.047-.036.1-.042a.724.724,0,0,1,.113.018l.01.2a.134.134,0,0,1-.108.043Zm-.08-.044.162-.014-.008-.161c-.005.006-.039-.006-.074-.006a.2.2,0,0,0-.084.018l0,.163Z"/><path class="e" d="M581.625,229.625c.029.05.229.033.23-.011a.526.526,0,0,0,0-.1h-.234Z"/><path d="M581.727,229.672h0c-.037,0-.1,0-.118-.038l0-.125.254-.018a.228.228,0,0,1,.016.124c-.008.046-.1.057-.148.057Zm.115-.163-.217.015.014.1a.592.592,0,0,0,.2-.013.5.5,0,0,0,0-.1Z"/><path class="e" d="M581.625,229.433a.423.423,0,0,1,.156-.035.126.126,0,0,1,.082.04l-.009.159a.122.122,0,0,0-.084-.04.317.317,0,0,0-.145.049Z"/><path d="M581.6,229.635v-.2a.309.309,0,0,1,.161-.051.164.164,0,0,1,.113.045l-.008.171c-.039-.005-.072-.025-.1-.025a.3.3,0,0,0-.14.048l-.028.014Zm.165-.094a.125.125,0,0,1,.1.046l-.017-.149c0,.008-.026-.017-.069-.022a.358.358,0,0,0-.148.032l.006.131a.331.331,0,0,1,.131-.038Z"/><path class="e" d="M581.434,229.628c-.032.049-.227.033-.235-.012s0-.106,0-.106h.237Z"/><path d="M581.334,229.676c-.051,0-.144-.013-.152-.057s0-.109,0-.109l.252-.015.017.133c-.021.042-.084.048-.117.048Zm-.127-.15a.365.365,0,0,1,.012.089.352.352,0,0,0,.2,0v-.11l-.211.016Z"/><path class="e" d="M581.434,229.435a.428.428,0,0,0-.157-.036.133.133,0,0,0-.084.041l.01.159a.117.117,0,0,1,.084-.039.314.314,0,0,1,.147.049Z"/><path d="M581.451,229.638l-.025-.014a.315.315,0,0,0-.139-.047h0a.123.123,0,0,0-.068.029l-.043-.166a.122.122,0,0,1,.1-.054.583.583,0,0,1,.167.033l.011.219Zm-.168-.1a.338.338,0,0,1,.135.039v-.147a1.184,1.184,0,0,0-.127-.017.154.154,0,0,0-.088.032l.016.127a.078.078,0,0,1,.064-.034Z"/></g></g></g></g></svg>