<svg xmlns="http://www.w3.org/2000/svg" xmlns:xlink="http://www.w3.org/1999/xlink" width="33.563" height="19.579" viewBox="0 0 33.563 19.579"><defs><style>.a{fill:none;}.b{clip-path:url(#a);}.c{fill:#bc0030;}.d{fill:#1c2a7d;}.e{fill:#fff;}</style><clipPath id="a"><rect class="a" width="33.563" height="19.579" transform="translate(95.639 179.824)"/></clipPath></defs><g transform="translate(-95.639 -179.824)"><g class="b"><rect class="c" width="33.563" height="19.579" transform="translate(95.639 179.824)"/><rect class="d" width="17.931" height="8.967" transform="translate(95.639 179.824)"/><path class="e" d="M104.6,186.048l.771,2.368-2.015-1.462h2.49l-2.017,1.462Z"/><path class="e" d="M101.865,182.439l.615,1.9-1.611-1.173h1.993l-1.614,1.173Z"/><path class="e" d="M107.406,182.068l.577,1.775-1.51-1.1h1.866l-1.511,1.1Z"/><path class="e" d="M104.6,180.2l.615,1.893-1.61-1.17h1.99l-1.61,1.17Z"/><path class="e" d="M105.974,184.369l.388,1.184-1.01-.731H106.6l-1.007.731Z"/></g></g></svg>