<svg xmlns="http://www.w3.org/2000/svg" xmlns:xlink="http://www.w3.org/1999/xlink" width="33.563" height="19.579" viewBox="0 0 33.563 19.579"><defs><style>.a{fill:none;}.b{clip-path:url(#a);}.c{fill:#419e4b;}.d{fill:#bc0030;}.e{fill:#f3d02f;}.f{fill:#fff;}</style><clipPath id="a"><rect class="a" width="33.563" height="19.579" transform="translate(95.639 217.965)"/></clipPath></defs><g transform="translate(-95.639 -217.965)"><g class="b"><path class="c" d="M95.639,217.965v15.327l22.991-15.327Z"/><path class="d" d="M106.206,237.544h23V222.212Z"/><path class="e" d="M118.63,217.965,95.639,233.292v1.616l25.412-16.943Z"/><path class="e" d="M103.784,237.544h2.422l23-15.332V220.6Z"/><path d="M105.974,232.476l-.6-.025-1.459-.056,1.716-1.146-.557-1.982,1.616,1.276L108.4,229.4l-.506,1.373-.211.564,1.62,1.276-2.061-.086-.714,1.934Zm11.54-7.7-.6-.025-1.458-.057,1.715-1.141-.556-1.987,1.614,1.277,1.712-1.141-.506,1.369-.207.564,1.616,1.276-2.058-.085-.713,1.934Zm3.537-6.815L95.639,234.908v2.636h8.145L129.2,220.6v-2.636Z"/><path class="f" d="M119.942,221.706l-1.712,1.141-1.614-1.276.556,1.986-1.715,1.142,1.458.057,2.521-1.68Z"/><path class="f" d="M118.074,226.764l.713-1.934,2.058.085-1.615-1.276.207-.564-2.521,1.68.6.025Z"/><path class="f" d="M108.4,229.4l-1.715,1.145-1.616-1.276.557,1.982-1.716,1.146,1.459.057,2.525-1.681Z"/><path class="f" d="M106.53,234.459l.714-1.934,2.061.086-1.619-1.276.211-.565-2.525,1.681.6.024Z"/></g></g></svg>