<svg xmlns="http://www.w3.org/2000/svg" xmlns:xlink="http://www.w3.org/1999/xlink" width="33.563" height="19.579" viewBox="0 0 33.563 19.579"><defs><style>.a{fill:none;}.b{clip-path:url(#a);}.c,.p{fill:#3e7fcd;}.d,.v{fill:#fff;}.e{fill:#376fb8;}.f,.i{fill:#e1c025;}.g{fill:#c1b020;}.h{fill:#e1e2e3;}.aa,.ab,.i,.l,.n,.p,.q,.r,.t,.v,.x,.z{fill-rule:evenodd;}.j{clip-path:url(#c);}.k{fill:#d90031;}.l{fill:#3b8f4e;}.aa,.m{fill:#796d14;}.n{fill:#6fd66c;}.o{fill:#539d51;}.q{fill:#348110;}.r{fill:#a2871a;}.s{fill:#7b6714;}.t{fill:#914822;}.u{fill:#613219;}.w{fill:#a6a6a6;}.y{fill:#a5a5a5;}.z{fill:#ad761b;}.ab{fill:#2b6a0c;}.ac{fill:#1c4404;}.ad{fill:#43a514;}</style><clipPath id="a"><rect class="a" width="33.563" height="19.579" transform="translate(43.515 294.244)"/></clipPath><clipPath id="c"><path class="a" d="M58.983,301.77a5.846,5.846,0,0,0,2.623,0,5.924,5.924,0,0,0-2.623,0"/></clipPath></defs><g transform="translate(-43.515 -294.244)"><g class="b"><rect class="c" width="33.563" height="9.79" transform="translate(43.515 304.033)"/><rect class="d" width="33.563" height="9.789" transform="translate(43.515 294.244)"/><g class="b"><path class="e" d="M60.471,299.416c-.024,0-.047,0-.069,0H60.3a1.443,1.443,0,0,1-.175-.007.179.179,0,0,0,.35,0Z"/><path d="M60.3,299.558a.179.179,0,0,1-.181-.146c.063,0,.122,0,.181,0a.948.948,0,0,0,.106,0h.043v0l-.043.007a2.218,2.218,0,0,1-.283,0,.193.193,0,0,0,.319.054.148.148,0,0,1-.142.085Z"/><path class="e" d="M60.3,299.216a.172.172,0,0,0-.175.139c.023,0,.044,0,.068,0a.993.993,0,0,1,.109,0c.033,0,.068,0,.1,0s.045,0,.069,0a.176.176,0,0,0-.175-.139Z"/><path d="M60.476,299.362l-.074-.007q-.106,0-.213,0l-.064.007,0,0,.062-.013a1.893,1.893,0,0,1,.213,0l.062.01a.18.18,0,0,0-.337,0c.014-.174.318-.167.349,0v.007Z"/><path class="f" d="M60.316,299.112v.094l.012.013H60.26l.015-.013v-.094H60.18l-.015.011v-.067l.015.014h.095v-.1l-.015-.011h.068l-.012.011v.1h.1l.011-.014v.067l-.011-.011Z"/><path d="M60.328,299.223H60.26l.009-.11h-.037l.043-.008,0,.1.035.006,0,0v-.1l.1-.008,0-.027.013.046-.112-.007.015.1,0,.011Z"/><rect class="g" width="0.23" height="0.121" transform="translate(60.18 299.516)"/><path d="M60.416,299.641H60.18l-.005-.125.235,0,.006.129Zm-.012-.125-.224.007.005.114.219-.007v-.114Z"/><path class="f" d="M60.266,299.219a.528.528,0,0,1,0,.057c0,.026,0,.05,0,.076a.12.12,0,0,1,.038,0,.1.1,0,0,1,.033,0c0-.026,0-.05,0-.076s0-.039,0-.057a.113.113,0,0,0-.03,0,.093.093,0,0,0-.03,0Z"/><path class="a" d="M60.266,299.219a.528.528,0,0,1,0,.057c0,.026,0,.05,0,.076a.12.12,0,0,1,.038,0,.1.1,0,0,1,.033,0c0-.026,0-.05,0-.076s0-.039,0-.057a.113.113,0,0,0-.03,0A.093.093,0,0,0,60.266,299.219Z"/><path class="f" d="M60.471,299.355a1.194,1.194,0,0,0-.173-.018.893.893,0,0,0-.177.018.081.081,0,0,0,0,.028.073.073,0,0,0,0,.029,1.443,1.443,0,0,0,.175.007H60.4c.022,0,.045,0,.069,0v-.061Z"/><path d="M60.3,299.427h0c-.059,0-.118,0-.177-.008l0,0v-.008a2.383,2.383,0,0,0,.281,0h.043l.026-.025v.032l-.069,0a.948.948,0,0,1-.106,0Zm-.175-.019,0-.056a1.107,1.107,0,0,1,.354,0v.025l-.007-.019a1.2,1.2,0,0,0-.166-.013h0a.833.833,0,0,0-.175.017v.046Z"/><path class="f" d="M62.329,300.621a.188.188,0,0,1-.036.074l-.215-.241a.185.185,0,0,0,.015-.115c-.026-.178-.312-.363-.661-.389s-.974-.367-1.14-.252c.061-.076.209-.072.388-.044l.145.047c.12.043.246.089.365.128.059.019.117.032.169.046a.655.655,0,0,0,.077.015.3.3,0,0,0,.071.01.734.734,0,0,1,.126.019.627.627,0,0,1,.119.031.634.634,0,0,1,.109.043c.035.018.068.036.1.054a.619.619,0,0,1,.08.06.39.39,0,0,1,.064.065.364.364,0,0,1,.044.067.158.158,0,0,1,.013.036c0,.011.006.022.009.032a.134.134,0,0,1,0,.057.16.16,0,0,1-.013.057Z"/><path d="M62.293,300.7l-.216-.249a.207.207,0,0,0,.011-.115c-.023-.164-.293-.357-.656-.385a2.534,2.534,0,0,1-.54-.143c-.264-.092-.511-.17-.594-.11.042-.079.192-.082.383-.051l.253.083c.087.032.175.065.258.089a1.739,1.739,0,0,0,.169.046.621.621,0,0,0,.075.018.451.451,0,0,0,.071.008c.044,0,.085.01.128.017s.08.022.119.032l.111.043c.033.018.066.037.1.057a.969.969,0,0,1,.082.061.582.582,0,0,1,.064.068.241.241,0,0,1,.043.067l.022.068a.124.124,0,0,1,0,.06.15.15,0,0,1-.015.054l.173.2a.2.2,0,0,1-.036.082l0,0Zm-1.9-1.034a2.024,2.024,0,0,1,.5.129,2.355,2.355,0,0,0,.538.145c.335.026.639.206.667.4a.208.208,0,0,1-.013.115l.207.231a.171.171,0,0,0,.03-.068l-.173-.192c.007-.025.011-.043.015-.061a.337.337,0,0,0,0-.057l-.02-.064a.388.388,0,0,0-.042-.068.758.758,0,0,0-.063-.064.563.563,0,0,0-.082-.061.655.655,0,0,0-.095-.053c-.033-.015-.071-.028-.109-.043a.53.53,0,0,0-.119-.031,1.191,1.191,0,0,0-.124-.019c-.024,0-.047,0-.072-.006s-.05-.012-.077-.019c-.053-.011-.11-.028-.169-.046-.084-.024-.17-.058-.258-.086l-.253-.086a.529.529,0,0,0-.366.025.133.133,0,0,1,.079-.017Z"/><path class="f" d="M62.329,300.621l-.174-.2a.16.16,0,0,0,.013-.057.134.134,0,0,0,0-.057c0-.01-.005-.021-.009-.032a.158.158,0,0,0-.013-.036.364.364,0,0,0-.044-.067.39.39,0,0,0-.064-.065.619.619,0,0,0-.08-.06c-.029-.018-.062-.036-.1-.054a.634.634,0,0,0-.109-.043.627.627,0,0,0-.119-.031.734.734,0,0,0-.126-.019.3.3,0,0,1-.071-.01.655.655,0,0,1-.077-.015c-.052-.014-.11-.027-.169-.046-.119-.039-.245-.085-.365-.128l-.145-.047c.279.047.637.161.864.186a.844.844,0,0,1,.788.6.486.486,0,0,1,0,.179Z"/><path d="M62.33,300.629l-.18-.2c.007-.025.011-.043.015-.061a.337.337,0,0,0,0-.057l-.02-.064a.388.388,0,0,0-.042-.068.758.758,0,0,0-.063-.064.563.563,0,0,0-.082-.061.655.655,0,0,0-.095-.053c-.033-.015-.071-.028-.109-.043a.53.53,0,0,0-.119-.031,1.191,1.191,0,0,0-.124-.019c-.024,0-.047,0-.072-.006s-.05-.012-.077-.019c-.053-.011-.11-.028-.169-.046-.084-.024-.17-.058-.258-.086l-.253-.086a2.452,2.452,0,0,1,.415.079,4.011,4.011,0,0,0,.453.1c.352.031.756.274.791.6a.468.468,0,0,1,0,.179l0,.008Zm-1.65-.968.254.072c.087.032.175.065.258.089a1.739,1.739,0,0,0,.169.046.621.621,0,0,0,.075.018.451.451,0,0,0,.071.008c.044,0,.085.01.128.017s.08.022.119.032l.111.043c.033.018.066.037.1.057a.969.969,0,0,1,.082.061.582.582,0,0,1,.064.068.241.241,0,0,1,.043.067l.022.068a.124.124,0,0,1,0,.06.15.15,0,0,1-.015.054l.168.189a.554.554,0,0,0,0-.168c-.034-.324-.433-.563-.783-.6a3.227,3.227,0,0,1-.455-.093c-.141-.036-.283-.071-.409-.09Z"/><path class="f" d="M58.262,300.621a.217.217,0,0,0,.035.074l.212-.241a.217.217,0,0,1-.011-.115c.025-.178.312-.363.661-.389s.973-.367,1.139-.252c-.061-.076-.209-.072-.387-.044-.047.015-.1.03-.145.047-.121.043-.247.089-.366.128-.06.019-.116.032-.17.046a.558.558,0,0,1-.075.015.31.31,0,0,1-.07.01.785.785,0,0,0-.129.019.692.692,0,0,0-.119.031.748.748,0,0,0-.109.043c-.034.018-.067.036-.1.054a.568.568,0,0,0-.081.06.425.425,0,0,0-.063.065.655.655,0,0,0-.045.067c-.006.012-.008.026-.012.036a.1.1,0,0,0-.007.032.207.207,0,0,0,0,.057.292.292,0,0,0,.016.057Z"/><path d="M58.3,300.7l0,0a.255.255,0,0,1-.037-.078l.177-.2a.114.114,0,0,1-.017-.053.191.191,0,0,1,0-.057l.021-.068a.208.208,0,0,1,.045-.067.375.375,0,0,1,.065-.068.52.52,0,0,1,.081-.061.732.732,0,0,1,.1-.057l.108-.043c.038-.01.081-.024.12-.032s.086-.013.128-.017a.439.439,0,0,0,.07-.008.556.556,0,0,0,.076-.018,1.6,1.6,0,0,0,.169-.046c.084-.024.17-.057.258-.089l.253-.083c.193-.031.337-.024.393.044a1.349,1.349,0,0,0-.6.117,2.588,2.588,0,0,1-.541.143c-.365.028-.634.221-.656.385a.2.2,0,0,0,.011.111l-.217.253Zm1.805-1.062a1.06,1.06,0,0,0-.19.02l-.252.086c-.087.028-.175.062-.258.086-.06.018-.118.035-.172.046a.689.689,0,0,1-.075.019c-.025,0-.049.006-.07.006a1.251,1.251,0,0,0-.127.019.593.593,0,0,0-.119.031c-.039.015-.074.028-.108.043a.655.655,0,0,0-.095.053.472.472,0,0,0-.082.061.631.631,0,0,0-.063.064.3.3,0,0,0-.042.068l-.025.064h0a.177.177,0,0,0,0,.057.167.167,0,0,0,.014.053l-.176.208a.266.266,0,0,0,.032.06l.21-.235a.175.175,0,0,1-.016-.111c.027-.19.332-.37.668-.4a2.481,2.481,0,0,0,.538-.142c.266-.092.511-.171.6-.107a.309.309,0,0,0-.2-.053Z"/><path class="f" d="M58.262,300.621l.174-.2a.292.292,0,0,1-.016-.057.207.207,0,0,1,0-.057.1.1,0,0,1,.007-.032c0-.01.006-.024.012-.036a.655.655,0,0,1,.045-.067.425.425,0,0,1,.063-.065.568.568,0,0,1,.081-.06c.029-.018.062-.036.1-.054a.748.748,0,0,1,.109-.043.692.692,0,0,1,.119-.031.785.785,0,0,1,.129-.019.31.31,0,0,0,.07-.01.558.558,0,0,0,.075-.015c.054-.014.11-.027.17-.046.119-.039.245-.085.366-.128.049-.017.1-.032.145-.047-.28.047-.64.161-.867.186-.373.035-.755.289-.786.6a.428.428,0,0,0,0,.179Z"/><path d="M58.258,300.629l0-.008a.489.489,0,0,1,0-.179c.033-.331.438-.574.792-.6a3.865,3.865,0,0,0,.452-.1c.142-.035.286-.071.413-.09l-.249.1c-.087.028-.175.062-.258.086-.06.018-.118.035-.172.046a.689.689,0,0,1-.075.019c-.025,0-.049.006-.07.006a1.251,1.251,0,0,0-.127.019.593.593,0,0,0-.119.031c-.039.015-.074.028-.108.043a.655.655,0,0,0-.095.053.472.472,0,0,0-.082.061.631.631,0,0,0-.063.064.3.3,0,0,0-.042.068l-.025.064h0a.177.177,0,0,0,0,.057.167.167,0,0,0,.014.053l-.183.212Zm1.651-.979-.409.1a3.188,3.188,0,0,1-.454.093c-.35.035-.749.274-.783.6a.524.524,0,0,0,0,.168l.17-.193a.114.114,0,0,1-.017-.053.191.191,0,0,1,0-.057l.021-.068a.208.208,0,0,1,.045-.067.375.375,0,0,1,.065-.068.52.52,0,0,1,.081-.061.732.732,0,0,1,.1-.057l.108-.043c.038-.01.081-.024.12-.032s.086-.013.128-.017a.439.439,0,0,0,.07-.008.556.556,0,0,0,.076-.018,1.6,1.6,0,0,0,.169-.046c.083-.024.17-.057.258-.089l.253-.083Z"/><path class="f" d="M60.29,301.534a5.09,5.09,0,0,0-1.434.182c.032-.015-.014-.143-.051-.236-.044-.118-.111-.134-.111-.134a5.953,5.953,0,0,1,1.6-.2,6.146,6.146,0,0,1,1.6.2.236.236,0,0,0-.124.142c-.037.1-.066.217-.037.232a5.154,5.154,0,0,0-1.443-.182Z"/><path d="M61.731,301.72a6.042,6.042,0,0,0-2.873,0c.007-.015.015-.05-.058-.24-.041-.11-.106-.128-.106-.128s0,0,.007,0a5.682,5.682,0,0,1,1.591-.207,6.166,6.166,0,0,1,1.6.2.337.337,0,0,0-.121.149c-.043.112-.061.211-.039.222l0,.011Zm-3.026-.371c.018,0,.068.032.1.128.061.153.076.232.048.243a4.758,4.758,0,0,1,1.432-.194,5.179,5.179,0,0,1,1.429.179.471.471,0,0,1,.046-.221.233.233,0,0,1,.127-.146,7.218,7.218,0,0,0-3.187.011Z"/><path class="f" d="M60.292,301.174a5.877,5.877,0,0,0-1.559.192.049.049,0,0,1-.062-.028.048.048,0,0,1,.032-.061,6.444,6.444,0,0,1,3.186,0,.048.048,0,0,1,.031.061.052.052,0,0,1-.065.028,5.87,5.87,0,0,0-1.563-.192Z"/><path d="M61.874,301.374l-.021,0a6.558,6.558,0,0,0-3.118,0c-.041.007-.062-.011-.069-.032h0l0-.04a.043.043,0,0,1,.032-.027,5.627,5.627,0,0,1,1.591-.2,5.828,5.828,0,0,1,1.6.2l.033.027a.047.047,0,0,1,0,.04.053.053,0,0,1-.05.036Zm-1.582-.207a5.975,5.975,0,0,1,1.565.192l.017,0a.042.042,0,0,0,.04-.024l-.029-.057a5.781,5.781,0,0,0-1.593-.2,5.593,5.593,0,0,0-1.587.2l-.034.057h0a.042.042,0,0,0,.042.024,6.027,6.027,0,0,1,1.575-.2Z"/><path class="f" d="M60.3,300.7l.052.011a.166.166,0,0,0-.011.071.214.214,0,0,0,.415.065s.021-.076.03-.076.008.082.009.078a.214.214,0,0,0,.425-.032.106.106,0,0,0,0-.024l.068-.067.035.085a.21.21,0,0,0-.019.093.2.2,0,0,0,.371.107l.044-.054v.063c0,.072.026.133.093.144a.285.285,0,0,0,.174-.075.964.964,0,0,0,.154-.147l.008.078a.664.664,0,0,1-.17.187.3.3,0,0,1-.185.049.179.179,0,0,1-.129-.121.282.282,0,0,1-.153.044.293.293,0,0,1-.275-.172.312.312,0,0,1-.469-.015.3.3,0,0,1-.21.086.309.309,0,0,1-.257-.139.318.318,0,0,1-.259.139.305.305,0,0,1-.213-.086.3.3,0,0,1-.24.114.309.309,0,0,1-.227-.1.289.289,0,0,1-.272.172.277.277,0,0,1-.153-.044.188.188,0,0,1-.132.121.306.306,0,0,1-.185-.049.664.664,0,0,1-.17-.187l.006-.078a1.047,1.047,0,0,0,.156.147.287.287,0,0,0,.174.075c.067-.011.1-.072.1-.144l0-.063.042.054a.211.211,0,0,0,.17.088.2.2,0,0,0,.182-.288l.039-.085.066.067a.106.106,0,0,0,0,.024.214.214,0,0,0,.425.032s0-.078.009-.078.026.076.028.076a.215.215,0,0,0,.2.142.212.212,0,0,0,.215-.207.166.166,0,0,0-.012-.071l.058-.011Z"/><path d="M61.813,301.267h-.025a.2.2,0,0,1-.134-.125.3.3,0,0,1-.427-.128,4.73,4.73,0,0,1-.937-.069.318.318,0,0,1-.468.058.321.321,0,0,1-.468.011.3.3,0,0,1-.426.132.173.173,0,0,1-.126.121.313.313,0,0,1-.19-.054.675.675,0,0,1-.171-.182l.008-.086c0-.01.062.065.159.143a.276.276,0,0,0,.171.071c.058-.007.09-.057.09-.136v-.063l.052.05a.2.2,0,0,0,.166.085.194.194,0,0,0,.2-.188.237.237,0,0,0-.017-.09l.034-.092.076.067a.212.212,0,0,0,.207.229.2.2,0,0,0,.207-.171c0-.069.006-.079.015-.082h0c.007,0,.011.013.026.052a.212.212,0,0,0,.414-.035.183.183,0,0,0-.011-.071l.061-.019.056.011a.378.378,0,0,0-.008.079.2.2,0,0,0,.209.2.209.209,0,0,0,.2-.138c.02-.065.026-.078.033-.078s.011.013.013.063a.208.208,0,0,0,.415-.011l.008-.01a.216.216,0,0,1-.214.224.212.212,0,0,1-.216-.182l-.009-.074a.264.264,0,0,1-.013.046.222.222,0,0,1-.433-.039.215.215,0,0,1,.009-.075l-.05,0-.052.012a.119.119,0,0,1,.014.067.216.216,0,0,1-.219.21.213.213,0,0,1-.207-.145l-.026-.072a.464.464,0,0,1,0,.053.222.222,0,0,1-.22.2.216.216,0,0,1-.217-.214l-.064-.089-.028.086a.154.154,0,0,1,.022.09.2.2,0,0,1-.21.2.212.212,0,0,1-.173-.088l-.045-.058.013.063a.133.133,0,0,1-.1.148.3.3,0,0,1-.178-.076.968.968,0,0,1-.152-.146v.074h0a.7.7,0,0,0,.166.183.386.386,0,0,0,.16.05.184.184,0,0,0,.15-.118.313.313,0,0,0,.427-.128,5.82,5.82,0,0,0,.936-.068,6.332,6.332,0,0,0,.938.065.316.316,0,0,0,.428.127.206.206,0,0,0,.133.122h.024a.357.357,0,0,0,.157-.05.689.689,0,0,0,.17-.183l-.008-.074a.685.685,0,0,1-.146.146.318.318,0,0,1-.175.079.136.136,0,0,1-.1-.151v-.063l-.034.058a.21.21,0,0,1-.173.088.2.2,0,0,1-.21-.2.213.213,0,0,1,.02-.093l-.035-.083-.016.018.018-.024.044.089a.2.2,0,0,0-.019.093.194.194,0,0,0,.2.188.2.2,0,0,0,.164-.085l.043-.054.011.067c0,.079.031.129.089.136a.262.262,0,0,0,.168-.071,1.05,1.05,0,0,0,.154-.146l.018.081a.621.621,0,0,1-.174.19.341.341,0,0,1-.163.054Z"/><path class="h" d="M58.791,300.953a.094.094,0,1,1,.093.093.095.095,0,0,1-.093-.093Z"/><path d="M58.884,301.049a.1.1,0,0,1-.1-.1c0-.107.2-.107.2,0a.1.1,0,0,1-.1.1Zm0-.182a.086.086,0,0,0-.086.086c0,.1.173.1.173,0a.088.088,0,0,0-.087-.086Z"/><path class="h" d="M61.617,300.953a.093.093,0,1,1,.093.093.094.094,0,0,1-.093-.093Z"/><path d="M61.71,301.049a.1.1,0,0,1-.1-.1c0-.107.195-.107.195,0a.1.1,0,0,1-.1.1Zm0-.182a.088.088,0,0,0-.087.086c0,.1.172.1.172,0a.086.086,0,0,0-.085-.086Z"/><path class="h" d="M59.725,300.789a.092.092,0,1,1,.184,0,.092.092,0,1,1-.184,0Z"/><path d="M59.817,300.889a.1.1,0,0,1-.1-.1c0-.107.194-.107.194,0a.1.1,0,0,1-.1.1Zm0-.186a.088.088,0,0,0-.087.086c0,.1.173.1.173,0a.087.087,0,0,0-.086-.086Z"/><path class="h" d="M60.693,300.789a.1.1,0,0,1,.093-.094.094.094,0,0,1,.093.094.091.091,0,0,1-.093.093.092.092,0,0,1-.093-.093Z"/><path d="M60.786,300.889a.1.1,0,0,1-.1-.1c0-.107.2-.107.2,0a.1.1,0,0,1-.1.1Zm0-.186a.088.088,0,0,0-.088.086c0,.1.175.1.175,0a.088.088,0,0,0-.087-.086Z"/><path class="i" d="M58.505,301.088a.139.139,0,0,0,.081.018.589.589,0,0,0,.141-.025.117.117,0,0,1-.04-.035.152.152,0,0,0-.034-.054.1.1,0,0,0-.062-.022l-.016-.031.032-.008a.093.093,0,0,0,.054.043c.033.01.094-.025.094-.025s-.032-.067-.068-.071a.11.11,0,0,0-.048,0l-.022-.024.022-.007a.128.128,0,0,0,.066,0c.023-.011.022-.029.028-.061a.4.4,0,0,1,.021-.064.246.246,0,0,1-.065-.015c-.026-.014-.045-.039-.079-.024s-.026.036-.035.053a.062.062,0,0,1-.043.025l-.006-.025a.052.052,0,0,0,.039-.04.124.124,0,0,0,0-.066.109.109,0,0,0-.066.027c-.021.029-.01.034-.024.043a.062.062,0,0,1-.033.011.042.042,0,0,1,.006-.035l.027-.022a.37.37,0,0,0,.044-.067.227.227,0,0,0-.038,0c-.016,0-.041.011-.044,0s0-.007-.012-.036a.286.286,0,0,0-.033-.058.184.184,0,0,0-.069.032c-.029.022-.02.018-.059.051a.157.157,0,0,0-.128,0,.339.339,0,0,1,.142.181.227.227,0,0,0,.025.029c.008.015.016.025.023.039s.03.054.045.083.024.053.033.074a.174.174,0,0,0,.021.037.225.225,0,0,1,.027.035c.01.007.046.028.054.035Z"/><path d="M58.593,301.113h-.007a.146.146,0,0,1-.083-.018l-.056-.038a.376.376,0,0,1-.027-.036l-.022-.037a.685.685,0,0,0-.034-.074.532.532,0,0,0-.044-.082.149.149,0,0,0-.023-.036l-.025-.036a.342.342,0,0,0-.141-.177.125.125,0,0,1,.136-.008l.022-.029a.309.309,0,0,1,.1-.057.214.214,0,0,1,.038.061l0,.019-.013-.015a.232.232,0,0,0-.031-.054.193.193,0,0,0-.062.035l-.058.048a.2.2,0,0,0-.129,0,.284.284,0,0,1,.135.156l.033.05a.205.205,0,0,0,.025.035.72.72,0,0,1,.043.083c.014.028.024.053.035.078.027.042.036.053.046.068l.05.039,0,0a.123.123,0,0,0,.079.015l.007.007V301.1a.769.769,0,0,0,.126-.022.1.1,0,0,1-.037-.028.144.144,0,0,0-.034-.054.117.117,0,0,0-.057-.021l-.016-.043a.059.059,0,0,1,.027,0c-.007.028.03.032.055.053s.021.03.027.035a.121.121,0,0,0,.044.05.275.275,0,0,1-.135.04Zm.082-.132a.117.117,0,0,1-.072-.042c.02.006.035.021.058.031a.167.167,0,0,0,.091-.028c-.006,0-.035-.053-.065-.06l0,0-.052-.011.006-.039h0a.2.2,0,0,0,.049.011.049.049,0,0,0,.038-.042.389.389,0,0,1,.023-.083.106.106,0,0,1-.061-.011l-.057-.028c-.037.013-.04.024-.044.039a.07.07,0,0,1-.052.047.09.09,0,0,1,0-.023.026.026,0,0,0,.037-.01.088.088,0,0,1,.039-.06.075.075,0,0,1,.061.015.33.33,0,0,0,.086.024.283.283,0,0,1-.016.071c-.01.043-.011.058-.03.065a.163.163,0,0,1-.071,0l.049.032,0,0c.038,0,.07.068.07.071a.137.137,0,0,1-.084.036Zm-.138-.246c.006-.014.019-.021.023-.043a.128.128,0,0,0,0-.06s-.042.01-.059.032l-.04.042,0-.011.021-.01a.137.137,0,0,1,.086-.06.1.1,0,0,1,.007.07.056.056,0,0,1-.034.04Z"/><path class="a" d="M58.455,300.988a.209.209,0,0,0,.036.033.206.206,0,0,0,.05.021Zm.02-.085a.219.219,0,0,1,.105,0Zm-.022-.051a.473.473,0,0,1,.127-.046Zm-.037-.048a.092.092,0,0,1,.027-.036.064.064,0,0,0,.021-.025Zm-.091-.048a.176.176,0,0,1,0-.038.171.171,0,0,1,.021-.051Z"/><path class="f" d="M58.429,301.021c.051-.018.062-.093.024-.165a.16.16,0,0,0-.168-.1l-.005.008,0,.024a.657.657,0,0,0,.018.067.143.143,0,0,0,.022.055.242.242,0,0,0,.033.042A.586.586,0,0,1,58.4,301a.1.1,0,0,0,.029.022Z"/><path d="M58.427,301.027l0,0,.005,0,0,0a.069.069,0,0,0,.037-.044.141.141,0,0,0-.013-.115.175.175,0,0,0-.137-.1.131.131,0,0,0-.008.1.2.2,0,0,0,.023.055.292.292,0,0,0,.032.039.556.556,0,0,0,.042.042l.026.026h-.011l-.066-.061a.279.279,0,0,1-.032-.043.149.149,0,0,1-.023-.054c-.008-.024-.013-.049-.018-.071l.035-.039a.176.176,0,0,1,.145.1.149.149,0,0,1,.016.121c-.009.026-.024.044-.046.046l0,0Z"/><path class="h" d="M58.31,300.907c-.028-.055-.041-.1-.006-.111s.09.018.12.071.021.107-.017.121-.067-.028-.1-.081Z"/><path d="M58.394,300.995c-.037,0-.065-.042-.086-.085s-.036-.079-.028-.1l.044-.025a.135.135,0,0,1,.1.082.119.119,0,0,1,.012.1.059.059,0,0,1-.032.032Zm-.07-.2c-.042.035-.022.074-.008.107s.047.077.078.077v.008l.011-.008a.1.1,0,0,0,.013-.114.123.123,0,0,0-.094-.07Z"/><path class="i" d="M62.086,301.088a.145.145,0,0,1-.082.018.589.589,0,0,1-.141-.025.108.108,0,0,0,.039-.035.135.135,0,0,1,.036-.054A.1.1,0,0,1,62,300.97l.016-.031-.031-.008a.093.093,0,0,1-.053.043.16.16,0,0,1-.094-.025s.029-.067.063-.071a.122.122,0,0,1,.051,0l.019-.024-.017-.007a.138.138,0,0,1-.068,0c-.022-.011-.02-.029-.03-.061a.442.442,0,0,0-.018-.064.223.223,0,0,0,.063-.015c.029-.014.045-.039.078-.024s.027.036.038.053.04.025.04.025l.007-.025a.055.055,0,0,1-.04-.04.163.163,0,0,1,0-.066.113.113,0,0,1,.068.027c.018.029.009.034.024.043a.058.058,0,0,0,.031.011.034.034,0,0,0,0-.035.235.235,0,0,1-.026-.022.322.322,0,0,1-.044-.067.221.221,0,0,1,.036,0c.016,0,.041.011.046,0a.2.2,0,0,1,.013-.036.192.192,0,0,1,.032-.058.227.227,0,0,1,.069.032c.029.022.018.018.056.051a.162.162,0,0,1,.13,0,.32.32,0,0,0-.143.181.227.227,0,0,1-.025.029.3.3,0,0,1-.022.039.6.6,0,0,0-.045.083c-.013.024-.024.053-.033.074a.36.36,0,0,1-.022.037.176.176,0,0,0-.025.035c-.011.007-.045.028-.054.035Z"/><path d="M62,301.113a.7.7,0,0,1-.136-.029c.007-.013.031-.027.037-.042a.118.118,0,0,1,.037-.054.126.126,0,0,1,.062-.025c-.02.014-.041.021-.058.032a.187.187,0,0,0-.023.036.125.125,0,0,1-.048.05c.013-.008.088.018.129.018v.007l0-.007a.124.124,0,0,0,.08-.015l.058-.031-.006,0c.01-.015.02-.026.027-.035.03-.058.043-.083.056-.111a.917.917,0,0,1,.042-.083l.023-.035a.4.4,0,0,1,.027-.032.347.347,0,0,1,.142-.186.278.278,0,0,1-.058,0,.156.156,0,0,0-.064.012l-.036-.029c-.058-.039-.073-.05-.093-.05a.247.247,0,0,0-.028.05l-.017.036,0,0h-.011l0-.007a.413.413,0,0,1,.046-.093.146.146,0,0,1,.075.032l.054.054,0,0a.2.2,0,0,1,.134,0,.4.4,0,0,0-.139.189l-.031.029.006.007-.024.036c-.015.024-.03.054-.044.082s-.025.05-.034.074h0l-.021.037a.286.286,0,0,1-.029.036l-.053.038a.19.19,0,0,1-.084.018Zm-.071-.136a.226.226,0,0,1-.093-.024c0-.011.032-.075.067-.079h.045c.008-.028-.019-.018-.042-.018-.04-.013-.044-.028-.048-.05a.7.7,0,0,0-.024-.085.64.64,0,0,1,.067-.022.147.147,0,0,1,.063-.024c.044.015.05.031.055.046a.057.057,0,0,0,.033.032.027.027,0,0,1-.038-.014c-.01-.033-.014-.044-.034-.049l-.051.005a.238.238,0,0,1-.086.03.2.2,0,0,1,.021.056c.007.043.013.054.026.062a.144.144,0,0,0,.064-.008l0,0v.039l-.052,0c-.025.007-.053.049-.062.067a.3.3,0,0,0,.076.021.09.09,0,0,0,.062-.039l.04.008a.081.081,0,0,1-.021.024c-.011-.024-.027.007-.066.014Zm.13-.232c-.007-.01-.031-.02-.038-.05a.137.137,0,0,1,0-.066.093.093,0,0,1,.078.027l.018.039-.013-.005a.1.1,0,0,0-.077-.055c0,.007,0,.032,0,.057a.057.057,0,0,0,.034.037.02.02,0,0,1-.007.016Z"/><path class="a" d="M62.134,300.988a.235.235,0,0,1-.035.033.223.223,0,0,1-.05.021Zm-.019-.085a.223.223,0,0,0-.106,0Zm.021-.051a.473.473,0,0,0-.127-.046Zm.038-.048a.088.088,0,0,0-.028-.036.1.1,0,0,1-.021-.025Zm.091-.048s0-.007,0-.038a.138.138,0,0,0-.022-.051Z"/><path class="f" d="M62.161,301.021c-.052-.018-.062-.093-.025-.165a.161.161,0,0,1,.168-.1l0,.008,0,.024a.659.659,0,0,1-.016.067.214.214,0,0,1-.022.055.269.269,0,0,1-.036.042.552.552,0,0,1-.042.043.108.108,0,0,1-.028.022Z"/><path d="M62.159,301.023a.059.059,0,0,1-.044-.046.157.157,0,0,1,.015-.121.176.176,0,0,1,.145-.1l.039.015c-.009.046-.014.071-.02.1a.281.281,0,0,1-.023.054.145.145,0,0,1-.036.043l-.043.043-.033.02Zm.1-.242a.131.131,0,0,0-.113.078.136.136,0,0,0-.016.115.079.079,0,0,0,.036.044l0,0a.641.641,0,0,0,.063-.061.224.224,0,0,0,.035-.039.316.316,0,0,0,.019-.055c.007-.02.012-.045.018-.067a.127.127,0,0,0-.046-.011Z"/><path class="h" d="M62.279,300.907c.028-.055.044-.1.005-.111s-.088.018-.118.071-.022.107.016.121.068-.028.1-.081Z"/><path d="M62.2,300.995H62.18a.055.055,0,0,1-.03-.032.123.123,0,0,1,.011-.1.136.136,0,0,1,.106-.082l.042.025c.007.021,0,.049-.027.1s-.051.085-.086.085Zm.069-.185a.1.1,0,0,0-.093.06.116.116,0,0,0-.013.09l.023.028.014,0c.031,0,.058-.042.079-.077s.032-.072.025-.093a.117.117,0,0,0-.035,0Z"/><path class="f" d="M60.3,301.994a5.252,5.252,0,0,1-1.419-.175.055.055,0,0,1-.04-.056.052.052,0,0,1,.04-.054,5.84,5.84,0,0,1,2.838,0,.052.052,0,0,1,.037.054.056.056,0,0,1-.037.056,5.274,5.274,0,0,1-1.419.175Z"/><path d="M60.3,302h0a5.2,5.2,0,0,1-1.421-.175.062.062,0,0,1-.044-.064.061.061,0,0,1,.044-.058,5.849,5.849,0,0,1,2.84,0,.062.062,0,0,1,.043.062.064.064,0,0,1-.043.06A5.193,5.193,0,0,1,60.3,302Zm0-.461a5.221,5.221,0,0,0-1.419.175.054.054,0,0,0,0,.1,5.865,5.865,0,0,0,2.836,0,.054.054,0,0,0,.036-.05.054.054,0,0,0-.036-.051,5.205,5.205,0,0,0-1.417-.175Z"/></g><g class="b"><path d="M60.292,301.927h0a5.617,5.617,0,0,1-1.311-.154,5.159,5.159,0,0,1,1.311-.153,5.527,5.527,0,0,1,1.316.146,5.266,5.266,0,0,1-1.316.161Zm0-.3a5.481,5.481,0,0,0-1.307.143,6.367,6.367,0,0,0,2.619-.007,5.919,5.919,0,0,0-1.312-.136Z"/><path class="f" d="M60.3,301.462c-.132,0-.237-.05-.237-.107s.105-.11.237-.11.236.046.236.11-.106.107-.236.107Z"/><path d="M60.3,301.47c-.136,0-.243-.05-.243-.115s.107-.117.243-.117.242.05.242.117-.109.115-.242.115Zm0-.222c-.129,0-.233.047-.233.107s.1.1.233.1.23-.048.23-.1-.1-.107-.23-.107Z"/><path class="k" d="M60.3,301.431c-.1,0-.177-.035-.177-.076s.079-.078.177-.078.175.036.175.078-.079.076-.175.076Z"/><path d="M60.3,301.435c-.1,0-.183-.037-.183-.08,0-.092.363-.092.363,0,0,.043-.079.08-.18.08Zm0-.151c-.093,0-.171.032-.171.071,0,.076.34.076.34,0,0-.039-.078-.071-.169-.071Z"/><path class="f" d="M61.8,301.427s-.007,0-.013,0c-.124-.035-.24-.018-.258.039s.069.137.2.172a.2.2,0,0,1,.02-.022c.007-.013.016-.025.023-.039a.114.114,0,0,0,.016-.039c0-.011.009-.024.011-.035a.284.284,0,0,0,.005-.072Z"/><path d="M61.727,301.638c-.129-.036-.215-.115-.2-.178s.138-.079.264-.044l.017.046-.017.075a.2.2,0,0,1-.016.039.333.333,0,0,1-.025.04l-.025.022Zm-.06-.229c-.069,0-.118.022-.129.053-.016.058.07.129.189.168l.006-.007a.443.443,0,0,0,.034-.05.248.248,0,0,0,.016-.039l.016-.074a.184.184,0,0,0-.132-.051Z"/><path class="k" d="M61.806,301.466l-.023-.01c-.1-.029-.181-.015-.191.024s.055.093.147.122a.034.034,0,0,0,.017,0,.131.131,0,0,0,.023-.018.129.129,0,0,0,.016-.021.035.035,0,0,0,.011-.018.068.068,0,0,0,.005-.025v-.028a.084.084,0,0,0-.005-.029Z"/><path d="M61.749,301.609a.257.257,0,0,1-.155-.093.119.119,0,0,1,0-.032.215.215,0,0,0,.143.115l.015.006-.007,0Zm-.147-.139c.027-.05.106-.043.183-.018l.01.01c-.118-.031-.17-.017-.193.008Z"/><path class="f" d="M58.778,301.427l.013,0c.126-.035.242-.018.26.039s-.071.137-.2.172l-.019-.022c-.008-.013-.016-.025-.023-.039a.14.14,0,0,1-.018-.039c0-.011-.007-.024-.011-.035a.271.271,0,0,1,0-.039c0-.012,0-.022,0-.033Z"/><path d="M58.852,301.638h0l0,0,0,0c.123-.035.208-.11.192-.168s-.132-.066-.25-.035l-.011.068,0-.035h0l.006-.04c.151-.046.256-.019.274.04s-.07.142-.2.178Z"/><path class="k" d="M58.777,301.466l.025-.01c.092-.029.178-.015.19.024s-.056.093-.148.122a.034.034,0,0,1-.016,0,.182.182,0,0,1-.023-.018.069.069,0,0,1-.016-.021.023.023,0,0,1-.011-.018.1.1,0,0,1-.005-.025v-.028a.181.181,0,0,1,0-.029Z"/><path d="M58.825,301.609l0,0V301.6h0c.1-.029.167-.079.156-.119s-.1-.045-.184-.02l-.03.035h0l.028.092.005,0,.018.021h-.009l-.036-.035-.017-.047.007-.061c.167-.061.212-.027.225.015s-.057.1-.154.128l-.019,0Z"/><path class="h" d="M59.861,301.359a.048.048,0,0,1,.048-.046.048.048,0,1,1,0,.1.048.048,0,0,1-.048-.05Z"/><path d="M59.909,301.412a.052.052,0,0,1-.054-.053c0-.057.111-.057.111,0a.053.053,0,0,1-.057.053Z"/><path class="h" d="M59.106,301.448a.049.049,0,0,1,.05-.047.051.051,0,0,1,.051.047.05.05,0,0,1-.051.047.048.048,0,0,1-.05-.047Z"/><path d="M59.156,301.5a.054.054,0,0,1-.054-.054c0-.056.11-.056.11,0a.056.056,0,0,1-.056.054Z"/><path class="h" d="M60.637,301.359a.051.051,0,1,1,.051.05.049.049,0,0,1-.051-.05Z"/><path d="M60.688,301.412a.053.053,0,0,1-.057-.053c0-.057.113-.057.113,0a.052.052,0,0,1-.056.053Z"/><path class="h" d="M61.384,301.448a.05.05,0,0,1,.1,0,.05.05,0,0,1-.1,0Z"/><path d="M61.434,301.5a.056.056,0,0,1-.056-.054c0-.056.11-.056.11,0a.055.055,0,0,1-.054.054Z"/><path class="i" d="M59.506,301.256l.271.106-.238.168-.271-.1Z"/><path d="M59.538,301.537l-.272-.106.236-.179.276.1-.24.182Zm-.034-.274-.235.168.269.092.235-.168-.269-.092Z"/><path class="l" d="M59.511,301.306l.179.068-.156.11-.179-.068Z"/><path d="M59.534,301.491l-.182-.071.156-.118.183.064-.157.125Zm-.024-.178-.153.107.174.057.154-.111-.175-.053Z"/><path class="i" d="M61.085,301.256l-.271.106.237.168.27-.1Z"/><path d="M61.05,301.537l-.24-.171.272-.114.244.171-.276.114Zm.031-.274-.267.1.24.157.267-.1-.24-.157Z"/><path class="l" d="M61.081,301.306l-.179.068.155.11.178-.068Z"/><path d="M61.058,301.491l-.162-.114.181-.079.161.114-.18.079Zm.017-.181-.173.071.157.1.175-.068-.159-.1Z"/><path class="h" d="M60.076,299.572a.071.071,0,0,1-.069.069.069.069,0,0,1-.069-.069h0a.069.069,0,0,1,.138,0Z"/><path d="M60.007,299.648a.076.076,0,1,1,.075-.076.08.08,0,0,1-.075.076Zm0-.139a.064.064,0,0,0-.063.063.065.065,0,0,0,.063.065h0a.065.065,0,0,0,.064-.065.064.064,0,0,0-.064-.063Z"/><path class="h" d="M59.876,299.6a.073.073,0,0,1-.074.075.077.077,0,0,1-.077-.075h0a.079.079,0,0,1,.077-.075.075.075,0,0,1,.074.075Z"/><path d="M59.8,299.68h0a.08.08,0,1,1,0-.16.079.079,0,0,1,.08.078.082.082,0,0,1-.08.082Zm0-.15a.067.067,0,0,0-.07.068c0,.078.14.078.14,0a.068.068,0,0,0-.07-.068Z"/><path class="h" d="M59.652,299.65a.085.085,0,0,1-.086.086.082.082,0,0,1-.085-.082v0a.086.086,0,0,1,.085-.085.088.088,0,0,1,.086.085Z"/><path d="M59.566,299.744h0a.093.093,0,0,1-.092-.09c0-.1.183-.1.183,0a.1.1,0,0,1-.026.065.091.091,0,0,1-.065.029Zm0-.175a.08.08,0,0,0-.081.081.084.084,0,0,0,.138.059.082.082,0,0,0,.022-.059.08.08,0,0,0-.079-.081Z"/><path class="h" d="M59.394,299.719a.095.095,0,0,1-.189,0h0a.095.095,0,1,1,.189,0Z"/><path d="M59.3,299.818h0a.1.1,0,0,1-.1-.1.109.109,0,0,1,.1-.1.1.1,0,0,1,.1.1.1.1,0,0,1-.1.1Zm0-.192a.093.093,0,0,0-.089.093c0,.1.18.1.18,0a.093.093,0,0,0-.091-.093Z"/><path class="h" d="M59.085,299.773a.106.106,0,0,1-.1.106.108.108,0,0,1-.107-.106h0a.106.106,0,0,1,.107-.108.1.1,0,0,1,.1.1Z"/><path d="M58.98,299.883h0a.109.109,0,0,1-.113-.11.117.117,0,0,1,.113-.115.113.113,0,0,1,0,.225Zm0-.214a.1.1,0,0,0-.1.1c0,.11.2.11.2,0a.1.1,0,0,0-.1-.1Z"/><path class="h" d="M58.761,299.865a.115.115,0,0,1-.115.117.118.118,0,0,1-.116-.114v0a.117.117,0,0,1,.116-.114.115.115,0,0,1,.115.114Z"/><path d="M58.646,299.986a.12.12,0,1,1,0-.239.117.117,0,0,1,.12.118.119.119,0,0,1-.12.121Zm0-.231a.113.113,0,0,0-.109.11c0,.121.218.121.218,0a.109.109,0,0,0-.109-.11Z"/><path class="h" d="M58.505,300.047a.115.115,0,0,1-.114.117.117.117,0,0,1-.116-.117h0a.113.113,0,0,1,.116-.114.115.115,0,0,1,.114.114Z"/><path d="M58.391,300.168h0a.121.121,0,0,1-.121-.121.125.125,0,0,1,.2-.085.115.115,0,0,1,.036.085.12.12,0,0,1-.036.086.112.112,0,0,1-.084.035Zm0-.232a.111.111,0,0,0-.111.111.114.114,0,0,0,.188.079.109.109,0,0,0,.032-.079.11.11,0,0,0-.109-.111Z"/><path class="h" d="M58.37,300.375a.125.125,0,0,1-.125.125.123.123,0,0,1-.124-.122v0a.123.123,0,0,1,.124-.124.126.126,0,0,1,.125.124Z"/><path d="M58.245,300.507h0a.13.13,0,0,1-.13-.129.136.136,0,0,1,.221-.1.132.132,0,0,1-.091.225Zm0-.25a.119.119,0,0,0-.12.118.12.12,0,1,0,.239,0,.119.119,0,0,0-.119-.118Z"/><path class="h" d="M60.128,299.544a.061.061,0,0,0,.061.061.062.062,0,0,0,.061-.061h0a.062.062,0,0,0-.061-.061.061.061,0,0,0-.061.061Z"/><path d="M60.189,299.608h0a.064.064,0,0,1-.066-.064c0-.074.131-.074.131,0a.063.063,0,0,1-.065.064Zm0-.118a.053.053,0,0,0-.055.054.057.057,0,0,0,.055.057h0a.056.056,0,0,0,.055-.057.053.053,0,0,0-.055-.054Z"/><path class="h" d="M60.516,299.572a.067.067,0,1,0,.134,0h0a.067.067,0,0,0-.068-.067.064.064,0,0,0-.066.067Z"/><path d="M60.582,299.648h0a.079.079,0,0,1-.074-.076.074.074,0,1,1,.148,0,.078.078,0,0,1-.074.076Zm0-.139a.062.062,0,0,0-.062.063.065.065,0,0,0,.062.065h0a.062.062,0,0,0,.061-.065.06.06,0,0,0-.061-.063Z"/><path class="h" d="M60.713,299.6a.076.076,0,0,0,.151,0h0a.076.076,0,0,0-.151,0Z"/><path d="M60.79,299.68h0a.08.08,0,1,1,0-.16.078.078,0,0,1,.079.078.08.08,0,0,1-.079.082Zm0-.15a.067.067,0,0,0-.07.068.069.069,0,0,0,.068.071h0a.069.069,0,0,0,.067-.071.066.066,0,0,0-.067-.068Z"/><path class="h" d="M60.937,299.65a.087.087,0,0,0,.173,0v0a.087.087,0,0,0-.086-.085.089.089,0,0,0-.087.085Z"/><path d="M61.022,299.744h0a.093.093,0,0,1-.09-.094c0-.1.184-.1.184,0a.094.094,0,0,1-.094.094Zm0-.175a.081.081,0,0,0-.081.081c0,.09.162.09.162,0a.081.081,0,0,0-.081-.085Z"/><path class="h" d="M61.2,299.719a.094.094,0,0,0,.188,0h0a.094.094,0,1,0-.188,0Z"/><path d="M61.289,299.818h0a.1.1,0,0,1-.1-.1.105.105,0,0,1,.1-.1.107.107,0,0,1,.1.1.1.1,0,0,1-.1.1Zm0-.192a.093.093,0,0,0-.09.093c0,.1.181.1.181,0a.092.092,0,0,0-.091-.093Z"/><path class="h" d="M61.505,299.773a.106.106,0,0,0,.212,0h0a.106.106,0,0,0-.212,0Z"/><path d="M61.611,299.883a.112.112,0,0,1-.111-.11.114.114,0,0,1,.111-.115.116.116,0,0,1,.112.115.111.111,0,0,1-.112.11Zm0-.214a.1.1,0,0,0,0,.2h0a.1.1,0,0,0,.1-.1.1.1,0,0,0-.1-.1Z"/><path class="h" d="M61.829,299.865a.115.115,0,0,0,.114.117.117.117,0,0,0,.117-.114v0a.118.118,0,0,0-.117-.114.117.117,0,0,0-.114.114Z"/><path d="M61.943,299.986a.12.12,0,1,1,.122-.121.119.119,0,0,1-.122.121Zm0-.231a.111.111,0,0,0-.108.11c0,.121.22.124.22,0a.115.115,0,0,0-.112-.113Z"/><path class="h" d="M62.086,300.047a.114.114,0,0,0,.112.117.115.115,0,0,0,.116-.117h0a.114.114,0,0,0-.228,0Z"/><path d="M62.2,300.168h0a.112.112,0,0,1-.085-.035.129.129,0,0,1-.037-.086.121.121,0,1,1,.241,0,.119.119,0,0,1-.035.086.111.111,0,0,1-.084.035Zm0-.232a.127.127,0,0,0-.079.033.115.115,0,0,0,0,.157.1.1,0,0,0,.077.031h0a.1.1,0,0,0,.077-.031.1.1,0,0,0,.032-.079.111.111,0,0,0-.109-.111Z"/><path class="h" d="M62.22,300.375a.124.124,0,0,0,.124.125.123.123,0,0,0,.125-.122v0a.124.124,0,0,0-.123-.124.126.126,0,0,0-.126.124Z"/><path d="M62.344,300.507h0a.13.13,0,0,1,0-.26.13.13,0,1,1,0,.26Zm0-.25a.106.106,0,0,0-.085.036.112.112,0,0,0-.034.082.119.119,0,0,0,.117.121.12.12,0,0,0,0-.239Z"/><path class="h" d="M60.462,299.544a.062.062,0,0,1-.061.061.061.061,0,0,1-.061-.061h0a.061.061,0,0,1,.061-.061.063.063,0,0,1,.061.061Z"/><path d="M60.4,299.608a.064.064,0,0,1-.066-.064c0-.074.132-.074.132,0a.064.064,0,0,1-.066.064Zm0-.118a.053.053,0,0,0-.055.054.055.055,0,0,0,.055.057h0a.058.058,0,0,0,.055-.057.053.053,0,0,0-.055-.054Z"/><path class="f" d="M60.212,299.626a.141.141,0,0,0-.071.072,1.027,1.027,0,0,0-.016.157v.013l0,.022a.724.724,0,0,1-.054.285l.229.172.222-.172a.745.745,0,0,1-.053-.285l0-.022v-.013a.744.744,0,0,0-.018-.157.11.11,0,0,0-.068-.072c0,.022.006.039.006.06v.276a.687.687,0,0,0,.009.106.4.4,0,0,0,.02.08l-.116.106-.12-.106a.417.417,0,0,0,.018-.08.847.847,0,0,0,.008-.106l0-.261v-.015c0-.021,0-.038.006-.06Z"/><path d="M60.3,300.354l-.233-.175a.816.816,0,0,0,.052-.289,1.01,1.01,0,0,1,.021-.192.117.117,0,0,1,.072-.076c0,.032,0,.047,0,.064l0,.276a.687.687,0,0,1-.009.106.348.348,0,0,1-.019.08l.118.1.11-.111a.187.187,0,0,1-.021-.072.578.578,0,0,1-.01-.106V299.7a.422.422,0,0,0-.005-.064h0l0,0a.108.108,0,0,1,.012.045v.276a.625.625,0,0,0,.008.1.3.3,0,0,0,.02.079l-.119.113-.127-.108c.007-.027.014-.056.019-.084a.758.758,0,0,0,.008-.1V299.7c0-.032,0-.047,0-.064a.1.1,0,0,0-.057.064.789.789,0,0,0-.017.154.834.834,0,0,1-.056.324l.224.16.22-.167a.659.659,0,0,1-.056-.282,1.069,1.069,0,0,0-.019-.189.1.1,0,0,0-.048-.06.075.075,0,0,1,.058.057.816.816,0,0,1,.018.157.783.783,0,0,0,.055.317l-.228.182Z"/><path class="f" d="M60.212,299.626c0,.022-.006.039-.006.06v.015l0,.261a.847.847,0,0,1-.008.106.417.417,0,0,1-.018.08l.12.106.116-.106a.4.4,0,0,1-.02-.08.687.687,0,0,1-.009-.106v-.276c0-.021,0-.038-.006-.06a.207.207,0,0,0-.081-.021h0a.213.213,0,0,0-.086.021Z"/><path d="M60.3,300.261l-.125-.112c.007-.027.014-.056.019-.084a.758.758,0,0,0,.008-.1V299.7c0-.032,0-.047,0-.064a.142.142,0,0,1,.177-.015.375.375,0,0,1,.01.064v.276a.625.625,0,0,0,.008.1.3.3,0,0,0,.02.079l-.121.117Zm0-.65a.228.228,0,0,0-.085.019c0,.024,0,.039,0,.056l0,.276a.687.687,0,0,1-.009.106.348.348,0,0,1-.019.08l.116.1.112-.111a.187.187,0,0,1-.021-.072.578.578,0,0,1-.01-.106V299.7a.422.422,0,0,0-.005-.064.129.129,0,0,0-.076-.026Z"/><path class="h" d="M60.233,299.558a.059.059,0,0,0,.063.057.057.057,0,0,0,.058-.057h0a.059.059,0,0,0-.058-.061.062.062,0,0,0-.063.061Z"/><path d="M60.3,299.622a.066.066,0,0,1-.069-.064.067.067,0,1,1,.133,0,.063.063,0,0,1-.064.064Zm0-.121a.057.057,0,0,0-.056.057c0,.061.112.061.11,0a.055.055,0,0,0-.054-.057Z"/><path class="h" d="M60.363,299.661a.067.067,0,0,1-.067.069.068.068,0,0,1-.069-.069h0a.066.066,0,0,1,.069-.066.065.065,0,0,1,.067.066Z"/><path d="M60.3,299.736a.076.076,0,0,1-.075-.075c0-.081.147-.081.147,0a.075.075,0,0,1-.072.075Zm0-.138a.064.064,0,0,0-.065.063c0,.069.127.069.127,0a.063.063,0,0,0-.062-.063Z"/><path class="h" d="M60.376,299.761a.08.08,0,0,1-.08.083.082.082,0,0,1-.084-.083h0a.082.082,0,0,1,.084-.081.08.08,0,0,1,.08.081Z"/><path d="M60.3,299.848h0a.085.085,0,0,1-.086-.087.088.088,0,1,1,.088.087Zm0-.164a.076.076,0,0,0-.077.077c0,.087.153.083.153,0a.077.077,0,0,0-.076-.077Z"/><path class="h" d="M60.394,299.886a.1.1,0,0,1-.2,0v0a.1.1,0,0,1,.2,0Z"/><path d="M60.3,299.989h0a.1.1,0,0,1-.1-.1c0-.117.209-.117.209,0a.1.1,0,0,1-.1.1Zm0-.2a.1.1,0,0,0-.1.092c0,.1.186.1.186,0a.093.093,0,0,0-.091-.092Z"/><path class="h" d="M60.408,300.029a.113.113,0,1,1-.226,0h0a.115.115,0,0,1,.114-.114.112.112,0,0,1,.112.114Z"/><path d="M60.3,300.149h0a.121.121,0,0,1-.12-.12.119.119,0,0,1,.12-.118.121.121,0,0,1,.12.118.123.123,0,0,1-.12.12Zm0-.226a.106.106,0,0,0-.109.106c0,.12.215.12.215,0a.105.105,0,0,0-.106-.106Z"/><path class="i" d="M60.292,300.122a.419.419,0,0,0-.065.039.173.173,0,0,0-.058.071s-.035,0-.059,0-.055,0-.055,0a.117.117,0,0,0,.007.054c.012.028.014.046.024.05a.18.18,0,0,1-.033.011.051.051,0,0,0-.023.02.25.25,0,0,0,.068.036l.047.008c.02,0,.03.031.03.031h-.037c-.021,0-.021-.021-.052-.035a.334.334,0,0,0-.108,0,.123.123,0,0,0,.036.061.074.074,0,0,0,.059.013l.011.026a.083.083,0,0,1-.054,0c-.021-.015-.029-.035-.066-.031s-.042.031-.063.052a.2.2,0,0,1-.054.039l.056.05c.029.025.035.039.065.039a.122.122,0,0,0,.06-.031h.025l-.005.028a.139.139,0,0,0-.047.022c-.029.024-.023.093-.023.093a.192.192,0,0,0,.106-.019.08.08,0,0,0,.028-.059l.03-.008,0,.032a.125.125,0,0,0-.043.046.161.161,0,0,0,0,.064.088.088,0,0,1-.018.046.778.778,0,0,0,.149-.039c.113-.078.023-.071.131,0a.774.774,0,0,0,.148.039.092.092,0,0,1-.016-.046.131.131,0,0,0,0-.064.125.125,0,0,0-.045-.046l0-.032.031.008a.075.075,0,0,0,.028.059c.028.025.1.019.1.019s.007-.069-.023-.093a.156.156,0,0,0-.045-.022l-.005-.028h.025a.112.112,0,0,0,.061.031c.026,0,.033-.014.062-.039s.058-.05.058-.05a.2.2,0,0,1-.056-.039c-.02-.021-.021-.052-.06-.052s-.048.016-.068.031a.082.082,0,0,1-.054,0l.012-.026a.076.076,0,0,0,.06-.013.16.16,0,0,0,.033-.061.318.318,0,0,0-.1,0c-.035.014-.034.033-.053.035h-.037s.01-.028.027-.031l.049-.008a.25.25,0,0,0,.068-.036.04.04,0,0,0-.024-.02.234.234,0,0,1-.032-.011c.01,0,.014-.022.024-.05a.124.124,0,0,0,.006-.054s-.033,0-.056,0-.055,0-.055,0a.206.206,0,0,0-.058-.071.3.3,0,0,0-.073-.039Z"/><path d="M60.52,300.878l-.012,0a.7.7,0,0,1-.15-.039.185.185,0,0,1-.058-.05c-.015.007-.031.025-.067.05a.736.736,0,0,1-.151.039c0-.015.013-.039.011-.05a.144.144,0,0,1,0-.064.112.112,0,0,1,.045-.05.606.606,0,0,0-.035.054.1.1,0,0,0,0,.04.1.1,0,0,1-.016.066,1.01,1.01,0,0,0,.141-.046.478.478,0,0,0,.058-.046.281.281,0,0,1,.078.046.5.5,0,0,0,.136.039.12.12,0,0,1-.015-.039c0-.032.006-.043,0-.06a.072.072,0,0,0-.043-.043l.01-.046a.062.062,0,0,1,.022.017c-.022.018.011.039.022.068a.064.064,0,0,1,0,.046.1.1,0,0,0,.017.061l.006.011Zm-.524-.1-.008-.006a.2.2,0,0,0,.092-.023.081.081,0,0,0,.026-.055l.041-.011a.054.054,0,0,1-.006.027c-.02-.014-.024.019-.053.047a.155.155,0,0,1-.092.021Zm.58,0a.121.121,0,0,1-.073-.018.094.094,0,0,1-.031-.061.321.321,0,0,0,.038.053c.019.015.068.015.085.019s.016-.065-.009-.082a.176.176,0,0,0-.043-.022l-.005-.043c.05,0,.09.05.129.012s.062-.054.069-.062h0a.116.116,0,0,1-.051-.036c-.026-.035-.033-.054-.057-.054h0a.056.056,0,0,0-.046.023l-.048.018h0l-.016-.037a.117.117,0,0,0,.062-.02.129.129,0,0,0,.031-.05s-.031,0-.058,0a.13.13,0,0,0-.039.007l-.063.036-.033-.008.031-.035.047-.011a.273.273,0,0,0,.065-.029l.008.008a.561.561,0,0,1-.051.028.324.324,0,0,1,.1,0,.087.087,0,0,1-.033.065.085.085,0,0,1-.054.021h.046a.058.058,0,0,1,.05-.021.07.07,0,0,1,.058.039.248.248,0,0,0,.065.058c0,.01-.032.031-.055.056s-.044.043-.066.043-.064-.035-.066-.035c-.015.02,0,.024.034.046s.026.093.026.093c-.016,0-.03,0-.042,0Zm-.594-.011a.079.079,0,0,1,.016-.085.148.148,0,0,1,.048-.026c-.016-.02-.05.015-.078.015a.061.061,0,0,1-.052-.029.58.58,0,0,0-.071-.06c0-.01.035-.029.053-.051s.034-.052.065-.056.044.009.055.021l.039.018c-.006-.018-.027-.022-.046-.039a.14.14,0,0,1-.037-.057.188.188,0,0,1,.112-.008l.052.039.037,0-.03-.029h-.026a.37.37,0,0,1-.093-.036l.011-.008a.243.243,0,0,0,.063.029l.045.011c.024,0,.033.035.033.035l0,.008-.1-.036a.249.249,0,0,0-.1,0,.2.2,0,0,0,.036.047.061.061,0,0,0,.044.016l.024.038-.06,0c-.026-.022-.038-.034-.058-.034s-.038.019-.048.034a.194.194,0,0,1-.067.06c.009,0,.034.025.054.039.033.036.041.043.061.043s.055-.032.055-.032h.007l.021.035s-.019.008-.048.026-.021.053-.021.078Zm.066-.4.034-.022-.02-.053h-.005a.091.091,0,0,1-.007-.054.528.528,0,0,1,.119,0,.122.122,0,0,1,.054-.072.259.259,0,0,1,.069-.039.339.339,0,0,1,.058.026.217.217,0,0,1,.076.085c.005,0,.11,0,.11,0s.007.028,0,.057l-.026.046h0l0,0,0,0h0l.019-.05a.114.114,0,0,0,.009-.046s-.032,0-.053,0a.337.337,0,0,0-.055.007c-.006,0-.028-.053-.062-.075a.623.623,0,0,0-.069-.038.59.59,0,0,1-.065.038.214.214,0,0,0-.054.072s-.039,0-.063,0a.211.211,0,0,0-.053.007s0,.022.01.043l.017,0,0,.057-.038.018Z"/><path class="a" d="M60.246,300.7a.132.132,0,0,1-.019.04c-.008.01-.037.036-.037.036Zm-.061-.074a.2.2,0,0,0-.1.035Zm.1-.192c0-.012,0-.136,0-.136Zm-.11.138a.587.587,0,0,0-.147,0Zm.009-.056a.192.192,0,0,0-.044-.026.086.086,0,0,1-.033-.017Zm.063-.071s0-.011-.023-.037a.157.157,0,0,0-.045-.039Zm.088.255a.142.142,0,0,0,.02.04.306.306,0,0,0,.035.036Zm.061-.074a.208.208,0,0,1,.1.035Zm.007-.054a.569.569,0,0,1,.145,0Zm-.011-.056a.213.213,0,0,1,.042-.026.065.065,0,0,0,.035-.017Zm-.062-.071s0-.011.021-.037a.162.162,0,0,1,.048-.039Z"/><path class="f" d="M60.184,300.571a.115.115,0,1,1,.112.143.131.131,0,0,1-.112-.143Z"/><path d="M60.3,300.721a.138.138,0,0,1-.118-.15.12.12,0,1,1,.234,0,.137.137,0,0,1-.116.15Zm0-.286a.124.124,0,0,0-.107.136.127.127,0,0,0,.107.139c.057,0,.1-.064.1-.139a.124.124,0,0,0-.1-.136Z"/><path class="h" d="M60.219,300.571c0-.056.033-.1.077-.1s.076.047.076.1-.035.108-.076.108-.077-.047-.077-.108Z"/><path d="M60.3,300.682c-.046,0-.084-.047-.084-.111a.082.082,0,1,1,.164,0c0,.061-.036.111-.08.111Zm0-.21c-.042,0-.071.046-.071.1a.071.071,0,1,0,.141,0c0-.053-.031-.1-.07-.1Z"/><path class="h" d="M59.234,300.8a.089.089,0,0,1,.092-.09.09.09,0,0,1,.091.09.092.092,0,0,1-.091.092.09.09,0,0,1-.092-.092Z"/><path d="M59.326,300.9a.1.1,0,0,1-.1-.1c0-.1.195-.1.195,0a.1.1,0,0,1-.1.1Zm0-.185a.085.085,0,0,0-.086.086c0,.1.171.1.171,0a.085.085,0,0,0-.085-.086Z"/><path class="h" d="M61.365,300.82a.091.091,0,1,0-.182,0,.091.091,0,1,0,.182,0Z"/><path d="M61.274,300.917a.1.1,0,0,1-.1-.1c0-.106.194-.106.194,0a.1.1,0,0,1-.1.1Zm0-.182a.084.084,0,0,0-.087.085c0,.1.174.1.174,0a.085.085,0,0,0-.087-.085Z"/><path class="i" d="M60.289,308.121c1.941-1.522,4.034-4.633,1.583-6.266a1.609,1.609,0,0,0-1.213.139c-.128-.079-.231-.071-.359.074a.293.293,0,0,0-.374-.11,1.449,1.449,0,0,0-1.167-.12c-2.135,1.344-.827,4.532,1.53,6.283Z"/><path class="m" d="M60.289,308.171l-.023-.015a5.912,5.912,0,0,1-2.623-4.457,2.256,2.256,0,0,1,1.094-1.894,1.43,1.43,0,0,1,1.207.118.205.205,0,0,1,.121-.028.3.3,0,0,1,.235.114.268.268,0,0,1,.356-.061,1.7,1.7,0,0,1,1.223-.133,2.31,2.31,0,0,1,1.143,1.89c.059,1.56-1.318,3.356-2.71,4.447l-.023.019ZM59.226,301.8a1.7,1.7,0,0,0-.457.071,2.18,2.18,0,0,0-1.046,1.826,5.907,5.907,0,0,0,2.566,4.373c1.367-1.084,2.711-2.843,2.653-4.366a2.232,2.232,0,0,0-1.093-1.821,2.782,2.782,0,0,0-.469-.044,1.1,1.1,0,0,0-.694.182l-.021.014-.024-.011c-.125-.075-.2-.06-.313.065l-.03.036-.031-.036a.252.252,0,0,0-.33-.1,1.594,1.594,0,0,0-.711-.189Z"/><path class="n" d="M63.881,304.661s.22-.306.226-.306a.482.482,0,0,0,.242-.307c.219-.074.151-.264.166-.284a.266.266,0,0,0,.053-.28c0-.032.076-.324-.031-.363.006-.311-.178-.282-.322-.078-.157.046-.193.181-.137.331-.2,0-.211.311-.149.481-.275-.006-.122.311-.131.326-.091.046.069.5.083.48Z"/><path class="o" d="M63.881,304.7c-.014,0-.059,0-.124-.268-.041-.166-.028-.238,0-.27a.338.338,0,0,1,0-.282.167.167,0,0,1,.117-.065.535.535,0,0,1,.04-.4.177.177,0,0,1,.112-.075.3.3,0,0,1,.013-.21A.261.261,0,0,1,64.2,303c.082-.135.233-.195.313-.114a.294.294,0,0,1,.064.208c.083.066.052.253.035.355a.343.343,0,0,1-.069.336.245.245,0,0,1-.16.289.563.563,0,0,1-.257.314c-.019.021-.212.3-.212.3l-.035.018Zm.044-.806c-.055,0-.088.011-.1.033-.037.05-.006.161.008.207a.135.135,0,0,1,0,.06c-.046.05.009.282.052.388.193-.271.195-.271.22-.271a.426.426,0,0,0,.2-.274.055.055,0,0,1,.028-.036.174.174,0,0,0,.137-.206.4.4,0,0,1,.007-.058.222.222,0,0,0,.048-.242.152.152,0,0,1,.006-.06c.04-.225.011-.272-.011-.279a.043.043,0,0,1-.026-.039c0-.118-.023-.161-.039-.179-.083-.013-.151.04-.211.125a.241.241,0,0,0-.136.1.253.253,0,0,0,0,.193.048.048,0,0,1,0,.039.058.058,0,0,1-.033.014.118.118,0,0,0-.1.051.492.492,0,0,0-.013.381.038.038,0,0,1-.006.035c-.007.012-.02.025-.033.018Z"/><path class="n" d="M62.172,307.311c.045.029.087.058.135.085a.191.191,0,0,0,.2.162c.033.164.2.138.33.046.1.154.224.154.391.1a.37.37,0,0,0,.477-.059c.135.122.23.034.3-.091.108.028.192.01.233-.1.211-.021.106-.228-.067-.317.138-.125.29-.386.075-.428a.294.294,0,0,0-.293.011c-.026-.118-.181-.147-.349-.018-.058-.129-.259-.068-.353.025-.122-.112-.266-.112-.476.013l-.6.571Z"/><path class="o" d="M63.418,307.815a.372.372,0,0,1-.218-.076.226.226,0,0,1-.14.039.283.283,0,0,1-.236-.121c-.15.1-.308.068-.355-.063a.238.238,0,0,1-.2-.187l-.119-.063a.064.064,0,0,1-.018-.029.039.039,0,0,1,.013-.033l.6-.569c.223-.136.37-.144.5-.04a.29.29,0,0,1,.365-.028c.146-.1.3-.082.359.02a.315.315,0,0,1,.3.015.131.131,0,0,1,.117.1c.031.111-.064.257-.154.354a.293.293,0,0,1,.16.256.133.133,0,0,1-.127.1.2.2,0,0,1-.243.111c-.093.153-.2.185-.319.1a.479.479,0,0,1-.285.111Zm-.2-.147a.353.353,0,0,0,.462-.046.041.041,0,0,1,.053,0c.094.082.161.061.238-.082a.036.036,0,0,1,.046-.017c.1.024.157,0,.186-.079a.048.048,0,0,1,.034-.029c.033,0,.075-.011.078-.039.01-.051-.055-.146-.161-.2a.031.031,0,0,1-.021-.028.047.047,0,0,1,.013-.037c.1-.088.188-.234.167-.309,0-.008-.011-.035-.072-.047a.25.25,0,0,0-.267,0,.03.03,0,0,1-.036,0,.046.046,0,0,1-.023-.028.088.088,0,0,0-.1-.068.348.348,0,0,0-.185.074.039.039,0,0,1-.034.007.038.038,0,0,1-.027-.02c-.006-.015-.022-.051-.09-.051a.323.323,0,0,0-.2.086.038.038,0,0,1-.054,0c-.115-.1-.236-.1-.428.021l-.559.529.094.06c.037.1.1.154.149.154a.277.277,0,0,1,.04,0c.008.008.023.015.025.025.022.114.151.111.266.025a.037.037,0,0,1,.033-.006.035.035,0,0,1,.027.018c.079.121.16.142.344.085Z"/><path class="n" d="M62.172,306.969c.024-.142-.071-.406.072-.431-.026-.243.013-.517.28-.492.043-.229.035-.442.287-.476,0,0,.2-.741.414-.227.085.15.068.4-.1.349.033.182-.025.342-.219.335a.312.312,0,0,1-.037.393c-.234.182-.468.367-.7.549Z"/><path class="o" d="M62.172,307.012a.026.026,0,0,1-.022-.007.039.039,0,0,1-.02-.039.694.694,0,0,0,0-.164c-.012-.112-.022-.25.073-.293a.572.572,0,0,1,.089-.421.253.253,0,0,1,.2-.085l.011-.064c.028-.179.057-.361.277-.4.032-.106.136-.413.289-.413.074,0,.14.068.2.207a.39.39,0,0,1,.02.339.123.123,0,0,1-.108.067.33.33,0,0,1-.064.253.228.228,0,0,1-.138.078.345.345,0,0,1-.078.382l-.7.553a.035.035,0,0,1-.024.011Zm.338-.927a.2.2,0,0,0-.16.057.534.534,0,0,0-.064.388.045.045,0,0,1-.034.047c-.056.011-.054.092-.043.221,0,.029.006.057.008.085l.631-.495a.274.274,0,0,0,.028-.335.043.043,0,0,1,0-.044.1.1,0,0,1,.036-.021h0a.159.159,0,0,0,.141-.053.289.289,0,0,0,.037-.236.048.048,0,0,1,.013-.039.044.044,0,0,1,.037-.007c.048,0,.064-.007.076-.025a.3.3,0,0,0-.025-.264c-.058-.146-.1-.161-.121-.161-.078,0-.174.226-.217.378a.033.033,0,0,1-.036.029c-.176.025-.2.139-.233.339l-.017.1a.04.04,0,0,1-.045.032Z"/><path class="n" d="M63.4,306.046c.076-.019.146-.033.219-.047.227-.156.316-.221.43-.05.189-.04.37-.017.363.136.223.017.221.167.195.285.034.207-.051.482-.188.15-.438-.279-.688-.243-1.379-.079l.36-.4Z"/><path class="o" d="M64.535,306.716c-.055,0-.1-.057-.154-.178-.41-.247-.692-.207-1.333-.058a.043.043,0,0,1-.046-.018.037.037,0,0,1,.006-.046l.36-.395.24-.062c.211-.152.337-.217.457-.053a.366.366,0,0,1,.341.053.152.152,0,0,1,.042.09.255.255,0,0,1,.168.085.289.289,0,0,1,.028.243.445.445,0,0,1-.044.307.231.231,0,0,1-.065.032Zm-.741-.442a1.133,1.133,0,0,1,.645.213c.058.122.089.143.1.147a.353.353,0,0,0,.031-.257c.019-.1.013-.156-.014-.192a.209.209,0,0,0-.144-.062.038.038,0,0,1-.039-.038.1.1,0,0,0-.022-.072.345.345,0,0,0-.29-.021.038.038,0,0,1-.041-.018c-.052-.076-.084-.085-.112-.085a.674.674,0,0,0-.263.142l-.234.054-.253.289a2.9,2.9,0,0,1,.64-.1Z"/><path class="n" d="M63.513,305.817c.006-.007.646-.182.579-.388.181-.029.218-.222.228-.222.375-.125.354-.352.354-.352.108-.122.3-.244.256-.46.012-.247.033-.4-.279-.24-.234-.021-.317.121-.386.335-.111-.138-.287.079-.308.275,0,0-.288.293-.288.3s-.24.466-.24.466c.028.1.055.19.084.286Z"/><path class="o" d="M63.521,305.856h-.01c-.013,0-.033-.013-.037-.028l-.085-.286c0-.031.23-.456.243-.488,0-.011,0-.014.3-.317,0-.14.128-.332.257-.332a.146.146,0,0,1,.061.015c.06-.169.153-.332.406-.3.123-.075.229-.086.281-.028s.043.149.037.281a.472.472,0,0,1-.2.439c-.023.025-.048.047-.07.071h0c.013,0,.017.239-.372.367a.274.274,0,0,1-.194.214.153.153,0,0,1-.015.068c-.073.143-.356.246-.563.315a.053.053,0,0,1-.038.013Zm.186-.77s-.023.05-.242.464l.074.214c.367-.118.48-.214.51-.271a.068.068,0,0,0,.006-.051.033.033,0,0,1,0-.032.048.048,0,0,1,.027-.02.254.254,0,0,0,.188-.179c.006-.019.03-.043.047-.043.324-.11.315-.3.313-.31a.359.359,0,0,1,.085-.108c.1-.1.2-.2.171-.349.007-.135.012-.232-.014-.26a.316.316,0,0,0-.205.053H64.6c-.168,0-.235.112-.295.307a.05.05,0,0,1-.034.029.051.051,0,0,1-.041-.014c-.074-.1-.214.07-.235.253-.112.129-.278.3-.292.317Z"/><path class="n" d="M63.528,305.293a.435.435,0,0,1-.212-.41c-.1-.143-.171-.229-.075-.353,0,0-.077-.285-.077-.293a.188.188,0,0,1-.059-.317.335.335,0,0,1-.007-.4c0-.253.167-.157.309,0,0,0,.234.174.059.332.175.064.226.22.129.285a.193.193,0,0,1,.09.31c.152.125.1.289.145.432-.1.139-.2.281-.3.417Z"/><path class="o" d="M63.528,305.336a.077.077,0,0,1-.026-.007.486.486,0,0,1-.226-.453c-.1-.122-.176-.228-.066-.371-.048-.144-.07-.21-.077-.239a.211.211,0,0,1-.125-.139.261.261,0,0,1,.048-.207.371.371,0,0,1,.008-.425.172.172,0,0,1,.038-.143c.084-.088.261.054.335.136h0a.356.356,0,0,1,.134.221.183.183,0,0,1-.039.125.264.264,0,0,1,.15.193.15.15,0,0,1-.022.1.219.219,0,0,1,.079.309.418.418,0,0,1,.105.29.811.811,0,0,0,.023.138l-.307.453a.032.032,0,0,1-.028.019Zm-.349-1.934c-.027.011-.041.037-.041.115a.321.321,0,0,0,0,.381.041.041,0,0,1,0,.046.2.2,0,0,0-.053.164.14.14,0,0,0,.1.09.043.043,0,0,1,.027.039c0,.018.072.283.072.283-.078.128-.046.177.056.324.007.007.023.039.019.05a.382.382,0,0,0,.164.342l.277-.381c-.024-.018-.028-.072-.032-.122a.323.323,0,0,0-.1-.261.034.034,0,0,1-.014-.028.03.03,0,0,1,.01-.028.139.139,0,0,0,.035-.121.2.2,0,0,0-.113-.126.036.036,0,0,1-.023-.031.049.049,0,0,1,.018-.04.061.061,0,0,0,.029-.065.206.206,0,0,0-.149-.145.046.046,0,0,1-.025-.033.038.038,0,0,1,.011-.036.133.133,0,0,0,.052-.1.287.287,0,0,0-.107-.167c-.085-.093-.162-.147-.2-.147Z"/><path class="n" d="M63.8,304.116c-.007-.008-.257-.339-.188-.363-.015-.1-.091-.211-.044-.314a.287.287,0,0,1-.03-.4.293.293,0,0,1,.066-.382c-.035-.193.1-.239.212-.274.085-.315.225-.232.3.007a.37.37,0,0,1,.063.4c.138.1.053.225-.009.278-.124.35-.246.7-.371,1.056Z"/><path class="o" d="M63.8,304.158a.049.049,0,0,1-.03-.014s-.232-.3-.208-.388l.007-.015a.738.738,0,0,0-.023-.078.368.368,0,0,1-.025-.218.324.324,0,0,1-.033-.413.334.334,0,0,1,.089-.407c-.054-.2.114-.249.227-.285.031-.257.251-.275.352.032a.383.383,0,0,1,.07.4.186.186,0,0,1,.07.13.265.265,0,0,1-.1.19l-.357,1.042a.045.045,0,0,1-.03.027Zm.157-1.942c-.025,0-.066.046-.1.174-.155.067-.238.106-.21.256a.3.3,0,0,0-.076.365.04.04,0,0,1,0,.049.251.251,0,0,0,.028.35.043.043,0,0,1,.007.042.3.3,0,0,0,.017.187.544.544,0,0,1,.03.11.041.041,0,0,1-.026.043c.011.021.1.156.162.238l.345-.984a.223.223,0,0,0,.081-.143.111.111,0,0,0-.059-.088.043.043,0,0,1-.015-.046.32.32,0,0,0-.049-.35c-.053-.146-.106-.2-.133-.2Z"/><path class="n" d="M63.76,302.45c-.069-.074-.141-.149-.21-.22.054-.118.1-.326-.059-.421-.089-.225-.526-.5-.6.031-.066-.159-.206-.317-.309-.131-.229-.207-.352-.143-.235.118,0,0-.106.175.174.306.024.025-.09.317.242.324-.061.1.041.239.174.228-.1.125.064.257.165.208-.043.135-.041.2.144.22.067.083.135.164.2.247l.166.235q.073-.572.143-1.145Z"/><path class="o" d="M63.617,303.635a.034.034,0,0,1-.031-.015l-.166-.239-.2-.242a.167.167,0,0,1-.156-.061.171.171,0,0,1-.011-.136.2.2,0,0,1-.165-.107.158.158,0,0,1-.008-.117.216.216,0,0,1-.149-.1.2.2,0,0,1-.019-.121.263.263,0,0,1-.167-.078.308.308,0,0,1-.058-.236.42.42,0,0,1-.185-.213.2.2,0,0,1,.016-.161.209.209,0,0,1-.032-.218c.05-.077.194-.021.292.061.089-.111.223-.049.3.076.057-.2.178-.229.249-.229a.491.491,0,0,1,.4.3c.145.079.132.274.071.425l.19.2-.133,1.18a.039.039,0,0,1-.027.033Zm-.531-.778a.057.057,0,0,1,.03.007c.013.011.032.025.029.039-.018.054-.031.108-.014.129s.054.035.121.042l.339.41.13-1.04-.041-.022-.161-.164a.043.043,0,0,1-.006-.046c.014-.029.119-.268-.043-.368a.46.46,0,0,0-.343-.271c-.13,0-.177.151-.192.275a.052.052,0,0,1-.037.036.055.055,0,0,1-.042-.029c-.046-.111-.114-.192-.164-.192-.03,0-.057.035-.071.064a.038.038,0,0,1-.03.017.034.034,0,0,1-.032-.007c-.116-.107-.175-.114-.19-.114s-.04.054.019.186a.307.307,0,0,0-.011.135.285.285,0,0,0,.166.154.09.09,0,0,1,.024.085.179.179,0,0,0,.2.236.043.043,0,0,1,.035.017.043.043,0,0,1,0,.044.1.1,0,0,0,0,.1.148.148,0,0,0,.125.071.054.054,0,0,1,.043.022c0,.015.012.032,0,.043a.078.078,0,0,0-.015.089.123.123,0,0,0,.1.064.055.055,0,0,1,.028-.007Z"/><path class="o" d="M63.591,307.426h0a5.95,5.95,0,0,1-1.446-.147.041.041,0,0,1,.058-.057,6.451,6.451,0,0,0,1.389.122.043.043,0,0,1,.041.042.044.044,0,0,1-.041.04Zm-1.356-.246h0a.043.043,0,0,1-.037-.043,6.208,6.208,0,0,1,.655-1.491l.041-.076c0-.046.079-.028.077.015,0,.011,0,.011-.047.1a5.272,5.272,0,0,0-.645,1.46.043.043,0,0,1-.042.039Zm.171-.069a.038.038,0,0,1-.039-.039.039.039,0,0,1,.039-.039c.463-.01,1.521-.167,1.53-.167a.037.037,0,0,1,.046.032.039.039,0,0,1-.035.045c-.009,0-1.071.158-1.539.168Zm1.1-1.329c-.007,0-.014,0-.021,0a.041.041,0,0,1-.012-.057,7.981,7.981,0,0,1,1.213-1.352.04.04,0,0,1,.056,0,.043.043,0,0,1,0,.058,7.833,7.833,0,0,0-1.2,1.334.05.05,0,0,1-.036.018Zm.386-1.217a.031.031,0,0,1-.029-.014.038.038,0,0,1-.007-.05,10.24,10.24,0,0,0,.453-1.237.039.039,0,0,1,.048-.033.041.041,0,0,1,.032.046,9.591,9.591,0,0,1-.469,1.274.049.049,0,0,1-.028.014Zm-.077-.345-.012,0a.038.038,0,0,1-.026-.05,4.184,4.184,0,0,0,.117-1.327.043.043,0,0,1,.036-.046.049.049,0,0,1,.042.039,4.037,4.037,0,0,1-.118,1.359.046.046,0,0,1-.039.029Zm-.255-.885a.038.038,0,0,1-.038-.028c-.045-.132-.084-.264-.116-.389a7.692,7.692,0,0,0-.717-.835.043.043,0,0,1,0-.06.042.042,0,0,1,.058,0,8.927,8.927,0,0,1,.615.692,6.242,6.242,0,0,1-.12-.752.041.041,0,0,1,.037-.043.041.041,0,0,1,.043.039,6.769,6.769,0,0,0,.161.924.98.98,0,0,1,.159.31.038.038,0,0,1-.031.046.03.03,0,0,1-.026,0c0,.015.009.025.013.039a.037.037,0,0,1-.024.05c-.006,0-.009,0-.014,0Z"/><path class="p" d="M60.281,307.9c-1.4-1.383-2.829-3.979-1.4-5.293.251.152.551.015.962-.152a.312.312,0,0,0,.442.071.323.323,0,0,0,.4-.081c.4.241.921.371,1.043.127,1.4,1.4-.019,4.006-1.442,5.328Z"/><path class="m" d="M60.281,307.953l-.027-.024a6.287,6.287,0,0,1-2.007-3.948,1.869,1.869,0,0,1,.6-1.4l.019-.021.026.017c.211.125.491.022.879-.139l.076-.032.02.022a.276.276,0,0,0,.39.067.942.942,0,0,0,.176.028.272.272,0,0,0,.212-.106l.024-.025.026.017c.42.254.9.336.988.148l.026-.048.038.037a2.026,2.026,0,0,1,.587,1.537,6.207,6.207,0,0,1-2.028,3.848l-.028.024Zm-1.4-5.3a1.8,1.8,0,0,0-.557,1.324,6.189,6.189,0,0,0,1.956,3.866,6.117,6.117,0,0,0,1.978-3.77,1.947,1.947,0,0,0-.532-1.441.342.342,0,0,1-.283.1,1.657,1.657,0,0,1-.758-.246.36.36,0,0,1-.42.067c-.07.1-.3.084-.438-.06l-.022.011c-.4.16-.691.267-.924.146Z"/><path class="q" d="M59.218,305.165a1.69,1.69,0,0,0-.212.077l-.133.222a.927.927,0,0,0-.181.182,7.831,7.831,0,0,0,1.165,1.794,2.384,2.384,0,0,0,.155-.214,2.156,2.156,0,0,0,.29-.663,1.641,1.641,0,0,1-.175-.5,3.866,3.866,0,0,0-.192-.361l-.151-.239-.172-.139-.243-.16Z"/><path d="M59.857,307.458l-.007-.012a7.752,7.752,0,0,1-1.166-1.8.9.9,0,0,1,.183-.193l.132-.217a2.052,2.052,0,0,1,.217-.086h.153l.247.162.173.141.153.243a3.555,3.555,0,0,1,.194.361,1.619,1.619,0,0,0,.174.5,2.106,2.106,0,0,1-.291.671,1.881,1.881,0,0,1-.155.216l-.007.012Zm-.494-2.286h-.145a2.115,2.115,0,0,0-.208.078l-.128.218a.871.871,0,0,0-.182.185,7.872,7.872,0,0,0,1.157,1.773,1.982,1.982,0,0,0,.146-.2,2.117,2.117,0,0,0,.289-.663,1.624,1.624,0,0,1-.175-.495c-.037-.1-.187-.354-.189-.358l-.154-.238-.169-.136-.242-.16Z"/><path d="M59.495,306.947l.034-.028.113-.278.116-.139.005.007-.115.139-.038.118-.076.161-.039.02Zm.65-.207-.14-.175-.229-.078s-.02-.021-.058-.142l-.058-.178-.112-.061s-.154-.26-.231-.377l.007-.008c.076.122.23.381.23.381l.112.057.061.182a.572.572,0,0,0,.055.143l.227.079.136.177Zm-1.012-.253.087-.185-.053-.011-.1-.143.008-.006.094.139.056.017-.093.189Zm.936-.324L60,306.046l-.054-.019-.077-.121-.133-.057-.079-.181-.074-.062-.151-.017v-.008l.155.019.078.06.079.183.129.059.079.121.054.019.06.121ZM59,306.148l.072-.049a3.484,3.484,0,0,1,.17-.374c.039-.061.05-.068.063-.068l.024.035h0c.007,0,.028-.021.082-.111h0a2.762,2.762,0,0,1-.037-.378h.009a2.944,2.944,0,0,0,.037.382c-.063.1-.082.114-.093.114l-.026-.031h0c-.006,0-.02.01-.054.061-.075.138-.171.377-.171.377l-.078.042Zm-.171-.3c.07-.067.108-.107.108-.107l-.04-.278H58.9l.037.281a1.132,1.132,0,0,1-.114.1Z"/><path class="r" d="M59.685,309.166c.261-.446,2.084-1.338,3.795-3.27a27.458,27.458,0,0,1-4.253,3.259l.458.011Z"/><path class="s" d="M59.707,309.2l-.6-.011.094-.071c.454-.343.881-.624,1.294-.9a15.91,15.91,0,0,0,2.952-2.36l.058.054a16.983,16.983,0,0,1-2.927,2.55,4.04,4.04,0,0,0-.862.712l-.013.022Zm-.365-.085.322.007a4.125,4.125,0,0,1,.874-.721c.433-.314,1-.723,1.606-1.248a19.418,19.418,0,0,1-1.6,1.134c-.383.253-.778.514-1.2.828Z"/><path class="q" d="M61.481,305.179a1.489,1.489,0,0,0-.21.078l-.134.222s-.21.16-.21.259a.576.576,0,0,1-.135.257.6.6,0,0,0-.133.282c0,.121-.171.243-.171.243a2.136,2.136,0,0,0,.4.731,7.05,7.05,0,0,0,1.1-1.816l-.119-.1-.243-.157Z"/><path d="M60.89,307.266l-.007-.008a2.257,2.257,0,0,1-.4-.738c0-.011.172-.128.172-.243a.6.6,0,0,1,.136-.285s.132-.16.132-.254.205-.259.212-.267l.134-.218a2,2,0,0,1,.213-.085h.156l.368.261a6.856,6.856,0,0,1-1.1,1.826l-.006.011Zm.739-2.08h-.148c-.072.021-.207.079-.207.079l-.13.216c-.005,0-.209.162-.209.257A.6.6,0,0,1,60.8,306a.594.594,0,0,0-.132.274c0,.124-.167.243-.176.246a2.271,2.271,0,0,0,.4.713,7.056,7.056,0,0,0,1.1-1.8l-.357-.246Z"/><path d="M60.67,307.162l.089-.146.114-.1s-.019-.178-.019-.3.08-.124.08-.124l.112-.179-.038-.135v-.1a.334.334,0,0,1,.077-.221c.075-.06.114-.1.114-.1l-.039-.278h.008l.039.281a1.278,1.278,0,0,1-.116.1c-.072.058-.074.214-.074.214v.1l.037.139-.117.182c-.005,0-.075,0-.075.117s.021.3.021.3l-.116.1-.1.139Zm-.075-.239.107-.186-.076-.1.037-.2.114-.2a.745.745,0,0,1,.155-.121c.074-.039-.02-.253-.022-.257l.01,0c0,.011.1.225.017.267a.717.717,0,0,0-.151.118l-.116.2-.035.2.074.1-.114.186Zm.706-.16.088-.264.1-.183-.055-.014-.1-.139.009-.007.094.139.055.021-.092.183-.1.264Zm-.247-.422.03-.1.25-.121s.094-.238.169-.378c.039-.057.045-.063.064-.063l.025.031c.01,0,.027-.014.084-.11h0a2.784,2.784,0,0,1-.037-.378h.006a2.892,2.892,0,0,0,.038.382c-.06.1-.075.121-.093.114l-.025-.033h0c-.006,0-.021.011-.053.061a4.132,4.132,0,0,0-.171.381l-.252.118-.035.1Zm.691-.346c-.058-.078-.122-.188-.164-.253l.007,0c.041.065.107.175.157.257Zm.186-.32-.082-.05-.15-.021V305.6l.153.018.079.061Z"/><path class="t" d="M62.189,307.111a.132.132,0,1,1-.263,0,.132.132,0,1,1,.263,0Z"/><path class="u" d="M62.058,307.271a.159.159,0,1,1,.151-.16.156.156,0,0,1-.151.16Zm0-.278a.118.118,0,0,0-.113.118.113.113,0,1,0,.113-.118Z"/><path class="q" d="M60.272,305.236a1.446,1.446,0,0,0-.21.079l-.134.22s-.21.16-.21.257a.6.6,0,0,1-.134.265.59.59,0,0,0-.134.277c0,.117-.173.239-.173.239-.11.075.1.268.24.432a6.867,6.867,0,0,0,.743.873,5.617,5.617,0,0,0,1.1-1.244,1.681,1.681,0,0,1-.173-.5c-.039-.1-.194-.36-.194-.36l-.149-.239-.173-.139-.241-.16Z"/><path d="M60.26,307.889l-.006-.007a6.871,6.871,0,0,1-.744-.87c-.028-.035-.058-.069-.088-.1-.1-.11-.193-.218-.184-.289a.088.088,0,0,1,.035-.054s.168-.117.168-.231a.6.6,0,0,1,.136-.285.584.584,0,0,0,.132-.257c0-.1.205-.257.215-.264l.129-.218a1.423,1.423,0,0,1,.216-.081l.157,0,.246.16.173.142.153.243a3.538,3.538,0,0,1,.191.36,1.669,1.669,0,0,0,.176.5,4.5,4.5,0,0,1-.894,1.06l-.205.192-.006.007Zm.161-2.647h-.149a1.7,1.7,0,0,0-.207.083l-.13.214s-.208.16-.208.253a.617.617,0,0,1-.135.268.6.6,0,0,0-.133.274c0,.125-.169.243-.175.246a.057.057,0,0,0-.028.043c-.009.065.088.171.179.275.03.036.061.068.088.1a7.221,7.221,0,0,0,.737.863c.066-.064.132-.125.2-.189a4.55,4.55,0,0,0,.891-1.049,1.521,1.521,0,0,1-.176-.488c-.036-.1-.188-.356-.19-.36l-.153-.239-.171-.136-.238-.161Z"/><path d="M59.808,307.419l.009-.064a1.243,1.243,0,0,1,.213-.183c.061-.039.056-.05.046-.074a.224.224,0,0,1-.011-.065c0-.032.006-.05.021-.06v-.158l.094-.26.1-.181-.055-.015-.1-.142.005,0,.1.142.054.019-.092.185-.094.256v.139a.2.2,0,0,0-.021.079.152.152,0,0,0,.012.061c.01.032.012.047-.053.086a1.319,1.319,0,0,0-.209.177l-.016.062Zm.494-.019.147-.145.094-.239.039-.025.114-.275.114-.143.008,0-.113.143-.038.117-.077.16-.039.022-.095.239-.154.142Zm-.744-.321.108-.106a2.187,2.187,0,0,1-.021-.3c0-.125.08-.125.08-.125l.112-.178-.038-.137v-.1a.324.324,0,0,1,.077-.221c.075-.061.114-.1.114-.1l-.039-.279h.008l.039.279a.644.644,0,0,1-.116.107c-.074.056-.074.213-.074.213v.1l.039.14-.117.185c-.007,0-.076,0-.076.118s.019.3.019.3l-.115.1Zm-.115-.189.05-.1-.076-.1.037-.2.114-.2a.728.728,0,0,1,.157-.124c.072-.037-.02-.25-.021-.254l.007,0c0,.011.1.225.017.268a.8.8,0,0,0-.151.117l-.116.2-.037.2.076.1-.057.1Zm1.756-.077-.14-.175-.227-.075a.507.507,0,0,1-.061-.143l-.056-.183-.113-.056s-.155-.264-.23-.382l.007-.007c.077.121.23.382.23.382l.113.056.059.186a.464.464,0,0,0,.057.136l.226.082.135.179Zm-1.354-.418.03-.1.25-.124s.094-.236.171-.379c.039-.057.044-.061.062-.061l.025.029h0c.012,0,.041-.031.086-.107h0a2.583,2.583,0,0,1-.04-.378h.009a2.776,2.776,0,0,0,.038.378c-.06.107-.084.121-.093.118l-.027-.033h0c-.006,0-.021.011-.053.061-.076.14-.173.378-.173.378l-.248.121-.037.1Zm1.28-.161-.066-.118-.053-.017-.079-.122-.132-.056-.08-.183-.074-.057-.151-.021,0-.007.151.018.079.06.078.182.132.061.079.122.053.014.061.124Z"/><path class="t" d="M63.463,305.76a.15.15,0,1,1-.151-.16.154.154,0,0,1,.151.16Z"/><path class="u" d="M63.312,305.935a.177.177,0,0,1,0-.354.177.177,0,0,1,0,.354Zm0-.314a.138.138,0,0,0,0,.275.138.138,0,0,0,0-.275Z"/><path class="t" d="M63.889,304.608a.133.133,0,1,1-.134-.138.136.136,0,0,1,.134.138Z"/><path class="u" d="M63.755,304.769a.159.159,0,1,1,.153-.161.156.156,0,0,1-.153.161Zm0-.279a.116.116,0,0,0-.112.118.113.113,0,1,0,.225,0,.116.116,0,0,0-.113-.118Z"/><path class="t" d="M63.474,303.117a.133.133,0,1,1-.266,0,.134.134,0,0,1,.131-.138.135.135,0,0,1,.135.138Z"/><path class="u" d="M63.339,303.274a.159.159,0,1,1,.153-.157.156.156,0,0,1-.153.157Zm0-.277a.119.119,0,1,0,.112.12.114.114,0,0,0-.112-.12Z"/><path class="v" d="M58.884,305.417v-.584l-.057-.05v-.139l.1-.01.017-.66-.065-.04-.009-.111s.074.029.074.011.02-.129.02-.129-.048-.01-.048-.031.059-.069.059-.069a.2.2,0,0,1-.04-.049c-.008-.021-.028-.111-.028-.111l.028-.11-.019-.058-.046-.092.065-.068s-.019-.089-.019-.11a.408.408,0,0,1,.059-.111c.009-.007.083-.118.083-.118l.163-.039.191.03.1.07.02.179a.5.5,0,0,1-.029.11.632.632,0,0,0-.085.039s-.095.011-.106,0a.8.8,0,0,0,.029.118v.121l-.009.15a.272.272,0,0,1-.009.079.378.378,0,0,0-.03.039l-.009.149.151.043-.008.09-.1.007.018.61.151.028v.172l-.065.038-.018.606Z"/><path class="w" d="M59.435,305.44h-.551l-.02-.607-.05-.035-.007-.154.123-.033,0-.637-.059-.022-.019-.125a.176.176,0,0,1,.084,0,.513.513,0,0,1,.011-.118c-.006.015-.048,0-.048-.031s.029-.05.054-.075c-.012,0-.025-.022-.032-.035a.634.634,0,0,1-.031-.115l.031-.118-.067-.135.071-.092h0c-.01,0-.026-.076-.026-.1a.323.323,0,0,1,.065-.121c.009-.014.083-.117.083-.117l.171-.051.2.029.113.074.026.193c-.021.132-.032.132-.048.132a.607.607,0,0,0-.076.039c-.007,0-.051.007-.083.007l-.028-.007c.023.015.033.057.045.1v.125l-.01.15c0,.075-.01.09-.013.093a.154.154,0,0,0-.028.04l-.007.138.137.018.008.111-.124.027.037.59.137.01.014.19-.075.056-.01.611Zm-.568-1.6.036.086.059.025-.013.678-.121.027.018.122.051.035.006.6.493-.017.019-.589.076-.057-.009-.153-.136-.011-.035-.623.123-.033-.008-.071-.138-.018-.006-.171a.25.25,0,0,1,.035-.054s0-.035,0-.064l.009-.271c-.035-.118-.032-.122-.024-.132l.019.014.028-.014a.521.521,0,0,0,.072-.007c.072-.04.084-.04.087-.04s0-.049.009-.092l-.02-.175-.094-.054-.184-.027-.152.038a.835.835,0,0,1-.076.114.425.425,0,0,0-.054.1c0,.011.013.067.02.1l-.071.09.049.067.022.064-.028.121c.006.025.021.083.026.093a.207.207,0,0,0,.036.047c-.027.05-.051.078-.054.086l.018,0,.031.028s-.02.1-.02.125v.018l-.031.011a.392.392,0,0,1-.071-.018Z"/><path class="v" d="M61.194,305.429v-.585l-.057-.054v-.14l.1-.006.018-.661-.066-.039-.009-.11s.075.032.075.011.02-.129.02-.129-.046-.011-.046-.031.055-.072.055-.072a.208.208,0,0,1-.038-.049,1.032,1.032,0,0,1-.028-.108l.028-.11-.017-.061-.049-.089.066-.068s-.017-.089-.017-.11a.411.411,0,0,1,.055-.111c.011-.011.085-.118.085-.118l.163-.042.19.031.1.069.02.181a.481.481,0,0,1-.029.108.648.648,0,0,0-.087.042.515.515,0,0,1-.1,0,.953.953,0,0,0,.029.118v.121l-.01.147a.263.263,0,0,1-.01.082.41.41,0,0,0-.029.039l-.009.149.152.04-.009.089-.1.011.02.609.151.028v.172l-.066.039-.018.607Z"/><path class="w" d="M61.745,305.45h-.551l-.019-.606-.052-.036-.005-.158.12-.028,0-.639-.058-.024-.018-.121a.176.176,0,0,1,.082-.008.589.589,0,0,1,.012-.114c0,.014-.048,0-.048-.031s.026-.05.054-.076a.079.079,0,0,1-.032-.035c-.009-.022-.027-.1-.031-.114l.031-.118-.066-.135.069-.094h0c-.009,0-.025-.074-.025-.1a.417.417,0,0,1,.062-.125c.011-.01.084-.118.084-.118l.175-.046.2.029.115.074.026.192c-.021.132-.032.132-.048.132s-.043.022-.077.036a.345.345,0,0,1-.081.008l-.029,0a.187.187,0,0,1,.044.1v.125l-.008.149c0,.08-.011.089-.017.093a.244.244,0,0,0-.025.036l-.006.143.137.017.005.112-.123.027.037.589.137.011.017.189-.077.057-.011.61Zm-.568-1.6.037.089.057.026-.009.677-.123.029.018.117.05.035.007.6.494-.019.019-.592.075-.053-.011-.154-.135-.01-.035-.627.122-.03-.008-.07-.137-.022-.006-.167a.3.3,0,0,1,.036-.054.6.6,0,0,0,0-.067l.009-.268c-.036-.118-.032-.121-.025-.133l.02.015.029-.018c.027,0,.069,0,.071,0,.073-.039.081-.039.087-.039-.011,0,0-.053.009-.093l-.02-.174-.1-.057-.182-.024-.151.039s-.071.1-.077.114a.564.564,0,0,0-.054.1c0,.01.013.071.02.106l-.072.087.05.066.022.062-.029.121a.932.932,0,0,0,.027.1.222.222,0,0,0,.036.046c-.027.051-.05.076-.054.087l.02,0,.029.029s-.02.107-.02.125v.018l-.032.011a.229.229,0,0,1-.071-.022Z"/><path class="v" d="M60.025,305.45v-.589l-.057-.05v-.138l.1-.012.022-.656-.068-.042-.011-.111s.079.032.079.014.017-.132.017-.132-.048-.01-.048-.029.059-.07.059-.07a.343.343,0,0,1-.039-.05.786.786,0,0,1-.029-.108l.029-.11-.02-.06-.048-.09.068-.071s-.02-.089-.02-.107a.312.312,0,0,1,.059-.11c.009-.011.083-.119.083-.119l.162-.041.192.027.1.072.018.178s-.018.11-.029.11a.787.787,0,0,0-.086.04s-.1.011-.1,0a.814.814,0,0,0,.028.121v.118l-.01.15a.256.256,0,0,1-.009.078c-.009.011-.028.042-.028.042l-.01.147.153.043-.008.088-.107.011.019.607.153.033v.166l-.065.044-.02.606Z"/><path class="w" d="M60.578,305.471h-.553l-.02-.61-.05-.036-.007-.152.123-.029v-.639l-.057-.024L60,303.855a.172.172,0,0,1,.084,0,.519.519,0,0,1,.013-.122c0,.023-.051.008-.051-.025s.029-.05.054-.074a.09.09,0,0,1-.033-.036,1.149,1.149,0,0,1-.03-.114l.029-.121L60,303.224l.069-.088h0a.272.272,0,0,1-.025-.1.364.364,0,0,1,.064-.125c.009-.011.083-.118.083-.118l.172-.049.2.031.113.072.028.2c-.022.132-.034.132-.05.132s-.045.022-.076.036a.431.431,0,0,1-.083.007l-.028,0a.175.175,0,0,1,.043.093l0,.125-.009.154c0,.074-.011.085-.015.089a.228.228,0,0,0-.026.038l-.007.139.139.022,0,.11-.123.026.038.588.136.01.017.189-.077.058-.008.613Zm-.569-1.6.035.089.058.024-.009.674-.123.032.018.118.049.037.007.6.494-.018.018-.592.077-.054-.011-.152-.136-.012-.033-.628.121-.031-.009-.071-.136-.018-.006-.169a.176.176,0,0,1,.035-.052c0-.007,0-.04,0-.068l.009-.268c-.036-.117-.033-.125-.026-.132l.02.015.028-.018c.031,0,.072,0,.072,0,.074-.042.081-.042.087-.042s0-.051.011-.093l-.02-.171-.1-.057-.184-.03-.153.04a.706.706,0,0,1-.076.114.425.425,0,0,0-.05.1c0,.01.011.067.016.1l-.07.088.05.065.02.064-.029.121c.009.025.022.083.029.1a.174.174,0,0,0,.034.043c-.026.05-.05.079-.05.085l.016,0,.03.029s-.018.107-.018.128v.018l-.032.008a.316.316,0,0,1-.071-.018Z"/><path class="x" d="M59.024,305.414v-.464h.247v.481Z"/><path class="x" d="M60.192,305.454l.009-.476h.222v.464Z"/><path class="x" d="M61.343,305.442,61.322,305l.241-.012v.465Z"/><rect width="0.143" height="0.24" transform="translate(59.087 304.044)"/><rect width="0.194" height="0.232" transform="translate(60.21 304.052)"/><rect width="0.169" height="0.226" transform="translate(61.358 304.069)"/><path class="y" d="M60.4,303.171c-.052,0-.088-.078-.115-.143l.02-.049.015.035c.024.05.067.146.1.153a.053.053,0,0,1-.024,0Zm-1.093,0c-.019,0-.056-.039-.166-.168l.029-.024c.133.153.155.171.157.174s-.011.018-.02.018Zm2.3-.007c-.077,0-.121-.121-.125-.136l.037-.013c.017.049.059.135.1.145l-.013,0Z"/><path class="z" d="M59,302.482c.443-.149-.1-.449-.195,0-.144.025-.164.139-.474.089-.753,1.288-.2,3.361,2.006,5.507-3.942-3.517-2.339-6.12-1.248-6.019.594.043.294.816-.089.423Z"/><path class="m" d="M60.914,302.605a.528.528,0,0,1-.146-.447l.079.01a.468.468,0,0,0,.107.368l-.04.069Zm-.648-.09-.014-.424.079,0,.015.424-.08,0Zm-.444-.035a.557.557,0,0,1-.023-.123.424.424,0,0,1-.062.123l-.06-.05a.463.463,0,0,0,.075-.268h.05a1.177,1.177,0,0,1,.048-.218l.074.029a.941.941,0,0,0-.026.484l-.076.023Zm.793-.026.011-.05c.02-.082.072-.271-.015-.36l.057-.057c.118.125.059.346.034.439l-.087.028Zm-.211-.1-.056-.054a.588.588,0,0,1,.24-.129l.021.075a.576.576,0,0,0-.205.108Zm-.272-.025c-.037-.068-.15-.05-.166-.047l-.063-.028.048-.05a.227.227,0,0,1,.25.089l-.069.036Zm-.609-.235h-.08c0-.108-.246-.2-.334-.229l.024-.074c.039.01.39.116.39.3Zm1.245,0c-.005-.019-.019-.068.18-.247L61,301.9a.726.726,0,0,0-.153.174l-.079.015Zm-1.012-.05a.79.79,0,0,0-.287-.2l.031-.071a.85.85,0,0,1,.324.235l-.068.039Zm1.349-.028-.066-.047c.079-.111.384-.157.418-.16l.01.078c-.116.018-.32.064-.362.129Z"/><path class="aa" d="M60.672,302.39l-.022.025a.3.3,0,0,1-.146.1.314.314,0,0,1-.206-.021l-.021-.01-.017.013a.286.286,0,0,1-.2.051.321.321,0,0,1-.185-.118l-.02-.022-.026.011a3.8,3.8,0,0,1-.534.195.505.505,0,0,1-.4-.035l-.026-.017-.019.021a1.835,1.835,0,0,0-.592,1.209,3.35,3.35,0,0,0,.226,1.451,7.688,7.688,0,0,0,1.77,2.69l.027.024.028-.024a7.241,7.241,0,0,0,1.79-2.654,2.5,2.5,0,0,0-.35-2.731l-.037-.037-.026.048a.177.177,0,0,1-.131.1.552.552,0,0,1-.244,0,1.947,1.947,0,0,1-.613-.243Zm.013.1a1.964,1.964,0,0,0,.615.239.7.7,0,0,0,.274,0,.325.325,0,0,0,.147-.1,2.428,2.428,0,0,1,.3,2.618,7.1,7.1,0,0,1-1.74,2.593,7.566,7.566,0,0,1-1.725-2.628,3.269,3.269,0,0,1-.22-1.416,1.751,1.751,0,0,1,.548-1.145.591.591,0,0,0,.422.036,3.49,3.49,0,0,0,.526-.194.392.392,0,0,0,.208.125.347.347,0,0,0,.243-.056.4.4,0,0,0,.241.025.382.382,0,0,0,.159-.1Z"/><path class="z" d="M61.625,302.45c-.444-.149.1-.448.195,0,.143.026.162.14.473.09.753,1.287.194,3.358-2.006,5.506,3.942-3.516,2.339-6.119,1.248-6.02-.594.042-.295.817.09.424Z"/><path class="ab" d="M58.411,307.275a2.125,2.125,0,0,0-2.324-.4c.279.128.58.168.835.307l1.489.1Z"/><path class="ac" d="M58.411,307.315h0l-1.489-.093a2.637,2.637,0,0,0-.458-.174,3.145,3.145,0,0,1-.391-.14.04.04,0,0,1-.023-.035.038.038,0,0,1,.027-.036,2.169,2.169,0,0,1,2.362.41.036.036,0,0,1,.01.043.039.039,0,0,1-.036.025Zm-2.214-.438c.1.035.192.066.286.1a2.473,2.473,0,0,1,.458.171l1.356.086a2.056,2.056,0,0,0-2.1-.353Z"/><path class="ad" d="M58.169,307.226a.053.053,0,0,1-.024-.008,2.809,2.809,0,0,0-1.325-.26.039.039,0,0,1-.039-.039.041.041,0,0,1,.039-.039,2.935,2.935,0,0,1,1.354.264l.013.007a.044.044,0,0,1,.013.057.041.041,0,0,1-.031.018Z"/><path class="ab" d="M58.435,307.333c-.326.067-.771.4-.9.381a5.365,5.365,0,0,1-1.026-.31,1.308,1.308,0,0,0-.428,0c1.213-.6,1.628-.517,2.358-.071Z"/><path class="ac" d="M57.541,307.754h-.013a3.372,3.372,0,0,1-.772-.218c-.087-.032-.174-.064-.264-.093a.761.761,0,0,0-.269-.01,1.03,1.03,0,0,1-.146.013.04.04,0,0,1-.039-.031.044.044,0,0,1,.021-.046c1.244-.618,1.673-.511,2.394-.068a.045.045,0,0,1,.021.043.043.043,0,0,1-.033.028,2.445,2.445,0,0,0-.535.229,1.128,1.128,0,0,1-.365.153Zm-1.177-.41a.536.536,0,0,1,.155.025c.087.027.177.06.264.092a3.4,3.4,0,0,0,.754.214h0a1.23,1.23,0,0,0,.328-.143,3.133,3.133,0,0,1,.466-.213c-.636-.376-1.026-.45-2.05.028.026,0,.052,0,.079,0Z"/><path class="ab" d="M57.633,306.448s-.406.061-.586.072a1.356,1.356,0,0,1-.734-.511.727.727,0,0,0-.495-.153,1.623,1.623,0,0,1,1.815.592Z"/><path class="ac" d="M57.047,306.559h0a1.4,1.4,0,0,1-.76-.521.629.629,0,0,0-.434-.142.031.031,0,0,1-.015,0l-.009,0,0-.007a.039.039,0,0,1-.03-.03c0-.016,0-.035.015-.038a1.651,1.651,0,0,1,1.854.6.037.037,0,0,1,.006.038.039.039,0,0,1-.031.025s-.409.058-.59.072h0Zm-.947-.71a.458.458,0,0,1,.245.135,1.347,1.347,0,0,0,.7.5c.134-.01.39-.041.513-.06a1.5,1.5,0,0,0-1.46-.571Z"/><path class="ab" d="M57.08,305.621a1.722,1.722,0,0,1-1.4-1.17c0,.007.2.132.17.164.907.243.967.436,1.229,1.006Z"/><path class="ac" d="M57.08,305.66h0a1.746,1.746,0,0,1-1.432-1.2.039.039,0,0,1,.024-.046.041.041,0,0,1,.05.022c.107.075.159.117.172.149.866.235.958.435,1.2.963l.026.058a.036.036,0,0,1,0,.039.043.043,0,0,1-.033.017Zm-1.324-1.109a1.728,1.728,0,0,0,1.259,1.023c-.238-.52-.319-.691-1.173-.92-.015-.006-.026-.013-.029-.028a.051.051,0,0,1,.01-.04.161.161,0,0,1-.067-.035Z"/><path class="ab" d="M58.005,306.613a1.443,1.443,0,0,0-.136-1.181,2.375,2.375,0,0,1-.384-.709c-.041.687-.183,1.258.52,1.89Z"/><path class="ac" d="M58.005,306.651a.037.037,0,0,1-.026-.01,1.713,1.713,0,0,1-.549-1.691c.005-.074.013-.152.016-.231a.039.039,0,0,1,.034-.035.036.036,0,0,1,.042.024l.038.09a2.035,2.035,0,0,0,.341.609,1.5,1.5,0,0,1,.143,1.212.039.039,0,0,1-.025.032Zm-.491-1.761c0,.024,0,.046-.005.068a1.656,1.656,0,0,0,.468,1.576,1.328,1.328,0,0,0-.138-1.078,1.9,1.9,0,0,1-.325-.566Z"/><path class="ab" d="M57.138,305.161a2.554,2.554,0,0,0,.417-1.847,3.6,3.6,0,0,1-.159.427c-.609.4-.338,1.028-.258,1.42Z"/><path class="ac" d="M57.138,305.2l-.009,0a.032.032,0,0,1-.03-.028c-.013-.054-.027-.114-.041-.175a1.035,1.035,0,0,1,.317-1.284c.011-.024.131-.349.141-.4a.038.038,0,0,1,.041-.036.042.042,0,0,1,.037.036,2.605,2.605,0,0,1-.424,1.873.049.049,0,0,1-.032.017Zm.391-1.676c-.044.122-.1.256-.133.256-.48.325-.36.806-.263,1.2.008.028.015.056.02.082a2.347,2.347,0,0,0,.376-1.534Z"/><path class="ab" d="M56.775,302.133a2.786,2.786,0,0,1,.283,1.962,3.218,3.218,0,0,0-.158-.425c-.607-.4-.2-1.145-.125-1.537Z"/><path class="ac" d="M57.058,304.134a.037.037,0,0,1-.039-.032,3.481,3.481,0,0,0-.149-.407c-.508-.331-.334-.9-.2-1.315a2.568,2.568,0,0,0,.073-.254.036.036,0,0,1,.029-.032c.018-.007.032.008.043.018a2.723,2.723,0,0,1,.292,1.925l-.005.061a.038.038,0,0,1-.036.036Zm-.134-.495c.023,0,.071.131.112.253a2.588,2.588,0,0,0-.244-1.66c-.015.054-.032.111-.052.172-.125.414-.285.923.182,1.235Z"/><path class="ab" d="M57.115,303.1c.991-.525.608-1.192.787-1.706a1.951,1.951,0,0,0-.787,1.706Z"/><path class="ac" d="M57.115,303.143a.062.062,0,0,1-.022-.007.04.04,0,0,1-.018-.032,1.968,1.968,0,0,1,.805-1.734.039.039,0,0,1,.062.042,1.5,1.5,0,0,0-.06.472,1.235,1.235,0,0,1-.749,1.255c-.006,0-.013,0-.018,0Zm.719-1.633a1.864,1.864,0,0,0-.679,1.526,1.142,1.142,0,0,0,.648-1.156,2.09,2.09,0,0,1,.031-.37Z"/><path class="ad" d="M56.956,303.78a.038.038,0,0,1-.04-.035c-.017-.21-.1-.717-.141-.93l-.015-.1a.04.04,0,0,1,.032-.047.042.042,0,0,1,.046.037l.014.092c.038.214.125.724.143.938a.038.038,0,0,1-.035.042Zm.294-.766-.012,0a.041.041,0,0,1-.027-.051,5.525,5.525,0,0,1,.433-1.02.039.039,0,0,1,.039.04.038.038,0,0,1-.039.039c-.007.036-.236.606-.356.966a.048.048,0,0,1-.038.029Z"/><path class="ab" d="M57,304.911c-.555-.035-1.151-.827-1.309-1.44,0,.006.2.131.168.164A1.932,1.932,0,0,1,57,304.911Z"/><path class="ac" d="M57,304.95h0c-.553-.036-1.178-.819-1.344-1.469a.041.041,0,0,1,.026-.049.037.037,0,0,1,.047.02c.114.079.165.122.176.157a1.823,1.823,0,0,1,1.062,1.128l.072.157a.039.039,0,0,1,0,.039.04.04,0,0,1-.032.017Zm-1.237-1.38a1.974,1.974,0,0,0,1.171,1.294l-.042-.1a1.742,1.742,0,0,0-1.049-1.1.037.037,0,0,1-.022-.028.039.039,0,0,1,.013-.037.211.211,0,0,1-.071-.035Z"/><path class="ab" d="M56.837,304.369a2.521,2.521,0,0,1-.416-1.844,3.359,3.359,0,0,0,.157.424c.609.4.337,1.028.259,1.42Z"/><path class="ac" d="M56.837,304.409a.039.039,0,0,1-.032-.018,2.6,2.6,0,0,1-.425-1.872.041.041,0,0,1,.039-.037.042.042,0,0,1,.042.033,3.593,3.593,0,0,0,.147.41c.538.352.407.888.308,1.277-.016.06-.029.12-.041.174a.035.035,0,0,1-.031.029l-.007,0Zm-.393-1.674a2.373,2.373,0,0,0,.376,1.531c.007-.029.013-.054.02-.085.1-.386.218-.871-.283-1.2h0c-.024,0-.072-.125-.111-.247Z"/><path class="ab" d="M57.2,303.267c1.028-.474.712-.977,1.018-1.5-.69.535-1.006.9-1.018,1.5Z"/><path class="ac" d="M57.2,303.31a.037.037,0,0,1-.02-.007.052.052,0,0,1-.019-.036c.012-.627.356-1.005,1.031-1.53a.04.04,0,0,1,.059.051,1.469,1.469,0,0,0-.16.474,1.264,1.264,0,0,1-.874,1.041.021.021,0,0,1-.017.007Zm.906-1.406a1.8,1.8,0,0,0-.863,1.3,1.158,1.158,0,0,0,.771-.96,2.068,2.068,0,0,1,.092-.339Z"/><path class="ad" d="M57.25,303.2c-.01,0-.022,0-.026-.008a.037.037,0,0,1,0-.056,2.775,2.775,0,0,0,.556-.793.039.039,0,0,1,.073.029,2.789,2.789,0,0,1-.572.817.029.029,0,0,1-.027.011Z"/><path class="r" d="M60.9,309.177c.166,0,.334.006.5.009-1.66-1.628-4.838-2.334-4.395-5.334-.455,3.249,2.6,3.548,3.9,5.325Z"/><path class="s" d="M61.5,309.23l-.6-.014a7.081,7.081,0,0,0-1.71-1.452c-1.183-.81-2.411-1.641-2.257-3.613h0c.006-.1.018-.2.034-.306l.08.014h0c-.013.1-.024.2-.031.3-.133,1.9,1.308,2.828,2.7,3.731a10.927,10.927,0,0,1,1.716,1.273l.072.071Zm-4.162-3.309a5.453,5.453,0,0,0,1.9,1.775,6.7,6.7,0,0,1,1.7,1.455l.217-.01.148,0a11.94,11.94,0,0,0-1.629-1.192,7,7,0,0,1-2.33-2.032Z"/><path class="t" d="M57.265,303.211a.16.16,0,1,1-.32,0,.16.16,0,1,1,.32,0Z"/><path class="u" d="M57.1,303.4a.188.188,0,0,1,0-.375.188.188,0,0,1,0,.375Zm0-.336a.145.145,0,0,0-.137.151.139.139,0,1,0,.277,0,.146.146,0,0,0-.14-.151Z"/><path class="t" d="M57.166,304.127a.153.153,0,0,1-.149.157.157.157,0,0,1,0-.314.152.152,0,0,1,.149.157Z"/><path class="u" d="M57.017,304.306a.179.179,0,1,1,.17-.179.175.175,0,0,1-.17.179Zm0-.319a.14.14,0,1,0,.129.14.137.137,0,0,0-.129-.14Z"/><path class="t" d="M57.309,305.432a.133.133,0,1,1-.133-.139.137.137,0,0,1,.133.139Z"/><path class="u" d="M57.176,305.593a.159.159,0,1,1,.152-.161.156.156,0,0,1-.152.161Zm0-.278a.114.114,0,0,0-.113.117.117.117,0,0,0,.113.122.118.118,0,0,0,.114-.122.116.116,0,0,0-.114-.117Z"/><path class="t" d="M58.468,306.88a.134.134,0,1,1-.268,0,.134.134,0,1,1,.268,0Z"/><path class="u" d="M58.335,307.041a.161.161,0,1,1,.153-.161.158.158,0,0,1-.153.161Zm0-.278a.114.114,0,0,0-.112.117.118.118,0,0,0,.112.121.12.12,0,0,0,.112-.121.115.115,0,0,0-.112-.117Z"/><path class="t" d="M58.636,307.294a.137.137,0,0,1-.135.139.135.135,0,0,1-.131-.139.133.133,0,0,1,.131-.136.135.135,0,0,1,.135.136Z"/><path class="u" d="M58.5,307.454a.159.159,0,1,1,.154-.16.156.156,0,0,1-.154.16Zm0-.278a.12.12,0,1,0,.114.118.117.117,0,0,0-.114-.118Z"/><path class="v" d="M59.22,308.506a.645.645,0,0,1-.177-.229c-.174-.02-.347-.038-.52-.06,0,.1,0,.21-.009.313l.706-.024Z"/><path d="M58.495,308.553l.008-.336.282.01.259.03a.757.757,0,0,0,.188.231l-.737.065Zm.026-.314.013.271.685-.026a.346.346,0,0,1-.2-.2l-.5-.046Z"/><path class="v" d="M55.41,308.139c.3.057.758-.033.9.175.179.21-.559.538-.454.719.228.254.463.15.721.008.056-.136.1-.378.139-.453-.1-.221-.343-.331-.281-.67a2.772,2.772,0,0,1,1.318-.09c.068.144.008.208.022.318-.07.142-.251.381-.251.509.444.161.559-.027.957-.017.465.007.748.139.85-.053-.069-.171-.5-.032-.658-.14a.616.616,0,0,1-.2-.171c-.072-.078-.267-.082-.3-.267.083-.4.628-.336.717-.4.475.038.951.069,1.422.1.258-.01.4.478.058.621s-1.378-.214-1.823.035c-.025-.1-.345-.257-.368-.26a1.753,1.753,0,0,1-.4.029c-.066.125-.141.217-.206.341-.3-.134-.573.108-.9.037,0,0-.489.057-.5.057s-.32-.029-.32-.029c-.164.05-.326.1-.488.147l.348-.322-.305-.231Z"/><path d="M56.17,309.208a.424.424,0,0,1-.323-.16c-.061-.1.077-.225.223-.35l.114-.1h-.009c-.015,0-.321-.028-.321-.028l-.481.146c-.01,0-.019,0-.023-.011a.018.018,0,0,1,0-.024l.351-.322-.306-.2a2.025,2.025,0,0,1,.348-.009c.236.006.482.013.587.157.069.081.016.175-.047.245l.365-.046c-.027-.035-.051-.064-.074-.1a.544.544,0,0,1-.155-.489,2.714,2.714,0,0,1,.934-.15,1.081,1.081,0,0,1,.414.051.317.317,0,0,1,.036.223.292.292,0,0,0-.008.083.637.637,0,0,1,.1,0,1.08,1.08,0,0,0,.282-.028l.01,0a.3.3,0,0,1-.027-.081c.065-.315.391-.362.586-.389a.472.472,0,0,0,.14-.028l1.434.1h0a.3.3,0,0,1,.272.264.343.343,0,0,1-.209.4,1.966,1.966,0,0,1-.76-.006,2.346,2.346,0,0,0-1.035.024.479.479,0,0,0,.1.05.545.545,0,0,0,.278.047h.067c.154,0,.286.006.325.1a.23.23,0,0,1-.245.135c-.063,0-.14-.011-.229-.017-.114-.014-.244-.029-.394-.033H58.48a1.479,1.479,0,0,0-.357.043.99.99,0,0,1-.6-.028.359.359,0,0,1,.044-.186.892.892,0,0,0-.463.018,1.067,1.067,0,0,1-.384.039.208.208,0,0,1,.019.036c-.013.047-.03.111-.05.182a2.138,2.138,0,0,1-.089.289.908.908,0,0,1-.429.156Zm.5-.681-.424.061a1.085,1.085,0,0,1-.145.139c-.126.111-.258.225-.217.3.192.21.451.132.692,0,.025-.067.053-.177.077-.274.021-.071.039-.139.052-.171a.239.239,0,0,1-.035-.054Zm1.1-.335a.68.68,0,0,1-.062.118.93.93,0,0,0-.158.345,1.322,1.322,0,0,0,.565.012,1.283,1.283,0,0,1,.336-.047,3.511,3.511,0,0,1,.433.028c.238.03.38.033.433-.074-.029-.057-.152-.064-.288-.064l-.067-.019v.019a.535.535,0,0,1-.3-.05.3.3,0,0,1-.119-.082c-.011,0-.024-.022-.031-.028l-.027-.03a.551.551,0,0,0-.1-.081.639.639,0,0,1-.149-.083c-.034-.017-.055-.024-.059-.028a1.291,1.291,0,0,1-.388.028.235.235,0,0,1-.019.036Zm-2.366-.036.323.2-.282.3.406-.121h0c.014,0,.307.029.324.029l.062-.007c.085-.1.111-.168.065-.225-.095-.128-.33-.135-.559-.142a2.431,2.431,0,0,1-.339-.026Zm1.306.354a2.215,2.215,0,0,0,.385-.046.79.79,0,0,1,.483,0,.043.043,0,0,1,.011-.021.555.555,0,0,1,.071-.139c.033-.058.07-.108.1-.172a.354.354,0,0,1,0-.1.272.272,0,0,0-.024-.193,1.294,1.294,0,0,0-.385-.035,2.835,2.835,0,0,0-.908.131.542.542,0,0,0,.159.443,1.371,1.371,0,0,1,.094.132Zm2.306-.25a5.22,5.22,0,0,1,.611.05,2.017,2.017,0,0,0,.738.01.305.305,0,0,0,.186-.356c-.023-.114-.11-.232-.229-.232l-1.428-.1c-.014.019-.069.024-.144.031-.2.033-.494.072-.553.351a.2.2,0,0,0,.066.114c.037.018.09.046.142.077a.323.323,0,0,1,.083.055c.038.039.051.057.063.067a1.5,1.5,0,0,1,.465-.064Z"/><path class="v" d="M55.387,308.075a.134.134,0,1,1-.134-.143.138.138,0,0,1,.134.143Z"/><path d="M55.253,308.235a.161.161,0,1,1,.153-.16.157.157,0,0,1-.153.16Zm0-.282a.122.122,0,1,0,.114.122.118.118,0,0,0-.114-.122Z"/><path class="v" d="M55.352,308.77a.134.134,0,1,1-.268,0,.134.134,0,1,1,.268,0Z"/><path d="M55.217,308.934a.161.161,0,0,1-.154-.164.155.155,0,1,1,.31,0,.162.162,0,0,1-.156.164Zm0-.286a.122.122,0,0,0-.115.122.116.116,0,1,0,.231,0,.123.123,0,0,0-.116-.122Z"/><path class="v" d="M61.371,308.506a.6.6,0,0,0,.177-.225l.519-.06c0,.1,0,.206.006.313-.233-.01-.469-.02-.7-.028Z"/><path d="M62.1,308.553l-.726-.026a1.3,1.3,0,0,0,.158-.253l.538-.075.03.354Zm-.048-.332-.5.079a.5.5,0,0,1-.166.221l.338-.022.332.015-.008-.293Z"/><path class="v" d="M65.18,308.139c-.3.057-.757-.029-.907.175-.178.213.559.541.454.723-.227.254-.462.146-.717.007-.059-.135-.107-.377-.14-.453.094-.224.343-.334.279-.673a2.753,2.753,0,0,0-1.317-.086c-.07.14-.006.206-.022.317.07.139.25.381.25.506-.441.164-.558-.02-.957-.013-.464.006-.749.138-.848-.057.067-.169.495-.029.658-.14a.542.542,0,0,0,.2-.171c.072-.075.269-.078.3-.263-.082-.4-.627-.336-.717-.4-.474.034-.948.065-1.423.1-.258-.006-.4.482-.055.625s1.377-.218,1.823.031c.023-.1.344-.253.368-.26a1.406,1.406,0,0,0,.4.029c.066.128.138.221.2.345.3-.134.575.107.9.037,0,0,.486.057.5.057s.323-.029.323-.029c.162.046.324.1.485.146-.115-.107-.231-.215-.346-.325.1-.074.2-.153.305-.231Z"/><path d="M64.42,309.212a.936.936,0,0,1-.419-.149,1.807,1.807,0,0,1-.1-.3,1.055,1.055,0,0,0-.049-.165.434.434,0,0,1,.018-.057.932.932,0,0,1-.386-.039.719.719,0,0,0-.451-.007.437.437,0,0,1,.048.156.836.836,0,0,1-.615.051,1.443,1.443,0,0,0-.328-.043c-.184,0-.316.018-.426.029a2.356,2.356,0,0,1-.235.021.24.24,0,0,1-.24-.118c.037-.115.168-.12.322-.12h.069a.545.545,0,0,0,.272-.044.3.3,0,0,0,.1-.064,2.58,2.58,0,0,0-1.033-.015,1.991,1.991,0,0,1-.759.008.352.352,0,0,1-.21-.4.3.3,0,0,1,.266-.264l1.427-.1a.98.98,0,0,0,.153.031c.195.028.523.075.586.382a.2.2,0,0,1-.027.085,1.406,1.406,0,0,0,.389.025.542.542,0,0,0-.008-.079.317.317,0,0,1,.027-.217,1.017,1.017,0,0,1,.419-.053,3,3,0,0,1,.924.131.541.541,0,0,1-.14.507,1.167,1.167,0,0,0-.081.108l.372.031c-.069-.074-.115-.164-.048-.242.1-.147.348-.154.588-.157a1.828,1.828,0,0,0,.331-.029l-.289.272.348.292c.007,0,.007.017,0,.025a.018.018,0,0,1-.023.007l-.487-.146s-.3.032-.317.032l-.009,0a.921.921,0,0,0,.116.1c.144.129.284.25.225.35a.427.427,0,0,1-.325.164Zm-.51-.674c0,.015-.011.036-.021.061a.651.651,0,0,1,.051.156,2.186,2.186,0,0,0,.088.282c.225.114.489.2.685-.014.037-.067-.093-.181-.222-.292-.054-.05-.11-.1-.155-.146l-.426-.047Zm-1.8.082a1.455,1.455,0,0,1,.366.047.932.932,0,0,0,.578-.029,1.69,1.69,0,0,0-.17-.322c-.035-.059-.068-.114-.089-.156a1.422,1.422,0,0,1-.393-.028s-.015.011-.051.028a.411.411,0,0,1-.123.071.559.559,0,0,0-.12.083l-.036.038c0,.008-.011.026-.016.026s-.017.014-.025.011a.241.241,0,0,1-.11.075.552.552,0,0,1-.292.05h-.069c-.133,0-.256.007-.286.077.053.083.192.09.433.061.114-.014.247-.028.4-.032Zm2.623-.093.412.125-.284-.263.309-.268a.625.625,0,0,1-.322.064c-.227.007-.462.011-.555.139-.048.061-.025.128.075.232h.048c.016,0,.317-.029.317-.029Zm-1.518-.1a1.168,1.168,0,0,1,.278.043.965.965,0,0,0,.411.032.693.693,0,0,1,.077-.118.508.508,0,0,0,.15-.456,3.156,3.156,0,0,0-.9-.117,1.191,1.191,0,0,0-.39.039.3.3,0,0,0-.016.189.441.441,0,0,1,.006.107,1.75,1.75,0,0,0,.1.16c.033.053.068.111.1.172a.266.266,0,0,1,.181-.051Zm-2.942-.689a.263.263,0,0,0-.234.229.3.3,0,0,0,.189.356,1.867,1.867,0,0,0,.738-.006,2.306,2.306,0,0,1,1.06.028l.035-.036a.13.13,0,0,1,.018-.021.291.291,0,0,1,.107-.079,1.477,1.477,0,0,1,.147-.081.2.2,0,0,0,.061-.118c-.059-.272-.355-.314-.553-.343a.467.467,0,0,1-.157-.035l-1.409.106Z"/><path class="v" d="M65.2,308.075a.134.134,0,1,0,.267,0,.134.134,0,1,0-.267,0Z"/><path d="M65.337,308.239a.161.161,0,0,1-.155-.164.155.155,0,1,1,.31,0,.162.162,0,0,1-.155.164Zm0-.282a.12.12,0,0,0,0,.239.12.12,0,0,0,0-.239Z"/><path class="v" d="M65.239,308.773a.137.137,0,0,0,.133.143.141.141,0,0,0,.136-.143.137.137,0,0,0-.136-.138.133.133,0,0,0-.133.138Z"/><path d="M65.372,308.934a.161.161,0,1,1,.153-.161.157.157,0,0,1-.153.161Zm0-.282a.119.119,0,0,0-.114.121.114.114,0,1,0,.228,0,.119.119,0,0,0-.114-.121Z"/><path class="v" d="M60.287,307.739c-.122-.021-.162-.014-.245-.025-.062.2-.126.411-.189.613a4.532,4.532,0,0,0,.566.025c-.179-.036-.134-.609-.132-.613Z"/><path d="M59.043,308.16v-.417h.07v.353h.179v.064Z"/><rect width="0.071" height="0.414" transform="translate(59.354 307.768)"/><path d="M59.662,308.21h-.12V307.8c.053,0,.091-.008.112-.008a.152.152,0,0,1,.1.029.094.094,0,0,1,.034.078.088.088,0,0,1-.048.08.107.107,0,0,1,.074.11.11.11,0,0,1-.041.092.174.174,0,0,1-.107.032Zm-.05-.356v.1h.033q.069,0,.069-.054c0-.032-.021-.045-.062-.045Zm0,.157v.138h.034a.091.091,0,0,0,.068-.017.067.067,0,0,0,.023-.054.06.06,0,0,0-.021-.05.112.112,0,0,0-.07-.017Z"/><path d="M59.977,307.889v.1h.13v.064h-.13v.125h.178v.064h-.249v-.418h.253v.067Z"/><path d="M60.482,308.246l-.106-.175h-.045v.175h-.073v-.418a.307.307,0,0,0,.047,0c.026,0,.048,0,.063,0,.1,0,.152.043.152.125a.112.112,0,0,1-.021.068.1.1,0,0,1-.054.043l.118.189Zm-.151-.353v.114a.094.094,0,0,0,.03,0,.1.1,0,0,0,.065-.015.054.054,0,0,0,.021-.05.049.049,0,0,0-.021-.043.175.175,0,0,0-.072-.014.207.207,0,0,1-.023,0Z"/><path d="M60.768,307.882v.35H60.7v-.35h-.124v-.063H60.9v.063Z"/><path d="M61.166,308.178l-.029-.086H61l-.027.086h-.079l.16-.424h.028l.16.424Zm-.1-.3-.047.154h.093Z"/><path d="M61.3,308.139l.024-.068a.145.145,0,0,0,.085.029c.042,0,.062-.014.062-.043a.064.064,0,0,0-.014-.039.181.181,0,0,0-.061-.046.264.264,0,0,1-.062-.04.07.07,0,0,1-.025-.036.185.185,0,0,1-.008-.046.107.107,0,0,1,.033-.082.122.122,0,0,1,.087-.033.16.16,0,0,1,.1.029l-.021.064a.119.119,0,0,0-.078-.028.049.049,0,0,0-.039.015.038.038,0,0,0-.013.032q0,.036.075.075a.2.2,0,0,1,.059.039.1.1,0,0,1,.026.038.141.141,0,0,1,.011.054.113.113,0,0,1-.039.083.167.167,0,0,1-.1.031.2.2,0,0,1-.1-.028Z"/><path class="ad" d="M57.574,307.386a3.634,3.634,0,0,1-.465-.025.04.04,0,0,1,.009-.079,6.276,6.276,0,0,0,1.043,0l.068,0a.04.04,0,1,1,0,.079l-.067,0c-.146.011-.366.021-.591.021Zm.362-.873a.039.039,0,0,1-.037-.036,3.656,3.656,0,0,0-.191-.674,2.928,2.928,0,0,1-.112-.339.036.036,0,0,1,.026-.047.039.039,0,0,1,.049.029,3.3,3.3,0,0,0,.11.328,3.615,3.615,0,0,1,.2.692.043.043,0,0,1-.032.047h-.008Zm-.407-.074a2.8,2.8,0,0,1-1-.422.041.041,0,0,1-.006-.054.04.04,0,0,1,.057-.006,2.668,2.668,0,0,0,.953.4c.021.007.054.033.053.05l-.078-.01.039.006-.014.038Zm-.563-.9a.059.059,0,0,1-.023-.007c-.108-.079-.189-.149-.267-.218a2.387,2.387,0,0,0-.672-.441.043.043,0,0,1-.021-.054.048.048,0,0,1,.055-.018,2.574,2.574,0,0,1,.689.453c.078.068.158.136.262.214a.035.035,0,0,1,.01.053.043.043,0,0,1-.033.018Zm.193-.545h0a.039.039,0,0,1-.037-.043c.044-.663.134-.862.305-1.031a.038.038,0,0,1,.055,0,.036.036,0,0,1,0,.054c-.135.135-.236.281-.28.981a.041.041,0,0,1-.041.035Zm-.345-.179s-.632-.7-.823-.923a.038.038,0,0,1,0-.054.044.044,0,0,1,.058,0c.191.224.82.92.82.92l-.058.053Zm.006-.706a.039.039,0,0,1-.039-.039c0-.007,0-.621-.221-.785a.039.039,0,0,1-.007-.057.04.04,0,0,1,.053-.007c.251.186.253.82.253.849a.038.038,0,0,1-.039.039Z"/></g></g></g></svg>