<svg xmlns="http://www.w3.org/2000/svg" xmlns:xlink="http://www.w3.org/1999/xlink" width="33.564" height="19.577" viewBox="0 0 33.564 19.577"><defs><style>.a{fill:none;}.b{clip-path:url(#a);}.c{fill:#fff;}.d{fill:#3e73b7;}.e{fill:#eac126;}.e,.g{fill-rule:evenodd;}.f,.g{fill:#292c2f;}</style><clipPath id="a"><rect class="a" width="33.563" height="19.577" transform="translate(147.763 141.686)"/></clipPath></defs><g transform="translate(-147.763 -141.686)"><g class="b"><rect class="c" width="33.563" height="19.577" transform="translate(147.763 141.686)"/><path class="d" d="M147.763,159.088h33.563v-2.176H147.763Zm0-4.35h33.563V152.56H147.763Zm10.881-4.351h22.682v-2.175H158.644Zm0-4.352h22.682v-2.174H158.644Z"/><g class="b"><path class="e" d="M153.219,147.141l.1,1.606c-1.483,1.072-.567,1.7-1.641,2.05.725-.724-.22-.724.6-2.365"/><path class="f" d="M153.252,147.141l.094,1.606h-.065l-.125-1.606Zm.094,1.606h0v.033l-.032-.033Zm0,.033a2.117,2.117,0,0,0-.979,1.325h-.1a2.227,2.227,0,0,1,1.01-1.389Zm-.979,1.325a.823.823,0,0,1-.662.724l-.032-.064a.738.738,0,0,0,.6-.66Zm-.662.724-.158.062.1-.094h.03Zm-.062-.032c.315-.347.315-.536.251-.788h.1a.811.811,0,0,1-.284.82Zm.251-.788a2.368,2.368,0,0,1,.348-1.577l.063.032a2.2,2.2,0,0,0-.316,1.545Z"/><path class="f" d="M152.714,148.369a3.574,3.574,0,0,0-.5,1.577l-.1-.031a4.328,4.328,0,0,1,.537-1.577Zm-.5,1.577c-.063.41-.127.725-.505.883l-.032-.064c.347-.157.378-.443.442-.85Z"/><path class="e" d="M153.219,147.141l-.126-1.641c1.481-1.071.568-1.7,1.64-2.048-.7.756.222.756-.6,2.364"/><path class="f" d="M153.156,147.141l-.094-1.609.063-.032.127,1.641Zm-.094-1.609V145.5h.031Zm0-.032a1.97,1.97,0,0,0,.975-1.354l.1.03a2.192,2.192,0,0,1-1.009,1.356Zm.975-1.354a.857.857,0,0,1,.664-.727l.032.063a.746.746,0,0,0-.6.694Zm.664-.727.158-.031-.095.094-.031-.03Zm.063.063c-.316.347-.316.505-.251.758l-.1.031a.854.854,0,0,1,.284-.852Zm-.251.758a2.492,2.492,0,0,1-.349,1.607l-.062-.031a2.219,2.219,0,0,0,.315-1.545Z"/><path class="f" d="M153.692,145.878a4.286,4.286,0,0,0,.536-1.545h.063a4.178,4.178,0,0,1-.536,1.577Zm.536-1.545c.063-.439.1-.725.473-.914l.032.063c-.347.158-.381.443-.442.851Z"/><path class="e" d="M153.219,147.141l-1.641.093c-1.07-1.481-1.7-.567-2.049-1.639.757.725.725-.19,2.365.6"/><path class="f" d="M153.219,147.171l-1.641.126v-.1l1.609-.1Zm-1.641.126h0l-.031-.03.031-.033Zm-.031-.03a1.978,1.978,0,0,0-1.323-.978v-.064a2.029,2.029,0,0,1,1.386,1.009Zm-1.323-.978a.851.851,0,0,1-.726-.661l.062-.033a.826.826,0,0,0,.664.63Zm-.726-.661-.063-.128.125.1h-.031Zm.062-.033a.748.748,0,0,0,.758.252l.031.063a.854.854,0,0,1-.851-.282Zm.758.252a2.2,2.2,0,0,1,1.609.315l-.065.063a2.343,2.343,0,0,0-1.513-.315Z"/><path class="f" d="M151.958,146.667a3.7,3.7,0,0,0-1.546-.535v-.1a3.874,3.874,0,0,1,1.577.567Zm-1.546-.535c-.442-.065-.725-.126-.914-.5l.062-.033c.159.347.442.411.852.44Z"/><path class="e" d="M153.219,147.141l1.609-.127c1.07,1.481,1.7.6,2.048,1.639-.756-.7-.726.221-2.363-.6"/><path class="f" d="M153.187,147.106l1.641-.125v.064l-1.609.126Zm1.641-.125h.031l-.031.033Zm.031,0a2.064,2.064,0,0,0,1.324,1.01v.062a2.141,2.141,0,0,1-1.388-1.008Zm1.324,1.01a.774.774,0,0,1,.725.662h-.062a.747.747,0,0,0-.663-.6Zm.725.662.063.127-.125-.1.03-.032Zm-.062.032a.728.728,0,0,0-.758-.253l-.031-.063a.77.77,0,0,1,.851.251Zm-.758-.253a2.369,2.369,0,0,1-1.575-.346l.029-.063a2.251,2.251,0,0,0,1.515.346Z"/><path class="f" d="M154.448,147.612a4.176,4.176,0,0,0,1.577.536l-.031.064a3.847,3.847,0,0,1-1.577-.536Zm1.577.536c.41.064.694.093.883.505l-.062.032c-.159-.379-.442-.41-.852-.473Z"/><path class="e" d="M153.219,147.141l-1.072,1.228c-1.829-.316-1.639.79-2.618.284,1.041-.033.379-.662,2.081-1.261"/><path class="f" d="M153.219,147.141l-1.041,1.228-.063-.031,1.072-1.232Zm-1.041,1.228-.031.03v-.03Zm-.031.03a2.006,2.006,0,0,0-1.639.254l-.065-.062a2.139,2.139,0,0,1,1.7-.285Zm-1.639.254a.882.882,0,0,1-1.01.032l.031-.065a.779.779,0,0,0,.914-.029Zm-1.01.032-.127-.065h.158v.033Zm.031-.065a.743.743,0,0,0,.725-.379l.064.065a.78.78,0,0,1-.789.379Zm.725-.379a2.414,2.414,0,0,1,1.356-.882l.033.064a2.15,2.15,0,0,0-1.325.883Z"/><path class="f" d="M151.989,147.676a4,4,0,0,0-1.481.723l-.033-.061a4,4,0,0,1,1.483-.726Zm-1.481.723c-.349.254-.57.443-.979.286v-.065c.379.127.6-.029.946-.282Z"/><path class="e" d="M153.219,147.141l1.04-1.231c1.829.284,1.639-.82,2.617-.315-1.039.033-.378.694-2.081,1.261"/><path class="f" d="M153.187,147.106l1.041-1.228.063.064-1.072,1.2Zm1.041-1.228h.031v.032Zm.031,0a2.156,2.156,0,0,0,1.639-.25l.063.062a2.186,2.186,0,0,1-1.7.252Zm1.639-.25a.879.879,0,0,1,1.01-.063l-.032.063a.77.77,0,0,0-.915.062Zm1.01-.063.127.063-.159.029V145.6Zm-.032.092a.743.743,0,0,0-.726.349l-.062-.032a.879.879,0,0,1,.788-.409Zm-.726.349a2.4,2.4,0,0,1-1.355.882l-.031-.064a2.168,2.168,0,0,0,1.324-.85Z"/><path class="f" d="M154.417,146.572a3.216,3.216,0,0,0,1.481-.725l.034.063a3.572,3.572,0,0,1-1.484.757Zm1.481-.725c.349-.252.6-.408.978-.282v.063c-.378-.128-.6.062-.944.282Z"/><path class="e" d="M153.219,147.141l-1.23-1.074c.282-1.827-.82-1.638-.316-2.615.032,1.041.694.378,1.262,2.08"/><path class="f" d="M153.187,147.171l-1.229-1.072.062-.064,1.2,1.071Zm-1.229-1.072h0v-.032h.031Zm0-.032a2.309,2.309,0,0,0-.253-1.638l.063-.031a2.224,2.224,0,0,1,.252,1.669Zm-.253-1.638a.781.781,0,0,1-.062-.977l.062.03a.788.788,0,0,0,.063.916Zm-.062-.977.062-.127v.127h-.062Zm.062,0a.749.749,0,0,0,.378.724l-.032.064a.84.84,0,0,1-.408-.788Zm.378.724a2.387,2.387,0,0,1,.883,1.356l-.063.033a2.449,2.449,0,0,0-.852-1.325Z"/><path class="f" d="M152.652,145.91a3.241,3.241,0,0,0-.725-1.481l.062-.031a3.5,3.5,0,0,1,.758,1.512Zm-.725-1.481c-.254-.348-.411-.568-.284-.977h.062c-.127.377.032.6.284.946Z"/><path class="e" d="M153.219,147.141l1.2,1.039c-.283,1.829.82,1.639.316,2.617-.032-1.009-.7-.347-1.26-2.081"/><path class="f" d="M153.219,147.106l1.229,1.042-.031.064-1.23-1.041Zm1.229,1.042.031.032-.031.032-.031-.032Zm0,.064a2.344,2.344,0,0,0,.253,1.639l-.064.032a2.331,2.331,0,0,1-.251-1.7Zm.253,1.639a.782.782,0,0,1,.063.978l-.063-.032a.778.778,0,0,0-.064-.914Zm.063.978-.063.126V150.8h.032Zm-.063-.032a.789.789,0,0,0-.378-.724l.029-.033a.782.782,0,0,1,.412.757Zm-.378-.724c-.253-.158-.568-.412-.883-1.357h.063a2.626,2.626,0,0,0,.849,1.324Z"/><path class="f" d="M153.755,148.338a3.585,3.585,0,0,0,.724,1.481l-.062.064a3.537,3.537,0,0,1-.725-1.514Zm.724,1.481a1.028,1.028,0,0,1,.285,1.01l-.063-.032c.127-.378-.032-.6-.284-.914Z"/><path class="e" d="M153.219,147.141h.693l-.693,3.972-.726-3.972h.726v3.972"/><path class="f" d="M153.219,147.106h.693v.065h-.693Zm.693,0h.063v.035h-.063Zm.063.035-.723,3.971h-.1l.725-3.971Zm-.723,3.971-.033.19-.063-.19h.1Zm-.1,0-.724-3.971h.093l.727,3.971Zm-.724-4.006h.061v.035h-.061Zm.061,0h.726v.065h-.726Zm.726,0h.033v.035h-.033Zm.033,4.006h-.1v-3.971h.1Z"/><path class="e" d="M153.219,147.141h-.726l.726-4,.693,4h-.693v-4"/><path class="f" d="M153.219,147.171h-.726v-.065h.726Zm-.726,0h-.061v-.03h.061Zm-.061-.03.724-4.005.1.032-.727,3.973Zm.724-4.005.063-.19.033.19h-.1Zm.1,0,.723,4.005h-.094l-.725-3.973Zm.723,4.035h-.063v-.03h.063Zm-.063,0h-.693v-.065h.693Zm-.693,0h-.063v-.03h.063Zm-.063-4.035h.1v4.005h-.1Z"/><path class="e" d="M153.219,147.141v.724l-4-.724,4-.727v.727h-4"/><path class="f" d="M153.252,147.864h-.1v-.723h.1Zm0,0v.032h-.065l.032-.032Zm-.065.032-3.973-.725.032-.065,3.973.728Zm-3.973-.725-.191-.03.191-.035v.065Zm0-.065,3.973-.723.032.063-3.973.725Zm3.973-.723.065-.032v.063h-.033Zm.065.758h-.1v-.727h.1Zm0,.03h-.033v-.03h.033Zm-.033,0h-4v-.065h4Z"/><path class="e" d="M153.219,147.141v-.727l3.974.727-3.974.724v-.724h3.974"/><path class="f" d="M153.156,146.414h.1v.727h-.1Zm0,0v-.063l.063.032v.031Zm.063-.031,3.973.723-.031.065-3.974-.725Zm3.973.723.191.035-.191.03v-.065Zm0,.065-3.973.725-.032-.062,3.974-.728Zm-3.973.725h-.063v-.032h.063Zm-.063-.755h.1v.723h-.1Zm0-.035h.063v.035h-.063Zm.063,0h3.973v.065h-3.973Z"/><path class="e" d="M153.219,147.141l.5.5-3.343,2.3,2.3-3.344.536.538-2.838,2.806"/><path class="f" d="M153.219,147.106l.536.506-.063.064-.505-.5Zm.536.506.031.033-.062.031v-.031Zm-.031.064-3.312,2.3-.031-.062,3.311-2.3Zm-3.312,2.3-.158.128.1-.19.032.031Zm-.063-.062,2.3-3.313.062.032-2.3,3.343Zm2.3-3.313.031-.03.031.03h-.062Zm.062,0,.5.5-.032.065-.535-.537Zm.5.5.033.035-.033.03v-.065Zm0,.065-2.807,2.806-.031-.062,2.806-2.809Z"/><path class="e" d="M153.219,147.141l-.536-.538,3.343-2.3-2.3,3.341-.5-.5,2.807-2.837"/><path class="f" d="M153.187,147.171l-.535-.537.062-.032.5.5Zm-.535-.537V146.6h.031Zm.031-.032,3.311-2.331.031.062-3.311,2.3Zm3.311-2.331.156-.1-.093.157-.032-.029Zm.063.062-2.3,3.343-.063-.064,2.3-3.308Zm-2.3,3.343-.031.033-.032-.033.032-.031Zm-.063,0-.505-.5.032-.065.536.506Zm-.505-.5-.031-.03.031-.035.032.035Zm0-.065,2.807-2.8.063.029-2.838,2.838Z"/><path class="e" d="M153.219,147.141l-.536.5-2.3-3.341,3.343,2.3-.5.538-2.838-2.837"/><path class="f" d="M153.219,147.171l-.5.5-.062-.064.535-.506Zm-.5.5-.031.033-.031-.033.031-.031Zm-.062,0-2.3-3.343.063-.029,2.3,3.308Zm-2.3-3.343-.1-.157.158.1-.031.033Zm.063-.062,3.312,2.331-.032.032-3.311-2.3Zm3.312,2.331h.062l-.031.032Zm.031.032-.536.537-.032-.065.505-.5Zm-.536.537h-.032l.032-.03Zm-.032,0-2.806-2.838.031-.029,2.807,2.8Z"/><path class="e" d="M153.219,147.141l.5-.538,2.3,3.344-3.343-2.3.536-.5,2.807,2.806"/><path class="f" d="M153.187,147.106l.505-.5.063.032-.536.537Zm.505-.5.032-.03.031.03h-.063Zm.063,0,2.3,3.313-.063.062-2.3-3.343Zm2.3,3.313.093.19-.156-.128.031-.031Zm-.063.062-3.311-2.3.031-.064,3.311,2.3Zm-3.311-2.3-.031-.031v-.033l.031.033Zm-.031-.064.535-.506.032.065-.5.5Zm.535-.506.032-.03v.065Zm.032,0,2.838,2.809-.063.062-2.807-2.806Z"/><path class="e" d="M154.542,147.141a1.34,1.34,0,0,0-2.68,0,1.34,1.34,0,0,0,2.68,0"/><path class="f" d="M154.479,147.141a1.177,1.177,0,0,0-.377-.916l.062-.063a1.384,1.384,0,0,1,.41.979Zm-.377-.916a1.148,1.148,0,0,0-.883-.378v-.094a1.362,1.362,0,0,1,.945.409Zm-.883-.378a1.166,1.166,0,0,0-.914.378l-.063-.063a1.377,1.377,0,0,1,.977-.409Zm-.914.378a1.165,1.165,0,0,0-.378.916h-.1a1.385,1.385,0,0,1,.411-.979Zm-.378.916a1.251,1.251,0,0,0,.378.912l-.063.033a1.307,1.307,0,0,1-.411-.945Zm.378.912a1.273,1.273,0,0,0,.914.379v.063a1.377,1.377,0,0,1-.977-.409Zm.914.379a1.258,1.258,0,0,0,.883-.379l.062.033a1.362,1.362,0,0,1-.945.409Zm.883-.379a1.266,1.266,0,0,0,.377-.912h.1a1.306,1.306,0,0,1-.41.945Z"/><path class="g" d="M154.164,146.6c-.062.1-.127-.063-.409-.063-.315,0-.347.159-.409.128-.032-.033.251-.253.346-.253a.617.617,0,0,1,.472.188"/><path class="g" d="M153.818,146.7c.094.1.031.254-.063.254s-.252-.159-.158-.254"/><path class="g" d="M153.44,146.824c0-.157.127-.19.315-.19s.282.159.347.19c-.065,0-.159-.126-.347-.126s-.188,0-.315.126"/><path class="g" d="M153.473,146.856c.03-.063.094.063.251.063a.441.441,0,0,0,.284-.1c.062-.061-.127.157-.253.157s-.315-.093-.282-.125"/><path class="g" d="M153.881,146.919c.156-.063.062-.19,0-.221.031.031.127.158,0,.221"/><path class="g" d="M153.219,147.645c.062,0,.1-.033.189-.033s.316.159.441.1c-.282.125-.157.029-.63.029h-.063"/><path class="g" d="M153.912,147.834a1.545,1.545,0,0,0-.157-.222.328.328,0,0,1,.157.222"/><path class="g" d="M153.219,147.927c.284,0,.254-.063.63-.218a4.773,4.773,0,0,1-.63.125h-.063"/><path class="g" d="M153.219,147.486c.062,0,.1-.063.189-.063a.434.434,0,0,1,.284.1c.032,0-.031-.1-.125-.1-.094-.031-.064-.189-.159-.221,0,.065.032.065.032.128s-.094.062-.126,0c.032.093-.062.093-.1.093"/><path class="g" d="M152.242,146.6c.063.1.125-.063.41-.063.314,0,.346.159.41.128.031-.033-.252-.253-.348-.253a.617.617,0,0,0-.472.188"/><path class="g" d="M152.588,146.7c-.1.1-.032.254.064.254s.251-.159.158-.254"/><path class="g" d="M152.966,146.824c0-.157-.127-.19-.314-.19s-.285.159-.347.19c.093,0,.156-.126.347-.126s.187,0,.314.126"/><path class="g" d="M152.935,146.856c-.032-.063-.1.063-.252.063a.438.438,0,0,1-.285-.1c-.062-.061.127.157.254.157.158,0,.314-.093.283-.125"/><path class="g" d="M152.525,146.919c-.158-.063-.064-.19,0-.221-.032.031-.127.158,0,.221"/><path class="g" d="M153.219,147.645c-.094,0-.126-.033-.221-.033s-.315.159-.442.1c.283.125.158.029.663.029h.033"/><path class="g" d="M152.493,147.834a2.427,2.427,0,0,0,.159-.222.488.488,0,0,0-.159.222"/><path class="g" d="M153.219,147.927c-.316,0-.253-.063-.663-.218a4.386,4.386,0,0,0,.663.125h.033"/><path class="g" d="M153.219,147.486c-.094,0-.126-.063-.221-.063a.434.434,0,0,0-.284.1c-.031,0,.033-.1.125-.1.1-.031.064-.189.159-.221,0,.065-.032.065-.032.128s.1.062.127,0c-.031.093.063.093.126.093"/><path class="g" d="M153.219,148.053c-.063,0-.221.033,0,.033.189,0,.033-.033,0-.033"/></g></g></g></svg>