<svg xmlns="http://www.w3.org/2000/svg" xmlns:xlink="http://www.w3.org/1999/xlink" width="33.563" height="19.577" viewBox="0 0 33.563 19.577"><defs><style>.a{fill:none;}.b{clip-path:url(#a);}.c{fill:#eed12f;}.d{fill:#242ea7;}.e{fill:#bd0034;}.f{fill:#fff;}</style><clipPath id="a"><rect class="a" width="33.563" height="19.577" transform="translate(199.888 141.686)"/></clipPath></defs><g transform="translate(-199.888 -141.686)"><g class="b"><rect class="c" width="33.563" height="6.525" transform="translate(199.888 141.686)"/><rect class="d" width="33.563" height="6.526" transform="translate(199.888 148.212)"/><rect class="e" width="33.563" height="6.525" transform="translate(199.888 154.738)"/><path class="f" d="M215.207,150.534l.262-1.856.881,1.656-1.686-.822,1.847-.326Z"/><path class="f" d="M216.986,150.334l.881-1.656.262,1.856-1.3-1.349,1.847.326Z"/><path class="f" d="M213.605,151.335l-.391-1.838,1.394,1.256-1.866-.2,1.627-.939Z"/><path class="f" d="M218.727,150.753l1.395-1.256-.391,1.838-.764-1.716,1.626.939Z"/><path class="f" d="M212.371,152.632l-.994-1.594,1.74.7-1.821.454,1.208-1.436Z"/><path class="f" d="M220.219,151.741l1.74-.7-.994,1.594-.131-1.873,1.206,1.436Z"/><path class="f" d="M211.656,154.273l-1.479-1.156,1.876.065-1.556,1.052.642-1.765Z"/><path class="f" d="M221.284,153.182l1.874-.065-1.477,1.156.517-1.8.641,1.765Z"/></g></g></svg>